<svg width="175" height="176" viewBox="0 0 175 176" fill="none" xmlns="http://www.w3.org/2000/svg">
<g filter="url(#filter0_d_1139_4740)">
<circle cx="87.5" cy="84.4114" r="78.5" fill="white"/>
</g>
<path d="M73.2539 86.0664L71.0039 85.5156L71.9297 76.9375H81.1289V79.3281H74.2734L73.8047 83.5117C74.0703 83.3555 74.4375 83.2031 74.9062 83.0547C75.375 82.8984 75.9102 82.8203 76.5117 82.8203C77.3164 82.8203 78.0352 82.9531 78.668 83.2188C79.3086 83.4766 79.8516 83.8555 80.2969 84.3555C80.7422 84.8477 81.082 85.4492 81.3164 86.1602C81.5508 86.8633 81.668 87.6562 81.668 88.5391C81.668 89.3281 81.5508 90.0664 81.3164 90.7539C81.0898 91.4414 80.7461 92.0469 80.2852 92.5703C79.8242 93.0938 79.2422 93.5039 78.5391 93.8008C77.8438 94.0898 77.0195 94.2344 76.0664 94.2344C75.3555 94.2344 74.6719 94.1328 74.0156 93.9297C73.3672 93.7188 72.7852 93.4102 72.2695 93.0039C71.7539 92.5898 71.3398 92.082 71.0273 91.4805C70.7148 90.8711 70.5352 90.1719 70.4883 89.3828H73.2539C73.3242 89.9375 73.4766 90.4102 73.7109 90.8008C73.9531 91.1836 74.2734 91.4766 74.6719 91.6797C75.0703 91.8828 75.5312 91.9844 76.0547 91.9844C76.5312 91.9844 76.9414 91.9023 77.2852 91.7383C77.6289 91.5664 77.9141 91.3242 78.1406 91.0117C78.375 90.6914 78.5469 90.3164 78.6562 89.8867C78.7734 89.457 78.832 88.9805 78.832 88.457C78.832 87.957 78.7656 87.5 78.6328 87.0859C78.5078 86.6719 78.3164 86.3125 78.0586 86.0078C77.8086 85.7031 77.4922 85.4688 77.1094 85.3047C76.7266 85.1328 76.2852 85.0469 75.7852 85.0469C75.1133 85.0469 74.5977 85.1445 74.2383 85.3398C73.8867 85.5352 73.5586 85.7773 73.2539 86.0664ZM95.0508 84.0391V86.8281C95.0508 88.1641 94.918 89.3047 94.6523 90.25C94.3945 91.1875 94.0195 91.9492 93.5273 92.5352C93.0352 93.1211 92.4453 93.5508 91.7578 93.8242C91.0781 94.0977 90.3164 94.2344 89.4727 94.2344C88.8008 94.2344 88.1758 94.1484 87.5977 93.9766C87.0273 93.8047 86.5117 93.5352 86.0508 93.168C85.5898 92.8008 85.1953 92.3281 84.8672 91.75C84.5469 91.1641 84.2969 90.4648 84.1172 89.6523C83.9453 88.8398 83.8594 87.8984 83.8594 86.8281V84.0391C83.8594 82.6953 83.9922 81.5625 84.2578 80.6406C84.5234 79.7109 84.9023 78.957 85.3945 78.3789C85.8867 77.793 86.4727 77.3672 87.1523 77.1016C87.8398 76.8359 88.6055 76.7031 89.4492 76.7031C90.1289 76.7031 90.7539 76.7891 91.3242 76.9609C91.9023 77.125 92.418 77.3867 92.8711 77.7461C93.332 78.1055 93.7227 78.5742 94.043 79.1523C94.3711 79.7227 94.6211 80.4141 94.793 81.2266C94.9648 82.0312 95.0508 82.9688 95.0508 84.0391ZM92.2266 87.2266V83.6172C92.2266 82.9375 92.1875 82.3398 92.1094 81.8242C92.0312 81.3008 91.9141 80.8594 91.7578 80.5C91.6094 80.1328 91.4219 79.8359 91.1953 79.6094C90.9688 79.375 90.7109 79.207 90.4219 79.1055C90.1328 78.9961 89.8086 78.9414 89.4492 78.9414C89.0117 78.9414 88.6211 79.0273 88.2773 79.1992C87.9336 79.3633 87.6445 79.6289 87.4102 79.9961C87.1758 80.3633 86.9961 80.8477 86.8711 81.4492C86.7539 82.043 86.6953 82.7656 86.6953 83.6172V87.2266C86.6953 87.9141 86.7344 88.5195 86.8125 89.043C86.8906 89.5664 87.0078 90.0156 87.1641 90.3906C87.3203 90.7578 87.5078 91.0625 87.7266 91.3047C87.9531 91.5391 88.2109 91.7109 88.5 91.8203C88.7969 91.9297 89.1211 91.9844 89.4727 91.9844C89.918 91.9844 90.3125 91.8984 90.6562 91.7266C91 91.5547 91.2891 91.2812 91.5234 90.9062C91.7578 90.5234 91.9336 90.0273 92.0508 89.418C92.168 88.8086 92.2266 88.0781 92.2266 87.2266ZM97.4531 81.1211V80.2188C97.4531 79.5703 97.5938 78.9805 97.875 78.4492C98.1562 77.918 98.5664 77.4922 99.1055 77.1719C99.6445 76.8516 100.293 76.6914 101.051 76.6914C101.832 76.6914 102.488 76.8516 103.02 77.1719C103.559 77.4922 103.969 77.918 104.25 78.4492C104.531 78.9805 104.672 79.5703 104.672 80.2188V81.1211C104.672 81.7539 104.531 82.3359 104.25 82.8672C103.977 83.3984 103.57 83.8242 103.031 84.1445C102.5 84.4648 101.848 84.625 101.074 84.625C100.309 84.625 99.6523 84.4648 99.1055 84.1445C98.5664 83.8242 98.1562 83.3984 97.875 82.8672C97.5938 82.3359 97.4531 81.7539 97.4531 81.1211ZM99.4102 80.2188V81.1211C99.4102 81.4336 99.4688 81.7305 99.5859 82.0117C99.7109 82.293 99.8984 82.5195 100.148 82.6914C100.398 82.8633 100.707 82.9492 101.074 82.9492C101.449 82.9492 101.754 82.8633 101.988 82.6914C102.23 82.5195 102.41 82.293 102.527 82.0117C102.645 81.7305 102.703 81.4336 102.703 81.1211V80.2188C102.703 79.8984 102.641 79.5977 102.516 79.3164C102.398 79.0273 102.219 78.7969 101.977 78.625C101.734 78.4531 101.426 78.3672 101.051 78.3672C100.691 78.3672 100.387 78.4531 100.137 78.625C99.8945 78.7969 99.7109 79.0273 99.5859 79.3164C99.4688 79.5977 99.4102 79.8984 99.4102 80.2188ZM105.68 90.7305V89.8164C105.68 89.1758 105.82 88.5898 106.102 88.0586C106.391 87.5273 106.805 87.1016 107.344 86.7812C107.883 86.4609 108.531 86.3008 109.289 86.3008C110.07 86.3008 110.727 86.4609 111.258 86.7812C111.797 87.1016 112.203 87.5273 112.477 88.0586C112.758 88.5898 112.898 89.1758 112.898 89.8164V90.7305C112.898 91.3711 112.758 91.957 112.477 92.4883C112.203 93.0195 111.801 93.4453 111.27 93.7656C110.738 94.0859 110.09 94.2461 109.324 94.2461C108.551 94.2461 107.891 94.0859 107.344 93.7656C106.805 93.4453 106.391 93.0195 106.102 92.4883C105.82 91.957 105.68 91.3711 105.68 90.7305ZM107.648 89.8164V90.7305C107.648 91.043 107.711 91.3398 107.836 91.6211C107.969 91.9023 108.16 92.1328 108.41 92.3125C108.66 92.4844 108.961 92.5703 109.312 92.5703C109.711 92.5703 110.031 92.4844 110.273 92.3125C110.516 92.1328 110.688 91.9062 110.789 91.6328C110.898 91.3516 110.953 91.0508 110.953 90.7305V89.8164C110.953 89.4961 110.891 89.1953 110.766 88.9141C110.648 88.6328 110.465 88.4062 110.215 88.2344C109.973 88.0625 109.664 87.9766 109.289 87.9766C108.922 87.9766 108.617 88.0625 108.375 88.2344C108.133 88.4062 107.949 88.6328 107.824 88.9141C107.707 89.1953 107.648 89.4961 107.648 89.8164ZM109.992 79.375L101.66 92.7109L100.219 91.8789L108.551 78.543L109.992 79.375Z" fill="#3C3C3C"/>
<path d="M47.9052 132.977C54.4901 137.822 61.981 141.378 69.9502 143.442C77.9193 145.506 86.2108 146.038 94.351 145.006C102.491 143.975 110.321 141.401 117.393 137.431C124.465 133.462 130.641 128.174 135.568 121.87C140.495 115.567 144.077 108.37 146.109 100.692C148.142 93.0142 148.584 85.0048 147.412 77.1214C146.24 69.2379 143.476 61.6348 139.278 54.7461C135.08 47.8575 129.53 41.8182 122.945 36.973" stroke="#E8EFF2" stroke-width="7" stroke-linecap="round"/>
<path d="M136.657 51.2049C131.746 44.1165 125.371 38.1637 117.962 33.7482C110.553 29.3327 102.284 26.5572 93.7108 25.6091C85.1379 24.661 76.4614 25.5622 68.2666 28.2521C60.0719 30.9419 52.5496 35.3577 46.2074 41.2015C39.8652 47.0453 34.8507 54.1812 31.5021 62.1276C28.1536 70.074 26.549 78.646 26.7965 87.2653C27.0441 95.8845 29.1381 104.35 32.9373 112.092C36.7364 119.833 42.1523 126.67 48.8195 132.14" stroke="#7367F0" stroke-width="8" stroke-linecap="round"/>
<circle cx="50.5" cy="133.5" r="6.5" fill="#FFD772"/>
<defs>
<filter id="filter0_d_1139_4740" x="0" y="0.911377" width="175" height="175" filterUnits="userSpaceOnUse" color-interpolation-filters="sRGB">
<feFlood flood-opacity="0" result="BackgroundImageFix"/>
<feColorMatrix in="SourceAlpha" type="matrix" values="0 0 0 0 0 0 0 0 0 0 0 0 0 0 0 0 0 0 127 0" result="hardAlpha"/>
<feOffset dy="4"/>
<feGaussianBlur stdDeviation="4.5"/>
<feComposite in2="hardAlpha" operator="out"/>
<feColorMatrix type="matrix" values="0 0 0 0 0 0 0 0 0 0 0 0 0 0 0 0 0 0 0.25 0"/>
<feBlend mode="normal" in2="BackgroundImageFix" result="effect1_dropShadow_1139_4740"/>
<feBlend mode="normal" in="SourceGraphic" in2="effect1_dropShadow_1139_4740" result="shape"/>
</filter>
</defs>
</svg>
