<svg width="48" height="48" viewBox="0 0 48 48" fill="none" xmlns="http://www.w3.org/2000/svg">
<path fill-rule="evenodd" clip-rule="evenodd" d="M24 5.5C13.7827 5.5 5.5 13.7827 5.5 24V42.5H24C34.2173 42.5 42.5 34.2173 42.5 24C42.5 13.7827 34.2173 5.5 24 5.5ZM4 44L2.5 43.9998V24C2.5 12.1259 12.1259 2.5 24 2.5C35.8741 2.5 45.5 12.1259 45.5 24C45.5 35.8741 35.8741 45.5 24 45.5H4.00016L4 44ZM4 44L4.00016 45.5C3.17173 45.5 2.5 44.8283 2.5 43.9998L4 44Z" fill="url(#paint0_linear_658_3102)"/>
<path fill-rule="evenodd" clip-rule="evenodd" d="M34.0608 17.9393C34.6465 18.5251 34.6465 19.4749 34.0608 20.0607L21.0608 33.0607C20.475 33.6464 19.5252 33.6464 18.9394 33.0607L12.9393 27.0607C12.3536 26.4749 12.3535 25.5251 12.9393 24.9393C13.5251 24.3536 14.4749 24.3535 15.0607 24.9393L20.0001 29.8787L31.9394 17.9393C32.5252 17.3536 33.475 17.3536 34.0608 17.9393Z" fill="url(#paint1_linear_658_3102)"/>
<defs>
<linearGradient id="paint0_linear_658_3102" x1="24" y1="2.5" x2="24" y2="45.5" gradientUnits="userSpaceOnUse">
<stop stop-color="#367FD3"/>
<stop offset="1" stop-color="#2AA5DE"/>
</linearGradient>
<linearGradient id="paint1_linear_658_3102" x1="23.5" y1="17.5" x2="23.5" y2="33.5" gradientUnits="userSpaceOnUse">
<stop stop-color="#367FD3"/>
<stop offset="1" stop-color="#2AA5DE"/>
</linearGradient>
</defs>
</svg>
