<svg width="55" height="55" viewBox="0 0 55 55" fill="none" xmlns="http://www.w3.org/2000/svg">
<path fill-rule="evenodd" clip-rule="evenodd" d="M12.0312 14.8958C12.0312 9.51682 16.3918 5.15625 21.7708 5.15625C27.1499 5.15625 31.5104 9.51682 31.5104 14.8958C31.5104 20.2749 27.1499 24.6354 21.7708 24.6354C16.3918 24.6354 12.0312 20.2749 12.0312 14.8958ZM21.7708 8.59375C18.2903 8.59375 15.4688 11.4153 15.4688 14.8958C15.4688 18.3764 18.2903 21.1979 21.7708 21.1979C25.2514 21.1979 28.0729 18.3764 28.0729 14.8958C28.0729 11.4153 25.2514 8.59375 21.7708 8.59375Z" fill="url(#paint0_linear_653_3040)"/>
<path fill-rule="evenodd" clip-rule="evenodd" d="M37.0443 7.62934C37.8933 7.20483 38.9257 7.54896 39.3503 8.39799L37.813 9.16664C39.3503 8.39799 39.3499 8.39728 39.3503 8.39799L39.3517 8.4009L39.3534 8.4043L39.3575 8.41255L39.3683 8.43481L39.4001 8.50213C39.4256 8.55701 39.4593 8.63181 39.4994 8.72554C39.5794 8.91289 39.6848 9.17656 39.7997 9.50855C40.0292 10.1715 40.2989 11.1134 40.4782 12.269C40.8372 14.5825 40.8361 17.7745 39.4037 21.2757C39.0443 22.1543 38.0407 22.5752 37.1622 22.2158C36.2836 21.8563 35.8628 20.8528 36.2222 19.9742C37.368 17.1733 37.3669 14.6362 37.0813 12.7961C36.9384 11.8748 36.7247 11.1338 36.5513 10.633C36.4648 10.3831 36.3889 10.1947 36.338 10.0755C36.3126 10.0159 36.2935 9.97376 36.2824 9.95003L36.2722 9.92843L36.2735 9.93086" fill="url(#paint1_linear_653_3040)"/>
<path fill-rule="evenodd" clip-rule="evenodd" d="M44.9978 3.08086C45.8275 2.61987 46.8739 2.91884 47.3349 3.74862L45.8325 4.58332C47.3349 3.74862 47.3353 3.74935 47.3357 3.75011L47.3367 3.75182L47.3389 3.75589L47.3448 3.7666L47.3619 3.79829C47.3757 3.82395 47.394 3.85865 47.4165 3.90217C47.4614 3.98919 47.5228 4.11157 47.5968 4.26753C47.7447 4.57932 47.9434 5.02616 48.1617 5.59377C48.5979 6.72773 49.1153 8.35177 49.4598 10.3499C50.15 14.3531 50.1465 19.8711 47.3971 25.9195C47.0043 26.7837 45.9854 27.1658 45.1212 26.773C44.2571 26.3802 43.875 25.3613 44.2678 24.4971C46.6747 19.2018 46.6711 14.4073 46.0723 10.9339C45.7723 9.19378 45.3229 7.78852 44.9534 6.82776C44.7688 6.348 44.605 5.98112 44.4911 5.74103C44.4342 5.62105 44.3898 5.53295 44.3617 5.47848L44.3322 5.42229L44.3275 5.41358C44.3273 5.41322 44.3274 5.41341 44.3278 5.41415L44.3287 5.41567L44.3293 5.41674C43.8693 4.58716 44.1684 3.54162 44.9978 3.08086Z" fill="url(#paint2_linear_653_3040)"/>
<path fill-rule="evenodd" clip-rule="evenodd" d="M19.175 30.3646H24.3679C26.8708 30.3646 28.8542 30.3646 30.4529 30.4952C32.0877 30.6288 33.471 30.9074 34.7341 31.551C36.7824 32.5946 38.4477 34.26 39.4913 36.3082C40.1349 37.5713 40.4136 38.9546 40.5471 40.5895C40.6778 42.1882 40.6777 44.1716 40.6777 46.6744V48.125C40.6777 49.0743 39.9082 49.8438 38.959 49.8438H4.58398C3.63475 49.8438 2.86523 49.0743 2.86523 48.125L2.86523 46.6744C2.86522 44.1716 2.86521 42.1882 2.99583 40.5895C3.1294 38.9546 3.40809 37.5713 4.05168 36.3082C5.09528 34.26 6.76053 32.5947 8.80877 31.551C10.0719 30.9075 11.4552 30.6288 13.0901 30.4952C14.6888 30.3646 16.6722 30.3646 19.175 30.3646ZM10.3693 34.6139C8.96795 35.3279 7.82857 36.4674 7.11452 37.8688C6.75899 38.5665 6.53812 39.4471 6.42192 40.8694C6.30934 42.2472 6.30309 43.9907 6.30275 46.4063H37.2402C37.2399 43.9907 37.2336 42.2472 37.1211 40.8694C37.0049 39.4471 36.784 38.5666 36.4285 37.8688C35.7145 36.4674 34.575 35.3279 33.1736 34.6139M10.3693 34.6139C11.0671 34.2584 11.9477 34.0375 13.37 33.9213C14.8123 33.8035 16.6554 33.8021 19.2507 33.8021H24.2923C26.8876 33.8021 28.7307 33.8035 30.173 33.9213C31.5952 34.0375 32.4759 34.2584 33.1736 34.6139" fill="url(#paint3_linear_653_3040)"/>
<defs>
<linearGradient id="paint0_linear_653_3040" x1="21.7708" y1="5.15625" x2="21.7708" y2="24.6354" gradientUnits="userSpaceOnUse">
<stop stop-color="#367FD3"/>
<stop offset="1" stop-color="#2AA5DE"/>
</linearGradient>
<linearGradient id="paint1_linear_653_3040" x1="38.3856" y1="7.44751" x2="38.3856" y2="22.3442" gradientUnits="userSpaceOnUse">
<stop stop-color="#367FD3"/>
<stop offset="1" stop-color="#2AA5DE"/>
</linearGradient>
<linearGradient id="paint2_linear_653_3040" x1="46.978" y1="2.86426" x2="46.978" y2="26.9275" gradientUnits="userSpaceOnUse">
<stop stop-color="#367FD3"/>
<stop offset="1" stop-color="#2AA5DE"/>
</linearGradient>
<linearGradient id="paint3_linear_653_3040" x1="21.7715" y1="30.3646" x2="21.7715" y2="49.8438" gradientUnits="userSpaceOnUse">
<stop stop-color="#367FD3"/>
<stop offset="1" stop-color="#2AA5DE"/>
</linearGradient>
</defs>
</svg>
