<svg width="65" height="58" viewBox="0 0 65 58" fill="none" xmlns="http://www.w3.org/2000/svg">
<path fill-rule="evenodd" clip-rule="evenodd" d="M22.5582 6.43943C22.9023 5.82538 23.6056 5.4375 24.375 5.4375H40.625C41.3944 5.4375 42.0977 5.82538 42.4418 6.43943L46.5043 13.6894C46.8191 14.2513 46.7855 14.9185 46.4154 15.4529C46.0453 15.9872 45.3915 16.3125 44.6875 16.3125H20.3125C19.6085 16.3125 18.9547 15.9872 18.5846 15.4529C18.2145 14.9185 18.1809 14.2513 18.4957 13.6894L22.5582 6.43943ZM25.6304 9.0625L23.5991 12.6875H41.4009L39.3696 9.0625H25.6304Z" fill="url(#paint0_linear_653_3054)"/>
<path fill-rule="evenodd" clip-rule="evenodd" d="M3.38477 17.8833C3.38477 14.898 6.24731 12.6875 9.47852 12.6875H55.5202C58.7515 12.6875 61.6139 14.898 61.6139 17.8833V47.3667C61.6139 50.352 58.7515 52.5625 55.5202 52.5625H9.47852C6.24731 52.5625 3.38477 50.352 3.38477 47.3667V17.8833ZM9.47852 16.3125C8.22242 16.3125 7.44727 17.1315 7.44727 17.8833V47.3667C7.44727 48.1185 8.22242 48.9375 9.47852 48.9375H55.5202C56.7763 48.9375 57.5514 48.1185 57.5514 47.3667V17.8833C57.5514 17.1315 56.7763 16.3125 55.5202 16.3125H9.47852Z" fill="url(#paint1_linear_653_3054)"/>
<path fill-rule="evenodd" clip-rule="evenodd" d="M43.334 21.1459C44.4558 21.1459 45.3652 21.9574 45.3652 22.9584V32.625C45.3652 33.6261 44.4558 34.4375 43.334 34.4375C42.2122 34.4375 41.3027 33.6261 41.3027 32.625V22.9584C41.3027 21.9574 42.2122 21.1459 43.334 21.1459Z" fill="url(#paint2_linear_653_3054)"/>
<path fill-rule="evenodd" clip-rule="evenodd" d="M21.666 30.8125C22.7878 30.8125 23.6973 31.624 23.6973 32.625V42.2917C23.6973 43.2927 22.7878 44.1042 21.666 44.1042C20.5442 44.1042 19.6348 43.2927 19.6348 42.2917V32.625C19.6348 31.624 20.5442 30.8125 21.666 30.8125Z" fill="url(#paint3_linear_653_3054)"/>
<path fill-rule="evenodd" clip-rule="evenodd" d="M21.666 30.8125C22.7878 30.8125 23.6973 31.624 23.6973 32.625C23.6973 36.9628 27.6381 40.4792 32.4993 40.4792C33.6704 40.4792 34.7832 40.2761 35.7997 39.9089C36.8396 39.5333 38.0238 39.9811 38.4447 40.9089C38.8656 41.8368 38.3639 42.8935 37.324 43.2691C35.8315 43.8082 34.2016 44.1042 32.4993 44.1042C25.3944 44.1042 19.6348 38.9648 19.6348 32.625C19.6348 31.624 20.5442 30.8125 21.666 30.8125Z" fill="url(#paint4_linear_653_3054)"/>
<path fill-rule="evenodd" clip-rule="evenodd" d="M27.6759 21.9809C29.1684 21.4418 30.7983 21.1459 32.5005 21.1459C39.6055 21.1459 45.3651 26.2852 45.3651 32.625C45.3651 33.6261 44.4557 34.4375 43.3339 34.4375C42.212 34.4375 41.3026 33.6261 41.3026 32.625C41.3026 28.2873 37.3618 24.7709 32.5005 24.7709C31.3295 24.7709 30.2166 24.974 29.2002 25.3411C28.1603 25.7167 26.9761 25.269 26.5552 24.3411C26.1343 23.4132 26.636 22.3565 27.6759 21.9809Z" fill="url(#paint5_linear_653_3054)"/>
<defs>
<linearGradient id="paint0_linear_653_3054" x1="32.5" y1="5.4375" x2="32.5" y2="16.3125" gradientUnits="userSpaceOnUse">
<stop stop-color="#367FD3"/>
<stop offset="1" stop-color="#2AA5DE"/>
</linearGradient>
<linearGradient id="paint1_linear_653_3054" x1="32.4993" y1="12.6875" x2="32.4993" y2="52.5625" gradientUnits="userSpaceOnUse">
<stop stop-color="#367FD3"/>
<stop offset="1" stop-color="#2AA5DE"/>
</linearGradient>
<linearGradient id="paint2_linear_653_3054" x1="43.334" y1="21.1459" x2="43.334" y2="34.4375" gradientUnits="userSpaceOnUse">
<stop stop-color="#367FD3"/>
<stop offset="1" stop-color="#2AA5DE"/>
</linearGradient>
<linearGradient id="paint3_linear_653_3054" x1="21.666" y1="30.8125" x2="21.666" y2="44.1042" gradientUnits="userSpaceOnUse">
<stop stop-color="#367FD3"/>
<stop offset="1" stop-color="#2AA5DE"/>
</linearGradient>
<linearGradient id="paint4_linear_653_3054" x1="29.1142" y1="30.8125" x2="29.1142" y2="44.1042" gradientUnits="userSpaceOnUse">
<stop stop-color="#367FD3"/>
<stop offset="1" stop-color="#2AA5DE"/>
</linearGradient>
<linearGradient id="paint5_linear_653_3054" x1="35.8857" y1="21.1459" x2="35.8857" y2="34.4375" gradientUnits="userSpaceOnUse">
<stop stop-color="#367FD3"/>
<stop offset="1" stop-color="#2AA5DE"/>
</linearGradient>
</defs>
</svg>
