<svg width="50" height="50" viewBox="0 0 50 50" fill="none" xmlns="http://www.w3.org/2000/svg">
<path fill-rule="evenodd" clip-rule="evenodd" d="M5.72852 6.25008C5.72852 4.23654 7.36081 2.60425 9.37435 2.60425H30.2077C31.0706 2.60425 31.7702 3.3038 31.7702 4.16675C31.7702 5.02969 31.0706 5.72925 30.2077 5.72925H9.37435C9.0867 5.72925 8.85352 5.96243 8.85352 6.25008V43.7501C8.85352 44.0378 9.08668 44.2709 9.37435 44.2709H38.541C38.8287 44.2709 39.0618 44.0378 39.0618 43.7501V20.8382C39.0618 19.9753 39.7614 19.2757 40.6243 19.2757C41.4873 19.2757 42.1868 19.9753 42.1868 20.8382V43.7501C42.1868 45.7637 40.5546 47.3959 38.541 47.3959H9.37435C7.36083 47.3959 5.72852 45.7637 5.72852 43.7501V6.25008Z" fill="url(#paint0_linear_1221_6230)"/>
<path fill-rule="evenodd" clip-rule="evenodd" d="M11.9785 18.75C11.9785 17.8871 12.6781 17.1875 13.541 17.1875H21.8743C22.7373 17.1875 23.4368 17.8871 23.4368 18.75C23.4368 19.6129 22.7373 20.3125 21.8743 20.3125H13.541C12.6781 20.3125 11.9785 19.6129 11.9785 18.75Z" fill="url(#paint1_linear_1221_6230)"/>
<path fill-rule="evenodd" clip-rule="evenodd" d="M11.9785 29.1667C11.9785 28.3038 12.6781 27.6042 13.541 27.6042H26.041C26.904 27.6042 27.6035 28.3038 27.6035 29.1667C27.6035 30.0297 26.904 30.7292 26.041 30.7292H13.541C12.6781 30.7292 11.9785 30.0297 11.9785 29.1667Z" fill="url(#paint2_linear_1221_6230)"/>
<path fill-rule="evenodd" clip-rule="evenodd" d="M43.8122 5.14587C44.4224 5.75606 44.4224 6.74538 43.8122 7.35558L31.3178 19.8502C30.7076 20.4604 29.7182 20.4604 29.108 19.8502C28.4978 19.24 28.4978 18.2507 29.108 17.6405L41.6025 5.14588C42.2127 4.53569 43.202 4.53568 43.8122 5.14587Z" fill="url(#paint3_linear_1221_6230)"/>
<defs>
<linearGradient id="paint0_linear_1221_6230" x1="23.9577" y1="2.60425" x2="23.9577" y2="47.3959" gradientUnits="userSpaceOnUse">
<stop stop-color="#367FD3"/>
<stop offset="1" stop-color="#2AA5DE"/>
</linearGradient>
<linearGradient id="paint1_linear_1221_6230" x1="17.7077" y1="17.1875" x2="17.7077" y2="20.3125" gradientUnits="userSpaceOnUse">
<stop stop-color="#367FD3"/>
<stop offset="1" stop-color="#2AA5DE"/>
</linearGradient>
<linearGradient id="paint2_linear_1221_6230" x1="19.791" y1="27.6042" x2="19.791" y2="30.7292" gradientUnits="userSpaceOnUse">
<stop stop-color="#367FD3"/>
<stop offset="1" stop-color="#2AA5DE"/>
</linearGradient>
<linearGradient id="paint3_linear_1221_6230" x1="36.4601" y1="4.68823" x2="36.4601" y2="20.3078" gradientUnits="userSpaceOnUse">
<stop stop-color="#367FD3"/>
<stop offset="1" stop-color="#2AA5DE"/>
</linearGradient>
</defs>
</svg>
