<svg width="58" height="58" viewBox="0 0 58 58" fill="none" xmlns="http://www.w3.org/2000/svg">
<path fill-rule="evenodd" clip-rule="evenodd" d="M6.64648 50.75C6.64648 49.749 7.45797 48.9375 8.45898 48.9375H51.959C52.96 48.9375 53.7715 49.749 53.7715 50.75C53.7715 51.751 52.96 52.5625 51.959 52.5625H8.45898C7.45797 52.5625 6.64648 51.751 6.64648 50.75Z" fill="url(#paint0_linear_1221_6224)"/>
<path fill-rule="evenodd" clip-rule="evenodd" d="M38.2973 5.4375C38.7782 5.43741 39.2395 5.62848 39.5795 5.96865L48.4063 14.7993C49.1137 15.507 49.1137 16.6542 48.4063 17.362L23.4145 42.3647C23.0746 42.7048 22.6135 42.8958 22.1326 42.8958H13.291C12.29 42.8958 11.4785 42.0843 11.4785 41.0833V32.2865C11.4785 31.8062 11.6692 31.3455 12.0086 31.0057L37.0152 5.96914C37.3551 5.62884 37.8163 5.43759 38.2973 5.4375ZM38.2981 9.81431L15.1035 33.0367V39.2708H21.3816L44.5616 16.0806L38.2981 9.81431Z" fill="url(#paint1_linear_1221_6224)"/>
<defs>
<linearGradient id="paint0_linear_1221_6224" x1="30.209" y1="48.9375" x2="30.209" y2="52.5625" gradientUnits="userSpaceOnUse">
<stop stop-color="#367FD3"/>
<stop offset="1" stop-color="#2AA5DE"/>
</linearGradient>
<linearGradient id="paint1_linear_1221_6224" x1="30.2077" y1="5.4375" x2="30.2077" y2="42.8958" gradientUnits="userSpaceOnUse">
<stop stop-color="#367FD3"/>
<stop offset="1" stop-color="#2AA5DE"/>
</linearGradient>
</defs>
</svg>
