<svg width="49" height="56" viewBox="0 0 49 56" fill="none" xmlns="http://www.w3.org/2000/svg">
<path fill-rule="evenodd" clip-rule="evenodd" d="M3.57227 9.33325C3.57227 6.43376 5.62896 4.08325 8.16602 4.08325H34.7077C37.2448 4.08325 39.3014 6.43378 39.3014 9.33325V39.6666C39.3014 42.5661 37.2448 44.9166 34.7077 44.9166H8.16602C5.62898 44.9166 3.57227 42.5662 3.57227 39.6666V9.33325ZM8.16602 7.58325C7.32033 7.58325 6.63477 8.36676 6.63477 9.33325V39.6666C6.63477 40.6331 7.32032 41.4166 8.16602 41.4166H34.7077C35.5534 41.4166 36.2389 40.6331 36.2389 39.6666V9.33325C36.2389 8.36674 35.5534 7.58325 34.7077 7.58325H8.16602Z" fill="url(#paint0_linear_1221_6240)"/>
<path fill-rule="evenodd" clip-rule="evenodd" d="M44.9156 13.4189C45.7613 13.4189 46.4468 14.2024 46.4468 15.1689V49.0001C46.4468 51.2551 44.8473 53.0834 42.8739 53.0834H13.2734C12.4278 53.0834 11.7422 52.2999 11.7422 51.3334C11.7422 50.3669 12.4278 49.5834 13.2734 49.5834H42.8739C43.1558 49.5834 43.3843 49.3222 43.3843 49.0001V15.1689C43.3843 14.2024 44.0699 13.4189 44.9156 13.4189Z" fill="url(#paint1_linear_1221_6240)"/>
<path fill-rule="evenodd" clip-rule="evenodd" d="M30.6719 17.084C31.2784 17.7576 31.2924 18.8655 30.703 19.5587L20.4944 31.5656C19.9162 32.2457 18.9692 32.2757 18.3589 31.6334L12.2342 25.1874C11.6121 24.5327 11.5722 23.4256 12.1451 22.7147C12.718 22.0037 13.6867 21.9581 14.3088 22.6128L19.3369 27.9047L28.5066 17.1196C29.096 16.4264 30.0654 16.4105 30.6719 17.084Z" fill="url(#paint2_linear_1221_6240)"/>
<defs>
<linearGradient id="paint0_linear_1221_6240" x1="21.4368" y1="4.08325" x2="21.4368" y2="44.9166" gradientUnits="userSpaceOnUse">
<stop stop-color="#367FD3"/>
<stop offset="1" stop-color="#2AA5DE"/>
</linearGradient>
<linearGradient id="paint1_linear_1221_6240" x1="29.0945" y1="13.4189" x2="29.0945" y2="53.0834" gradientUnits="userSpaceOnUse">
<stop stop-color="#367FD3"/>
<stop offset="1" stop-color="#2AA5DE"/>
</linearGradient>
<linearGradient id="paint2_linear_1221_6240" x1="21.4382" y1="16.5891" x2="21.4382" y2="32.0961" gradientUnits="userSpaceOnUse">
<stop stop-color="#367FD3"/>
<stop offset="1" stop-color="#2AA5DE"/>
</linearGradient>
</defs>
</svg>
