<svg width="52" height="52" viewBox="0 0 52 52" fill="none" xmlns="http://www.w3.org/2000/svg">
<path fill-rule="evenodd" clip-rule="evenodd" d="M4.875 8.66667C4.875 6.57259 6.57259 4.875 8.66667 4.875H17.3333C18.2308 4.875 18.9583 5.60254 18.9583 6.5C18.9583 7.39746 18.2308 8.125 17.3333 8.125H8.66667C8.36751 8.125 8.125 8.36751 8.125 8.66667V17.3333C8.125 18.2308 7.39746 18.9583 6.5 18.9583C5.60254 18.9583 4.875 18.2308 4.875 17.3333V8.66667Z" fill="url(#paint0_linear_1221_6249)"/>
<path fill-rule="evenodd" clip-rule="evenodd" d="M6.5 33.0417C7.39746 33.0417 8.125 33.7693 8.125 34.6667V43.3334C8.125 43.6326 8.3675 43.8751 8.66667 43.8751H17.3333C18.2308 43.8751 18.9583 44.6026 18.9583 45.5001C18.9583 46.3975 18.2308 47.1251 17.3333 47.1251H8.66667C6.5726 47.1251 4.875 45.4275 4.875 43.3334V34.6667C4.875 33.7693 5.60254 33.0417 6.5 33.0417Z" fill="url(#paint1_linear_1221_6249)"/>
<path fill-rule="evenodd" clip-rule="evenodd" d="M45.4993 33.0417C46.3968 33.0417 47.1243 33.7693 47.1243 34.6667V43.3334C47.1243 45.4275 45.4268 47.1251 43.3327 47.1251H34.666C33.7686 47.1251 33.041 46.3975 33.041 45.5001C33.041 44.6026 33.7686 43.8751 34.666 43.8751H43.3327C43.6319 43.8751 43.8743 43.6326 43.8743 43.3334V34.6667C43.8743 33.7693 44.6019 33.0417 45.4993 33.0417Z" fill="url(#paint2_linear_1221_6249)"/>
<path fill-rule="evenodd" clip-rule="evenodd" d="M33.041 6.5C33.041 5.60254 33.7686 4.875 34.666 4.875H43.3327C45.4268 4.875 47.1243 6.5726 47.1243 8.66667V17.3333C47.1243 18.2308 46.3968 18.9583 45.4993 18.9583C44.6019 18.9583 43.8743 18.2308 43.8743 17.3333V8.66667C43.8743 8.3675 43.6319 8.125 43.3327 8.125H34.666C33.7686 8.125 33.041 7.39746 33.041 6.5Z" fill="url(#paint3_linear_1221_6249)"/>
<path fill-rule="evenodd" clip-rule="evenodd" d="M13.541 26C13.541 25.1025 14.2686 24.375 15.166 24.375H36.8327C37.7301 24.375 38.4577 25.1025 38.4577 26C38.4577 26.8975 37.7301 27.625 36.8327 27.625H15.166C14.2686 27.625 13.541 26.8975 13.541 26Z" fill="url(#paint4_linear_1221_6249)"/>
<path fill-rule="evenodd" clip-rule="evenodd" d="M13.541 17.3333C13.541 16.4358 14.2686 15.7083 15.166 15.7083H36.8327C37.7301 15.7083 38.4577 16.4358 38.4577 17.3333C38.4577 18.2307 37.7301 18.9583 36.8327 18.9583H15.166C14.2686 18.9583 13.541 18.2307 13.541 17.3333Z" fill="url(#paint5_linear_1221_6249)"/>
<path fill-rule="evenodd" clip-rule="evenodd" d="M13.541 34.6667C13.541 33.7693 14.2686 33.0417 15.166 33.0417H36.8327C37.7301 33.0417 38.4577 33.7693 38.4577 34.6667C38.4577 35.5642 37.7301 36.2917 36.8327 36.2917H15.166C14.2686 36.2917 13.541 35.5642 13.541 34.6667Z" fill="url(#paint6_linear_1221_6249)"/>
<defs>
<linearGradient id="paint0_linear_1221_6249" x1="11.9167" y1="4.875" x2="11.9167" y2="18.9583" gradientUnits="userSpaceOnUse">
<stop stop-color="#367FD3"/>
<stop offset="1" stop-color="#2AA5DE"/>
</linearGradient>
<linearGradient id="paint1_linear_1221_6249" x1="11.9167" y1="33.0417" x2="11.9167" y2="47.1251" gradientUnits="userSpaceOnUse">
<stop stop-color="#367FD3"/>
<stop offset="1" stop-color="#2AA5DE"/>
</linearGradient>
<linearGradient id="paint2_linear_1221_6249" x1="40.0827" y1="33.0417" x2="40.0827" y2="47.1251" gradientUnits="userSpaceOnUse">
<stop stop-color="#367FD3"/>
<stop offset="1" stop-color="#2AA5DE"/>
</linearGradient>
<linearGradient id="paint3_linear_1221_6249" x1="40.0827" y1="4.875" x2="40.0827" y2="18.9583" gradientUnits="userSpaceOnUse">
<stop stop-color="#367FD3"/>
<stop offset="1" stop-color="#2AA5DE"/>
</linearGradient>
<linearGradient id="paint4_linear_1221_6249" x1="25.9993" y1="24.375" x2="25.9993" y2="27.625" gradientUnits="userSpaceOnUse">
<stop stop-color="#367FD3"/>
<stop offset="1" stop-color="#2AA5DE"/>
</linearGradient>
<linearGradient id="paint5_linear_1221_6249" x1="25.9993" y1="15.7083" x2="25.9993" y2="18.9583" gradientUnits="userSpaceOnUse">
<stop stop-color="#367FD3"/>
<stop offset="1" stop-color="#2AA5DE"/>
</linearGradient>
<linearGradient id="paint6_linear_1221_6249" x1="25.9993" y1="33.0417" x2="25.9993" y2="36.2917" gradientUnits="userSpaceOnUse">
<stop stop-color="#367FD3"/>
<stop offset="1" stop-color="#2AA5DE"/>
</linearGradient>
</defs>
</svg>
