<?xml version="1.0" encoding="utf-8"?>
<!-- Generator: Adobe Illustrator 26.0.1, SVG Export Plug-In . SVG Version: 6.00 Build 0)  -->
<svg version="1.1" id="Layer_1" xmlns="http://www.w3.org/2000/svg" xmlns:xlink="http://www.w3.org/1999/xlink" x="0px" y="0px"
	 viewBox="0 0 149.81 149.81" style="enable-background:new 0 0 149.81 149.81;" xml:space="preserve">
<style type="text/css">
	.st0{fill:url(#SVGID_1_);}
	.st1{fill:#FFFFFF;}
</style>
<linearGradient id="SVGID_1_" gradientUnits="userSpaceOnUse" x1="74.9074" y1="149.8148" x2="74.9074" y2="-9.094947e-13">
	<stop  offset="0" style="stop-color:#2AA5DE"/>
	<stop  offset="1" style="stop-color:#7367F0"/>
</linearGradient>
<path class="st0" d="M138.26,149.81H11.56C5.17,149.81,0,144.64,0,138.26V11.56C0,5.17,5.17,0,11.56,0h126.7
	c6.38,0,11.56,5.17,11.56,11.56v126.7C149.81,144.64,144.64,149.81,138.26,149.81z"/>
<g>
	<path class="st1" d="M102.85,90.86c-2.11,0-4.25-0.54-6.16-1.67L58.98,66.88c-3.34-1.98-5.37-5.42-5.37-9.12
		c0-3.7,2.03-7.14,5.37-9.12l37.71-22.31c5.38-3.19,12.52-1.69,15.93,3.35c3.41,5.04,1.8,11.7-3.58,14.89L86.74,57.76l22.29,13.19
		c5.39,3.19,6.99,9.86,3.58,14.89C110.42,89.09,106.68,90.86,102.85,90.86z"/>
	<path class="st1" d="M37.24,76.66c3.45-5.02,10.59-6.47,15.95-3.25l53.11,31.87c5.36,3.22,6.92,9.9,3.48,14.91
		c-2.21,3.21-5.93,4.96-9.73,4.96c-2.14,0-4.3-0.55-6.23-1.71L40.72,91.57C35.35,88.35,33.79,81.68,37.24,76.66z"/>
</g>
</svg>
