<svg width="46" height="46" viewBox="0 0 46 46" fill="none" xmlns="http://www.w3.org/2000/svg">
<path fill-rule="evenodd" clip-rule="evenodd" d="M6.22852 5.75004C6.22852 3.89759 7.73023 2.39587 9.58268 2.39587H36.416C38.2685 2.39587 39.7702 3.8976 39.7702 5.75004V15.7145C39.7702 16.5084 39.1266 17.152 38.3327 17.152C37.5388 17.152 36.8952 16.5084 36.8952 15.7145V5.75004C36.8952 5.48539 36.6807 5.27087 36.416 5.27087H9.58268C9.31805 5.27087 9.10352 5.4854 9.10352 5.75004V40.25C9.10352 40.5147 9.31803 40.7292 9.58268 40.7292H19.166C19.9599 40.7292 20.6035 41.3728 20.6035 42.1667C20.6035 42.9606 19.9599 43.6042 19.166 43.6042H9.58268C7.73024 43.6042 6.22852 42.1025 6.22852 40.25V5.75004Z" fill="url(#paint0_linear_640_3870)"/>
<path fill-rule="evenodd" clip-rule="evenodd" d="M13.8965 13.4166C13.8965 12.6227 14.5401 11.9791 15.334 11.9791H27.7923C28.5862 11.9791 29.2298 12.6227 29.2298 13.4166C29.2298 14.2105 28.5862 14.8541 27.7923 14.8541H15.334C14.5401 14.8541 13.8965 14.2105 13.8965 13.4166Z" fill="url(#paint1_linear_640_3870)"/>
<path fill-rule="evenodd" clip-rule="evenodd" d="M13.8965 20.125C13.8965 19.3311 14.5401 18.6875 15.334 18.6875H20.1257C20.9196 18.6875 21.5632 19.3311 21.5632 20.125C21.5632 20.9189 20.9196 21.5625 20.1257 21.5625H15.334C14.5401 21.5625 13.8965 20.9189 13.8965 20.125Z" fill="url(#paint2_linear_640_3870)"/>
<path fill-rule="evenodd" clip-rule="evenodd" d="M40.7285 32.5833C40.7285 28.0845 37.0815 24.4375 32.5827 24.4375C28.0839 24.4375 24.4368 28.0845 24.4368 32.5833C24.4368 37.0822 28.0839 40.7292 32.5827 40.7292C37.0815 40.7292 40.7285 37.0822 40.7285 32.5833ZM32.5827 21.5625C38.6693 21.5625 43.6035 26.4967 43.6035 32.5833C43.6035 38.67 38.6693 43.6042 32.5827 43.6042C26.496 43.6042 21.5618 38.67 21.5618 32.5833C21.5618 26.4967 26.496 21.5625 32.5827 21.5625Z" fill="url(#paint3_linear_640_3870)"/>
<path fill-rule="evenodd" clip-rule="evenodd" d="M32.584 33.0625C33.3779 33.0625 34.0215 33.7061 34.0215 34.5V37.375C34.0215 38.1689 33.3779 38.8125 32.584 38.8125C31.7901 38.8125 31.1465 38.1689 31.1465 37.375V34.5C31.1465 33.7061 31.7901 33.0625 32.584 33.0625Z" fill="url(#paint4_linear_640_3870)"/>
<path d="M32.5827 30.6667C33.6412 30.6667 34.4993 29.8086 34.4993 28.75C34.4993 27.6915 33.6412 26.8334 32.5827 26.8334C31.5241 26.8334 30.666 27.6915 30.666 28.75C30.666 29.8086 31.5241 30.6667 32.5827 30.6667Z" fill="url(#paint5_linear_640_3870)"/>
<defs>
<linearGradient id="paint0_linear_640_3870" x1="22.9993" y1="2.39587" x2="22.9993" y2="43.6042" gradientUnits="userSpaceOnUse">
<stop stop-color="#367FD3"/>
<stop offset="1" stop-color="#2AA5DE"/>
</linearGradient>
<linearGradient id="paint1_linear_640_3870" x1="21.5632" y1="11.9791" x2="21.5632" y2="14.8541" gradientUnits="userSpaceOnUse">
<stop stop-color="#367FD3"/>
<stop offset="1" stop-color="#2AA5DE"/>
</linearGradient>
<linearGradient id="paint2_linear_640_3870" x1="17.7298" y1="18.6875" x2="17.7298" y2="21.5625" gradientUnits="userSpaceOnUse">
<stop stop-color="#367FD3"/>
<stop offset="1" stop-color="#2AA5DE"/>
</linearGradient>
<linearGradient id="paint3_linear_640_3870" x1="43.6035" y1="32.5833" x2="21.5618" y2="32.5833" gradientUnits="userSpaceOnUse">
<stop stop-color="#367FD3"/>
<stop offset="1" stop-color="#2AA5DE"/>
</linearGradient>
<linearGradient id="paint4_linear_640_3870" x1="32.584" y1="33.0625" x2="32.584" y2="38.8125" gradientUnits="userSpaceOnUse">
<stop stop-color="#367FD3"/>
<stop offset="1" stop-color="#2AA5DE"/>
</linearGradient>
<linearGradient id="paint5_linear_640_3870" x1="32.5827" y1="26.8334" x2="32.5827" y2="30.6667" gradientUnits="userSpaceOnUse">
<stop stop-color="#367FD3"/>
<stop offset="1" stop-color="#2AA5DE"/>
</linearGradient>
</defs>
</svg>
