<svg width="41" height="44" viewBox="0 0 41 44" fill="none" xmlns="http://www.w3.org/2000/svg">
<path d="M35.819 17.1643C35.4835 17.1643 35.1775 16.9418 35.0753 16.6218C34.976 16.3113 35.0832 15.9619 35.3432 15.7634C35.5959 15.5704 35.9475 15.5516 36.2204 15.7136C36.4963 15.8774 36.6457 16.2075 36.587 16.5229C36.5188 16.8892 36.1929 17.1643 35.819 17.1643Z" fill="#367FD3"/>
<path d="M20.2425 35.0778C20.1075 35.0778 19.9726 35.0428 19.8517 34.973L9.26709 30.1692C8.06756 29.4763 7.32248 28.1852 7.32248 26.7998V11.0604C7.32248 10.7321 7.5278 10.4387 7.83631 10.3264L19.9751 7.36192C20.1478 7.29895 20.3372 7.29895 20.5099 7.36192L32.6486 10.3264C32.9572 10.4387 33.1625 10.7321 33.1625 11.0604V26.7999C33.1625 28.1853 32.4174 29.4764 31.2179 30.1692L20.6333 34.9731C20.5124 35.0428 20.3775 35.0778 20.2425 35.0778ZM8.88498 11.6073V26.7998C8.88498 27.6289 9.33084 28.4015 10.0487 28.8162L20.2425 33.3942L30.4363 28.8162C31.1541 28.4016 31.6 27.6289 31.6 26.7998V11.6073L20.2425 8.92739L8.88498 11.6073Z" fill="#367FD3"/>
<path d="M20.2425 39.0476C20.1075 39.0476 19.9726 39.0127 19.8517 38.9428L7.54756 33.1457C5.28842 31.8407 3.88499 29.409 3.88499 26.7998V8.65403C3.88499 8.32567 4.0903 8.03239 4.39881 7.91997L19.9751 3.70349C20.1478 3.64052 20.3372 3.64052 20.5099 3.70349L36.0861 7.91997C36.3947 8.03231 36.6 8.32567 36.6 8.65403V12.837C36.6 13.2685 36.2501 13.6182 35.8187 13.6182C35.3873 13.6182 35.0375 13.2685 35.0375 12.837V9.20098L20.2425 5.26903L5.44749 9.20098V26.7999C5.44749 28.8528 6.5517 30.766 8.32912 31.7928L20.2425 37.3641L32.1558 31.7927C33.9332 30.7659 35.0375 28.8528 35.0375 26.7998V19.9005C35.0375 19.469 35.3873 19.1193 35.8187 19.1193C36.2501 19.1193 36.6 19.469 36.6 19.9005V26.7998C36.6 29.409 35.1965 31.8407 32.9374 33.1457L20.6333 38.9428C20.5124 39.0127 20.3775 39.0476 20.2425 39.0476Z" fill="#367FD3"/>
<path d="M20.2425 43.0072C20.1075 43.0072 19.9726 42.9723 19.8517 42.9024L5.83295 36.1148C2.51679 34.1992 0.456787 30.6299 0.456787 26.7998V6.25372C0.456787 5.92536 0.662099 5.632 0.970615 5.51966L19.9751 0.0544287C20.1478 -0.00854002 20.3372 -0.00854002 20.5099 0.0544287L39.5144 5.51966C39.8229 5.632 40.0282 5.92536 40.0282 6.25372V26.7998C40.0282 30.6298 37.9682 34.1991 34.6521 36.1148L20.6333 42.9024C20.5124 42.9723 20.3775 43.0072 20.2425 43.0072ZM2.01929 6.80067V26.7999C2.01929 30.0736 3.78006 33.1245 6.61451 34.7619L20.2425 41.3237L33.8704 34.7618C36.7049 33.1245 38.4657 30.0735 38.4657 26.7998V6.80067L20.2425 1.61997L2.01929 6.80067Z" fill="#367FD3"/>
<path d="M17.6831 24.7174C17.8262 24.8868 18.0317 24.9906 18.253 25.0053C18.2713 25.0066 18.2895 25.0072 18.3077 25.0072C18.5096 25.0072 18.7054 24.9324 18.8562 24.796L24.7856 19.4315C25.1204 19.1286 25.1463 18.6114 24.8434 18.2763C24.5402 17.9415 24.023 17.9156 23.6882 18.2184L18.3859 23.0153L16.8726 21.2253C16.5813 20.8806 16.065 20.8371 15.7203 21.1288C15.3753 21.4205 15.3321 21.9364 15.6235 22.2815L17.6831 24.7174Z" fill="#367FD3"/>
</svg>
