<svg width="469" height="295" viewBox="0 0 469 295" fill="none" xmlns="http://www.w3.org/2000/svg">
<g clip-path="url(#clip0_658_3069)">
<path d="M185.072 235.71H1.88635C1.38623 235.709 0.906748 235.51 0.553109 235.156C0.19947 234.802 0.000554609 234.322 0 233.822V55.1164C0.000554609 54.6159 0.19947 54.136 0.553109 53.7821C0.906748 53.4282 1.38623 53.2292 1.88635 53.2286H185.072C185.572 53.2292 186.052 53.4282 186.406 53.7821C186.759 54.136 186.958 54.6159 186.959 55.1164V233.822C186.958 234.322 186.759 234.802 186.406 235.156C186.052 235.51 185.572 235.709 185.072 235.71Z" fill="#F0F0F0"/>
<path d="M165.161 69.589H21.7985C21.2984 69.5897 20.819 69.7889 20.4654 70.1427C20.1118 70.4966 19.9129 70.9763 19.9121 71.4767V182.643C19.9129 183.144 20.1119 183.623 20.4655 183.977C20.819 184.331 21.2984 184.53 21.7985 184.531H165.161C165.661 184.53 166.141 184.331 166.494 183.977C166.848 183.623 167.047 183.144 167.048 182.643V71.4767C167.047 70.9763 166.848 70.4966 166.494 70.1427C166.141 69.7889 165.661 69.5897 165.161 69.589Z" fill="white"/>
<path d="M156.986 206.345H29.9718C29.694 206.344 29.4276 206.234 29.2311 206.037C29.0347 205.841 28.9242 205.574 28.9238 205.296V199.423C28.9242 199.145 29.0347 198.879 29.2311 198.682C29.4276 198.485 29.694 198.375 29.9718 198.374H156.986C157.264 198.375 157.531 198.485 157.727 198.682C157.923 198.879 158.034 199.145 158.034 199.423V205.296C158.034 205.574 157.923 205.841 157.727 206.037C157.531 206.234 157.264 206.344 156.986 206.345Z" fill="white"/>
<path d="M112.971 220.608H29.9718C29.694 220.607 29.4276 220.497 29.2311 220.3C29.0347 220.104 28.9242 219.837 28.9238 219.559V213.686C28.9242 213.408 29.0347 213.141 29.2311 212.945C29.4276 212.748 29.694 212.638 29.9718 212.637H112.971C113.249 212.638 113.516 212.748 113.712 212.945C113.909 213.141 114.019 213.408 114.019 213.686V219.559C114.019 219.837 113.908 220.104 113.712 220.3C113.516 220.497 113.249 220.607 112.971 220.608Z" fill="white"/>
<path d="M89.9369 144.917C100.004 144.917 108.165 136.75 108.165 126.676C108.165 116.602 100.004 108.435 89.9369 108.435C79.8699 108.435 71.709 116.602 71.709 126.676C71.709 136.75 79.8699 144.917 89.9369 144.917Z" fill="#FFB8B8"/>
<path d="M116.605 184.531H76.1914L77.5118 154.797L77.8264 154.466L82.3618 149.671H96.7944L102.143 154.856L102.575 155.275L113.965 166.199L116.605 184.531Z" fill="#7367F0"/>
<path d="M83.1422 184.531H52.5665C52.4912 177.819 52.4492 173.8 52.4492 173.8L54.2181 172.722C54.2203 172.72 54.2233 172.718 54.2265 172.718H54.2308L73.7147 160.88L77.8059 154.231L77.827 154.466L79.0301 168.481C79.0301 168.481 81.017 174.908 83.1422 184.531Z" fill="#2F2E41"/>
<path d="M134.53 184.531H102.144C102.634 164.957 99.9934 154.231 101.352 154.231L102.144 154.856L111.689 162.398L124.269 167.017H124.277L132.95 170.201L134.472 170.759V171.476C134.476 173.196 134.484 177.899 134.53 184.531Z" fill="#2F2E41"/>
<path d="M72.6919 132.383C72.6919 132.383 74.2406 129.661 73.8806 120.569C73.5205 111.476 87.3561 116.619 98.9172 115.752C110.478 114.884 108.031 130.932 108.031 130.932C108.031 130.932 108.865 129.978 110.651 122.233C112.437 114.488 108.382 106.77 108.382 106.77C107.188 98.631 100.752 101.239 100.752 101.239C103.852 102.447 103.256 105.028 103.256 105.028C100.633 100.426 94.1975 103.034 94.1975 103.034C85.6144 97.644 76.9156 104.742 76.9156 104.742C66.5468 107.097 72.6277 115.349 72.6277 115.349C62.2001 120.622 72.6919 132.383 72.6919 132.383Z" fill="#2F2E41"/>
<path d="M56.6496 184.531H44.0864C44.1844 182.982 44.1872 181.428 44.0948 179.879C43.3445 176.888 53.8997 172.844 54.2182 172.722C54.2204 172.72 54.2234 172.718 54.2266 172.718H54.2309L56.2429 173.8L56.6496 184.531Z" fill="#2F2E41"/>
<path d="M136.799 184.531H123.602L121.955 168.254L123.804 166.904C123.804 166.904 123.971 166.941 124.269 167.017H124.277C125.757 167.382 130.335 168.59 132.95 170.201C133.532 170.528 134.048 170.96 134.472 171.476C134.731 171.788 134.861 172.187 134.832 172.592C134.765 173.2 135.537 177.681 136.799 184.531Z" fill="#2F2E41"/>
<path d="M467.113 182.481H283.927C283.427 182.48 282.948 182.281 282.594 181.927C282.24 181.574 282.042 181.094 282.041 180.593V1.88773C282.042 1.38724 282.24 0.907422 282.594 0.553523C282.948 0.199624 283.427 0.000556581 283.927 0H467.113C467.613 0.000547218 468.093 0.199604 468.447 0.553505C468.8 0.907406 468.999 1.38724 469 1.88773V180.593C468.999 181.094 468.8 181.574 468.447 181.927C468.093 182.281 467.613 182.48 467.113 182.481Z" fill="#F0F0F0"/>
<path d="M447.202 16.3607H303.839C303.339 16.3615 302.86 16.5606 302.506 16.9145C302.153 17.2683 301.954 17.748 301.953 18.2484V129.415C301.954 129.915 302.153 130.395 302.506 130.749C302.86 131.103 303.339 131.302 303.839 131.303H447.202C447.702 131.302 448.182 131.103 448.535 130.749C448.889 130.395 449.088 129.915 449.089 129.415V18.2484C449.088 17.748 448.889 17.2683 448.535 16.9145C448.182 16.5606 447.702 16.3615 447.202 16.3607Z" fill="white"/>
<path d="M439.027 153.116H312.013C311.735 153.116 311.469 153.005 311.272 152.809C311.076 152.612 310.965 152.345 310.965 152.067V146.194C310.965 145.916 311.076 145.65 311.272 145.453C311.469 145.257 311.735 145.146 312.013 145.146H439.027C439.305 145.146 439.572 145.257 439.768 145.453C439.964 145.65 440.075 145.916 440.075 146.194V152.067C440.075 152.345 439.964 152.612 439.768 152.809C439.572 153.005 439.305 153.116 439.027 153.116Z" fill="white"/>
<path d="M395.012 167.379H312.013C311.735 167.379 311.469 167.268 311.272 167.072C311.076 166.875 310.965 166.608 310.965 166.33V160.457C310.965 160.179 311.076 159.913 311.272 159.716C311.469 159.52 311.735 159.409 312.013 159.409H395.012C395.29 159.409 395.557 159.52 395.753 159.716C395.95 159.913 396.06 160.179 396.06 160.457V166.33C396.06 166.608 395.95 166.875 395.753 167.072C395.557 167.268 395.29 167.379 395.012 167.379Z" fill="white"/>
<path d="M410.809 131.303C411.618 128.387 412.247 125.874 412.569 124.096C412.669 123.547 412.679 122.986 412.599 122.435C411.392 113.839 389.585 106.573 386.789 105.676L386.114 98.1919L358.666 95.2344L355.191 104.807L345.34 108.503C344.983 108.635 344.644 108.81 344.33 109.023C343.503 109.582 342.868 110.38 342.509 111.311C342.15 112.242 342.084 113.26 342.322 114.229L346.518 131.303H410.809V131.303Z" fill="#7367F0"/>
<path d="M353.906 131.303H332.607C333.37 126.546 334.054 122.338 334.498 119.662C336.124 109.921 343.217 109.09 344.328 109.023C344.416 109.015 344.471 109.015 344.475 109.015H348.956L353.906 131.303Z" fill="#7367F0"/>
<path d="M410.807 131.303H415.972C415.515 127.104 414.065 124.276 412.597 122.435C411.618 121.14 410.355 120.088 408.904 119.36L408.514 119.192L403.975 131.303H410.807Z" fill="#7367F0"/>
<path d="M371.316 90.4975C382.231 90.4975 391.08 81.6427 391.08 70.7197C391.08 59.7967 382.231 50.9418 371.316 50.9418C360.401 50.9418 351.553 59.7967 351.553 70.7197C351.553 81.6427 360.401 90.4975 371.316 90.4975Z" fill="#A0616A"/>
<path d="M358.051 61.0841C360.097 63.5071 363.559 64.1904 366.753 64.4683C373.239 65.0378 382.671 64.1143 389.01 62.6499C389.465 67.0378 388.229 71.7693 390.811 75.3794C392.022 71.0092 392.726 66.5141 392.909 61.9828C392.987 60.0395 392.956 58.0291 392.168 56.2452C391.379 54.4613 389.657 52.9468 387.676 52.9312C389.148 51.8136 390.873 51.0761 392.698 50.7835L386.422 47.6276L388.034 45.9719L376.673 45.2762L379.964 43.1845C375.009 42.5037 369.997 42.3459 365.01 42.714C362.695 42.8845 360.274 43.2105 358.398 44.5532C356.523 45.8958 355.439 48.5635 356.603 50.5342C355.146 50.7738 353.773 51.3819 352.616 52.3009C351.458 53.2199 350.555 54.4194 349.99 55.7857C349.154 57.9074 349.23 60.264 349.488 62.525C349.916 66.1409 350.755 69.696 351.991 73.121" fill="#2F2E41"/>
<path d="M329.578 295H146.392C145.892 294.999 145.413 294.8 145.059 294.446C144.705 294.093 144.506 293.613 144.506 293.112V114.407C144.506 113.906 144.705 113.426 145.059 113.073C145.413 112.719 145.892 112.52 146.392 112.519H329.578C330.078 112.52 330.558 112.719 330.911 113.073C331.265 113.426 331.464 113.906 331.464 114.407V293.112C331.464 293.613 331.265 294.093 330.911 294.446C330.558 294.8 330.078 294.999 329.578 295Z" fill="#E4E4E4"/>
<path d="M309.667 128.88H166.304C165.804 128.881 165.325 129.08 164.971 129.434C164.618 129.787 164.419 130.267 164.418 130.767V241.934C164.419 242.434 164.618 242.914 164.971 243.268C165.325 243.622 165.804 243.821 166.304 243.822H309.667C310.167 243.821 310.647 243.622 311 243.268C311.354 242.914 311.553 242.434 311.554 241.934V130.767C311.553 130.267 311.354 129.787 311 129.434C310.647 129.08 310.167 128.881 309.667 128.88Z" fill="white"/>
<path d="M301.492 265.635H174.478C174.2 265.635 173.933 265.524 173.737 265.328C173.541 265.131 173.43 264.865 173.43 264.587V258.714C173.43 258.436 173.541 258.169 173.737 257.972C173.933 257.776 174.2 257.665 174.478 257.665H301.492C301.77 257.665 302.036 257.776 302.233 257.972C302.429 258.169 302.54 258.436 302.54 258.714V264.587C302.54 264.865 302.429 265.131 302.233 265.328C302.036 265.524 301.77 265.635 301.492 265.635Z" fill="white"/>
<path d="M257.477 279.898H174.478C174.2 279.898 173.933 279.787 173.737 279.591C173.541 279.394 173.43 279.127 173.43 278.849V272.976C173.43 272.698 173.541 272.432 173.737 272.235C173.933 272.039 174.2 271.928 174.478 271.928H257.477C257.755 271.928 258.021 272.039 258.218 272.235C258.414 272.432 258.525 272.698 258.525 272.976V278.849C258.525 279.127 258.414 279.394 258.218 279.591C258.021 279.787 257.755 279.898 257.477 279.898Z" fill="white"/>
<path d="M252.091 243.822H223.238L225.037 216.815L235.445 219.218L245.568 215.321L245.837 215.221L245.854 215.212C245.857 215.22 245.86 215.229 245.862 215.237C246.021 215.879 249.199 228.611 252.091 243.822Z" fill="#7367F0"/>
<path d="M269.479 221.223L266.784 243.822H242.467L245.569 215.321L245.598 215.044L245.837 215.22L245.862 215.237L251.861 219.617L269.479 221.223Z" fill="#2F2E41"/>
<path d="M227.505 243.822H205.728L205.414 226.031L221.44 220.712L225.036 216.815C225.036 216.815 226.172 228.54 227.505 243.822Z" fill="#2F2E41"/>
<path d="M279.964 243.822H261.918L263.075 227.633L269.48 221.224C269.48 221.224 274.548 231.862 279.964 243.822Z" fill="#2F2E41"/>
<path d="M210.864 243.822H201.344C201.386 238.637 201.411 235.054 201.411 234.043C201.363 232.481 201.704 230.93 202.403 229.532C203.101 228.133 204.136 226.93 205.414 226.031L210.222 227.633L210.864 243.822Z" fill="#2F2E41"/>
<path d="M209.379 189.014C209.394 184.621 210.547 180.308 212.728 176.495C214.908 172.682 218.04 169.501 221.817 167.262C229.842 162.521 239.524 162.607 248.38 167.497C254.69 170.981 259.823 179.748 259.823 187.04V208.316H209.379V189.014Z" fill="#2F2E41"/>
<path d="M242.341 205.557C251.171 200.727 254.416 189.648 249.589 180.813C244.762 171.977 233.692 168.729 224.862 173.559C216.033 178.39 212.788 189.468 217.614 198.304C222.441 207.14 233.512 210.388 242.341 205.557Z" fill="#FFB8B8"/>
<path d="M214.602 189.731C214.464 189.571 214.141 189.198 216.388 171.892L216.459 171.609H216.662C228.054 166.001 239.612 165.86 251.017 171.188C251.369 171.354 251.67 171.61 251.893 171.928C252.116 172.247 252.253 172.618 252.289 173.005C253.62 189.264 253.299 189.619 253.161 189.77C252.953 190 252.698 190.183 252.415 190.308C252.131 190.434 251.824 190.499 251.514 190.499H246.461L246.355 190.308C245.487 188.695 244.536 187.128 243.503 185.615C243.029 187.121 242.64 188.653 242.339 190.204L242.277 190.499H216.284C215.965 190.499 215.649 190.431 215.359 190.298C215.069 190.166 214.811 189.972 214.602 189.731Z" fill="#2F2E41"/>
</g>
<defs>
<clipPath id="clip0_658_3069">
<rect width="469" height="295" fill="white"/>
</clipPath>
</defs>
</svg>
