<svg width="48" height="41" viewBox="0 0 48 41" fill="none" xmlns="http://www.w3.org/2000/svg">
<path d="M23.8415 13.8221H38.7329C39.2404 13.8221 39.652 13.4106 39.652 12.903V9.22682C39.652 8.71923 39.2404 8.30777 38.7329 8.30777H23.8415C23.334 8.30777 22.9224 8.71923 22.9224 9.22682V12.903C22.9224 13.4106 23.334 13.8221 23.8415 13.8221ZM24.7605 10.1459H37.8139V11.984H24.7605V10.1459Z" fill="#367FD3"/>
<path d="M23.8415 18.1459H38.7329C39.2404 18.1459 39.652 17.7344 39.652 17.2269C39.652 16.7193 39.2404 16.3078 38.7329 16.3078H23.8415C23.334 16.3078 22.9224 16.7193 22.9224 17.2269C22.9224 17.7344 23.334 18.1459 23.8415 18.1459Z" fill="#367FD3"/>
<path d="M23.8415 22.4698H26.9391C27.4466 22.4698 27.8582 22.0584 27.8582 21.5508C27.8582 21.0432 27.4466 20.6317 26.9391 20.6317H23.8415C23.334 20.6317 22.9224 21.0432 22.9224 21.5508C22.9224 22.0584 23.334 22.4698 23.8415 22.4698Z" fill="#367FD3"/>
<path d="M3.67619 15.3888C3.67619 20.1524 7.55163 24.0278 12.3152 24.0278C17.0789 24.0278 20.9543 20.1524 20.9543 15.3888C20.9543 10.6252 17.0789 6.74971 12.3152 6.74971C7.55163 6.74971 3.67619 10.6252 3.67619 15.3888ZM8.11813 20.7341C8.29119 19.219 9.58061 18.0381 11.1412 18.0381H13.4893C15.05 18.0381 16.3394 19.2191 16.5124 20.7341C15.3555 21.6445 13.8983 22.1897 12.3153 22.1897C10.7324 22.1897 9.27503 21.6445 8.11813 20.7341ZM13.8375 14.6778C13.8375 15.5171 13.1545 16.2 12.3152 16.2C11.476 16.2 10.793 15.5171 10.793 14.6778V13.8019C10.793 12.9626 11.476 12.2797 12.3152 12.2797C13.1545 12.2797 13.8375 12.9626 13.8375 13.8019V14.6778ZM19.1162 15.3888C19.1162 16.7811 18.695 18.0765 17.9742 19.1558C17.442 17.921 16.4147 16.9483 15.1433 16.489C15.4795 15.9659 15.6756 15.3445 15.6756 14.6778V13.8019C15.6756 11.949 14.1681 10.4416 12.3152 10.4416C10.4623 10.4416 8.95493 11.949 8.95493 13.8019V14.6778C8.95493 15.3445 9.15087 15.9659 9.48715 16.489C8.21592 16.9483 7.18861 17.9211 6.6563 19.1558C5.93549 18.0765 5.51429 16.7811 5.51429 15.3888C5.51429 11.6387 8.56516 8.5878 12.3152 8.5878C16.0653 8.5878 19.1162 11.6387 19.1162 15.3888Z" fill="#367FD3"/>
<path d="M43.3791 22.3792V5.09542C43.3791 2.56161 41.3176 0.500184 38.7838 0.500184H25.3903C24.8828 0.500184 24.4712 0.911642 24.4712 1.41923C24.4712 1.92682 24.8828 2.33828 25.3903 2.33828H38.7838C40.3041 2.33828 41.541 3.57513 41.541 5.09542V21.1476C40.1212 20.4038 38.5073 19.9823 36.7965 19.9823C31.7544 19.9823 27.5503 23.6388 26.6961 28.4393H4.59524C3.07495 28.4393 1.8381 27.2025 1.8381 25.6822V5.09552C1.8381 3.57523 3.07495 2.33837 4.59524 2.33837H17.1188C17.6263 2.33837 18.0379 1.92691 18.0379 1.41932C18.0379 0.911734 17.6263 0.500276 17.1188 0.500276H4.59524C2.06142 0.500276 0 2.5617 0 5.09552V25.6822C0 28.216 2.06142 30.2774 4.59524 30.2774H26.5381C26.5577 35.9175 31.1519 40.5 36.7965 40.5C42.4532 40.5 47.0553 35.8979 47.0553 30.2411C47.0553 27.0878 45.6248 24.2626 43.3791 22.3792ZM36.7965 38.6618C32.1533 38.6618 28.3757 34.8842 28.3757 30.241C28.3757 25.5978 32.1533 21.8203 36.7965 21.8203C41.4396 21.8203 45.2172 25.5978 45.2172 30.241C45.2172 34.8842 41.4396 38.6618 36.7965 38.6618Z" fill="#367FD3"/>
<path d="M42.8523 28.0758C42.6435 27.432 42.0484 26.9994 41.3715 26.9994H38.9982L38.2702 24.7536C38.0614 24.1093 37.4664 23.6769 36.7894 23.6769C36.7888 23.6769 36.788 23.6769 36.7875 23.6769C36.1097 23.6777 35.5148 24.1118 35.3074 24.7572L34.5863 26.9993H32.2216C31.5441 26.9993 30.9488 27.4324 30.7404 28.0771C30.5321 28.7218 30.7611 29.4215 31.3104 29.8182L33.2288 31.2032L32.4955 33.4537C32.2857 34.0976 32.5129 34.7977 33.0609 35.1957C33.3346 35.3944 33.6551 35.4938 33.9756 35.4938C34.2969 35.4938 34.6182 35.3939 34.8923 35.1942L36.8067 33.7994L38.7119 35.1841C39.2599 35.5824 39.996 35.5822 40.5439 35.1831C41.0915 34.7842 41.3175 34.0835 41.1063 33.4396L40.3727 31.2032L42.2855 29.8162C42.8333 29.4191 43.0611 28.7196 42.8523 28.0758ZM38.7507 30.1089C38.4273 30.3433 38.2925 30.7598 38.4169 31.1394L39.0883 33.1858L37.3462 31.9196C37.0237 31.6852 36.5869 31.6854 36.2646 31.9202L34.5122 33.1971L35.184 31.1355C35.3078 30.7557 35.1721 30.3394 34.8482 30.1056L33.0919 28.8376H35.2562C35.6555 28.8376 36.0089 28.5799 36.1312 28.1998L36.7905 26.1495L37.4559 28.2019C37.5788 28.581 37.9318 28.8376 38.3302 28.8376H40.5044L38.7507 30.1089Z" fill="#367FD3"/>
<path d="M21.2548 2.3381C21.7624 2.3381 22.1739 1.92662 22.1739 1.41905C22.1739 0.911472 21.7624 0.5 21.2548 0.5C20.7472 0.5 20.3358 0.911472 20.3358 1.41905C20.3358 1.92662 20.7472 2.3381 21.2548 2.3381Z" fill="#367FD3"/>
</svg>
