<svg width="41" height="41" viewBox="0 0 41 41" fill="none" xmlns="http://www.w3.org/2000/svg">
<path d="M38.5322 12.487C37.5049 10.1201 36.0435 7.97944 34.1886 6.1246C32.3338 4.26976 30.1932 2.80835 27.8262 1.78101C25.363 0.711787 22.7782 0.169678 20.1436 0.169678C17.5089 0.169678 14.9241 0.711787 12.4609 1.78101C10.0939 2.80835 7.95332 4.26976 6.09848 6.1246C4.24363 7.97944 2.78223 10.1201 1.75488 12.487C0.685664 14.9502 0.143555 17.5351 0.143555 20.1697C0.143555 22.8043 0.685664 25.3891 1.75488 27.8523C2.78215 30.2193 4.24355 32.3599 6.09848 34.2148C7.95332 36.0696 10.0939 37.531 12.4609 38.5583C14.9241 39.6276 17.5089 40.1697 20.1436 40.1697C22.7782 40.1697 25.363 39.6276 27.8262 38.5583C30.1932 37.531 32.3338 36.0696 34.1886 34.2148C36.0435 32.3599 37.5049 30.2193 38.5322 27.8523C39.6014 25.3891 40.1436 22.8043 40.1436 20.1697C40.1436 17.5351 39.6014 14.9502 38.5322 12.487ZM20.1436 38.6072C10.1494 38.6072 1.70605 30.1638 1.70605 20.1697C1.70605 10.1755 10.1494 1.73218 20.1436 1.73218C30.1377 1.73218 38.5811 10.1755 38.5811 20.1697C38.5811 30.1638 30.1377 38.6072 20.1436 38.6072Z" fill="#367FD3"/>
<path d="M35.4541 13.7481C34.6049 11.775 33.3945 9.99468 31.8565 8.45679C30.3186 6.91882 28.5383 5.70843 26.5652 4.85921C24.5145 3.97655 22.3539 3.52905 20.1436 3.52905C17.1387 3.52905 14.0064 4.55515 11.0854 6.49632C10.726 6.73515 10.6282 7.22007 10.8671 7.57937C11.1059 7.93874 11.5908 8.0364 11.9501 7.79765C14.6142 6.02733 17.4474 5.09155 20.1436 5.09155C28.3168 5.09155 35.2217 11.9965 35.2217 20.1697C35.2217 28.3429 28.3168 35.2478 20.1436 35.2478C11.9704 35.2478 5.06543 28.3429 5.06543 20.1697C5.06543 17.4741 6.00098 14.6407 7.77082 11.9762C8.00957 11.6167 7.91176 11.1319 7.55238 10.8931C7.19285 10.6544 6.70809 10.7523 6.46934 11.1116C4.52871 14.0333 3.50293 17.1655 3.50293 20.1697C3.50293 22.3801 3.95043 24.5406 4.83301 26.5912C5.68223 28.5644 6.89262 30.3447 8.43059 31.8826C9.96855 33.4206 11.7488 34.6309 13.722 35.4802C15.7726 36.3628 17.9332 36.8103 20.1436 36.8103C22.3539 36.8103 24.5145 36.3628 26.5651 35.4802C28.5382 34.631 30.3186 33.4206 31.8564 31.8826C33.3944 30.3447 34.6048 28.5644 35.454 26.5913C36.3367 24.5406 36.7842 22.3801 36.7842 20.1697C36.7842 17.9593 36.3367 15.7987 35.4541 13.7481Z" fill="#367FD3"/>
<path d="M9.12793 8.3728C8.69668 8.3728 8.34668 8.7228 8.34668 9.15405C8.34668 9.5853 8.69668 9.9353 9.12793 9.9353C9.55918 9.9353 9.90918 9.5853 9.90918 9.15405C9.90918 8.7228 9.55918 8.3728 9.12793 8.3728Z" fill="#367FD3"/>
<path d="M29.3843 14.054C28.7939 13.4636 28.0093 13.1384 27.1748 13.1384C26.3404 13.1384 25.5557 13.4636 24.9654 14.054L17.7998 21.2195L15.3218 18.7415C14.7314 18.1511 13.9468 17.8259 13.1123 17.8259C12.2779 17.8259 11.4932 18.1511 10.9031 18.7412C10.3125 19.3313 9.9873 20.116 9.9873 20.9509C9.9873 21.7859 10.3125 22.5705 10.9029 23.1604L15.5904 27.8479C16.1807 28.4383 16.9654 28.7634 17.7998 28.7634C18.6342 28.7634 19.4189 28.4383 20.0093 27.8479L29.384 18.4731C29.9746 17.883 30.2998 17.0984 30.2998 16.2634C30.2998 15.4285 29.9746 14.6438 29.3843 14.054ZM28.2794 17.368L18.9044 26.743C18.6091 27.0383 18.2168 27.2009 17.7998 27.2009C17.3828 27.2009 16.9905 27.0383 16.6952 26.743L12.0075 22.0553C11.7124 21.7604 11.5498 21.3682 11.5498 20.9509C11.5498 20.5337 11.7124 20.1415 12.0077 19.8463C12.303 19.5511 12.6953 19.3884 13.1123 19.3884C13.5293 19.3884 13.9216 19.5511 14.2169 19.8463L17.7998 23.4292L26.0702 15.1588C26.3655 14.8636 26.7578 14.7009 27.1748 14.7009C27.5918 14.7009 27.9841 14.8636 28.2796 15.1591C28.5747 15.454 28.7373 15.8462 28.7373 16.2634C28.7373 16.6807 28.5747 17.0729 28.2794 17.368Z" fill="#367FD3"/>
</svg>
