<svg width="41" height="41" viewBox="0 0 41 41" fill="none" xmlns="http://www.w3.org/2000/svg">
<path d="M38.5322 12.4872C37.5049 10.1203 36.0435 7.97968 34.1886 6.12484C32.3338 4.27 30.1932 2.80859 27.8262 1.78125C25.363 0.712031 22.7782 0.169922 20.1436 0.169922C17.5089 0.169922 14.9241 0.712031 12.4609 1.78125C10.0939 2.80859 7.95332 4.27 6.09848 6.12484C4.24363 7.97968 2.78223 10.1203 1.75488 12.4872C0.685664 14.9504 0.143555 17.5353 0.143555 20.1699C0.143555 22.8045 0.685664 25.3893 1.75488 27.8525C2.78215 30.2195 4.24355 32.3601 6.09848 34.215C7.95332 36.0698 10.0939 37.5312 12.4609 38.5585C14.9241 39.6278 17.5089 40.1699 20.1436 40.1699C22.7782 40.1699 25.363 39.6278 27.8262 38.5585C30.1932 37.5312 32.3338 36.0698 34.1886 34.215C36.0435 32.3601 37.5049 30.2195 38.5322 27.8525C39.6014 25.3893 40.1436 22.8045 40.1436 20.1699C40.1436 17.5353 39.6014 14.9504 38.5322 12.4872ZM20.1436 38.6074C10.1494 38.6074 1.70605 30.164 1.70605 20.1699C1.70605 10.1757 10.1494 1.73242 20.1436 1.73242C30.1377 1.73242 38.5811 10.1757 38.5811 20.1699C38.5811 30.164 30.1377 38.6074 20.1436 38.6074Z" fill="#367FD3"/>
<path d="M35.4541 13.7483C34.6049 11.7752 33.3945 9.99492 31.8565 8.45703C30.3186 6.91906 28.5383 5.70867 26.5652 4.85945C24.5145 3.97679 22.3539 3.52929 20.1436 3.52929C17.1387 3.52929 14.0064 4.55539 11.0854 6.49656C10.726 6.73539 10.6282 7.22031 10.8671 7.57961C11.1059 7.93898 11.5908 8.03664 11.9501 7.79789C14.6142 6.02757 17.4474 5.09179 20.1436 5.09179C28.3168 5.09179 35.2217 11.9967 35.2217 20.1699C35.2217 28.3431 28.3168 35.248 20.1436 35.248C11.9704 35.248 5.06543 28.3431 5.06543 20.1699C5.06543 17.4743 6.00098 14.6409 7.77082 11.9764C8.00957 11.6169 7.91176 11.1321 7.55238 10.8933C7.19285 10.6546 6.70809 10.7525 6.46934 11.1118C4.52871 14.0335 3.50293 17.1657 3.50293 20.1699C3.50293 22.3803 3.95043 24.5408 4.83301 26.5914C5.68223 28.5646 6.89262 30.3449 8.43059 31.8828C9.96855 33.4208 11.7488 34.6311 13.722 35.4804C15.7726 36.363 17.9332 36.8105 20.1436 36.8105C22.3539 36.8105 24.5145 36.363 26.5651 35.4804C28.5382 34.6312 30.3186 33.4208 31.8564 31.8828C33.3944 30.3449 34.6048 28.5646 35.454 26.5915C36.3367 24.5408 36.7842 22.3803 36.7842 20.1699C36.7842 17.9595 36.3367 15.7989 35.4541 13.7483Z" fill="#367FD3"/>
<path d="M9.12793 8.37304C8.69668 8.37304 8.34668 8.72304 8.34668 9.15429C8.34668 9.58554 8.69668 9.93554 9.12793 9.93554C9.55918 9.93554 9.90918 9.58554 9.90918 9.15429C9.90918 8.72304 9.55918 8.37304 9.12793 8.37304Z" fill="#367FD3"/>
<path d="M29.3843 14.0542C28.7939 13.4638 28.0093 13.1386 27.1748 13.1386C26.3404 13.1386 25.5557 13.4638 24.9654 14.0542L17.7998 21.2197L15.3218 18.7417C14.7314 18.1513 13.9468 17.8261 13.1123 17.8261C12.2779 17.8261 11.4932 18.1513 10.9031 18.7414C10.3125 19.3315 9.9873 20.1162 9.9873 20.9511C9.9873 21.7861 10.3125 22.5707 10.9029 23.1606L15.5904 27.8481C16.1807 28.4385 16.9654 28.7636 17.7998 28.7636C18.6342 28.7636 19.4189 28.4385 20.0093 27.8481L29.384 18.4733C29.9746 17.8832 30.2998 17.0986 30.2998 16.2636C30.2998 15.4287 29.9746 14.644 29.3843 14.0542ZM28.2794 17.3682L18.9044 26.7432C18.6091 27.0385 18.2168 27.2011 17.7998 27.2011C17.3828 27.2011 16.9905 27.0385 16.6952 26.7432L12.0075 22.0555C11.7124 21.7606 11.5498 21.3684 11.5498 20.9511C11.5498 20.5339 11.7124 20.1417 12.0077 19.8465C12.303 19.5513 12.6953 19.3886 13.1123 19.3886C13.5293 19.3886 13.9216 19.5513 14.2169 19.8465L17.7998 23.4294L26.0702 15.159C26.3655 14.8638 26.7578 14.7011 27.1748 14.7011C27.5918 14.7011 27.9841 14.8638 28.2796 15.1593C28.5747 15.4542 28.7373 15.8464 28.7373 16.2636C28.7373 16.6809 28.5747 17.0731 28.2794 17.3682Z" fill="#FD8C04"/>
</svg>
