<svg width="56" height="56" viewBox="0 0 56 56" fill="none" xmlns="http://www.w3.org/2000/svg">
<rect x="1.01819" y="1.98807" width="52.8256" height="52.8256" rx="26.4128" transform="rotate(-1.05189 1.01819 1.98807)" stroke="url(#paint0_linear_50_238)" stroke-width="2"/>
<path d="M28.0186 12.8938C28.4311 12.8938 28.7061 12.6188 28.7061 12.2063V9.4563C28.7061 9.0438 28.4311 8.7688 28.0186 8.7688C27.6061 8.7688 27.3311 9.0438 27.3311 9.4563V12.2063C27.3311 12.6188 27.6061 12.8938 28.0186 12.8938Z" fill="url(#paint1_linear_50_238)"/>
<path d="M28.0186 43.1438C27.6061 43.1438 27.3311 43.4188 27.3311 43.8313V46.5813C27.3311 46.9938 27.6061 47.2688 28.0186 47.2688C28.4311 47.2688 28.7061 46.9938 28.7061 46.5813V43.8313C28.7061 43.4188 28.4311 43.1438 28.0186 43.1438Z" fill="url(#paint2_linear_50_238)"/>
<path d="M46.5811 27.3313H43.8311C43.4186 27.3313 43.1436 27.6063 43.1436 28.0188C43.1436 28.4313 43.4186 28.7063 43.8311 28.7063H46.5811C46.9936 28.7063 47.2686 28.4313 47.2686 28.0188C47.2686 27.6063 46.9936 27.3313 46.5811 27.3313Z" fill="url(#paint3_linear_50_238)"/>
<path d="M12.2061 27.3313H9.45609C9.04359 27.3313 8.76859 27.6063 8.76859 28.0188C8.76859 28.4313 9.04359 28.7063 9.45609 28.7063H12.2061C12.6186 28.7063 12.8936 28.4313 12.8936 28.0188C12.8936 27.6063 12.6186 27.3313 12.2061 27.3313Z" fill="url(#paint4_linear_50_238)"/>
<path d="M40.6686 14.4062L39.7061 15.3687C39.4311 15.6437 39.4311 16.0562 39.7061 16.3312C39.8436 16.4687 39.9811 16.4687 40.2561 16.4687C40.5311 16.4687 40.6686 16.4687 40.8061 16.3312L41.7686 15.3687C42.0436 15.0937 42.0436 14.6812 41.7686 14.4062C41.4936 14.1312 40.9436 14.1312 40.6686 14.4062Z" fill="url(#paint5_linear_50_238)"/>
<path d="M15.3686 39.7062L14.4061 40.6688C14.1311 40.9438 14.1311 41.3562 14.4061 41.6312C14.5436 41.7687 14.6811 41.7687 14.9561 41.7687C15.2311 41.7687 15.3686 41.7687 15.5061 41.6312L16.4686 40.6688C16.7436 40.3938 16.7436 39.9812 16.4686 39.7062C16.1936 39.4313 15.6436 39.4313 15.3686 39.7062Z" fill="url(#paint6_linear_50_238)"/>
<path d="M40.6686 39.7062C40.3936 39.4313 39.9811 39.4313 39.7061 39.7062C39.4311 39.9812 39.4311 40.3938 39.7061 40.6688L40.6686 41.6312C40.8061 41.7687 40.9436 41.7687 41.2186 41.7687C41.4936 41.7687 41.6311 41.7687 41.7686 41.6312C42.0436 41.3562 42.0436 40.9438 41.7686 40.6688L40.6686 39.7062Z" fill="url(#paint7_linear_50_238)"/>
<path d="M15.3686 16.3312C15.5061 16.4687 15.6436 16.6062 15.9186 16.6062C16.1936 16.6062 16.3311 16.6062 16.4686 16.4687C16.7436 16.1937 16.7436 15.7812 16.4686 15.5062L15.3686 14.4062C15.0936 14.1312 14.6811 14.1312 14.4061 14.4062C14.1311 14.6812 14.1311 15.0937 14.4061 15.3687L15.3686 16.3312Z" fill="url(#paint8_linear_50_238)"/>
<path d="M43.8311 22.1062H44.1061L45.3436 21.5562C45.7561 21.4187 45.8936 21.0062 45.7561 20.5937C45.6186 20.1812 45.2061 20.0437 44.7936 20.1812L43.5561 20.7312C43.1436 20.8687 43.0061 21.2812 43.1436 21.6937C43.4186 21.9687 43.5561 22.1062 43.8311 22.1062Z" fill="url(#paint9_linear_50_238)"/>
<path d="M11.9311 33.9312L10.6936 34.4812C10.2811 34.6187 10.1436 35.0312 10.2811 35.4437C10.4186 35.7187 10.6936 35.8562 10.9686 35.8562H11.2436L12.4811 35.3062C12.8936 35.1687 13.0311 34.7562 12.8936 34.3437C12.6186 33.9312 12.2061 33.7937 11.9311 33.9312Z" fill="url(#paint10_linear_50_238)"/>
<path d="M35.3061 43.6938C35.1686 43.2813 34.7561 43.1438 34.3436 43.2813C33.9311 43.4188 33.7936 43.8313 33.9311 44.2438L34.4811 45.4813C34.6186 45.7563 34.8936 45.8938 35.1686 45.8938H35.4436C35.8561 45.7563 35.9936 45.3438 35.8561 44.9313L35.3061 43.6938Z" fill="url(#paint11_linear_50_238)"/>
<path d="M20.7311 12.3438C20.8686 12.6188 21.1436 12.8938 21.4186 12.8938H21.6936C22.1061 12.7563 22.2436 12.3438 22.1061 11.9313L21.5561 10.6938C21.4186 10.2813 21.0061 10.1438 20.5936 10.2813C20.1811 10.4188 20.0436 10.8313 20.1811 11.2438L20.7311 12.3438Z" fill="url(#paint12_linear_50_238)"/>
<path d="M10.5561 21.5562L11.7936 22.1062H12.0686C12.3436 22.1062 12.6186 21.9687 12.7561 21.6937C12.8936 21.2812 12.7561 21.0062 12.3436 20.7312L11.1061 20.1812C10.6936 20.0437 10.4186 20.1812 10.1436 20.5937C10.1436 21.0062 10.2811 21.4187 10.5561 21.5562Z" fill="url(#paint13_linear_50_238)"/>
<path d="M45.4811 34.4812L44.2436 33.9312C43.8311 33.7937 43.5561 33.9312 43.2811 34.3437C43.1436 34.7562 43.2811 35.0312 43.6936 35.3062L44.9311 35.8562H45.2061C45.4811 35.8562 45.7561 35.7187 45.8936 35.4437C45.8936 35.0312 45.7561 34.6187 45.4811 34.4812Z" fill="url(#paint14_linear_50_238)"/>
<path d="M21.6936 43.2813C21.2811 43.1438 21.0061 43.2813 20.7311 43.6938L20.1811 44.9313C20.0436 45.3438 20.1811 45.6188 20.5936 45.8938H20.8686C21.1436 45.8938 21.4186 45.7563 21.5561 45.4813L22.1061 44.2438C22.2436 43.8313 22.1061 43.4188 21.6936 43.2813Z" fill="url(#paint15_linear_50_238)"/>
<path d="M34.3436 12.7563H34.6186C34.8936 12.7563 35.1686 12.6188 35.3061 12.3438L35.8561 11.1063C35.9936 10.6938 35.8561 10.4188 35.4436 10.1438C35.0311 10.0063 34.7561 10.1438 34.4811 10.5563L33.9311 11.7938C33.7936 12.2063 33.9311 12.6188 34.3436 12.7563Z" fill="url(#paint16_linear_50_238)"/>
<path d="M36.9561 22.9314C36.6811 22.7939 36.2686 22.7939 35.9936 23.2064L29.8061 34.2064C29.6686 34.4814 29.6686 34.8939 30.0811 35.1689C30.2186 35.1689 30.3561 35.3064 30.3561 35.3064C30.6311 35.3064 30.7686 35.1689 30.9061 34.8939L37.0936 23.8939C37.3686 23.6189 37.2311 23.2064 36.9561 22.9314Z" fill="url(#paint17_linear_50_238)"/>
<path d="M39.5686 28.0189C39.4311 27.8814 39.2936 27.7439 39.0186 27.7439H36.2686C35.8561 27.7439 35.5811 28.0189 35.5811 28.4314C35.5811 28.8439 35.8561 29.1189 36.2686 29.1189H38.0561L36.2686 33.6564C36.1311 34.0689 36.2686 34.3439 36.6811 34.4814H36.9561C37.2311 34.4814 37.5061 34.3439 37.6436 34.0689L39.7061 28.5689C39.7061 28.4314 39.7061 28.1564 39.5686 28.0189Z" fill="url(#paint18_linear_50_238)"/>
<path d="M30.0811 29.8063V29.1188H30.7686C31.1811 29.1188 31.4561 28.8438 31.4561 28.4313C31.4561 28.0188 31.1811 27.7438 30.7686 27.7438H30.0811V24.3063C30.0811 23.8938 29.8061 23.6188 29.3936 23.6188C28.9811 23.6188 28.7061 23.8938 28.7061 24.3063V27.7438H26.0936L27.3311 21.6938C27.4686 21.2813 27.1936 21.0063 26.7811 20.8688C26.3686 20.7313 26.0936 21.0063 25.9561 21.4188L24.5811 28.2938C24.5811 28.4313 24.5811 28.7063 24.7186 28.8438C24.8561 28.9813 24.9936 29.1188 25.2686 29.1188H28.7061V29.8063C28.7061 30.2188 28.9811 30.4938 29.3936 30.4938C29.8061 30.4938 30.0811 30.0813 30.0811 29.8063Z" fill="url(#paint19_linear_50_238)"/>
<path d="M23.2061 24.3064C23.2061 22.3814 21.6936 20.8689 19.7686 20.8689C17.8436 20.8689 16.3311 22.3814 16.3311 24.3064C16.3311 24.7189 16.6061 24.9939 17.0186 24.9939C17.4311 24.9939 17.7061 24.7189 17.7061 24.3064C17.7061 23.2064 18.6686 22.2439 19.7686 22.2439C20.8686 22.2439 21.8311 23.2064 21.8311 24.3064C21.8311 24.8564 21.5561 25.4064 21.2811 25.6814L16.6061 29.2564C16.3311 29.3939 16.3311 29.8064 16.3311 30.0814C16.3311 30.3564 16.7436 30.4939 17.0186 30.4939H22.5186C22.9311 30.4939 23.2061 30.2189 23.2061 29.8064C23.2061 29.3939 22.9311 29.1189 22.5186 29.1189H19.0811L22.2436 26.7814C22.7936 25.9564 23.2061 25.1314 23.2061 24.3064Z" fill="url(#paint20_linear_50_238)"/>
<defs>
<linearGradient id="paint0_linear_50_238" x1="4.69296e-07" y1="4.13948" x2="61.4008" y2="13.7282" gradientUnits="userSpaceOnUse">
<stop stop-color="#7367F0"/>
<stop offset="1" stop-color="#2AA5DE"/>
</linearGradient>
<linearGradient id="paint1_linear_50_238" x1="11.3467" y1="10.834" x2="42.8122" y2="10.834" gradientUnits="userSpaceOnUse">
<stop stop-color="#7367F0"/>
<stop offset="1" stop-color="#2AA5DE"/>
</linearGradient>
<linearGradient id="paint2_linear_50_238" x1="11.3467" y1="45.209" x2="42.8122" y2="45.209" gradientUnits="userSpaceOnUse">
<stop stop-color="#7367F0"/>
<stop offset="1" stop-color="#2AA5DE"/>
</linearGradient>
<linearGradient id="paint3_linear_50_238" x1="11.3467" y1="28.0215" x2="42.8122" y2="28.0215" gradientUnits="userSpaceOnUse">
<stop stop-color="#7367F0"/>
<stop offset="1" stop-color="#2AA5DE"/>
</linearGradient>
<linearGradient id="paint4_linear_50_238" x1="11.3467" y1="28.0215" x2="42.8122" y2="28.0215" gradientUnits="userSpaceOnUse">
<stop stop-color="#7367F0"/>
<stop offset="1" stop-color="#2AA5DE"/>
</linearGradient>
<linearGradient id="paint5_linear_50_238" x1="11.3467" y1="15.3811" x2="42.8122" y2="15.3811" gradientUnits="userSpaceOnUse">
<stop stop-color="#7367F0"/>
<stop offset="1" stop-color="#2AA5DE"/>
</linearGradient>
<linearGradient id="paint6_linear_50_238" x1="11.3467" y1="40.6605" x2="42.8122" y2="40.6605" gradientUnits="userSpaceOnUse">
<stop stop-color="#7367F0"/>
<stop offset="1" stop-color="#2AA5DE"/>
</linearGradient>
<linearGradient id="paint7_linear_50_238" x1="11.3467" y1="40.6605" x2="42.8122" y2="40.6605" gradientUnits="userSpaceOnUse">
<stop stop-color="#7367F0"/>
<stop offset="1" stop-color="#2AA5DE"/>
</linearGradient>
<linearGradient id="paint8_linear_50_238" x1="11.3467" y1="15.3811" x2="42.8122" y2="15.3811" gradientUnits="userSpaceOnUse">
<stop stop-color="#7367F0"/>
<stop offset="1" stop-color="#2AA5DE"/>
</linearGradient>
<linearGradient id="paint9_linear_50_238" x1="11.3467" y1="21.1685" x2="42.8122" y2="21.1685" gradientUnits="userSpaceOnUse">
<stop stop-color="#7367F0"/>
<stop offset="1" stop-color="#2AA5DE"/>
</linearGradient>
<linearGradient id="paint10_linear_50_238" x1="11.3467" y1="34.8731" x2="42.8122" y2="34.8731" gradientUnits="userSpaceOnUse">
<stop stop-color="#7367F0"/>
<stop offset="1" stop-color="#2AA5DE"/>
</linearGradient>
<linearGradient id="paint11_linear_50_238" x1="11.3467" y1="44.5312" x2="42.8122" y2="44.5312" gradientUnits="userSpaceOnUse">
<stop stop-color="#7367F0"/>
<stop offset="1" stop-color="#2AA5DE"/>
</linearGradient>
<linearGradient id="paint12_linear_50_238" x1="11.3467" y1="11.5119" x2="42.8122" y2="11.5119" gradientUnits="userSpaceOnUse">
<stop stop-color="#7367F0"/>
<stop offset="1" stop-color="#2AA5DE"/>
</linearGradient>
<linearGradient id="paint13_linear_50_238" x1="11.3467" y1="21.1685" x2="42.8122" y2="21.1685" gradientUnits="userSpaceOnUse">
<stop stop-color="#7367F0"/>
<stop offset="1" stop-color="#2AA5DE"/>
</linearGradient>
<linearGradient id="paint14_linear_50_238" x1="11.3467" y1="34.8731" x2="42.8122" y2="34.8731" gradientUnits="userSpaceOnUse">
<stop stop-color="#7367F0"/>
<stop offset="1" stop-color="#2AA5DE"/>
</linearGradient>
<linearGradient id="paint15_linear_50_238" x1="11.3467" y1="44.5312" x2="42.8122" y2="44.5312" gradientUnits="userSpaceOnUse">
<stop stop-color="#7367F0"/>
<stop offset="1" stop-color="#2AA5DE"/>
</linearGradient>
<linearGradient id="paint16_linear_50_238" x1="11.3467" y1="11.5106" x2="42.8122" y2="11.5106" gradientUnits="userSpaceOnUse">
<stop stop-color="#7367F0"/>
<stop offset="1" stop-color="#2AA5DE"/>
</linearGradient>
<linearGradient id="paint17_linear_50_238" x1="11.3467" y1="29.0515" x2="42.8122" y2="29.0515" gradientUnits="userSpaceOnUse">
<stop stop-color="#7367F0"/>
<stop offset="1" stop-color="#2AA5DE"/>
</linearGradient>
<linearGradient id="paint18_linear_50_238" x1="11.3467" y1="31.1154" x2="42.8122" y2="31.1154" gradientUnits="userSpaceOnUse">
<stop stop-color="#7367F0"/>
<stop offset="1" stop-color="#367FD3"/>
</linearGradient>
<linearGradient id="paint19_linear_50_238" x1="11.3467" y1="25.6139" x2="42.8122" y2="25.6139" gradientUnits="userSpaceOnUse">
<stop stop-color="#367FD3"/>
<stop offset="1" stop-color="#7367F0"/>
</linearGradient>
<linearGradient id="paint20_linear_50_238" x1="11.3467" y1="25.6154" x2="42.8122" y2="25.6154" gradientUnits="userSpaceOnUse">
<stop stop-color="#7367F0"/>
<stop offset="1" stop-color="#2AA5DE"/>
</linearGradient>
</defs>
</svg>
