<svg width="24" height="14" viewBox="0 0 24 14" fill="none" xmlns="http://www.w3.org/2000/svg">
<path d="M17.3 1.29998C16.91 0.90998 16.28 0.90998 15.89 1.29998L10.25 6.93998L11.66 8.34998L17.3 2.69998C17.68 2.31998 17.68 1.67998 17.3 1.29998ZM21.54 1.28998L11.66 11.17L8.18002 7.69998C7.79002 7.30998 7.16001 7.30998 6.77001 7.69998C6.38001 8.08998 6.38001 8.71998 6.77001 9.10998L10.95 13.29C11.34 13.68 11.97 13.68 12.36 13.29L22.95 2.70998C23.34 2.31998 23.34 1.68998 22.95 1.29998H22.94C22.56 0.89998 21.93 0.89998 21.54 1.28998ZM1.12001 9.11998L5.30001 13.3C5.69001 13.69 6.32001 13.69 6.71001 13.3L7.41001 12.6L2.53001 7.69998C2.14001 7.30998 1.51001 7.30998 1.12001 7.69998C0.730015 8.08998 0.730015 8.72998 1.12001 9.11998Z" fill="white"/>
</svg>
