<svg width="28" height="28" viewBox="0 0 28 28" fill="none" xmlns="http://www.w3.org/2000/svg">
<path d="M15.6217 15.9259H15.4933L12.1217 15.5526C11.8597 15.5227 11.6156 15.4049 11.4292 15.2184C11.2427 15.032 11.1249 14.7879 11.095 14.5259L10.71 11.1543C10.6951 10.9769 10.721 10.7985 10.7858 10.6326C10.8505 10.4668 10.9523 10.318 11.0833 10.1976L19.25 2.08926C19.4686 1.87197 19.7643 1.75 20.0725 1.75C20.3807 1.75 20.6764 1.87197 20.895 2.08926L24.64 5.83426C24.8573 6.05285 24.9793 6.34854 24.9793 6.65676C24.9793 6.96497 24.8573 7.26067 24.64 7.47926L16.5317 15.6459C16.4082 15.754 16.2633 15.8347 16.1065 15.883C15.9497 15.9312 15.7845 15.9459 15.6217 15.9259ZM13.2883 13.3243L15.1667 13.5343L22.05 6.65092L19.985 4.56259L13.1017 11.4459L13.2883 13.3243Z" fill="white"/>
<path d="M21.5833 24.8859H13.4167C13.1072 24.8859 12.8105 24.763 12.5917 24.5442C12.3729 24.3254 12.25 24.0287 12.25 23.7193C12.25 23.4098 12.3729 23.1131 12.5917 22.8943C12.8105 22.6755 13.1072 22.5526 13.4167 22.5526H21.5833C21.8928 22.5526 22.1895 22.4297 22.4083 22.2109C22.6271 21.9921 22.75 21.6954 22.75 21.3859C22.75 21.0765 22.6271 20.7798 22.4083 20.561C22.1895 20.3422 21.8928 20.2193 21.5833 20.2193H5.25C4.32174 20.2193 3.4315 19.8505 2.77513 19.1941C2.11875 18.5378 1.75 17.6475 1.75 16.7193C1.75 15.791 2.11875 14.9008 2.77513 14.2444C3.4315 13.588 4.32174 13.2193 5.25 13.2193H7.58333C7.89275 13.2193 8.1895 13.3422 8.40829 13.561C8.62708 13.7798 8.75 14.0765 8.75 14.3859C8.75 14.6954 8.62708 14.9921 8.40829 15.2109C8.1895 15.4297 7.89275 15.5526 7.58333 15.5526H5.25C4.94058 15.5526 4.64383 15.6755 4.42504 15.8943C4.20625 16.1131 4.08333 16.4098 4.08333 16.7193C4.08333 17.0287 4.20625 17.3254 4.42504 17.5442C4.64383 17.763 4.94058 17.8859 5.25 17.8859H21.5833C22.5116 17.8859 23.4018 18.2547 24.0582 18.9111C24.7146 19.5674 25.0833 20.4577 25.0833 21.3859C25.0833 22.3142 24.7146 23.2044 24.0582 23.8608C23.4018 24.5172 22.5116 24.8859 21.5833 24.8859Z" fill="white"/>
</svg>
