<svg width="57" height="57" viewBox="0 0 57 57" fill="none" xmlns="http://www.w3.org/2000/svg">
<path d="M47.2031 3.56253C47.0763 3.61037 46.9621 3.68652 46.8691 3.78518L43.585 7.06936V7.12503C43.5656 7.14275 43.547 7.16133 43.5293 7.18069L40.9688 9.68557L38.4639 7.18069C38.372 7.08276 38.2592 7.00686 38.1339 6.95867C38.0086 6.91047 37.874 6.89123 37.7402 6.90237C37.5471 6.93742 37.371 7.03526 37.2393 7.18069L28.1104 16.3096C28.0151 16.3903 27.9379 16.4901 27.8837 16.6025C27.8295 16.715 27.7996 16.8376 27.7958 16.9624C27.792 17.0871 27.8145 17.2113 27.8618 17.3268C27.9091 17.4423 27.9802 17.5466 28.0704 17.6329C28.1606 17.7192 28.268 17.7855 28.3855 17.8277C28.503 17.8698 28.628 17.8868 28.7525 17.8775C28.877 17.8682 28.9981 17.8328 29.108 17.7737C29.218 17.7145 29.3143 17.6329 29.3906 17.5342L37.8516 9.07327L39.7441 10.9658L29.5576 21.1524L16.5879 8.23831C16.5572 8.17863 16.5198 8.12261 16.4766 8.07132C16.4428 8.03099 16.4056 7.99374 16.3652 7.95999L14.1387 5.67776C13.3088 4.84788 12.17 4.45315 11.0771 4.45315C9.98429 4.45315 8.90114 4.84788 8.07129 5.67776L6.5127 7.29202C4.85304 8.95179 4.85303 11.644 6.5127 13.3037L8.68359 15.5303C8.7316 15.5931 8.78776 15.6493 8.85059 15.6973C8.92741 15.7895 9.02208 15.8652 9.12891 15.9199L21.9316 28.7227L8.29395 42.3604C8.13737 42.5258 8.05011 42.7449 8.05011 42.9727C8.05011 43.2005 8.13737 43.4196 8.29395 43.585L8.90625 44.1973L6.17871 46.8692C6.09286 46.9522 6.02459 47.0517 5.97797 47.1617C5.93134 47.2716 5.90732 47.3899 5.90732 47.5093C5.90732 47.6287 5.93134 47.747 5.97797 47.8569C6.02459 47.9669 6.09286 48.0664 6.17871 48.1494L6.90234 48.8731L3.67383 52.1573L4.9541 53.4375L8.18262 50.1533L8.96192 50.9326C9.04497 51.0185 9.14444 51.0867 9.25441 51.1333C9.36439 51.18 9.48261 51.204 9.60205 51.204C9.72149 51.204 9.83972 51.18 9.94969 51.1333C10.0597 51.0867 10.1591 51.0185 10.2422 50.9326L12.9141 48.2051L13.0811 48.3721C13.1641 48.4579 13.2636 48.5262 13.3736 48.5728C13.4835 48.6194 13.6017 48.6435 13.7212 48.6435C13.8406 48.6435 13.9589 48.6194 14.0688 48.5728C14.1788 48.5262 14.2783 48.4579 14.3613 48.3721L27.9434 34.7344L42.082 48.9287C42.1158 48.9691 42.153 49.0063 42.1934 49.0401L42.249 49.0957C42.2668 49.1151 42.2853 49.1337 42.3047 49.1514C42.3041 49.1699 42.3041 49.1885 42.3047 49.2071C42.3232 49.2076 42.3418 49.2076 42.3604 49.2071C42.4421 49.2793 42.5365 49.3359 42.6387 49.3741L52.1572 52.4912C52.312 52.5389 52.4768 52.5434 52.6339 52.5044C52.791 52.4653 52.9345 52.3842 53.049 52.2697C53.1635 52.1553 53.2446 52.0117 53.2836 51.8546C53.3227 51.6975 53.3181 51.5327 53.2705 51.378L50.1533 42.0264C50.1322 41.928 50.0946 41.8339 50.042 41.7481C50.0426 41.7295 50.0426 41.711 50.042 41.6924C50.0426 41.6739 50.0426 41.6553 50.042 41.6367C50.0234 41.6362 50.0049 41.6362 49.9863 41.6367C49.9869 41.6182 49.9869 41.5996 49.9863 41.5811C49.9678 41.5805 49.9492 41.5805 49.9307 41.5811C49.9313 41.5625 49.9313 41.544 49.9307 41.5254C49.8538 41.4332 49.7592 41.3575 49.6524 41.3028L35.5693 27.1641L49.541 13.1924C49.5813 13.1587 49.6186 13.1214 49.6524 13.0811V13.0254C49.6927 12.9917 49.7299 12.9544 49.7637 12.9141L52.8809 9.85257C52.9667 9.76951 53.035 9.67004 53.0816 9.56007C53.1282 9.4501 53.1522 9.33187 53.1522 9.21243C53.1522 9.09299 53.1282 8.97476 53.0816 8.86479C53.035 8.75482 52.9667 8.65535 52.8809 8.57229L48.0938 3.78518C47.9795 3.67071 47.8362 3.5895 47.6793 3.55028C47.5224 3.51105 47.3578 3.51529 47.2031 3.56253ZM47.4815 5.67776L50.9883 9.1846L48.8731 11.2442L45.4219 7.793L47.4815 5.67776ZM11.0771 6.17874C11.7092 6.17856 12.3666 6.46623 12.8584 6.95804L14.6397 8.68362L9.51856 13.8047L7.73731 12.0235C6.75363 11.0399 6.75352 9.50059 7.73731 8.51663L9.35156 6.95804C9.84343 6.46623 10.4451 6.17874 11.0771 6.17874ZM44.1416 9.07327L47.6484 12.5801L45.7559 14.4727L42.249 10.9658L44.1416 9.07327ZM15.8643 9.90823L28.2773 22.377L26.3848 24.2696L13.9717 11.8008L15.8643 9.90823ZM40.9688 12.2461L44.5313 15.6973L34.2891 25.9395L30.8379 22.4883C30.8202 22.469 30.8016 22.4504 30.7822 22.4326L40.9688 12.2461ZM12.7471 13.0254L25.1602 25.4942L23.1563 27.4981L10.7432 15.0293L12.7471 13.0254ZM29.5576 23.6573L33.0645 27.1641L13.6934 46.4795L10.1865 42.9727L29.5576 23.6573ZM34.2891 28.3887L47.9824 42.0821L46.0342 44.0303L32.3965 30.2813L34.2891 28.3887ZM31.1719 31.5616L44.8096 45.3106L42.917 47.2032L29.2236 33.5098L31.1719 31.5616ZM48.8731 43.752L51.044 50.209L44.5869 48.0381L48.8731 43.752ZM10.0195 45.5889L11.5225 47.0918L9.62988 49.0401L8.07129 47.5371L10.0195 45.5889Z" fill="url(#paint0_linear_50_255)"/>
<defs>
<linearGradient id="paint0_linear_50_255" x1="3.67472" y1="28.4804" x2="53.3093" y2="28.4804" gradientUnits="userSpaceOnUse">
<stop stop-color="#7367F0"/>
<stop offset="1" stop-color="#2AA5DE"/>
</linearGradient>
</defs>
</svg>
