<svg width="63" height="64" viewBox="0 0 63 64" fill="none" xmlns="http://www.w3.org/2000/svg">
<path d="M60.8349 0.9977C59.6204 1.2777 30.9659 7.9592 20.6724 18.3241C15.5939 23.4341 12.0351 29.4982 10.6526 35.3908C9.6068 39.8484 9.8924 43.8363 11.4226 46.9912C7.29913 51.7434 3.48381 56.7544 0 61.9936L2.3541 63.5C5.61059 58.6011 9.16586 53.9076 12.9997 49.4461C13.2097 49.6974 13.4295 49.9417 13.6619 50.1762C16.0482 52.5793 19.3956 53.8288 23.3121 53.8288C24.5776 53.8239 25.84 53.7037 27.0837 53.4697L28.1729 53.2695L28.4676 47.0038L36.225 50.0656L36.8067 49.7268C39.913 47.9037 42.7673 45.6819 45.297 43.1181C55.5912 32.7532 62.23 3.9027 62.5058 2.6791L63 0.5L60.8349 0.9977ZM43.3251 41.1322C41.123 43.3627 38.6582 45.3176 35.9849 46.9541L25.8657 42.9606L25.4933 50.8776C21.3682 51.4019 17.8934 50.4646 15.6345 48.191C15.3562 47.9077 15.0975 47.6058 14.8603 47.2873C22.4429 38.5376 30.9906 30.6733 40.3403 23.8443L38.7212 21.5574C29.4811 28.3002 21.0124 36.0412 13.4687 44.6399C12.6327 41.8375 12.5985 38.857 13.37 36.0362C14.63 30.6448 17.927 25.0595 22.645 20.31C30.7839 12.1151 52.2711 6.0769 59.241 4.2842C57.4616 11.3024 51.4675 32.9345 43.3251 41.1322Z" fill="url(#paint0_linear_67_63)"/>
<defs>
<linearGradient id="paint0_linear_67_63" x1="19.6245" y1="19.3713" x2="44.3345" y2="44.0813" gradientUnits="userSpaceOnUse">
<stop stop-color="#00C6FF"/>
<stop offset="1" stop-color="#0072FF"/>
</linearGradient>
</defs>
</svg>
