<svg width="47" height="41" viewBox="0 0 47 41" fill="none" xmlns="http://www.w3.org/2000/svg">
<path d="M23.42 40.1696C23.0399 40.1696 22.6936 39.9235 22.5655 39.5667C22.4392 39.2149 22.5472 38.8106 22.8322 38.5685C23.1293 38.3161 23.5681 38.2847 23.8994 38.4892C24.2173 38.6855 24.3851 39.0723 24.3113 39.4383C24.2269 39.8574 23.8484 40.1696 23.42 40.1696Z" fill="#367FD3"/>
<path d="M36.9727 27.74H22.7831C22.2813 27.74 21.8745 27.3332 21.8745 26.8314C21.8745 26.3296 22.2813 25.9228 22.7831 25.9228H36.9727C37.4746 25.9228 37.8813 26.3296 37.8813 26.8314C37.8813 27.3332 37.4745 27.74 36.9727 27.74Z" fill="#367FD3"/>
<path d="M18.0506 34.6968H5.90261C5.40088 34.6968 4.99401 34.2901 4.99401 33.7882V26.8314C4.99401 26.3296 5.40088 25.9228 5.90261 25.9228H18.0506C18.5524 25.9228 18.9592 26.3296 18.9592 26.8314V33.7882C18.9592 34.2901 18.5524 34.6968 18.0506 34.6968ZM6.81121 32.8796H17.142V27.74H6.81121V32.8796Z" fill="#367FD3"/>
<path d="M46.6637 6.76982C46.6637 4.92237 45.1646 3.41946 43.3218 3.41946H22.736L20.215 0.486051C20.0425 0.28516 19.7908 0.169678 19.5259 0.169678H3.48547C1.64274 0.169678 0.143555 1.67259 0.143555 3.52004V36.8235C0.143555 38.6686 1.64465 40.1697 3.48974 40.1697H19.2962C19.7981 40.1697 20.2048 39.7629 20.2048 39.2611C20.2048 38.7593 19.7981 38.3525 19.2962 38.3525H3.48974C2.64665 38.3525 1.96075 37.6666 1.96075 36.8235V16.7728C1.96075 15.6524 2.87225 14.7408 3.99274 14.7408H42.8145C43.935 14.7408 44.8465 15.6524 44.8465 16.7728V36.8234C44.8465 37.6665 44.1606 38.3524 43.3175 38.3524H27.5111C27.0093 38.3524 26.6025 38.7592 26.6025 39.261C26.6025 39.7628 27.0093 40.1696 27.5111 40.1696H43.3176C45.1626 40.1696 46.6637 38.6685 46.6637 36.8234V16.7728V6.76982ZM5.90261 12.9237V9.50088H40.8923V12.9237H5.90261ZM42.8146 12.9237H42.7095V8.59229C42.7095 8.09047 42.3027 7.68369 41.8009 7.68369H4.99401C4.49228 7.68369 4.08541 8.09047 4.08541 8.59229V12.9237H3.99274C3.24741 12.9237 2.55088 13.1366 1.96075 13.5049V3.52004C1.96075 2.67468 2.64474 1.98687 3.48547 1.98687H19.1087L21.6297 4.92028C21.8022 5.12117 22.0539 5.23665 22.3188 5.23665H43.3217C44.1625 5.23665 44.8465 5.92446 44.8465 6.76982V13.5048C44.2564 13.1366 43.5599 12.9237 42.8146 12.9237Z" fill="#367FD3"/>
</svg>
