<svg width="305" height="88" viewBox="0 0 305 88" fill="none" xmlns="http://www.w3.org/2000/svg">
<rect x="304.5" y="87.5" width="304" height="61" rx="6.5" transform="rotate(-180 304.5 87.5)" stroke="#58585E"/>
<path d="M282.8 44H232.2C230.985 44 230 44.985 230 46.2V74.8C230 76.015 230.985 77 232.2 77H282.8C284.015 77 285 76.015 285 74.8V46.2C285 44.985 284.015 44 282.8 44Z" fill="white"/>
<path d="M243.263 77H282.8C284.015 77 285 76.0172 285 74.8028V62.5339C285 62.5339 270.26 72.5274 243.263 77Z" fill="#E6772F"/>
<path fill-rule="evenodd" clip-rule="evenodd" d="M240.059 60.4022C239.646 60.7553 239.12 60.9098 238.28 60.9098H237.931V56.6968H238.28C239.12 56.6968 239.626 56.8404 240.059 57.2111C240.506 57.5944 240.774 58.1846 240.774 58.7962C240.774 59.41 240.506 60.0221 240.059 60.4022ZM238.54 55.6172H236.631V61.9895H238.529C239.538 61.9895 240.267 61.7596 240.905 61.2525C241.664 60.6513 242.114 59.7444 242.114 58.805C242.114 56.924 240.645 55.6172 238.54 55.6172ZM242.713 55.6172H244.007V61.9895H242.713V55.6172ZM247.184 58.0597C246.403 57.7853 246.175 57.6032 246.175 57.2584C246.175 56.858 246.583 56.5544 247.144 56.5544C247.533 56.5544 247.854 56.7034 248.195 57.0675L248.87 56.2194C248.325 55.7563 247.631 55.505 246.916 55.5116C245.737 55.5116 244.839 56.2959 244.839 57.3332C244.839 58.2137 245.256 58.6609 246.475 59.0849C246.985 59.2543 247.243 59.3704 247.374 59.4485C247.634 59.6091 247.763 59.839 247.763 60.1052C247.763 60.6238 247.334 61.0044 246.754 61.0044C246.136 61.0044 245.636 60.7085 245.337 60.153L244.5 60.9285C245.099 61.7678 245.816 62.1429 246.805 62.1429C248.152 62.1429 249.102 61.2794 249.102 60.0496C249.102 59.036 248.662 58.5762 247.184 58.0597ZM249.51 58.805C249.51 60.6788 251.047 62.1308 253.026 62.1308C253.584 62.1308 254.062 62.0252 254.651 61.7596V60.2949C254.131 60.7954 253.674 60.9934 253.083 60.9934C251.776 60.9934 250.849 60.0876 250.849 58.7962C250.849 57.5752 251.805 56.6088 253.026 56.6088C253.642 56.6088 254.113 56.8178 254.651 57.3255V55.8625C254.082 55.5875 253.615 55.4736 253.053 55.4736C251.085 55.4736 249.511 56.9537 249.511 58.805H249.51ZM265.172 59.8951L263.396 55.6172H261.98L264.803 62.1501H265.499L268.377 55.6172H266.972L265.172 59.8951H265.172ZM268.966 61.9895H272.649V60.9098H270.265V59.1894H272.558V58.1103H270.265V56.6968H272.649V55.6172H268.966V61.9895ZM275.185 58.5476H274.808V56.6204H275.206C276.017 56.6204 276.452 56.946 276.452 57.5664C276.452 58.2044 276.017 58.5476 275.185 58.5476ZM277.789 57.4971C277.789 56.3041 276.934 55.6172 275.435 55.6172H273.506V61.9895H274.808V59.4276H274.977L276.771 61.9895H278.368L276.273 59.3038C277.252 59.1124 277.789 58.4722 277.789 57.4976V57.4971Z" fill="#1A1919"/>
<path fill-rule="evenodd" clip-rule="evenodd" d="M262.164 58.8198C262.164 60.6541 260.61 62.1413 258.692 62.1413C256.775 62.1413 255.221 60.6541 255.221 58.8198C255.221 56.985 256.775 55.4978 258.692 55.4978C260.61 55.4978 262.164 56.985 262.164 58.8198Z" fill="#E6772F"/>
<path d="M41.4283 57.692C41.4025 59.475 43.2443 60.4701 44.6318 61.0616C46.0574 61.6686 46.5362 62.0579 46.5307 62.6006C46.5199 63.4314 45.3935 63.798 44.3393 63.8123C42.5002 63.8373 41.431 63.3778 40.5808 63.0303L39.9184 65.7429C40.7713 66.0869 42.3506 66.3868 43.9884 66.3999C47.8325 66.3999 50.3477 64.7395 50.3613 62.165C50.3763 58.8977 45.1963 58.7168 45.2317 57.2564C45.2439 56.8136 45.7268 56.3411 46.7851 56.2208C47.3088 56.1601 48.7548 56.1137 50.394 56.7743L51.0374 54.1498C50.1559 53.8689 49.0228 53.5999 47.6122 53.5999C43.9938 53.5999 41.4487 55.2829 41.4283 57.692ZM57.2199 53.826C56.518 53.826 55.9263 54.1843 55.6624 54.7342L50.1709 66.2071H54.0124L54.7768 64.3586H59.4712L59.9147 66.2071H63.3004L60.3459 53.826H57.2199ZM57.7572 57.1707L58.8659 61.8198H55.8297L57.7572 57.1707ZM36.7707 53.826L33.7427 66.2071H37.4032L40.4298 53.826H36.7707ZM31.3553 53.826L27.5452 62.2531L26.004 55.0877C25.823 54.2879 25.1089 53.826 24.3158 53.826H18.0871L18 54.1855C19.2787 54.4283 20.7315 54.8199 21.6116 55.2389C22.1502 55.4948 22.304 55.7186 22.4808 56.3268L25.4 66.2071H29.2687L35.1995 53.826H31.3553Z" fill="#1B2073"/>
<path d="M18 44H64.6115V48.2667H18V44Z" fill="#1B2073"/>
<path d="M18 71.7334H64.6115V76.0001H18V71.7334Z" fill="#F7B802"/>
<path d="M121.555 49.3008H109.4V70.6564H121.555V49.3008Z" fill="#FF5F00"/>
<path d="M110.172 59.9786C110.172 55.6396 112.256 51.791 115.458 49.3008C113.105 47.4897 110.133 46.3955 106.892 46.3955C99.2127 46.3955 93 52.4702 93 59.9786C93 67.487 99.2127 73.5617 106.892 73.5617C110.133 73.5617 113.105 72.4675 115.458 70.6564C112.256 68.2039 110.172 64.3177 110.172 59.9786Z" fill="#EB001B"/>
<path d="M137.956 59.9786C137.956 67.487 131.743 73.5617 124.064 73.5617C120.822 73.5617 117.851 72.4675 115.497 70.6564C118.739 68.1662 120.784 64.3177 120.784 59.9786C120.784 55.6396 118.7 51.791 115.497 49.3008C117.851 47.4897 120.822 46.3955 124.064 46.3955C131.743 46.3955 137.956 52.5079 137.956 59.9786Z" fill="#F79E1B"/>
<path d="M165 44H202.689V75H165V44Z" fill="white"/>
<path d="M202.69 60.8825H200.726C200.139 60.8825 199.7 60.9942 199.398 61.1735V60.8825H196.501C196.042 60.8825 195.489 60.9734 195.233 61.1735V60.8825H190.059V61.1735C189.645 60.9341 188.952 60.8825 188.625 60.8825H185.209V61.1735C184.883 60.9156 184.165 60.8825 183.726 60.8825H179.896L179.02 61.6591L178.206 60.8825H172.495V65.949H178.099L178.997 65.1601L179.848 65.9465L183.298 65.949V64.7544H183.642C184.098 64.7544 184.638 64.7458 185.109 64.58V65.949H187.967V64.6226H188.106C188.28 64.6218 188.294 64.6341 188.294 64.7691V65.949H196.945C197.489 65.949 198.076 65.8335 198.392 65.6284V65.949H201.135C201.703 65.949 202.265 65.8814 202.69 65.7169V75H165V59.6998H166.809L167.218 58.8872H168.129L168.539 59.6998H172.1V59.0816L172.42 59.701H174.263L174.584 59.0718V59.6998H183.43L183.429 58.3734H183.601C183.729 58.3734 183.759 58.3857 183.759 58.547V59.6998H188.335L188.334 59.385C188.699 59.5475 189.271 59.7002 190.034 59.7002H191.958L192.374 58.8872H193.286L193.695 59.6998H197.395V58.9301L197.963 59.6998H200.935V54.6329H197.996V55.2306L197.575 54.6329H194.555V55.2306L194.184 54.6329H190.106C189.419 54.6329 188.814 54.7078 188.334 54.9243V54.6329H185.523V54.9243C185.203 54.7033 184.788 54.6329 184.323 54.6329H174.04L173.344 55.9396L172.64 54.6329H169.404V55.2306L169.039 54.6329H166.276L165 57.0359V44H202.689V60.8825H202.69ZM199.996 58.9846H198.487L196.481 56.2593L196.482 58.9846H194.327L193.919 58.1707H191.714L191.307 58.9846H190.074C189.554 58.9846 188.903 58.8863 188.534 58.5801C188.161 58.269 187.973 57.8547 187.973 57.1935C187.973 56.654 188.089 56.1607 188.541 55.7738C188.882 55.4848 189.423 55.3481 190.154 55.3481H191.166V56.1275L190.174 56.1263C189.783 56.1263 189.562 56.1746 189.355 56.3441C189.169 56.4956 189.045 56.7854 189.045 57.1678C189.045 57.5546 189.138 57.8326 189.346 58.0193C189.502 58.1609 189.796 58.2051 190.081 58.2051H190.557L192.049 55.3485H193.627L195.423 58.7864V55.3485H197.042L198.905 57.8793L198.903 55.3485H199.995V58.9846H199.996ZM186.37 58.9846H187.455V55.3472H186.371V58.9846H186.37ZM185.215 55.5241C184.874 55.3644 184.476 55.3481 183.939 55.3481H181.498V58.9846H182.557V57.6606H183.694C184.08 57.6606 184.313 57.6889 184.463 57.8203C184.66 57.991 184.638 58.3083 184.638 58.5244V58.9846H185.704V58.2628C185.704 57.9468 185.677 57.7798 185.529 57.6037C185.439 57.4981 185.239 57.3679 185.007 57.2955C185.286 57.2054 185.761 56.907 185.761 56.3306C185.761 55.9236 185.556 55.685 185.215 55.5241ZM180.764 58.2248L178.285 58.2272V57.5067L180.705 57.5079V56.7608H178.285V56.1058H180.764V55.3485H177.226V58.9846H180.764V58.2248ZM176.436 55.3485H174.672L173.396 57.8138L172.014 55.3481H170.28L170.282 58.7873L168.485 55.3481H166.906L165.009 58.9842H166.164L166.57 58.1703H168.775L169.184 58.9842H171.339V56.1332L172.879 58.9842H173.811L175.347 56.1369V58.9842H176.435V55.3481L176.436 55.3485ZM193.538 57.4134L192.815 55.9691L192.093 57.4134H193.537H193.538ZM184.368 56.8394C184.225 56.9094 184.053 56.9143 183.848 56.9143H182.557V56.1054H183.864C184.051 56.1054 184.242 56.1103 184.368 56.1685C184.5 56.2286 184.585 56.3404 184.585 56.4939C184.585 56.6503 184.503 56.7756 184.368 56.8394ZM166.95 57.4134L167.672 55.9691L168.395 57.4134H166.95ZM202.921 64.0879C202.921 64.8617 202.328 65.2326 201.256 65.2326H199.21V64.4531H201.248C201.445 64.4531 201.586 64.431 201.674 64.3647C201.714 64.3344 201.746 64.2976 201.767 64.2567C201.789 64.2158 201.8 64.1717 201.799 64.1272C201.801 64.0817 201.79 64.0365 201.768 63.9949C201.745 63.9532 201.712 63.9162 201.67 63.8865C201.59 63.8313 201.482 63.8087 201.301 63.8055C200.311 63.7834 199.066 63.8313 199.066 62.678C199.066 62.1569 199.469 61.5964 200.584 61.5964H202.696V62.3771H200.762C200.572 62.3771 200.444 62.382 200.341 62.4385C200.228 62.4987 200.183 62.5847 200.183 62.7018C200.183 62.8369 200.279 62.9314 200.416 62.9707C200.524 63.0014 200.646 63.0088 200.822 63.0117L201.391 63.024C201.979 63.0346 202.363 63.1144 202.601 63.3163C202.811 63.4968 202.921 63.7093 202.921 64.0879H202.921ZM198.461 63.3163C198.223 63.1157 197.835 63.0346 197.247 63.0235L196.68 63.0113C196.503 63.0088 196.384 63.0014 196.274 62.9707C196.205 62.9523 196.146 62.9162 196.104 62.8677C196.062 62.8192 196.041 62.761 196.043 62.7018C196.043 62.5847 196.088 62.4987 196.199 62.4385C196.303 62.382 196.432 62.3771 196.623 62.3771H198.566V61.5964H196.443C195.329 61.5964 194.925 62.1557 194.925 62.678C194.925 63.8325 196.17 63.7834 197.159 63.8055C197.34 63.8091 197.45 63.8313 197.528 63.8865C197.603 63.9381 197.659 64.0192 197.659 64.1276C197.659 64.2296 197.603 64.3106 197.533 64.3651C197.444 64.431 197.304 64.4531 197.106 64.4531H195.05V65.2326H197.114C198.187 65.2326 198.779 64.8613 198.779 64.0879C198.779 63.7097 198.671 63.4968 198.461 63.3163ZM194.42 64.4764L191.94 64.4752V63.758H194.361V63.0088L191.94 63.01V62.355H194.42V61.5964H190.881V65.2326H194.42V64.4764ZM189.749 61.7737C189.405 61.6124 189.009 61.5964 188.474 61.5964H186.032V65.2326H187.089V63.9111L188.229 63.9099C188.614 63.9099 188.846 63.9385 188.998 64.0683C189.195 64.2402 189.171 64.5563 189.171 64.7728V65.2326H190.239V64.5121C190.238 64.1964 190.212 64.029 190.062 63.8534C189.974 63.7465 189.774 63.6159 189.543 63.5435C189.819 63.4538 190.295 63.1562 190.295 62.5785C190.295 62.1733 190.089 61.9346 189.749 61.7737ZM183.752 61.5964H180.365L179.013 62.7902L177.714 61.5964H173.448V65.2326H177.648L179.002 64.0339L180.306 65.2326H182.369V64.0155H183.686C184.611 64.0155 185.529 63.8055 185.529 62.7988C185.529 61.7934 184.587 61.5964 183.752 61.5964ZM188.903 63.0899C188.759 63.1574 188.587 63.1627 188.383 63.1627L187.089 63.164V62.355H188.398C188.585 62.355 188.775 62.3599 188.903 62.4164C189.035 62.4778 189.119 62.5896 189.119 62.7435C189.119 62.8991 189.037 63.0248 188.903 63.0899H188.903ZM183.74 63.2696H182.368V62.355H183.752C184.131 62.355 184.392 62.484 184.392 62.7988C184.392 63.1107 184.143 63.2696 183.74 63.2696H183.74ZM179.686 63.4231L181.31 61.9911V64.9006L179.686 63.4231ZM177.111 64.4752H174.508V63.758H176.829V63.0088L174.508 63.01V62.355H177.157L178.32 63.412L177.111 64.4752Z" fill="url(#paint0_radial_964_3047)"/>
<rect x="96.5" y="34.5" width="85" height="34" rx="6.5" transform="rotate(-180 96.5 34.5)" fill="white" stroke="white"/>
<path d="M71.8842 15.5828H68.0524C67.827 15.5828 67.6016 15.8486 67.4889 16.1144L65.9111 27.8113C65.9111 28.0772 66.0238 28.2101 66.2492 28.2101H68.2778C68.5032 28.2101 68.6159 28.0772 68.6159 27.8113L69.0667 24.4884C69.0667 24.2225 69.2921 23.9567 69.6302 23.9567H70.8699C73.4619 23.9567 74.927 22.4946 75.2651 19.5703C75.4905 18.3741 75.2651 17.3107 74.8143 16.6461C74.1381 15.9815 73.1239 15.5828 71.8842 15.5828ZM72.335 19.9691C72.1096 21.5641 71.0953 21.5641 70.081 21.5641H69.4048L69.8556 18.507C69.8556 18.3741 69.9683 18.2412 70.1937 18.2412H70.4191C71.0953 18.2412 71.7715 18.2412 72.1096 18.7728C72.335 18.9057 72.335 19.3045 72.335 19.9691Z" fill="#139AD6"/>
<path d="M44.2728 15.5828H40.4411C40.2157 15.5828 39.9903 15.8486 39.8776 16.1144L38.2998 27.8113C38.2998 28.0772 38.4125 28.2101 38.6379 28.2101H40.4411C40.6665 28.2101 40.8919 27.9443 41.0046 27.6784L41.4554 24.4884C41.4554 24.2225 41.6808 23.9567 42.0189 23.9567H43.2586C45.8506 23.9567 47.3157 22.4946 47.6538 19.5703C47.8792 18.3741 47.6538 17.3107 47.203 16.6461C46.5268 15.9815 45.6252 15.5828 44.2728 15.5828ZM44.7236 19.9691C44.4982 21.5641 43.4839 21.5641 42.4697 21.5641H41.9062L42.357 18.507C42.357 18.3741 42.4697 18.2412 42.6951 18.2412H42.9205C43.5966 18.2412 44.2728 18.2412 44.6109 18.7728C44.7236 18.9057 44.8363 19.3045 44.7236 19.9691ZM55.8808 19.8362H54.0776C53.9649 19.8362 53.7395 19.9691 53.7395 20.102L53.6268 20.7666L53.5141 20.5008C53.0633 19.8362 52.2745 19.5703 51.3729 19.5703C49.3443 19.5703 47.5411 21.4312 47.203 23.9567C46.9776 25.2859 47.3157 26.4822 47.8792 27.2797C48.4427 28.0772 49.2316 28.343 50.2459 28.343C51.9364 28.343 52.8379 27.1468 52.8379 27.1468L52.7252 27.8113C52.7252 28.0772 52.8379 28.2101 53.0633 28.2101H54.7538C54.9792 28.2101 55.2046 27.9443 55.3173 27.6784L56.3316 20.2349C56.2189 20.102 55.9935 19.8362 55.8808 19.8362ZM53.2887 24.0896C53.0633 25.2859 52.2745 26.2163 51.1475 26.2163C50.584 26.2163 50.1332 25.9505 49.9078 25.6846C49.6824 25.2859 49.5697 24.7542 49.5697 24.0896C49.6824 22.8933 50.584 21.9629 51.5983 21.9629C52.1618 21.9629 52.4998 22.2287 52.8379 22.4946C53.176 22.8933 53.2887 23.5579 53.2887 24.0896Z" fill="#263B80"/>
<path d="M83.3798 19.8359H81.5766C81.4639 19.8359 81.2385 19.9688 81.2385 20.1017L81.1258 20.7663L81.0131 20.5005C80.5623 19.8359 79.7734 19.5701 78.8718 19.5701C76.8432 19.5701 75.04 21.4309 74.7019 23.9564C74.4766 25.2856 74.8146 26.4819 75.3781 27.2794C75.9416 28.0769 76.7305 28.3427 77.7448 28.3427C79.4353 28.3427 80.3369 27.1465 80.3369 27.1465L80.2242 27.8111C80.2242 28.0769 80.3369 28.2098 80.5623 28.2098H82.2528C82.4782 28.2098 82.7036 27.944 82.8163 27.6781L83.8305 20.2347C83.7178 20.1017 83.6052 19.8359 83.3798 19.8359ZM80.7877 24.0893C80.5623 25.2856 79.7734 26.216 78.6464 26.216C78.0829 26.216 77.6321 25.9502 77.4067 25.6844C77.1813 25.2856 77.0686 24.7539 77.0686 24.0893C77.1813 22.893 78.0829 21.9626 79.0972 21.9626C79.6607 21.9626 79.9988 22.2285 80.3369 22.4943C80.7877 22.8931 80.9004 23.5576 80.7877 24.0893Z" fill="#139AD6"/>
<path d="M65.6861 19.8359H63.7702C63.5448 19.8359 63.4321 19.9689 63.3194 20.1018L60.8401 24.621L59.7131 20.3676C59.6004 20.1018 59.4877 19.9689 59.1496 19.9689H57.3464C57.121 19.9689 57.0083 20.2347 57.0083 20.5005L59.0369 27.5453L57.121 30.7353C57.0083 31.0012 57.121 31.3999 57.3464 31.3999H59.1496C59.375 31.3999 59.4877 31.267 59.6004 31.1341L65.7988 20.6335C66.1369 20.2347 65.9115 19.8359 65.6861 19.8359Z" fill="#263B80"/>
<path d="M85.5207 15.9813L83.9429 27.9441C83.9429 28.2099 84.0556 28.3428 84.281 28.3428H85.8587C86.0841 28.3428 86.3095 28.077 86.4222 27.8111L88 16.1142C88 15.8484 87.8873 15.7155 87.6619 15.7155H85.8587C85.746 15.5826 85.6334 15.7155 85.5207 15.9813Z" fill="#139AD6"/>
<path d="M29.9604 11.595C29.1715 10.5317 27.7064 10 25.6778 10H20.0429C19.7048 10 19.3667 10.3988 19.254 10.7975L17 28.21C17 28.6087 17.2254 28.8746 17.4508 28.8746H20.9445L21.846 22.3615V22.6273C21.9587 22.2286 22.2968 21.8298 22.6349 21.8298H24.3254C27.5937 21.8298 30.0731 20.2348 30.8619 15.8485V15.4497C30.7493 15.4497 30.7493 15.4497 30.8619 15.4497C30.9746 13.7217 30.7492 12.6584 29.9604 11.595Z" fill="#263B80"/>
<path d="M30.7491 15.4497V15.8485C29.9602 20.3677 27.4808 21.8298 24.2126 21.8298H22.5221C22.184 21.8298 21.8459 22.2286 21.7332 22.6274L20.6062 30.7354C20.6062 31.0013 20.7189 31.2671 21.057 31.2671H23.9872C24.3253 31.2671 24.6634 31.0013 24.6634 30.6025V30.4696L25.2269 26.3491V26.0833C25.2269 25.6845 25.5649 25.4187 25.903 25.4187H26.3538C29.1713 25.4187 31.4253 24.0895 31.9888 20.1019C32.2142 18.5069 32.1015 17.0447 31.4253 16.1143C31.3126 15.8485 31.0872 15.5826 30.7491 15.4497Z" fill="#139AD6"/>
<path d="M29.9603 15.0509C29.8476 15.0509 29.7349 14.9179 29.6222 14.9179C29.5095 14.9179 29.3968 14.9179 29.2841 14.785C28.8333 14.6521 28.3825 14.6521 27.819 14.6521H23.4237C23.311 14.6521 23.1983 14.6521 23.0856 14.785C22.8602 14.9179 22.7475 15.1838 22.7475 15.4496L21.8459 22.3614V22.6273C21.9586 22.2285 22.2967 21.8297 22.6348 21.8297H24.3253C27.5936 21.8297 30.073 20.2347 30.8618 15.8484C30.8618 15.7155 30.8618 15.5825 30.9745 15.4496C30.7491 15.3167 30.6364 15.1838 30.4111 15.1838C30.073 15.0509 30.073 15.0509 29.9603 15.0509Z" fill="#232C65"/>
<defs>
<radialGradient id="paint0_radial_964_3047" cx="0" cy="0" r="1" gradientUnits="userSpaceOnUse" gradientTransform="translate(171.142 48.6162) scale(31.7522 26.0186)">
<stop stop-color="#7FD3F3"/>
<stop offset="1" stop-color="#017CC2"/>
</radialGradient>
</defs>
</svg>
