<svg width="52" height="52" viewBox="0 0 52 52" fill="none" xmlns="http://www.w3.org/2000/svg">
<path d="M51.1333 7.79989H49.4C47.1228 7.80617 44.8669 7.36077 42.763 6.48948C40.659 5.61819 38.7488 4.33831 37.1427 2.7239C36.4194 1.99931 35.7619 1.21189 35.178 0.370928C35.0982 0.256446 34.9919 0.162939 34.8681 0.0983586C34.7444 0.0337782 34.6069 3.54005e-05 34.4673 0H17.5327C17.3931 3.54005e-05 17.2556 0.0337782 17.1319 0.0983586C17.0081 0.162939 16.9018 0.256446 16.822 0.370928C16.2381 1.21189 15.5806 1.99931 14.8573 2.7239C13.2512 4.33831 11.341 5.61819 9.23702 6.48948C7.13307 7.36077 4.87722 7.80617 2.6 7.79989H0.866667C0.636812 7.79989 0.416372 7.8912 0.253841 8.05373C0.0913092 8.21626 0 8.43669 0 8.66654V13.1211C0.00279371 18.1129 1.056 23.0482 3.09115 27.6063C5.12631 32.1643 8.09786 36.2431 11.8127 39.5775L25.4193 51.7783C25.5784 51.921 25.7846 52 25.9983 52C26.212 52 26.4182 51.921 26.5772 51.7783L40.1839 39.5775C43.8993 36.2434 46.8715 32.1648 48.9073 27.6067C50.943 23.0486 51.9968 18.1132 52 13.1211V8.66654C52 8.43669 51.9087 8.21626 51.7462 8.05373C51.5836 7.8912 51.3632 7.79989 51.1333 7.79989ZM50.2667 13.1211C50.2641 17.8695 49.2622 22.5642 47.3262 26.8999C45.3901 31.2357 42.5633 35.1155 39.0295 38.2871L26 49.9687L12.9705 38.2871C9.43668 35.1155 6.60986 31.2357 4.67384 26.8999C2.73782 22.5642 1.73594 17.8695 1.73333 13.1211V9.5332H2.6C5.10485 9.54011 7.5862 9.05024 9.90049 8.09193C12.2148 7.13362 14.3161 5.7259 16.0827 3.95021C16.7703 3.26059 17.4043 2.51946 17.979 1.73331H34.021C34.5955 2.51936 35.2295 3.26021 35.9173 3.94934C37.6838 5.72534 39.785 7.13333 42.0993 8.0918C44.4136 9.05027 46.8951 9.54019 49.4 9.5332H50.2667V13.1211Z" fill="url(#paint0_linear_50_248)"/>
<path d="M46.3759 12.1266C41.7582 11.758 37.4232 9.75531 34.1494 6.47806C33.7358 6.06369 33.3369 5.62331 32.9566 5.16831C32.8803 5.07645 32.7847 5.00253 32.6765 4.95184C32.5684 4.90114 32.4504 4.87491 32.331 4.875H19.669C19.5498 4.87493 19.432 4.90109 19.324 4.95164C19.216 5.00219 19.1205 5.07589 19.0442 5.1675C18.6631 5.62656 18.2618 6.06694 17.8514 6.47725C14.5774 9.75479 10.2421 11.7578 5.62413 12.1266C5.41981 12.1425 5.22907 12.2352 5.09015 12.3858C4.95123 12.5365 4.87438 12.7341 4.875 12.9391V13.9262C4.87722 18.1496 5.76818 22.3251 7.48997 26.1815C9.21175 30.0379 11.7258 33.4888 14.8688 36.3098L25.4573 45.8031C25.6064 45.9369 25.7996 46.0109 26 46.0109C26.2004 46.0109 26.3937 45.9369 26.5428 45.8031L37.1313 36.309C40.2741 33.4881 42.7882 30.0373 44.5099 26.1811C46.2317 22.3248 47.1227 18.1494 47.125 13.9262V12.9366C47.125 12.7321 47.0479 12.5351 46.909 12.3849C46.7702 12.2348 46.5798 12.1425 46.3759 12.1266ZM45.5 13.9262C45.4979 17.9213 44.655 21.8713 43.0262 25.5193C41.3974 29.1672 39.019 32.4315 36.0458 35.1L26 44.1066L15.9551 35.1C12.9817 32.4316 10.6032 29.1673 8.97425 25.5193C7.34526 21.8714 6.50224 17.9214 6.5 13.9262V13.6744C11.2296 13.1255 15.6348 10.9941 19.0003 7.62612C19.357 7.26944 19.708 6.89488 20.046 6.5H31.954C32.2896 6.88919 32.6406 7.267 33.0005 7.62694C36.3656 10.995 40.7706 13.1262 45.5 13.6744V13.9262Z" fill="url(#paint1_linear_50_248)"/>
<path d="M23.514 30.741C23.4416 30.7414 23.3699 30.7275 23.3028 30.7001C23.2358 30.6728 23.1749 30.6324 23.1235 30.5815L18.9765 26.4345C18.8741 26.3314 18.8166 26.192 18.8166 26.0467C18.8166 25.9014 18.8741 25.762 18.9765 25.659C19.0276 25.6074 19.0885 25.5665 19.1555 25.5386C19.2225 25.5106 19.2944 25.4963 19.367 25.4963C19.4396 25.4963 19.5115 25.5106 19.5785 25.5386C19.6455 25.5665 19.7064 25.6074 19.7575 25.659L23.514 29.4155L32.666 20.2635C32.769 20.161 32.9084 20.1035 33.0537 20.1035C33.199 20.1035 33.3384 20.161 33.4415 20.2635C33.493 20.3146 33.534 20.3754 33.5619 20.4424C33.5898 20.5095 33.6042 20.5813 33.6042 20.654C33.6042 20.7266 33.5898 20.7984 33.5619 20.8655C33.534 20.9325 33.493 20.9933 33.4415 21.0445L23.899 30.5815C23.7966 30.6831 23.6583 30.7403 23.514 30.741Z" fill="url(#paint2_linear_50_248)"/>
<defs>
<linearGradient id="paint0_linear_50_248" x1="1.60507" y1="45.8625" x2="42.3299" y2="-1.8448" gradientUnits="userSpaceOnUse">
<stop stop-color="#7367F0"/>
<stop offset="1" stop-color="#2AA5DE"/>
</linearGradient>
<linearGradient id="paint1_linear_50_248" x1="193.141" y1="2285.2" x2="2117.4" y2="-29.9545" gradientUnits="userSpaceOnUse">
<stop stop-color="#7367F0"/>
<stop offset="1" stop-color="#2AA5DE"/>
</linearGradient>
<linearGradient id="paint2_linear_50_248" x1="18.817" y1="25.4225" x2="33.601" y2="25.4225" gradientUnits="userSpaceOnUse">
<stop stop-color="#7367F0"/>
<stop offset="1" stop-color="#367FD3"/>
</linearGradient>
</defs>
</svg>
