<svg width="179" height="68" viewBox="0 0 179 68" fill="none" xmlns="http://www.w3.org/2000/svg">
<rect width="179" height="68" rx="6" fill="white"/>
<g clip-path="url(#clip0_1415_4798)">
<path d="M64.482 15.3423C64.6777 14.8859 65.2807 14.8859 65.4764 15.3423L67.0786 19.0785C67.1584 19.2645 67.3223 19.3926 67.5113 19.4167L71.31 19.9011C71.774 19.9603 71.9604 20.5772 71.6173 20.9184L68.8089 23.7119C68.6691 23.851 68.6065 24.0582 68.6436 24.2591L69.3891 28.2948C69.4802 28.7877 68.9923 29.169 68.5846 28.9235L65.2467 26.9137C65.0805 26.8137 64.8779 26.8137 64.7118 26.9137L61.3738 28.9235C60.9661 29.169 60.4783 28.7877 60.5693 28.2948L61.3148 24.2591C61.3519 24.0582 61.2893 23.851 61.1495 23.7119L58.3411 20.9184C57.998 20.5772 58.1844 19.9603 58.6483 19.9011L62.4471 19.4167C62.6362 19.3926 62.8 19.2645 62.8798 19.0785L64.482 15.3423Z" fill="#FD8C04"/>
<path d="M81.3652 15.3423C81.5608 14.8859 82.1638 14.8859 82.3596 15.3423L83.9617 19.0785C84.0415 19.2645 84.2054 19.3926 84.3945 19.4167L88.1932 19.9011C88.6572 19.9603 88.8436 20.5772 88.5005 20.9184L85.6921 23.7119C85.5523 23.851 85.4897 24.0582 85.5267 24.2591L86.2722 28.2948C86.3633 28.7877 85.8754 29.169 85.4678 28.9235L82.1297 26.9137C81.9637 26.8137 81.7611 26.8137 81.5949 26.9137L78.257 28.9235C77.8492 29.169 77.3614 28.7877 77.4525 28.2948L78.198 24.2591C78.2351 24.0582 78.1725 23.851 78.0327 23.7119L75.2242 20.9184C74.8812 20.5772 75.0675 19.9603 75.5315 19.9011L79.3302 19.4167C79.5193 19.3926 79.6831 19.2645 79.7629 19.0785L81.3652 15.3423Z" fill="#FD8C04"/>
<path d="M98.249 15.3423C98.4446 14.8859 99.0476 14.8859 99.2433 15.3423L100.846 19.0785C100.925 19.2645 101.089 19.3926 101.278 19.4167L105.077 19.9011C105.541 19.9603 105.727 20.5772 105.384 20.9184L102.576 23.7119C102.436 23.851 102.373 24.0582 102.411 24.2591L103.156 28.2948C103.247 28.7877 102.759 29.169 102.351 28.9235L99.0135 26.9137C98.8475 26.8137 98.6448 26.8137 98.4787 26.9137L95.1407 28.9235C94.733 29.169 94.2452 28.7877 94.3363 28.2948L95.0817 24.2591C95.1188 24.0582 95.0563 23.851 94.9164 23.7119L92.108 20.9184C91.765 20.5772 91.9513 19.9603 92.4153 19.9011L96.214 19.4167C96.4031 19.3926 96.5669 19.2645 96.6467 19.0785L98.249 15.3423Z" fill="#FD8C04"/>
<path d="M115.131 15.3423C115.327 14.8859 115.93 14.8859 116.126 15.3423L117.728 19.0785C117.808 19.2645 117.972 19.3926 118.161 19.4167L121.959 19.9011C122.423 19.9603 122.61 20.5772 122.267 20.9184L119.458 23.7119C119.318 23.851 119.256 24.0582 119.293 24.2591L120.038 28.2948C120.13 28.7877 119.642 29.169 119.234 28.9235L115.896 26.9137C115.73 26.8137 115.527 26.8137 115.361 26.9137L112.023 28.9235C111.616 29.169 111.128 28.7877 111.219 28.2948L111.964 24.2591C112.001 24.0582 111.939 23.851 111.799 23.7119L108.99 20.9184C108.647 20.5772 108.834 19.9603 109.298 19.9011L113.096 19.4167C113.286 19.3926 113.449 19.2645 113.529 19.0785L115.131 15.3423Z" fill="#FD8C04"/>
<path d="M132.015 15.3423C132.21 14.8859 132.813 14.8859 133.009 15.3423L134.611 19.0785C134.691 19.2645 134.855 19.3926 135.044 19.4167L138.843 19.9011C139.307 19.9603 139.493 20.5772 139.15 20.9184L136.341 23.7119C136.202 23.851 136.139 24.0582 136.176 24.2591L136.922 28.2948C137.013 28.7877 136.525 29.169 136.117 28.9235L132.779 26.9137C132.613 26.8137 132.41 26.8137 132.244 26.9137L128.906 28.9235C128.499 29.169 128.011 28.7877 128.102 28.2948L128.847 24.2591C128.884 24.0582 128.822 23.851 128.682 23.7119L125.874 20.9184C125.531 20.5772 125.717 19.9603 126.181 19.9011L129.98 19.4167C130.169 19.3926 130.333 19.2645 130.412 19.0785L132.015 15.3423Z" fill="#92ABC9"/>
<path d="M132.015 15.3423C132.21 14.8859 132.813 14.8859 133.009 15.3423L134.611 19.0785C134.691 19.2645 134.855 19.3926 135.044 19.4167V28.2773L132.779 26.9137C132.613 26.8137 132.41 26.8137 132.244 26.9137L128.906 28.9235C128.499 29.169 128.011 28.7877 128.102 28.2948L128.847 24.2591C128.884 24.0582 128.822 23.851 128.682 23.7119L125.874 20.9184C125.531 20.5772 125.717 19.9603 126.181 19.9011L129.98 19.4167C130.169 19.3926 130.333 19.2645 130.412 19.0785L132.015 15.3423Z" fill="#FD8C04"/>
</g>
<path d="M65.55 40.28C65.55 41.4333 65.0467 42.16 64.04 42.46L65.87 45H64.37L62.7 42.65H61.15V45H59.97V38.01H62.57C63.6367 38.01 64.4 38.19 64.86 38.55C65.32 38.91 65.55 39.4867 65.55 40.28ZM62.62 41.58C63.2867 41.58 63.74 41.4767 63.98 41.27C64.22 41.0633 64.34 40.7333 64.34 40.28C64.34 39.82 64.2167 39.5067 63.97 39.34C63.7233 39.1667 63.2833 39.08 62.65 39.08H61.15V41.58H62.62ZM72.0354 42.83H67.8654C67.8921 43.2167 68.0687 43.53 68.3954 43.77C68.7221 44.0033 69.0954 44.12 69.5154 44.12C70.1821 44.12 70.6887 43.91 71.0354 43.49L71.6754 44.19C71.1021 44.7833 70.3554 45.08 69.4354 45.08C68.6887 45.08 68.0521 44.8333 67.5254 44.34C67.0054 43.84 66.7454 43.1733 66.7454 42.34C66.7454 41.5 67.0121 40.8333 67.5454 40.34C68.0787 39.8467 68.7054 39.6 69.4254 39.6C70.1521 39.6 70.7687 39.82 71.2754 40.26C71.7821 40.6933 72.0354 41.2933 72.0354 42.06V42.83ZM67.8654 41.95H70.9154C70.9154 41.5033 70.7754 41.16 70.4954 40.92C70.2154 40.68 69.8687 40.56 69.4554 40.56C69.0487 40.56 68.6821 40.6867 68.3554 40.94C68.0287 41.1867 67.8654 41.5233 67.8654 41.95ZM77.057 43.41C77.057 43.9167 76.8737 44.3233 76.507 44.63C76.1404 44.93 75.6704 45.08 75.097 45.08C74.7104 45.08 74.307 45.01 73.887 44.87C73.4737 44.73 73.107 44.5333 72.787 44.28L73.327 43.41C73.947 43.8767 74.547 44.11 75.127 44.11C75.3804 44.11 75.5804 44.0533 75.727 43.94C75.8737 43.82 75.947 43.67 75.947 43.49C75.947 43.2233 75.5937 42.9833 74.887 42.77C74.8337 42.75 74.7937 42.7367 74.767 42.73C73.6604 42.43 73.107 41.93 73.107 41.23C73.107 40.7367 73.297 40.3433 73.677 40.05C74.0637 39.75 74.5637 39.6 75.177 39.6C75.7904 39.6 76.3704 39.78 76.917 40.14L76.497 40.97C76.0637 40.6833 75.5937 40.54 75.087 40.54C74.8204 40.54 74.6037 40.59 74.437 40.69C74.2704 40.7833 74.187 40.9267 74.187 41.12C74.187 41.2933 74.2737 41.42 74.447 41.5C74.567 41.56 74.7337 41.6167 74.947 41.67C75.167 41.7233 75.3604 41.7767 75.527 41.83C75.6937 41.8833 75.8537 41.9433 76.007 42.01C76.167 42.0767 76.337 42.17 76.517 42.29C76.877 42.53 77.057 42.9033 77.057 43.41ZM83.2756 42.83H79.1056C79.1323 43.2167 79.309 43.53 79.6356 43.77C79.9623 44.0033 80.3356 44.12 80.7556 44.12C81.4223 44.12 81.929 43.91 82.2756 43.49L82.9156 44.19C82.3423 44.7833 81.5956 45.08 80.6756 45.08C79.929 45.08 79.2923 44.8333 78.7656 44.34C78.2456 43.84 77.9856 43.1733 77.9856 42.34C77.9856 41.5 78.2523 40.8333 78.7856 40.34C79.319 39.8467 79.9456 39.6 80.6656 39.6C81.3923 39.6 82.009 39.82 82.5156 40.26C83.0223 40.6933 83.2756 41.2933 83.2756 42.06V42.83ZM79.1056 41.95H82.1556C82.1556 41.5033 82.0156 41.16 81.7356 40.92C81.4556 40.68 81.109 40.56 80.6956 40.56C80.289 40.56 79.9223 40.6867 79.5956 40.94C79.269 41.1867 79.1056 41.5233 79.1056 41.95ZM85.6273 45H84.5073V37.58H85.6273V45ZM88.3714 45H87.2514V37.58H88.3714V45ZM94.9455 42.83H90.7755C90.8022 43.2167 90.9789 43.53 91.3055 43.77C91.6322 44.0033 92.0055 44.12 92.4255 44.12C93.0922 44.12 93.5989 43.91 93.9455 43.49L94.5855 44.19C94.0122 44.7833 93.2655 45.08 92.3455 45.08C91.5989 45.08 90.9622 44.8333 90.4355 44.34C89.9155 43.84 89.6555 43.1733 89.6555 42.34C89.6555 41.5 89.9222 40.8333 90.4555 40.34C90.9889 39.8467 91.6155 39.6 92.3355 39.6C93.0622 39.6 93.6789 39.82 94.1855 40.26C94.6922 40.6933 94.9455 41.2933 94.9455 42.06V42.83ZM90.7755 41.95H93.8255C93.8255 41.5033 93.6855 41.16 93.4055 40.92C93.1255 40.68 92.7789 40.56 92.3655 40.56C91.9589 40.56 91.5922 40.6867 91.2655 40.94C90.9389 41.1867 90.7755 41.5233 90.7755 41.95ZM98.9672 40.73C98.4139 40.73 97.9972 40.91 97.7172 41.27C97.4372 41.63 97.2972 42.1133 97.2972 42.72V45H96.1772V39.68H97.2972V40.75C97.4772 40.4167 97.7205 40.1433 98.0272 39.93C98.3405 39.7167 98.6705 39.6067 99.0172 39.6L99.0272 40.73C99.0072 40.73 98.9872 40.73 98.9672 40.73ZM105.892 40.28C105.892 41.4333 105.388 42.16 104.382 42.46L106.212 45H104.712L103.042 42.65H101.492V45H100.312V38.01H102.912C103.978 38.01 104.742 38.19 105.202 38.55C105.662 38.91 105.892 39.4867 105.892 40.28ZM102.962 41.58C103.628 41.58 104.082 41.4767 104.322 41.27C104.562 41.0633 104.682 40.7333 104.682 40.28C104.682 39.82 104.558 39.5067 104.312 39.34C104.065 39.1667 103.625 39.08 102.992 39.08H101.492V41.58H102.962ZM111.64 45H110.62V44.29C110.18 44.8167 109.59 45.08 108.85 45.08C108.296 45.08 107.836 44.9233 107.47 44.61C107.11 44.2967 106.93 43.88 106.93 43.36C106.93 42.8333 107.123 42.44 107.51 42.18C107.896 41.92 108.42 41.79 109.08 41.79H110.53V41.59C110.53 40.8833 110.136 40.53 109.35 40.53C108.856 40.53 108.343 40.71 107.81 41.07L107.31 40.37C107.956 39.8567 108.69 39.6 109.51 39.6C110.136 39.6 110.646 39.76 111.04 40.08C111.44 40.3933 111.64 40.89 111.64 41.57V45ZM110.52 43.02V42.57H109.26C108.453 42.57 108.05 42.8233 108.05 43.33C108.05 43.59 108.15 43.79 108.35 43.93C108.55 44.0633 108.826 44.13 109.18 44.13C109.54 44.13 109.853 44.03 110.12 43.83C110.386 43.63 110.52 43.36 110.52 43.02ZM114.52 40.58V43.28C114.52 43.5333 114.587 43.7367 114.72 43.89C114.853 44.0367 115.04 44.11 115.28 44.11C115.52 44.11 115.75 43.9933 115.97 43.76L116.43 44.55C116.037 44.9033 115.6 45.08 115.12 45.08C114.647 45.08 114.24 44.9167 113.9 44.59C113.567 44.2567 113.4 43.81 113.4 43.25V40.58H112.73V39.68H113.4V38.01H114.52V39.68H115.92V40.58H114.52ZM118.44 45H117.32V39.68H118.44V45ZM117.39 38.62C117.25 38.48 117.18 38.3133 117.18 38.12C117.18 37.9267 117.25 37.76 117.39 37.62C117.53 37.48 117.696 37.41 117.89 37.41C118.083 37.41 118.25 37.48 118.39 37.62C118.53 37.76 118.6 37.9267 118.6 38.12C118.6 38.3133 118.53 38.48 118.39 38.62C118.25 38.76 118.083 38.83 117.89 38.83C117.696 38.83 117.53 38.76 117.39 38.62ZM121.184 42.12V45H120.064V39.68H121.184V40.65C121.364 40.3233 121.611 40.0667 121.924 39.88C122.244 39.6933 122.587 39.6 122.954 39.6C123.554 39.6 124.037 39.7833 124.404 40.15C124.777 40.5167 124.964 41.0467 124.964 41.74V45H123.844V42.08C123.844 41.1 123.437 40.61 122.624 40.61C122.237 40.61 121.901 40.74 121.614 41C121.327 41.2533 121.184 41.6267 121.184 42.12ZM131.449 39.68V44.32C131.449 45.26 131.192 45.9633 130.679 46.43C130.172 46.9033 129.519 47.14 128.719 47.14C127.919 47.14 127.195 46.89 126.549 46.39L127.079 45.54C127.599 45.9333 128.122 46.13 128.649 46.13C129.182 46.13 129.602 45.9933 129.909 45.72C130.222 45.4467 130.379 45.01 130.379 44.41V43.73C130.212 44.0433 129.972 44.2933 129.659 44.48C129.352 44.6667 129.005 44.76 128.619 44.76C127.912 44.76 127.332 44.5133 126.879 44.02C126.425 43.5267 126.199 42.9133 126.199 42.18C126.199 41.4467 126.425 40.8333 126.879 40.34C127.332 39.8467 127.909 39.6 128.609 39.6C129.315 39.6 129.889 39.89 130.329 40.47V39.68H131.449ZM127.299 42.14C127.299 42.5733 127.432 42.95 127.699 43.27C127.972 43.5833 128.335 43.74 128.789 43.74C129.249 43.74 129.619 43.5867 129.899 43.28C130.185 42.9733 130.329 42.5933 130.329 42.14C130.329 41.68 130.185 41.2933 129.899 40.98C129.612 40.66 129.242 40.5 128.789 40.5C128.335 40.5 127.972 40.6633 127.699 40.99C127.432 41.3167 127.299 41.7 127.299 42.14ZM136.862 43.41C136.862 43.9167 136.678 44.3233 136.312 44.63C135.945 44.93 135.475 45.08 134.902 45.08C134.515 45.08 134.112 45.01 133.692 44.87C133.278 44.73 132.912 44.5333 132.592 44.28L133.132 43.41C133.752 43.8767 134.352 44.11 134.932 44.11C135.185 44.11 135.385 44.0533 135.532 43.94C135.678 43.82 135.752 43.67 135.752 43.49C135.752 43.2233 135.398 42.9833 134.692 42.77C134.638 42.75 134.598 42.7367 134.572 42.73C133.465 42.43 132.912 41.93 132.912 41.23C132.912 40.7367 133.102 40.3433 133.482 40.05C133.868 39.75 134.368 39.6 134.982 39.6C135.595 39.6 136.175 39.78 136.722 40.14L136.302 40.97C135.868 40.6833 135.398 40.54 134.892 40.54C134.625 40.54 134.408 40.59 134.242 40.69C134.075 40.7833 133.992 40.9267 133.992 41.12C133.992 41.2933 134.078 41.42 134.252 41.5C134.372 41.56 134.538 41.6167 134.752 41.67C134.972 41.7233 135.165 41.7767 135.332 41.83C135.498 41.8833 135.658 41.9433 135.812 42.01C135.972 42.0767 136.142 42.17 136.322 42.29C136.682 42.53 136.862 42.9033 136.862 43.41Z" fill="#0E101A"/>
<path d="M33.1044 43.5056C40.0111 43.5056 45.6101 37.9066 45.6101 30.9999C45.6101 24.0932 40.0111 18.4941 33.1044 18.4941C26.1976 18.4941 20.5986 24.0932 20.5986 30.9999C20.5986 37.9066 26.1976 43.5056 33.1044 43.5056Z" fill="white"/>
<path fill-rule="evenodd" clip-rule="evenodd" d="M48.7356 31C48.7356 39.8366 41.5485 47 32.6825 47C29.4613 47 26.4616 46.0543 23.9478 44.4264L16 45.0392L18.1584 37.8236C18.1584 37.8236 18.1584 37.8236 18.1584 37.8236C17.1778 35.7539 16.6295 33.4406 16.6295 31C16.6295 22.1634 23.8167 15 32.6825 15C41.5485 15 48.7356 22.1634 48.7356 31ZM24.2626 32.7255L26.3085 29.5882L30.4005 32.7255L38.5057 22.7647L41.0238 24.4118L31.1874 39.2352L24.2626 32.7255Z" fill="url(#paint0_linear_1415_4798)"/>
<path d="M141.64 44.056V43.224L147.576 35.8H148.856L142.968 43.224L142.344 43.032H151.352V44.056H141.64ZM147.96 47V44.056L147.992 43.032V40.44H149.112V47H147.96ZM153.587 47.08C153.352 47.08 153.149 46.9947 152.979 46.824C152.819 46.6533 152.739 46.4453 152.739 46.2C152.739 45.944 152.819 45.736 152.979 45.576C153.149 45.416 153.352 45.336 153.587 45.336C153.821 45.336 154.019 45.416 154.179 45.576C154.349 45.736 154.435 45.944 154.435 46.2C154.435 46.4453 154.349 46.6533 154.179 46.824C154.019 46.9947 153.821 47.08 153.587 47.08ZM157.894 47L162.726 36.312L163.078 36.824H156.15L156.742 36.264V38.92H155.606V35.8H163.83V36.616L159.142 47H157.894Z" fill="#0E101A"/>
<defs>
<linearGradient id="paint0_linear_1415_4798" x1="18.5181" y1="19.549" x2="43.5409" y2="43.6317" gradientUnits="userSpaceOnUse">
<stop stop-color="#CE408C"/>
<stop offset="0.477037" stop-color="#C44499"/>
<stop offset="1" stop-color="#B54E9D"/>
</linearGradient>
<clipPath id="clip0_1415_4798">
<rect width="82" height="14" fill="white" transform="translate(58 15)"/>
</clipPath>
</defs>
</svg>
