<svg width="46" height="46" viewBox="0 0 46 46" fill="none" xmlns="http://www.w3.org/2000/svg">
<path fill-rule="evenodd" clip-rule="evenodd" d="M6.22852 5.75004C6.22852 3.89759 7.73023 2.39587 9.58268 2.39587H36.416C38.2685 2.39587 39.7702 3.8976 39.7702 5.75004V15.7145C39.7702 16.5084 39.1266 17.152 38.3327 17.152C37.5388 17.152 36.8952 16.5084 36.8952 15.7145V5.75004C36.8952 5.48539 36.6807 5.27087 36.416 5.27087H9.58268C9.31805 5.27087 9.10352 5.4854 9.10352 5.75004V40.25C9.10352 40.5147 9.31803 40.7292 9.58268 40.7292H19.166C19.9599 40.7292 20.6035 41.3728 20.6035 42.1667C20.6035 42.9606 19.9599 43.6042 19.166 43.6042H9.58268C7.73024 43.6042 6.22852 42.1025 6.22852 40.25V5.75004Z" fill="url(#paint0_linear_964_3051)"/>
<path fill-rule="evenodd" clip-rule="evenodd" d="M13.8965 13.4166C13.8965 12.6227 14.5401 11.9791 15.334 11.9791H27.7923C28.5862 11.9791 29.2298 12.6227 29.2298 13.4166C29.2298 14.2105 28.5862 14.8541 27.7923 14.8541H15.334C14.5401 14.8541 13.8965 14.2105 13.8965 13.4166Z" fill="url(#paint1_linear_964_3051)"/>
<path fill-rule="evenodd" clip-rule="evenodd" d="M13.8965 20.125C13.8965 19.3311 14.5401 18.6875 15.334 18.6875H20.1257C20.9196 18.6875 21.5632 19.3311 21.5632 20.125C21.5632 20.9189 20.9196 21.5625 20.1257 21.5625H15.334C14.5401 21.5625 13.8965 20.9189 13.8965 20.125Z" fill="url(#paint2_linear_964_3051)"/>
<path fill-rule="evenodd" clip-rule="evenodd" d="M32.5833 24.4375C28.0846 24.4375 24.4375 28.0846 24.4375 32.5833C24.4375 37.0821 28.0846 40.7292 32.5833 40.7292C37.0821 40.7292 40.7292 37.0821 40.7292 32.5833C40.7292 28.0846 37.0821 24.4375 32.5833 24.4375ZM21.5625 32.5833C21.5625 26.4967 26.4967 21.5625 32.5833 21.5625C38.6699 21.5625 43.6042 26.4967 43.6042 32.5833C43.6042 38.6699 38.6699 43.6042 32.5833 43.6042C26.4967 43.6042 21.5625 38.6699 21.5625 32.5833Z" fill="url(#paint3_linear_964_3051)"/>
<path fill-rule="evenodd" clip-rule="evenodd" d="M24.8585 24.8585C25.4199 24.2972 26.3301 24.2972 26.8915 24.8585L40.3081 38.2752C40.8695 38.8366 40.8695 39.7468 40.3081 40.3081C39.7468 40.8695 38.8366 40.8695 38.2752 40.3081L24.8585 26.8915C24.2972 26.3301 24.2972 25.4199 24.8585 24.8585Z" fill="url(#paint4_linear_964_3051)"/>
<path fill-rule="evenodd" clip-rule="evenodd" d="M32.5833 24.4375C28.0846 24.4375 24.4375 28.0846 24.4375 32.5833C24.4375 33.3772 23.7939 34.0208 23 34.0208C22.2061 34.0208 21.5625 33.3772 21.5625 32.5833C21.5625 26.4967 26.4967 21.5625 32.5833 21.5625C33.3772 21.5625 34.0208 22.2061 34.0208 23C34.0208 23.7939 33.3772 24.4375 32.5833 24.4375Z" fill="url(#paint5_linear_964_3051)"/>
<path fill-rule="evenodd" clip-rule="evenodd" d="M42.1673 31.1459C42.9612 31.1459 43.6048 31.7895 43.6048 32.5834C43.6048 38.67 38.6706 43.6042 32.584 43.6042C31.7901 43.6042 31.1465 42.9606 31.1465 42.1667C31.1465 41.3728 31.7901 40.7292 32.584 40.7292C37.0828 40.7292 40.7298 37.0821 40.7298 32.5834C40.7298 31.7895 41.3734 31.1459 42.1673 31.1459Z" fill="url(#paint6_linear_964_3051)"/>
<defs>
<linearGradient id="paint0_linear_964_3051" x1="22.9993" y1="2.39587" x2="22.9993" y2="43.6042" gradientUnits="userSpaceOnUse">
<stop stop-color="#367FD3"/>
<stop offset="1" stop-color="#2AA5DE"/>
</linearGradient>
<linearGradient id="paint1_linear_964_3051" x1="21.5632" y1="11.9791" x2="21.5632" y2="14.8541" gradientUnits="userSpaceOnUse">
<stop stop-color="#367FD3"/>
<stop offset="1" stop-color="#2AA5DE"/>
</linearGradient>
<linearGradient id="paint2_linear_964_3051" x1="17.7298" y1="18.6875" x2="17.7298" y2="21.5625" gradientUnits="userSpaceOnUse">
<stop stop-color="#367FD3"/>
<stop offset="1" stop-color="#2AA5DE"/>
</linearGradient>
<linearGradient id="paint3_linear_964_3051" x1="32.5833" y1="21.5625" x2="32.5833" y2="43.6042" gradientUnits="userSpaceOnUse">
<stop stop-color="#367FD3"/>
<stop offset="1" stop-color="#2AA5DE"/>
</linearGradient>
<linearGradient id="paint4_linear_964_3051" x1="32.5833" y1="24.4375" x2="32.5833" y2="40.7292" gradientUnits="userSpaceOnUse">
<stop stop-color="#367FD3"/>
<stop offset="1" stop-color="#2AA5DE"/>
</linearGradient>
<linearGradient id="paint5_linear_964_3051" x1="27.7917" y1="21.5625" x2="27.7917" y2="34.0208" gradientUnits="userSpaceOnUse">
<stop stop-color="#367FD3"/>
<stop offset="1" stop-color="#2AA5DE"/>
</linearGradient>
<linearGradient id="paint6_linear_964_3051" x1="37.3757" y1="31.1459" x2="37.3757" y2="43.6042" gradientUnits="userSpaceOnUse">
<stop stop-color="#367FD3"/>
<stop offset="1" stop-color="#2AA5DE"/>
</linearGradient>
</defs>
</svg>
