<svg width="46" height="46" viewBox="0 0 46 46" fill="none" xmlns="http://www.w3.org/2000/svg">
<path fill-rule="evenodd" clip-rule="evenodd" d="M6.22852 5.74992C6.22852 3.89746 7.73023 2.39575 9.58268 2.39575H29.7077C30.1152 2.39575 30.5036 2.56871 30.7762 2.87162L39.4012 12.4549C39.6387 12.7189 39.7702 13.0615 39.7702 13.4166V22.0416C39.7702 22.8355 39.1266 23.4791 38.3327 23.4791C37.5388 23.4791 36.8952 22.8355 36.8952 22.0416V13.9682L29.0675 5.27075H9.58268C9.31805 5.27075 9.10352 5.48528 9.10352 5.74992V40.2499C9.10352 40.5146 9.31803 40.7291 9.58268 40.7291H21.0827C21.8766 40.7291 22.5202 41.3727 22.5202 42.1666C22.5202 42.9605 21.8766 43.6041 21.0827 43.6041H9.58268C7.73024 43.6041 6.22852 42.1024 6.22852 40.2499V5.74992Z" fill="url(#paint0_linear_964_3052)"/>
<path fill-rule="evenodd" clip-rule="evenodd" d="M23.4785 33.5417C23.4785 32.7478 24.1221 32.1042 24.916 32.1042H38.3327C39.1266 32.1042 39.7702 32.7478 39.7702 33.5417C39.7702 34.3357 39.1266 34.9792 38.3327 34.9792H24.916C24.1221 34.9792 23.4785 34.3357 23.4785 33.5417Z" fill="url(#paint1_linear_964_3052)"/>
<path fill-rule="evenodd" clip-rule="evenodd" d="M28.75 2.39575C29.5439 2.39575 30.1875 3.03934 30.1875 3.83325V11.9791H38.3333C39.1272 11.9791 39.7708 12.6227 39.7708 13.4166C39.7708 14.2105 39.1272 14.8541 38.3333 14.8541H28.75C27.9561 14.8541 27.3125 14.2105 27.3125 13.4166V3.83325C27.3125 3.03934 27.9561 2.39575 28.75 2.39575Z" fill="url(#paint2_linear_964_3052)"/>
<defs>
<linearGradient id="paint0_linear_964_3052" x1="22.9993" y1="2.39575" x2="22.9993" y2="43.6041" gradientUnits="userSpaceOnUse">
<stop stop-color="#367FD3"/>
<stop offset="1" stop-color="#2AA5DE"/>
</linearGradient>
<linearGradient id="paint1_linear_964_3052" x1="31.6243" y1="32.1042" x2="31.6243" y2="34.9792" gradientUnits="userSpaceOnUse">
<stop stop-color="#367FD3"/>
<stop offset="1" stop-color="#2AA5DE"/>
</linearGradient>
<linearGradient id="paint2_linear_964_3052" x1="33.5417" y1="2.39575" x2="33.5417" y2="14.8541" gradientUnits="userSpaceOnUse">
<stop stop-color="#367FD3"/>
<stop offset="1" stop-color="#2AA5DE"/>
</linearGradient>
</defs>
</svg>
