<svg width="46" height="46" viewBox="0 0 46 46" fill="none" xmlns="http://www.w3.org/2000/svg">
<path fill-rule="evenodd" clip-rule="evenodd" d="M6.22852 5.75004C6.22852 3.89759 7.73023 2.39587 9.58268 2.39587H29.7077C30.1152 2.39587 30.5036 2.56884 30.7762 2.87174L39.4012 12.4551C39.6387 12.719 39.7702 13.0616 39.7702 13.4167V22.0417C39.7702 22.8356 39.1266 23.4792 38.3327 23.4792C37.5388 23.4792 36.8952 22.8356 36.8952 22.0417V13.9683L29.0675 5.27087H9.58268C9.31805 5.27087 9.10352 5.4854 9.10352 5.75004V40.25C9.10352 40.5147 9.31803 40.7292 9.58268 40.7292H21.0827C21.8766 40.7292 22.5202 41.3728 22.5202 42.1667C22.5202 42.9606 21.8766 43.6042 21.0827 43.6042H9.58268C7.73024 43.6042 6.22852 42.1025 6.22852 40.25V5.75004Z" fill="url(#paint0_linear_964_3050)"/>
<path fill-rule="evenodd" clip-rule="evenodd" d="M30.7241 30.6085C31.2855 31.1699 31.2855 32.0801 30.7241 32.6415L26.9489 36.4167L30.7241 40.1919C31.2855 40.7532 31.2855 41.6634 30.7241 42.2248C30.1628 42.7862 29.2526 42.7862 28.6912 42.2248L23.8995 37.4331C23.3382 36.8718 23.3382 35.9616 23.8995 35.4002L28.6912 30.6085C29.2526 30.0472 30.1628 30.0472 30.7241 30.6085Z" fill="url(#paint1_linear_964_3050)"/>
<path fill-rule="evenodd" clip-rule="evenodd" d="M40.2493 27.3125C41.0433 27.3125 41.6868 27.9561 41.6868 28.75V36.4167C41.6868 37.2106 41.0433 37.8542 40.2493 37.8542H24.916C24.1221 37.8542 23.4785 37.2106 23.4785 36.4167C23.4785 35.6228 24.1221 34.9792 24.916 34.9792H38.8118V28.75C38.8118 27.9561 39.4554 27.3125 40.2493 27.3125Z" fill="url(#paint2_linear_964_3050)"/>
<path fill-rule="evenodd" clip-rule="evenodd" d="M28.75 2.39587C29.5439 2.39587 30.1875 3.03946 30.1875 3.83337V11.9792H38.3333C39.1272 11.9792 39.7708 12.6228 39.7708 13.4167C39.7708 14.2106 39.1272 14.8542 38.3333 14.8542H28.75C27.9561 14.8542 27.3125 14.2106 27.3125 13.4167V3.83337C27.3125 3.03946 27.9561 2.39587 28.75 2.39587Z" fill="url(#paint3_linear_964_3050)"/>
<defs>
<linearGradient id="paint0_linear_964_3050" x1="22.9993" y1="2.39587" x2="22.9993" y2="43.6042" gradientUnits="userSpaceOnUse">
<stop stop-color="#367FD3"/>
<stop offset="1" stop-color="#2AA5DE"/>
</linearGradient>
<linearGradient id="paint1_linear_964_3050" x1="27.3118" y1="30.1875" x2="27.3118" y2="42.6458" gradientUnits="userSpaceOnUse">
<stop stop-color="#367FD3"/>
<stop offset="1" stop-color="#2AA5DE"/>
</linearGradient>
<linearGradient id="paint2_linear_964_3050" x1="32.5827" y1="27.3125" x2="32.5827" y2="37.8542" gradientUnits="userSpaceOnUse">
<stop stop-color="#367FD3"/>
<stop offset="1" stop-color="#2AA5DE"/>
</linearGradient>
<linearGradient id="paint3_linear_964_3050" x1="33.5417" y1="2.39587" x2="33.5417" y2="14.8542" gradientUnits="userSpaceOnUse">
<stop stop-color="#367FD3"/>
<stop offset="1" stop-color="#2AA5DE"/>
</linearGradient>
</defs>
</svg>
