<svg width="46" height="46" viewBox="0 0 46 46" fill="none" xmlns="http://www.w3.org/2000/svg">
<path fill-rule="evenodd" clip-rule="evenodd" d="M6.22852 5.75004C6.22852 3.89759 7.73023 2.39587 9.58268 2.39587H29.7077C30.1152 2.39587 30.5036 2.56884 30.7762 2.87174L39.4012 12.4551C39.6387 12.719 39.7702 13.0616 39.7702 13.4167V22.0417C39.7702 22.8356 39.1266 23.4792 38.3327 23.4792C37.5388 23.4792 36.8952 22.8356 36.8952 22.0417V13.9683L29.0675 5.27087H9.58268C9.31805 5.27087 9.10352 5.4854 9.10352 5.75004V40.25C9.10352 40.5147 9.31803 40.7292 9.58268 40.7292H21.0827C21.8766 40.7292 22.5202 41.3728 22.5202 42.1667C22.5202 42.9606 21.8766 43.6042 21.0827 43.6042H9.58268C7.73024 43.6042 6.22852 42.1025 6.22852 40.25V5.75004Z" fill="url(#paint0_linear_964_3048)"/>
<path fill-rule="evenodd" clip-rule="evenodd" d="M32.5827 28.2709C29.1424 28.2709 26.3535 31.0598 26.3535 34.5C26.3535 37.9403 29.1424 40.7292 32.5827 40.7292C36.023 40.7292 38.8118 37.9403 38.8118 34.5C38.8118 31.0598 36.023 28.2709 32.5827 28.2709ZM23.4785 34.5C23.4785 29.4719 27.5546 25.3959 32.5827 25.3959C37.6108 25.3959 41.6868 29.4719 41.6868 34.5C41.6868 39.5281 37.6108 43.6042 32.5827 43.6042C27.5546 43.6042 23.4785 39.5281 23.4785 34.5Z" fill="url(#paint1_linear_964_3048)"/>
<path fill-rule="evenodd" clip-rule="evenodd" d="M31.625 30.1875C32.4189 30.1875 33.0625 30.8311 33.0625 31.625V34.0208H35.4583C36.2522 34.0208 36.8958 34.6644 36.8958 35.4583C36.8958 36.2522 36.2522 36.8958 35.4583 36.8958H31.625C30.8311 36.8958 30.1875 36.2522 30.1875 35.4583V31.625C30.1875 30.8311 30.8311 30.1875 31.625 30.1875Z" fill="url(#paint2_linear_964_3048)"/>
<path fill-rule="evenodd" clip-rule="evenodd" d="M28.75 2.39587C29.5439 2.39587 30.1875 3.03946 30.1875 3.83337V11.9792H38.3333C39.1272 11.9792 39.7708 12.6228 39.7708 13.4167C39.7708 14.2106 39.1272 14.8542 38.3333 14.8542H28.75C27.9561 14.8542 27.3125 14.2106 27.3125 13.4167V3.83337C27.3125 3.03946 27.9561 2.39587 28.75 2.39587Z" fill="url(#paint3_linear_964_3048)"/>
<defs>
<linearGradient id="paint0_linear_964_3048" x1="22.9993" y1="2.39587" x2="22.9993" y2="43.6042" gradientUnits="userSpaceOnUse">
<stop stop-color="#367FD3"/>
<stop offset="1" stop-color="#2AA5DE"/>
</linearGradient>
<linearGradient id="paint1_linear_964_3048" x1="32.5827" y1="25.3959" x2="32.5827" y2="43.6042" gradientUnits="userSpaceOnUse">
<stop stop-color="#367FD3"/>
<stop offset="1" stop-color="#2AA5DE"/>
</linearGradient>
<linearGradient id="paint2_linear_964_3048" x1="33.5417" y1="30.1875" x2="33.5417" y2="36.8958" gradientUnits="userSpaceOnUse">
<stop stop-color="#367FD3"/>
<stop offset="1" stop-color="#2AA5DE"/>
</linearGradient>
<linearGradient id="paint3_linear_964_3048" x1="33.5417" y1="2.39587" x2="33.5417" y2="14.8542" gradientUnits="userSpaceOnUse">
<stop stop-color="#367FD3"/>
<stop offset="1" stop-color="#2AA5DE"/>
</linearGradient>
</defs>
</svg>
