<svg width="165" height="68" viewBox="0 0 165 68" fill="none" xmlns="http://www.w3.org/2000/svg">
<rect width="165" height="68" rx="6" fill="white"/>
<g clip-path="url(#clip0_1415_4799)">
<path d="M66.482 15.3423C66.6777 14.8859 67.2807 14.8859 67.4764 15.3423L69.0786 19.0785C69.1584 19.2645 69.3223 19.3926 69.5114 19.4167L73.31 19.9011C73.7741 19.9603 73.9604 20.5772 73.6173 20.9184L70.8089 23.7119C70.6691 23.851 70.6065 24.0582 70.6436 24.2591L71.3891 28.2948C71.4802 28.7877 70.9923 29.169 70.5846 28.9235L67.2467 26.9137C67.0805 26.8137 66.8779 26.8137 66.7118 26.9137L63.3738 28.9235C62.9661 29.169 62.4783 28.7877 62.5693 28.2948L63.3148 24.2591C63.3519 24.0582 63.2894 23.851 63.1495 23.7119L60.3411 20.9184C59.998 20.5772 60.1844 19.9603 60.6484 19.9011L64.4471 19.4167C64.6362 19.3926 64.8 19.2645 64.8798 19.0785L66.482 15.3423Z" fill="#FD8C04"/>
<path d="M83.3652 15.3423C83.5608 14.8859 84.1638 14.8859 84.3596 15.3423L85.9617 19.0785C86.0415 19.2645 86.2054 19.3926 86.3945 19.4167L90.1932 19.9011C90.6572 19.9603 90.8436 20.5772 90.5005 20.9184L87.692 23.7119C87.5523 23.851 87.4896 24.0582 87.5267 24.2591L88.2722 28.2948C88.3633 28.7877 87.8754 29.169 87.4678 28.9235L84.1297 26.9137C83.9636 26.8137 83.7611 26.8137 83.5949 26.9137L80.257 28.9235C79.8492 29.169 79.3614 28.7877 79.4525 28.2948L80.198 24.2591C80.2351 24.0582 80.1725 23.851 80.0327 23.7119L77.2242 20.9184C76.8812 20.5772 77.0674 19.9603 77.5315 19.9011L81.3301 19.4167C81.5193 19.3926 81.6831 19.2645 81.7629 19.0785L83.3652 15.3423Z" fill="#FD8C04"/>
<path d="M100.249 15.3423C100.445 14.8859 101.048 14.8859 101.243 15.3423L102.846 19.0785C102.925 19.2645 103.089 19.3926 103.278 19.4167L107.077 19.9011C107.541 19.9603 107.727 20.5772 107.384 20.9184L104.576 23.7119C104.436 23.851 104.373 24.0582 104.411 24.2591L105.156 28.2948C105.247 28.7877 104.759 29.169 104.351 28.9235L101.014 26.9137C100.847 26.8137 100.645 26.8137 100.479 26.9137L97.1407 28.9235C96.733 29.169 96.2452 28.7877 96.3363 28.2948L97.0817 24.2591C97.1188 24.0582 97.0563 23.851 96.9164 23.7119L94.108 20.9184C93.765 20.5772 93.9512 19.9603 94.4153 19.9011L98.2139 19.4167C98.4031 19.3926 98.5669 19.2645 98.6467 19.0785L100.249 15.3423Z" fill="#FD8C04"/>
<path d="M117.131 15.3423C117.327 14.8859 117.93 14.8859 118.126 15.3423L119.728 19.0785C119.808 19.2645 119.972 19.3926 120.161 19.4167L123.959 19.9011C124.423 19.9603 124.61 20.5772 124.267 20.9184L121.458 23.7119C121.318 23.851 121.256 24.0582 121.293 24.2591L122.038 28.2948C122.13 28.7877 121.642 29.169 121.234 28.9235L117.896 26.9137C117.73 26.8137 117.527 26.8137 117.361 26.9137L114.023 28.9235C113.615 29.169 113.128 28.7877 113.219 28.2948L113.964 24.2591C114.001 24.0582 113.939 23.851 113.799 23.7119L110.99 20.9184C110.647 20.5772 110.834 19.9603 111.298 19.9011L115.096 19.4167C115.286 19.3926 115.449 19.2645 115.529 19.0785L117.131 15.3423Z" fill="#FD8C04"/>
<path d="M134.015 15.3423C134.21 14.8859 134.813 14.8859 135.009 15.3423L136.611 19.0785C136.691 19.2645 136.855 19.3926 137.044 19.4167L140.843 19.9011C141.307 19.9603 141.493 20.5772 141.15 20.9184L138.341 23.7119C138.202 23.851 138.139 24.0582 138.176 24.2591L138.922 28.2948C139.013 28.7877 138.525 29.169 138.117 28.9235L134.779 26.9137C134.613 26.8137 134.41 26.8137 134.244 26.9137L130.906 28.9235C130.499 29.169 130.011 28.7877 130.102 28.2948L130.847 24.2591C130.884 24.0582 130.822 23.851 130.682 23.7119L127.874 20.9184C127.531 20.5772 127.717 19.9603 128.181 19.9011L131.98 19.4167C132.169 19.3926 132.333 19.2645 132.412 19.0785L134.015 15.3423Z" fill="#92ABC9"/>
<path d="M134.015 15.3423C134.21 14.8859 134.813 14.8859 135.009 15.3423L136.611 19.0785C136.691 19.2645 136.855 19.3926 137.044 19.4167V28.2773L134.779 26.9137C134.613 26.8137 134.41 26.8137 134.244 26.9137L130.906 28.9235C130.499 29.169 130.011 28.7877 130.102 28.2948L130.847 24.2591C130.884 24.0582 130.822 23.851 130.682 23.7119L127.874 20.9184C127.531 20.5772 127.717 19.9603 128.181 19.9011L131.98 19.4167C132.169 19.3926 132.333 19.2645 132.412 19.0785L134.015 15.3423Z" fill="#FD8C04"/>
</g>
<path d="M132.564 42.472V40.424H134.356V42.472H135.7V44.184H134.356V47H132.564V44.184H127.764V42.52L131.876 35.816H133.94L129.892 42.472H132.564ZM137.72 46.776C137.496 46.5413 137.384 46.2587 137.384 45.928C137.384 45.5973 137.496 45.32 137.72 45.096C137.955 44.8613 138.238 44.744 138.568 44.744C138.899 44.744 139.182 44.8613 139.416 45.096C139.651 45.32 139.768 45.5973 139.768 45.928C139.768 46.2587 139.651 46.5413 139.416 46.776C139.182 47.0107 138.899 47.128 138.568 47.128C138.238 47.128 137.955 47.0107 137.72 46.776ZM141.283 39.032V35.816H149.155V37.496L144.419 47H142.339L146.963 37.528H142.995V39.032H141.283Z" fill="#0E101A"/>
<path d="M67.55 42.28C67.55 43.4333 67.0467 44.16 66.04 44.46L67.87 47H66.37L64.7 44.65H63.15V47H61.97V40.01H64.57C65.6367 40.01 66.4 40.19 66.86 40.55C67.32 40.91 67.55 41.4867 67.55 42.28ZM64.62 43.58C65.2867 43.58 65.74 43.4767 65.98 43.27C66.22 43.0633 66.34 42.7333 66.34 42.28C66.34 41.82 66.2167 41.5067 65.97 41.34C65.7233 41.1667 65.2833 41.08 64.65 41.08H63.15V43.58H64.62ZM74.0354 44.83H69.8654C69.8921 45.2167 70.0687 45.53 70.3954 45.77C70.7221 46.0033 71.0954 46.12 71.5154 46.12C72.1821 46.12 72.6887 45.91 73.0354 45.49L73.6754 46.19C73.1021 46.7833 72.3554 47.08 71.4354 47.08C70.6887 47.08 70.0521 46.8333 69.5254 46.34C69.0054 45.84 68.7454 45.1733 68.7454 44.34C68.7454 43.5 69.0121 42.8333 69.5454 42.34C70.0787 41.8467 70.7054 41.6 71.4254 41.6C72.1521 41.6 72.7687 41.82 73.2754 42.26C73.7821 42.6933 74.0354 43.2933 74.0354 44.06V44.83ZM69.8654 43.95H72.9154C72.9154 43.5033 72.7754 43.16 72.4954 42.92C72.2154 42.68 71.8687 42.56 71.4554 42.56C71.0487 42.56 70.6821 42.6867 70.3554 42.94C70.0287 43.1867 69.8654 43.5233 69.8654 43.95ZM76.6184 47L74.4784 41.68H75.6384L77.2584 45.7L78.8784 41.68H80.0384L77.8984 47H76.6184ZM82.0511 47H80.9311V41.68H82.0511V47ZM81.0011 40.62C80.8611 40.48 80.7911 40.3133 80.7911 40.12C80.7911 39.9267 80.8611 39.76 81.0011 39.62C81.1411 39.48 81.3078 39.41 81.5011 39.41C81.6944 39.41 81.8611 39.48 82.0011 39.62C82.1411 39.76 82.2111 39.9267 82.2111 40.12C82.2111 40.3133 82.1411 40.48 82.0011 40.62C81.8611 40.76 81.6944 40.83 81.5011 40.83C81.3078 40.83 81.1411 40.76 81.0011 40.62ZM88.6252 44.83H84.4552C84.4819 45.2167 84.6586 45.53 84.9852 45.77C85.3119 46.0033 85.6852 46.12 86.1052 46.12C86.7719 46.12 87.2786 45.91 87.6252 45.49L88.2652 46.19C87.6919 46.7833 86.9452 47.08 86.0252 47.08C85.2786 47.08 84.6419 46.8333 84.1152 46.34C83.5952 45.84 83.3352 45.1733 83.3352 44.34C83.3352 43.5 83.6019 42.8333 84.1352 42.34C84.6686 41.8467 85.2952 41.6 86.0152 41.6C86.7419 41.6 87.3586 41.82 87.8652 42.26C88.3719 42.6933 88.6252 43.2933 88.6252 44.06V44.83ZM84.4552 43.95H87.5052C87.5052 43.5033 87.3652 43.16 87.0852 42.92C86.8052 42.68 86.4586 42.56 86.0452 42.56C85.6386 42.56 85.2719 42.6867 84.9452 42.94C84.6186 43.1867 84.4552 43.5233 84.4552 43.95ZM92.3469 47H91.0669L89.2269 41.68H90.3869L91.7069 45.7L93.0269 41.68H94.1869L95.5069 45.7L96.8269 41.68H97.9869L96.1469 47H94.8669L93.6069 43.36L92.3469 47ZM102.729 45.41C102.729 45.9167 102.546 46.3233 102.179 46.63C101.812 46.93 101.342 47.08 100.769 47.08C100.382 47.08 99.9789 47.01 99.5589 46.87C99.1456 46.73 98.7789 46.5333 98.4589 46.28L98.9989 45.41C99.6189 45.8767 100.219 46.11 100.799 46.11C101.052 46.11 101.252 46.0533 101.399 45.94C101.546 45.82 101.619 45.67 101.619 45.49C101.619 45.2233 101.266 44.9833 100.559 44.77C100.506 44.75 100.466 44.7367 100.439 44.73C99.3322 44.43 98.7789 43.93 98.7789 43.23C98.7789 42.7367 98.9689 42.3433 99.3489 42.05C99.7356 41.75 100.236 41.6 100.849 41.6C101.462 41.6 102.042 41.78 102.589 42.14L102.169 42.97C101.736 42.6833 101.266 42.54 100.759 42.54C100.492 42.54 100.276 42.59 100.109 42.69C99.9422 42.7833 99.8589 42.9267 99.8589 43.12C99.8589 43.2933 99.9456 43.42 100.119 43.5C100.239 43.56 100.406 43.6167 100.619 43.67C100.839 43.7233 101.032 43.7767 101.199 43.83C101.366 43.8833 101.526 43.9433 101.679 44.01C101.839 44.0767 102.009 44.17 102.189 44.29C102.549 44.53 102.729 44.9033 102.729 45.41ZM104.058 46.86C103.918 46.7133 103.847 46.5367 103.847 46.33C103.847 46.1233 103.918 45.95 104.058 45.81C104.204 45.6633 104.381 45.59 104.588 45.59C104.794 45.59 104.971 45.6633 105.118 45.81C105.264 45.95 105.338 46.1233 105.338 46.33C105.338 46.5367 105.264 46.7133 105.118 46.86C104.971 47.0067 104.794 47.08 104.588 47.08C104.381 47.08 104.204 47.0067 104.058 46.86ZM107.92 47H106.8V41.68H107.92V47ZM106.87 40.62C106.73 40.48 106.66 40.3133 106.66 40.12C106.66 39.9267 106.73 39.76 106.87 39.62C107.01 39.48 107.177 39.41 107.37 39.41C107.564 39.41 107.73 39.48 107.87 39.62C108.01 39.76 108.08 39.9267 108.08 40.12C108.08 40.3133 108.01 40.48 107.87 40.62C107.73 40.76 107.564 40.83 107.37 40.83C107.177 40.83 107.01 40.76 106.87 40.62ZM110.784 45.6C111.104 45.92 111.508 46.08 111.994 46.08C112.481 46.08 112.881 45.92 113.194 45.6C113.514 45.2733 113.674 44.8533 113.674 44.34C113.674 43.8267 113.514 43.41 113.194 43.09C112.881 42.7633 112.481 42.6 111.994 42.6C111.508 42.6 111.104 42.7633 110.784 43.09C110.471 43.41 110.314 43.8267 110.314 44.34C110.314 44.8533 110.471 45.2733 110.784 45.6ZM113.994 46.29C113.461 46.8167 112.794 47.08 111.994 47.08C111.194 47.08 110.528 46.8167 109.994 46.29C109.461 45.7567 109.194 45.1067 109.194 44.34C109.194 43.5733 109.461 42.9267 109.994 42.4C110.528 41.8667 111.194 41.6 111.994 41.6C112.794 41.6 113.461 41.8667 113.994 42.4C114.528 42.9267 114.794 43.5733 114.794 44.34C114.794 45.1067 114.528 45.7567 113.994 46.29Z" fill="#0E101A"/>
<path d="M40.4419 20.3016C34.808 14.0768 25.4303 13.8846 19.542 19.8405C13.6537 25.7963 13.472 35.7098 19.1058 41.9346L23.5766 46.853C29.2105 53.0777 38.5882 53.2699 44.4764 47.3141C50.3648 41.3582 50.5466 31.4447 44.9126 25.2199C44.8763 25.2199 40.4419 20.3016 40.4419 20.3016Z" fill="#FEEF7C"/>
<path d="M41.2451 21.1473C35.6112 14.9225 26.2336 14.7304 20.3452 20.6862C14.4569 26.642 14.2752 36.5555 19.9091 42.7803L24.3798 47.6987C30.0137 53.9235 39.3914 54.1156 45.2797 48.1598C51.168 42.204 51.3498 32.2904 45.7159 26.0656L41.2451 21.1473Z" fill="#5CD3CB"/>
<path d="M17.5806 34.0581C17.5806 42.7036 24.1958 49.7353 32.4104 49.7353C40.5886 49.7353 47.2402 42.7421 47.2402 34.0581C47.2402 25.4126 40.6249 18.3809 32.4104 18.3809C24.2322 18.3809 17.5806 25.4126 17.5806 34.0581ZM27.9033 36.8631C28.0487 36.3251 27.9033 35.7872 27.4671 35.4414C26.3767 34.5576 24.1958 32.8669 22.7419 31.7142C22.5238 31.5605 22.4511 31.2531 22.5238 30.9841C22.5965 30.7152 22.851 30.5615 23.1054 30.5615H28.7393C29.2481 30.5615 29.7206 30.2156 29.9024 29.6777C30.3386 28.256 31.211 25.451 31.8288 23.5682C31.9015 23.2992 32.156 23.1455 32.4104 23.1455C32.6648 23.1455 32.9192 23.3376 32.992 23.5682C33.5736 25.451 34.4822 28.256 34.9184 29.6777C35.1001 30.2156 35.5363 30.5615 36.0815 30.5615C37.4264 30.5615 39.9707 30.5615 41.7154 30.5615C41.9698 30.5615 42.2242 30.7536 42.297 30.9841C42.3696 31.2531 42.297 31.5221 42.0788 31.7142C40.6249 32.8669 38.4805 34.5961 37.39 35.4798C36.9902 35.8256 36.8084 36.3636 36.9538 36.9015C37.39 38.3232 38.226 41.1282 38.8076 43.0495C38.8803 43.3184 38.8076 43.6258 38.5895 43.7795C38.3714 43.9332 38.0806 43.9332 37.8626 43.7795C36.4086 42.5884 34.2641 40.8593 33.1737 39.9755C32.7375 39.6297 32.1196 39.6297 31.6835 39.9755C30.593 40.8593 28.4848 42.5884 27.0309 43.7795C26.8129 43.9332 26.5221 43.9716 26.304 43.7795C26.0859 43.6258 25.9768 43.3184 26.0859 43.0495C26.6312 41.1282 27.5034 38.2848 27.9033 36.8631Z" fill="black"/>
<defs>
<clipPath id="clip0_1415_4799">
<rect width="82" height="14" fill="white" transform="translate(60 15)"/>
</clipPath>
</defs>
</svg>
