<svg width="160" height="91" viewBox="0 0 160 91" fill="none" xmlns="http://www.w3.org/2000/svg">
<rect width="160" height="68" rx="6" fill="white"/>
<path d="M32.5521 46.5056C39.4589 46.5056 45.0579 40.9066 45.0579 33.9999C45.0579 27.0932 39.4589 21.4941 32.5521 21.4941C25.6454 21.4941 20.0464 27.0932 20.0464 33.9999C20.0464 40.9066 25.6454 46.5056 32.5521 46.5056Z" fill="white"/>
<path fill-rule="evenodd" clip-rule="evenodd" d="M48.1317 34C48.1317 37.6493 46.905 41.0131 44.8399 43.7048L51.1264 50H32.0658C23.1929 50 16 42.8366 16 34C16 25.1634 23.1929 18 32.0658 18C40.9387 18 48.1317 25.1634 48.1317 34ZM34.9692 29.3629C35.1217 29.6427 35.3876 29.843 35.6986 29.9122L40.8717 31.0633C41.1485 31.1249 41.2544 31.4635 41.0621 31.6719L37.5629 35.4619C37.3436 35.6993 37.2395 36.021 37.278 36.3417L37.924 41.7337C37.9584 42.0208 37.6636 42.2334 37.4021 42.1102L32.5397 39.8188C32.2398 39.6776 31.8923 39.6785 31.5932 39.8216L26.8193 42.1048C26.5576 42.2299 26.2609 42.0171 26.2954 41.7293L26.9402 36.3485C26.9791 36.0237 26.872 35.6985 26.6477 35.4605L23.0794 31.673C22.8838 31.4653 22.9887 31.1237 23.2672 31.0617L28.433 29.9122C28.744 29.843 29.0099 29.6427 29.1624 29.3629L31.7428 24.6258C31.8822 24.3699 32.2495 24.3699 32.3888 24.6258L34.9692 29.3629Z" fill="#F06A22"/>
<g clip-path="url(#clip0_346_3)">
<path d="M66.482 15.3423C66.6777 14.8859 67.2807 14.8859 67.4764 15.3423L69.0786 19.0785C69.1584 19.2645 69.3223 19.3926 69.5114 19.4167L73.31 19.9011C73.7741 19.9603 73.9604 20.5772 73.6173 20.9184L70.8089 23.7119C70.6691 23.851 70.6065 24.0582 70.6436 24.2591L71.3891 28.2948C71.4802 28.7877 70.9923 29.169 70.5846 28.9235L67.2467 26.9137C67.0805 26.8137 66.8779 26.8137 66.7118 26.9137L63.3738 28.9235C62.9661 29.169 62.4783 28.7877 62.5693 28.2948L63.3148 24.2591C63.3519 24.0582 63.2894 23.851 63.1495 23.7119L60.3411 20.9184C59.998 20.5772 60.1844 19.9603 60.6484 19.9011L64.4471 19.4167C64.6362 19.3926 64.8 19.2645 64.8798 19.0785L66.482 15.3423Z" fill="#FD8C04"/>
<path d="M83.3652 15.3423C83.5608 14.8859 84.1638 14.8859 84.3596 15.3423L85.9617 19.0785C86.0415 19.2645 86.2054 19.3926 86.3945 19.4167L90.1932 19.9011C90.6572 19.9603 90.8436 20.5772 90.5005 20.9184L87.692 23.7119C87.5523 23.851 87.4896 24.0582 87.5267 24.2591L88.2722 28.2948C88.3633 28.7877 87.8754 29.169 87.4678 28.9235L84.1297 26.9137C83.9636 26.8137 83.7611 26.8137 83.5949 26.9137L80.257 28.9235C79.8492 29.169 79.3614 28.7877 79.4525 28.2948L80.198 24.2591C80.2351 24.0582 80.1725 23.851 80.0327 23.7119L77.2242 20.9184C76.8812 20.5772 77.0674 19.9603 77.5315 19.9011L81.3301 19.4167C81.5193 19.3926 81.6831 19.2645 81.7629 19.0785L83.3652 15.3423Z" fill="#FD8C04"/>
<path d="M100.249 15.3423C100.445 14.8859 101.048 14.8859 101.243 15.3423L102.846 19.0785C102.925 19.2645 103.089 19.3926 103.278 19.4167L107.077 19.9011C107.541 19.9603 107.727 20.5772 107.384 20.9184L104.576 23.7119C104.436 23.851 104.373 24.0582 104.411 24.2591L105.156 28.2948C105.247 28.7877 104.759 29.169 104.351 28.9235L101.014 26.9137C100.847 26.8137 100.645 26.8137 100.479 26.9137L97.1407 28.9235C96.733 29.169 96.2452 28.7877 96.3363 28.2948L97.0817 24.2591C97.1188 24.0582 97.0563 23.851 96.9164 23.7119L94.108 20.9184C93.765 20.5772 93.9512 19.9603 94.4153 19.9011L98.2139 19.4167C98.4031 19.3926 98.5669 19.2645 98.6467 19.0785L100.249 15.3423Z" fill="#FD8C04"/>
<path d="M117.131 15.3423C117.327 14.8859 117.93 14.8859 118.126 15.3423L119.728 19.0785C119.808 19.2645 119.972 19.3926 120.161 19.4167L123.959 19.9011C124.423 19.9603 124.61 20.5772 124.267 20.9184L121.458 23.7119C121.318 23.851 121.256 24.0582 121.293 24.2591L122.038 28.2948C122.13 28.7877 121.642 29.169 121.234 28.9235L117.896 26.9137C117.73 26.8137 117.527 26.8137 117.361 26.9137L114.023 28.9235C113.615 29.169 113.128 28.7877 113.219 28.2948L113.964 24.2591C114.001 24.0582 113.939 23.851 113.799 23.7119L110.99 20.9184C110.647 20.5772 110.834 19.9603 111.298 19.9011L115.096 19.4167C115.286 19.3926 115.449 19.2645 115.529 19.0785L117.131 15.3423Z" fill="#FD8C04"/>
<path d="M134.015 15.3423C134.21 14.8859 134.813 14.8859 135.009 15.3423L136.611 19.0785C136.691 19.2645 136.855 19.3926 137.044 19.4167L140.843 19.9011C141.307 19.9603 141.493 20.5772 141.15 20.9184L138.341 23.7119C138.202 23.851 138.139 24.0582 138.176 24.2591L138.922 28.2948C139.013 28.7877 138.525 29.169 138.117 28.9235L134.779 26.9137C134.613 26.8137 134.41 26.8137 134.244 26.9137L130.906 28.9235C130.499 29.169 130.011 28.7877 130.102 28.2948L130.847 24.2591C130.884 24.0582 130.822 23.851 130.682 23.7119L127.874 20.9184C127.531 20.5772 127.717 19.9603 128.181 19.9011L131.98 19.4167C132.169 19.3926 132.333 19.2645 132.412 19.0785L134.015 15.3423Z" fill="#92ABC9"/>
<path d="M134.015 15.3423C134.21 14.8859 134.813 14.8859 135.009 15.3423L136.611 19.0785C136.691 19.2645 136.855 19.3926 137.044 19.4167V28.2773L134.779 26.9137C134.613 26.8137 134.41 26.8137 134.244 26.9137L130.906 28.9235C130.499 29.169 130.011 28.7877 130.102 28.2948L130.847 24.2591C130.884 24.0582 130.822 23.851 130.682 23.7119L127.874 20.9184C127.531 20.5772 127.717 19.9603 128.181 19.9011L131.98 19.4167C132.169 19.3926 132.333 19.2645 132.412 19.0785L134.015 15.3423Z" fill="#FD8C04"/>
</g>
<path d="M125.564 42.472V40.424H127.356V42.472H128.7V44.184H127.356V47H125.564V44.184H120.764V42.52L124.876 35.816H126.94L122.892 42.472H125.564ZM130.72 46.776C130.496 46.5413 130.384 46.2587 130.384 45.928C130.384 45.5973 130.496 45.32 130.72 45.096C130.955 44.8613 131.238 44.744 131.568 44.744C131.899 44.744 132.182 44.8613 132.416 45.096C132.651 45.32 132.768 45.5973 132.768 45.928C132.768 46.2587 132.651 46.5413 132.416 46.776C132.182 47.0107 131.899 47.128 131.568 47.128C131.238 47.128 130.955 47.0107 130.72 46.776ZM134.283 39.032V35.816H142.155V37.496L137.419 47H135.339L139.963 37.528H135.995V39.032H134.283Z" fill="#0E101A"/>
<path d="M64.08 40.93C63.74 40.93 63.46 41 63.24 41.14C63.02 41.28 62.91 41.4933 62.91 41.78C62.91 42.06 63.02 42.2767 63.24 42.43C63.46 42.5767 63.9267 42.7367 64.64 42.91C65.36 43.0833 65.9 43.3267 66.26 43.64C66.6267 43.9533 66.81 44.4167 66.81 45.03C66.81 45.6367 66.58 46.13 66.12 46.51C65.66 46.89 65.0567 47.08 64.31 47.08C63.2167 47.08 62.2467 46.7033 61.4 45.95L62.14 45.06C62.8467 45.6733 63.58 45.98 64.34 45.98C64.72 45.98 65.02 45.9 65.24 45.74C65.4667 45.5733 65.58 45.3567 65.58 45.09C65.58 44.8167 65.4733 44.6067 65.26 44.46C65.0533 44.3067 64.6933 44.17 64.18 44.05C63.6667 43.9233 63.2767 43.81 63.01 43.71C62.7433 43.6033 62.5067 43.4667 62.3 43.3C61.8867 42.9867 61.68 42.5067 61.68 41.86C61.68 41.2133 61.9133 40.7167 62.38 40.37C62.8533 40.0167 63.4367 39.84 64.13 39.84C64.5767 39.84 65.02 39.9133 65.46 40.06C65.9 40.2067 66.28 40.4133 66.6 40.68L65.97 41.57C65.7633 41.3833 65.4833 41.23 65.13 41.11C64.7767 40.99 64.4267 40.93 64.08 40.93ZM69.2288 47H68.1088V41.68H69.2288V47ZM68.1788 40.62C68.0388 40.48 67.9688 40.3133 67.9688 40.12C67.9688 39.9267 68.0388 39.76 68.1788 39.62C68.3188 39.48 68.4855 39.41 68.6788 39.41C68.8722 39.41 69.0388 39.48 69.1788 39.62C69.3188 39.76 69.3888 39.9267 69.3888 40.12C69.3888 40.3133 69.3188 40.48 69.1788 40.62C69.0388 40.76 68.8722 40.83 68.6788 40.83C68.4855 40.83 68.3188 40.76 68.1788 40.62ZM72.233 42.58V45.28C72.233 45.5333 72.2996 45.7367 72.433 45.89C72.5663 46.0367 72.753 46.11 72.993 46.11C73.233 46.11 73.463 45.9933 73.683 45.76L74.143 46.55C73.7496 46.9033 73.313 47.08 72.833 47.08C72.3596 47.08 71.953 46.9167 71.613 46.59C71.2796 46.2567 71.113 45.81 71.113 45.25V42.58H70.443V41.68H71.113V40.01H72.233V41.68H73.633V42.58H72.233ZM79.9827 44.83H75.8127C75.8393 45.2167 76.016 45.53 76.3427 45.77C76.6693 46.0033 77.0427 46.12 77.4627 46.12C78.1293 46.12 78.636 45.91 78.9827 45.49L79.6227 46.19C79.0493 46.7833 78.3027 47.08 77.3827 47.08C76.636 47.08 75.9993 46.8333 75.4727 46.34C74.9527 45.84 74.6927 45.1733 74.6927 44.34C74.6927 43.5 74.9593 42.8333 75.4927 42.34C76.026 41.8467 76.6527 41.6 77.3727 41.6C78.0993 41.6 78.716 41.82 79.2227 42.26C79.7293 42.6933 79.9827 43.2933 79.9827 44.06V44.83ZM75.8127 43.95H78.8627C78.8627 43.5033 78.7227 43.16 78.4427 42.92C78.1627 42.68 77.816 42.56 77.4027 42.56C76.996 42.56 76.6293 42.6867 76.3027 42.94C75.976 43.1867 75.8127 43.5233 75.8127 43.95ZM81.2143 47.25V41.68H82.3343V47.29C82.3343 47.85 82.1643 48.2933 81.8243 48.62C81.491 48.9533 81.0843 49.12 80.6043 49.12C80.131 49.12 79.6976 48.9433 79.3043 48.59L79.8243 47.75C80.051 47.97 80.2776 48.08 80.5043 48.08C80.7376 48.08 80.9143 48.0067 81.0343 47.86C81.1543 47.7133 81.2143 47.51 81.2143 47.25ZM81.2643 40.62C81.1243 40.48 81.0543 40.3133 81.0543 40.12C81.0543 39.9267 81.1243 39.76 81.2643 39.62C81.4043 39.48 81.571 39.41 81.7643 39.41C81.9576 39.41 82.1243 39.48 82.2643 39.62C82.4043 39.76 82.4743 39.9267 82.4743 40.12C82.4743 40.3133 82.4043 40.48 82.2643 40.62C82.1243 40.76 81.9576 40.83 81.7643 40.83C81.571 40.83 81.4043 40.76 81.2643 40.62ZM88.2684 47H87.2484V46.29C86.8084 46.8167 86.2184 47.08 85.4784 47.08C84.9251 47.08 84.4651 46.9233 84.0984 46.61C83.7384 46.2967 83.5584 45.88 83.5584 45.36C83.5584 44.8333 83.7518 44.44 84.1384 44.18C84.5251 43.92 85.0484 43.79 85.7084 43.79H87.1584V43.59C87.1584 42.8833 86.7651 42.53 85.9784 42.53C85.4851 42.53 84.9718 42.71 84.4384 43.07L83.9384 42.37C84.5851 41.8567 85.3184 41.6 86.1384 41.6C86.7651 41.6 87.2751 41.76 87.6684 42.08C88.0684 42.3933 88.2684 42.89 88.2684 43.57V47ZM87.1484 45.02V44.57H85.8884C85.0818 44.57 84.6784 44.8233 84.6784 45.33C84.6784 45.59 84.7784 45.79 84.9784 45.93C85.1784 46.0633 85.4551 46.13 85.8084 46.13C86.1684 46.13 86.4818 46.03 86.7484 45.83C87.0151 45.63 87.1484 45.36 87.1484 45.02ZM92.6776 41.6C93.3909 41.6 94.0009 41.8467 94.5076 42.34C95.0142 42.8333 95.2676 43.49 95.2676 44.31C95.2676 45.13 95.0142 45.7967 94.5076 46.31C94.0076 46.8233 93.4209 47.08 92.7476 47.08C92.0809 47.08 91.4809 46.7867 90.9476 46.2V47H89.8276V39.58H90.9476V42.61C91.3876 41.9367 91.9642 41.6 92.6776 41.6ZM90.9276 44.35C90.9276 44.8567 91.0809 45.2733 91.3876 45.6C91.6942 45.92 92.0676 46.08 92.5076 46.08C92.9476 46.08 93.3309 45.92 93.6576 45.6C93.9842 45.28 94.1476 44.8667 94.1476 44.36C94.1476 43.8467 93.9876 43.4233 93.6676 43.09C93.3476 42.75 92.9642 42.58 92.5176 42.58C92.0709 42.58 91.6942 42.75 91.3876 43.09C91.0809 43.4233 90.9276 43.8433 90.9276 44.35ZM99.3963 41.6C100.11 41.6 100.72 41.8467 101.226 42.34C101.733 42.8333 101.986 43.49 101.986 44.31C101.986 45.13 101.733 45.7967 101.226 46.31C100.726 46.8233 100.14 47.08 99.4663 47.08C98.7997 47.08 98.1997 46.7867 97.6663 46.2V47H96.5463V39.58H97.6663V42.61C98.1063 41.9367 98.683 41.6 99.3963 41.6ZM97.6463 44.35C97.6463 44.8567 97.7997 45.2733 98.1063 45.6C98.413 45.92 98.7863 46.08 99.2263 46.08C99.6663 46.08 100.05 45.92 100.376 45.6C100.703 45.28 100.866 44.8667 100.866 44.36C100.866 43.8467 100.706 43.4233 100.386 43.09C100.066 42.75 99.683 42.58 99.2363 42.58C98.7897 42.58 98.413 42.75 98.1063 43.09C97.7997 43.4233 97.6463 43.8433 97.6463 44.35ZM108.215 44.83H104.045C104.072 45.2167 104.248 45.53 104.575 45.77C104.902 46.0033 105.275 46.12 105.695 46.12C106.362 46.12 106.868 45.91 107.215 45.49L107.855 46.19C107.282 46.7833 106.535 47.08 105.615 47.08C104.868 47.08 104.232 46.8333 103.705 46.34C103.185 45.84 102.925 45.1733 102.925 44.34C102.925 43.5 103.192 42.8333 103.725 42.34C104.258 41.8467 104.885 41.6 105.605 41.6C106.332 41.6 106.948 41.82 107.455 42.26C107.962 42.6933 108.215 43.2933 108.215 44.06V44.83ZM104.045 43.95H107.095C107.095 43.5033 106.955 43.16 106.675 42.92C106.395 42.68 106.048 42.56 105.635 42.56C105.228 42.56 104.862 42.6867 104.535 42.94C104.208 43.1867 104.045 43.5233 104.045 43.95ZM112.237 42.73C111.683 42.73 111.267 42.91 110.987 43.27C110.707 43.63 110.567 44.1133 110.567 44.72V47H109.447V41.68H110.567V42.75C110.747 42.4167 110.99 42.1433 111.297 41.93C111.61 41.7167 111.94 41.6067 112.287 41.6L112.297 42.73C112.277 42.73 112.257 42.73 112.237 42.73Z" fill="#0E101A"/>
<defs>
<clipPath id="clip0_346_3">
<rect width="82" height="14" fill="white" transform="translate(60 15)"/>
</clipPath>
</defs>
</svg>
