<svg width="11" height="14" viewBox="0 0 11 14" fill="none" xmlns="http://www.w3.org/2000/svg">
<path d="M7.0145 0.342264C7.21026 -0.114089 7.81329 -0.114088 8.00891 0.342265L9.61117 4.07851C9.69095 4.26451 9.85483 4.39257 10.0439 4.41668V13.2773L7.77919 11.9137C7.61297 11.8137 7.41045 11.8137 7.24436 11.9137L3.90631 13.9235C3.49865 14.169 3.01082 13.7877 3.10193 13.2948L3.84735 9.25912C3.88444 9.05822 3.82197 8.85101 3.68205 8.71195L0.873613 5.91837C0.530514 5.57715 0.716901 4.96031 1.18092 4.90113L4.9796 4.41668C5.16872 4.39257 5.33259 4.26451 5.41238 4.07851L7.0145 0.342264Z" fill="#FD8C04"/>
</svg>
