<svg width="47" height="47" viewBox="0 0 47 47" fill="none" xmlns="http://www.w3.org/2000/svg">
<path d="M22.9934 3.71673C23.1269 3.60084 23.2976 3.53698 23.4744 3.53687C23.6511 3.53675 23.822 3.60038 23.9556 3.71608L43.3958 20.5512C43.509 20.6498 43.5895 20.7805 43.6266 20.926C43.6637 21.0715 43.6556 21.2248 43.6034 21.3655C43.5512 21.5063 43.4574 21.6279 43.3344 21.714C43.2115 21.8001 43.0652 21.8468 42.9151 21.8477H39.2891V42.4535C39.2844 42.6465 39.2034 42.8299 39.0639 42.9634C38.9243 43.097 38.7376 43.1699 38.5445 43.1662L8.83089 43.42H8.8241C8.63143 43.428 8.44345 43.3593 8.30132 43.229C8.23204 43.1652 8.17651 43.0879 8.13814 43.0019C8.09977 42.9159 8.07936 42.823 8.07816 42.7288V21.8477H4.08499C3.93505 21.8469 3.7889 21.8005 3.66599 21.7146C3.54308 21.6288 3.44924 21.5075 3.39696 21.3669C3.34468 21.2264 3.33645 21.0733 3.37335 20.9279C3.41025 20.7826 3.49053 20.652 3.60352 20.5534L22.9934 3.71673ZM19.2774 41.8977L27.5391 41.8205V32.4962H19.2774V41.8977ZM9.54691 41.9876L17.8086 41.9113V31.7509C17.8067 31.6561 17.8238 31.5618 17.8589 31.4737C17.8941 31.3856 17.9466 31.3054 18.0132 31.238C18.0799 31.1705 18.1595 31.1171 18.2472 31.0809C18.3349 31.0448 18.429 31.0266 18.5238 31.0274H28.3181C28.7236 31.0274 29.0078 31.3453 29.0078 31.7509V41.8068L37.8203 41.7259V21.8477H9.54691V41.9876ZM40.9453 20.379L23.4755 5.25029L6.05091 20.379H40.9453Z" fill="url(#paint0_linear_310_390)"/>
<defs>
<linearGradient id="paint0_linear_310_390" x1="23.5" y1="2.57037" x2="23.5" y2="44.4555" gradientUnits="userSpaceOnUse">
<stop stop-color="#367FD3"/>
<stop offset="1" stop-color="#2AA5DE"/>
</linearGradient>
</defs>
</svg>
