<?xml version="1.0" encoding="utf-8"?>
<!-- Generator: Adobe Illustrator 26.0.1, SVG Export Plug-In . SVG Version: 6.00 Build 0)  -->
<svg version="1.1" id="Layer_1" xmlns="http://www.w3.org/2000/svg" xmlns:xlink="http://www.w3.org/1999/xlink" x="0px" y="0px"
	 viewBox="0 0 255.47 255.47" style="enable-background:new 0 0 255.47 255.47;" xml:space="preserve">
<style type="text/css">
	.st0{fill:none;stroke:url(#SVGID_1_);stroke-width:2;stroke-miterlimit:10;}
	.st1{fill:url(#SVGID_00000066487971427917300360000011497291575601253816_);}
	.st2{fill:url(#SVGID_00000162343520015048736840000012421602459230339992_);}
	.st3{fill:url(#SVGID_00000119823318566319240820000010512476538123022743_);}
</style>
<linearGradient id="SVGID_1_" gradientUnits="userSpaceOnUse" x1="0" y1="127.7327" x2="255.4653" y2="127.7327">
	<stop  offset="0" style="stop-color:#7367F0"/>
	<stop  offset="0.1257" style="stop-color:#6D6CEE"/>
	<stop  offset="0.3004" style="stop-color:#5B7CEA"/>
	<stop  offset="0.5028" style="stop-color:#3D95E3"/>
	<stop  offset="0.614" style="stop-color:#2AA5DE"/>
	<stop  offset="0.7166" style="stop-color:#498BE6"/>
	<stop  offset="0.82" style="stop-color:#6077EB"/>
	<stop  offset="0.917" style="stop-color:#6E6BEF"/>
	<stop  offset="1" style="stop-color:#7367F0"/>
</linearGradient>
<circle class="st0" cx="127.73" cy="127.73" r="126.73"/>
<linearGradient id="SVGID_00000031202886214359706230000000259286849164387209_" gradientUnits="userSpaceOnUse" x1="127.7327" y1="96.5337" x2="141.0825" y2="96.5337">
	<stop  offset="0" style="stop-color:#7367F0"/>
	<stop  offset="0.4098" style="stop-color:#7169F0"/>
	<stop  offset="0.5574" style="stop-color:#6A6EEE"/>
	<stop  offset="0.6626" style="stop-color:#5F78EB"/>
	<stop  offset="0.7476" style="stop-color:#4E87E7"/>
	<stop  offset="0.8196" style="stop-color:#3899E1"/>
	<stop  offset="0.8553" style="stop-color:#2AA5DE"/>
	<stop  offset="0.8613" style="stop-color:#3899E1"/>
	<stop  offset="0.8735" style="stop-color:#4E87E7"/>
	<stop  offset="0.8879" style="stop-color:#5F78EB"/>
	<stop  offset="0.9057" style="stop-color:#6A6EEE"/>
	<stop  offset="0.9307" style="stop-color:#7169F0"/>
	<stop  offset="1" style="stop-color:#7367F0"/>
</linearGradient>
<path style="fill:url(#SVGID_00000031202886214359706230000000259286849164387209_);" d="M141.06,42.65
	c-12.3,7.87-4.4,53.34-4.28,78.94c0.07,13.76-4.66,23.12-9.04,28.83c4.86-4.84,12.46-15.21,12.38-32.64
	c-0.11-22.85-6.41-61.5,0.97-75.16C141.07,42.64,141.07,42.65,141.06,42.65z"/>
<linearGradient id="SVGID_00000173145483751582774470000008443702504591219849_" gradientUnits="userSpaceOnUse" x1="70.0521" y1="83.7955" x2="153.4856" y2="83.7955">
	<stop  offset="0" style="stop-color:#7367F0"/>
	<stop  offset="0.2437" style="stop-color:#7069EF"/>
	<stop  offset="0.3931" style="stop-color:#6870ED"/>
	<stop  offset="0.5169" style="stop-color:#5A7DEA"/>
	<stop  offset="0.6262" style="stop-color:#458EE5"/>
	<stop  offset="0.7262" style="stop-color:#2BA4DE"/>
	<stop  offset="0.7298" style="stop-color:#2AA5DE"/>
	<stop  offset="1" style="stop-color:#7367F0"/>
</linearGradient>
<path style="fill:url(#SVGID_00000173145483751582774470000008443702504591219849_);" d="M137.66,24.72
	c9.2-1.94,13.12,4.25,14.74,8.84c0.7,0.73,1.08,1.25,1.08,1.25s-1.63-16.33-15.82-13.34c-25.11,5.29-68.43,68.25-67.6,125.04
	C70.88,90.59,113.03,29.91,137.66,24.72z"/>
<linearGradient id="SVGID_00000055675281051658478300000012946748880175356311_" gradientUnits="userSpaceOnUse" x1="59.3108" y1="127.8164" x2="212.9298" y2="127.8164">
	<stop  offset="0" style="stop-color:#7367F0"/>
	<stop  offset="0.2163" style="stop-color:#7169EF"/>
	<stop  offset="0.3266" style="stop-color:#696FEE"/>
	<stop  offset="0.4129" style="stop-color:#5C7BEA"/>
	<stop  offset="0.4868" style="stop-color:#498BE6"/>
	<stop  offset="0.552" style="stop-color:#319FE0"/>
	<stop  offset="0.5667" style="stop-color:#2AA5DE"/>
	<stop  offset="0.5828" style="stop-color:#379AE1"/>
	<stop  offset="0.6175" style="stop-color:#4D87E7"/>
	<stop  offset="0.6582" style="stop-color:#5E79EB"/>
	<stop  offset="0.7083" style="stop-color:#6A6EEE"/>
	<stop  offset="0.7778" style="stop-color:#7169F0"/>
	<stop  offset="0.9626" style="stop-color:#7367F0"/>
</linearGradient>
<path style="fill:url(#SVGID_00000055675281051658478300000012946748880175356311_);" d="M210.4,153.98
	c-0.83,0.64-1.87,1.38-3.08,2.28c-0.62,0.43-1.29,0.89-2,1.38c-0.36,0.24-0.72,0.51-1.1,0.76c-0.38,0.25-0.78,0.51-1.18,0.77
	c-3.23,2.12-7.27,4.51-12.05,6.92c-4.79,2.39-10.34,4.76-16.57,6.77c-1.55,0.53-3.16,0.96-4.79,1.45c-1.65,0.42-3.31,0.89-5.04,1.25
	c-1.7,0.39-3.5,0.77-5.28,1.15c-1.67,0.35-3.36,0.67-5.06,0.93c0.97-1.22,1.89-2.48,2.71-3.81c0.31-0.51,0.63-1.01,0.92-1.54
	l0.44-0.79c0.15-0.26,0.28-0.55,0.42-0.82l0.42-0.83l0.36-0.77l0.18-0.39l0.2-0.43l0.35-0.8c0.91-2.15,1.83-4.45,2.29-7.08
	c0.22-1.31,0.32-2.72,0.15-4.18c-0.06-0.37-0.11-0.73-0.18-1.1c-0.1-0.4-0.21-0.83-0.33-1.21l-0.15-0.41l-0.08-0.2l-0.04-0.1
	c-0.04-0.09,0.03,0.06-0.09-0.23c-0.16-0.34-0.31-0.68-0.5-1.01c-0.37-0.66-0.81-1.29-1.32-1.86c-0.51-0.57-1.09-1.07-1.7-1.5
	c-1.22-0.86-2.56-1.39-3.87-1.69c-2.64-0.61-5.17-0.41-7.57,0.15c-1.26,0.31-2.32,0.7-3.42,1.13c-1.08,0.44-2.14,0.93-3.17,1.48
	c-2.07,1.09-4.03,2.41-5.81,4.02c-1.76,1.61-3.38,3.58-4.47,5.87c-1.09,2.27-1.74,4.8-1.7,7.43l0.01,0.49l0.04,0.49
	c0.01,0.16,0.02,0.33,0.04,0.49l0.07,0.49c0.03,0.17,0.05,0.32,0.08,0.49l0.12,0.53c0.04,0.17,0.08,0.37,0.12,0.51l0.12,0.39
	c0.39,1.3,0.97,2.47,1.68,3.54c0.7,1.07,1.54,2.01,2.44,2.84c0.45,0.41,0.92,0.8,1.41,1.15c0.49,0.36,0.97,0.67,1.53,1
	c0.07,0.04,0.13,0.07,0.18,0.1l0.17,0.09l0.17,0.09l0.09,0.05c0.1,0.06,0.08,0.04,0.13,0.07l0.78,0.36l0.78,0.36
	c0.26,0.11,0.53,0.19,0.8,0.29l0.8,0.28c0.26,0.1,0.54,0.15,0.8,0.23c0.54,0.13,1.07,0.3,1.61,0.38c0.27,0.05,0.53,0.08,0.8,0.13
	c-0.25,0.18-0.5,0.36-0.75,0.54c-0.42,0.3-0.86,0.56-1.28,0.84l-0.16,0.1l-0.08,0.05c-0.04,0.02,0.05-0.03-0.03,0.02l-0.35,0.2
	l-0.7,0.4c-0.48,0.29-0.9,0.48-1.33,0.7c-0.22,0.11-0.43,0.22-0.65,0.32l-0.69,0.3l-0.69,0.3c-0.23,0.1-0.47,0.18-0.7,0.27
	c-0.47,0.18-0.93,0.37-1.42,0.51c-3.81,1.3-7.84,1.94-11.86,2.33c-2.01,0.19-4.03,0.32-6.04,0.41c-2.01,0.09-4.03,0.16-6.04,0.26
	c-4.01,0.22-7.95,0.5-11.77,1.04c-1.91,0.26-3.79,0.58-5.63,0.97c-1.84,0.38-3.65,0.81-5.39,1.34c-0.88,0.25-1.74,0.54-2.59,0.81
	c-0.42,0.15-0.84,0.29-1.25,0.44c-0.42,0.15-0.84,0.3-1.25,0.46c-0.78,0.29-1.5,0.63-2.25,0.94l39.07-131.26L87.7,191.82
	c0,0,12.11-1.06,19.67-9.94c7.56-8.88,12.8-3.98,12.8-3.98s-4.02-5.35-10.49-1.14c0,0,11.46-10.02,12.44-18.44
	c0,0-4.39,6.15-9.39,8.31c0,0,10.97-9.33,12.07-18.55c0,0-5.12,6.15-9.76,7.06c0,0,16.46-10.36,16.34-35.97
	c-0.12-25.61-8.02-71.07,4.28-78.94c8.64-5.53,15.96,4.28,15.96,4.28s-1.56-15.61-15.12-12.75c-29.24,6.16-84.3,94.12-57.43,153.54
	l-2.34,10.54c-0.09,0.41-0.27,0.79-0.4,1.18c-1.08,0.52-2.16,1.03-3.17,1.58c-0.71,0.38-1.41,0.78-2.09,1.17
	c-0.34,0.2-0.68,0.41-1.02,0.61c-0.33,0.21-0.65,0.41-0.98,0.62c-2.61,1.67-5,3.57-6.77,5.87c-0.43,0.58-0.85,1.17-1.2,1.78
	l-0.13,0.23l-0.05,0.08l-0.03,0.06l-0.06,0.11c-0.07,0.15-0.15,0.3-0.22,0.44c-0.15,0.31-0.3,0.66-0.43,0.98
	c-0.5,1.3-0.78,2.62-0.87,3.91c-0.09,1.29,0.04,2.55,0.34,3.7c0.3,1.16,0.8,2.2,1.43,3.07c0.08,0.11,0.14,0.21,0.24,0.33
	c0.08,0.09,0.16,0.19,0.24,0.28c0.09,0.1,0.19,0.2,0.28,0.29c0.09,0.09,0.19,0.17,0.28,0.26c0.38,0.33,0.78,0.61,1.18,0.84
	c0.8,0.46,1.63,0.72,2.4,0.86c1.55,0.27,2.89,0.03,3.86-0.4c0.49-0.21,0.88-0.47,1.2-0.73c0.31-0.26,0.54-0.51,0.71-0.73
	c0.17-0.22,0.29-0.39,0.35-0.51c0.07-0.12,0.11-0.18,0.11-0.18s-0.04,0.06-0.12,0.17c-0.08,0.11-0.21,0.27-0.39,0.47
	c-0.19,0.19-0.43,0.42-0.76,0.64c-0.33,0.22-0.72,0.43-1.2,0.6c-0.95,0.33-2.24,0.45-3.65,0.08c-0.7-0.19-1.44-0.49-2.13-0.96
	c-0.35-0.23-0.68-0.5-0.99-0.81c-0.08-0.08-0.15-0.16-0.23-0.24c-0.07-0.08-0.14-0.16-0.21-0.25c-0.07-0.1-0.15-0.2-0.22-0.3
	c-0.06-0.1-0.12-0.19-0.18-0.29c-1.01-1.59-1.47-3.77-1.17-6.04c0.15-1.13,0.48-2.28,0.97-3.39c0.13-0.27,0.25-0.52,0.4-0.8
	c0.08-0.14,0.17-0.28,0.25-0.43l0.06-0.11l0.03-0.05c-0.02,0.03,0.01-0.02,0.02-0.02l0.13-0.2c0.34-0.53,0.73-1.03,1.15-1.52
	c1.69-1.96,3.98-3.58,6.55-5.03c1.3-0.73,2.66-1.44,4.07-2.13c-1.72,2.42-2.57,5.29-2.37,8.19l0.77,10.96l6.31-21.21
	c1.4-0.56,2.83-1.09,4.31-1.57c0.4-0.13,0.8-0.26,1.21-0.38c0.41-0.12,0.82-0.25,1.24-0.37c0.83-0.22,1.66-0.47,2.51-0.66
	c0.84-0.22,1.71-0.39,2.57-0.58c0.87-0.17,1.74-0.35,2.64-0.49c1.78-0.31,3.6-0.54,5.45-0.73c3.71-0.38,7.55-0.57,11.5-0.66
	c3.94-0.08,8.06-0.06,12.28-0.37c4.22-0.3,8.56-0.91,12.85-2.29c0.54-0.16,1.07-0.36,1.6-0.55c0.27-0.1,0.53-0.19,0.8-0.29
	l0.79-0.33l0.79-0.33c0.26-0.12,0.53-0.25,0.8-0.38c0.52-0.26,1.09-0.52,1.54-0.78l0.71-0.4l0.35-0.2
	c-0.02,0.01,0.12-0.07,0.14-0.08l0.09-0.06l0.18-0.11c0.48-0.31,0.98-0.6,1.45-0.93c0.47-0.32,0.96-0.64,1.42-0.99l0.7-0.52
	c0.23-0.17,0.45-0.36,0.68-0.54c0.94-0.75,1.84-1.55,2.72-2.38c1.42-0.13,2.82-0.31,4.17-0.55c1.92-0.35,3.77-0.78,5.57-1.22
	c1.8-0.45,3.54-0.88,5.3-1.37c1.75-0.45,3.44-1.01,5.1-1.52c1.65-0.57,3.28-1.09,4.84-1.7c3.14-1.16,6.09-2.44,8.85-3.74
	c1.37-0.68,2.71-1.31,3.98-2.01c0.64-0.34,1.27-0.67,1.89-1c0.61-0.35,1.21-0.69,1.8-1.03c4.73-2.7,8.62-5.43,11.74-7.79
	c0.39-0.29,0.77-0.58,1.14-0.86c0.37-0.28,0.71-0.57,1.05-0.84c0.67-0.55,1.31-1.07,1.9-1.55c1.15-1,2.13-1.84,2.91-2.54
	c1.53-1.43,2.35-2.19,2.35-2.19S212.05,152.7,210.4,153.98z M153.79,169.69c-0.25,0.47-0.54,0.91-0.81,1.37
	c-1.6,2.6-3.52,4.98-5.66,7.09c-1.48-0.04-2.95-0.2-4.39-0.52c-0.45-0.07-0.88-0.23-1.32-0.35c-0.22-0.07-0.44-0.11-0.65-0.2
	l-0.64-0.25c-0.21-0.08-0.43-0.16-0.64-0.25l-0.62-0.3l-0.62-0.3c-0.01,0-0.09-0.04-0.04-0.02l-0.08-0.05l-0.17-0.1l-0.17-0.1
	c-0.06-0.03-0.11-0.06-0.15-0.09c-0.33-0.21-0.72-0.47-1.07-0.74c-0.36-0.27-0.7-0.56-1.02-0.87c-0.64-0.62-1.22-1.31-1.69-2.05
	c-0.24-0.37-0.44-0.76-0.62-1.15c-0.17-0.39-0.34-0.81-0.44-1.2l-0.11-0.4c-0.03-0.12-0.03-0.19-0.06-0.29l-0.06-0.27
	c-0.02-0.1-0.03-0.21-0.04-0.32l-0.04-0.32c-0.01-0.11-0.01-0.22-0.02-0.33l-0.02-0.33l0-0.33c0-1.78,0.48-3.63,1.32-5.29
	c1.66-3.32,4.88-5.89,8.45-7.75c0.9-0.46,1.82-0.88,2.76-1.25c0.94-0.36,1.94-0.71,2.81-0.9c1.85-0.42,3.8-0.51,5.5-0.11
	c0.85,0.2,1.61,0.52,2.24,0.97c0.63,0.44,1.13,1,1.51,1.69c0.1,0.16,0.17,0.34,0.26,0.52l0.04,0.1l0.07,0.2l0.15,0.41
	c0.04,0.18,0.06,0.32,0.11,0.47l0.1,0.62c0.1,0.85,0.04,1.77-0.12,2.72c-0.33,1.92-1.08,3.91-1.94,5.94l-0.33,0.77l-0.06,0.15
	l-0.09,0.19l-0.18,0.39l-0.35,0.77l-0.35,0.69c-0.12,0.23-0.22,0.46-0.35,0.69L153.79,169.69z"/>
</svg>
