<svg width="48" height="48" viewBox="0 0 48 48" fill="none" xmlns="http://www.w3.org/2000/svg">
<path d="M43.7764 18.3511L27.7273 5.09996C26.6791 4.23669 25.3634 3.76465 24.0054 3.76465C22.6475 3.76465 21.3318 4.23669 20.2836 5.09996L4.22541 18.3511C4.13816 18.4206 4.06719 18.5084 4.01745 18.6083C3.96772 18.7082 3.94043 18.8178 3.9375 18.9293V40.0927C3.94447 41.1957 4.3867 42.2512 5.16799 43.0298C5.94928 43.8083 7.0064 44.2469 8.10938 44.25H39.8906C40.9936 44.2469 42.0507 43.8083 42.832 43.0298C43.6133 42.2512 44.0555 41.1957 44.0625 40.0927V18.9293C44.0599 18.8179 44.0329 18.7084 43.9835 18.6085C43.9341 18.5086 43.8634 18.4207 43.7764 18.3511V18.3511ZM42.1926 41.4156L32.0754 33.2461L42.5625 20.9994V40.0927C42.5582 40.5586 42.4305 41.015 42.1926 41.4156V41.4156ZM5.79966 41.4021C5.56672 41.0047 5.44187 40.5533 5.4375 40.0927V20.9838L16.0094 33.1144L5.79966 41.4021ZM17.2125 32.1689L14.4375 28.9626V18.4687H21.0006C21.1134 18.4624 21.2265 18.4761 21.3346 18.5092L23.1632 19.1686C23.1951 19.1802 23.25 19.1795 23.25 19.1897V27.9393C22.5311 28.07 21.8573 28.3816 21.2921 28.8448L17.2125 32.1689ZM24.75 19.1897C24.7877 19.1903 24.8248 19.1797 24.8566 19.1594L26.7004 18.5091C26.8101 18.4761 26.9248 18.4624 27.0393 18.4687H33.6562V29.0906L30.8969 32.3035L26.5943 28.8441C26.0615 28.4036 25.4279 28.1021 24.75 27.9664V19.1897ZM21.2348 6.25683C22.0135 5.61515 22.991 5.26423 24 5.26423C25.009 5.26423 25.9865 5.61515 26.7652 6.25683L42.2489 19.0382L35.1562 27.3381V17.6819C35.1562 17.2677 34.8007 16.9687 34.3864 16.9687H27.0393C26.7515 16.9624 26.465 17.0069 26.1926 17.1L24.3539 17.7593C24.1376 17.8362 23.9011 17.8346 23.6858 17.7547L21.8473 17.1023C21.5751 17.0086 21.2884 16.9635 21.0006 16.9692H13.6534C13.5587 16.9657 13.4643 16.9817 13.3761 17.0163C13.2879 17.0508 13.2077 17.1031 13.1406 17.17C13.0734 17.2368 13.0208 17.3167 12.9858 17.4048C12.9509 17.4929 12.9344 17.5872 12.9375 17.6819V27.2405L5.77725 19.0388L21.2348 6.25683ZM8.10938 42.75C7.69042 42.7481 7.27795 42.6463 6.90628 42.453L22.2426 30.0093C22.2454 30.007 22.2482 30.0031 22.251 30.0008C22.7264 29.6028 23.3266 29.3846 23.9466 29.3845C24.5667 29.3843 25.167 29.6022 25.6426 30C25.646 30.0027 25.6492 30.005 25.6526 30.0076L41.0779 42.4611C40.7103 42.6492 40.3036 42.7482 39.8906 42.75H8.10938Z" fill="url(#paint0_linear_310_385)"/>
<path d="M26.7102 22.125H28.9198C29.1187 22.125 29.3095 22.046 29.4501 21.9053C29.5908 21.7647 29.6698 21.5739 29.6698 21.375C29.6698 21.1761 29.5908 20.9853 29.4501 20.8447C29.3095 20.704 29.1187 20.625 28.9198 20.625H26.7102C26.5113 20.625 26.3205 20.704 26.1799 20.8447C26.0392 20.9853 25.9602 21.1761 25.9602 21.375C25.9602 21.5739 26.0392 21.7647 26.1799 21.9053C26.3205 22.046 26.5113 22.125 26.7102 22.125Z" fill="url(#paint1_linear_310_385)"/>
<path d="M26.7102 24.8438H31.9429C32.1418 24.8438 32.3325 24.7647 32.4732 24.6241C32.6138 24.4834 32.6929 24.2927 32.6929 24.0938C32.6929 23.8948 32.6138 23.7041 32.4732 23.5634C32.3325 23.4228 32.1418 23.3438 31.9429 23.3438H26.7102C26.5113 23.3438 26.3205 23.4228 26.1799 23.5634C26.0392 23.7041 25.9602 23.8948 25.9602 24.0938C25.9602 24.2927 26.0392 24.4834 26.1799 24.6241C26.3205 24.7647 26.5113 24.8438 26.7102 24.8438ZM31.9429 27.5625C32.1418 27.5625 32.3325 27.4835 32.4732 27.3428C32.6138 27.2022 32.6929 27.0114 32.6929 26.8125C32.6929 26.6136 32.6138 26.4228 32.4732 26.2822C32.3325 26.1415 32.1418 26.0625 31.9429 26.0625H26.7102C26.5113 26.0625 26.3205 26.1415 26.1799 26.2822C26.0392 26.4228 25.9602 26.6136 25.9602 26.8125C25.9602 27.0114 26.0392 27.2022 26.1799 27.3428C26.3205 27.4835 26.5113 27.5625 26.7102 27.5625H31.9429Z" fill="url(#paint2_linear_310_385)"/>
<defs>
<linearGradient id="paint0_linear_310_385" x1="24" y1="2.81246" x2="24" y2="46.4066" gradientUnits="userSpaceOnUse">
<stop stop-color="#367FD3"/>
<stop offset="1" stop-color="#2AA5DE"/>
</linearGradient>
<linearGradient id="paint1_linear_310_385" x1="1126.57" y1="65.625" x2="1126.57" y2="763.131" gradientUnits="userSpaceOnUse">
<stop stop-color="#367FD3"/>
<stop offset="1" stop-color="#2AA5DE"/>
</linearGradient>
<linearGradient id="paint2_linear_310_385" x1="2132.04" y1="149.906" x2="2132.04" y2="2111.64" gradientUnits="userSpaceOnUse">
<stop stop-color="#367FD3"/>
<stop offset="1" stop-color="#2AA5DE"/>
</linearGradient>
</defs>
</svg>
