<?xml version="1.0" encoding="utf-8"?>
<!-- Generator: Adobe Illustrator 26.0.1, SVG Export Plug-In . SVG Version: 6.00 Build 0)  -->
<svg version="1.1" id="Layer_1" xmlns="http://www.w3.org/2000/svg" xmlns:xlink="http://www.w3.org/1999/xlink" x="0px" y="0px"
	 viewBox="0 0 149.21 49.62" style="enable-background:new 0 0 149.21 49.62;" xml:space="preserve">
<style type="text/css">
	.st0{font-family:'ArialRoundedMTBold';}
	.st1{font-size:20.069px;}
	.st2{fill:#7367F0;}
	.st3{fill:url(#SVGID_1_);}
	.st4{fill:#FFFFFF;}
</style>
<g>
	<text transform="matrix(0.8743 0 0 1 53.7864 20.9148)"><tspan x="0" y="0" class="st0 st1">Essay</tspan><tspan x="0" y="21" class="st0 st1">OnDemand</tspan></text>
	<text transform="matrix(0.8743 0 0 1 53.7864 20.9148)"><tspan x="0" y="0" class="st2 st0 st1">Essay</tspan><tspan x="0" y="21" class="st2 st0 st1">OnDemand</tspan></text>
</g>
<linearGradient id="SVGID_1_" gradientUnits="userSpaceOnUse" x1="24.8095" y1="49.6191" x2="24.8095" y2="-9.094947e-13">
	<stop  offset="0" style="stop-color:#2AA5DE"/>
	<stop  offset="1" style="stop-color:#7367F0"/>
</linearGradient>
<path class="st3" d="M45.79,49.62H3.83C1.71,49.62,0,47.91,0,45.79V3.83C0,1.71,1.71,0,3.83,0h41.96c2.11,0,3.83,1.71,3.83,3.83
	v41.96C49.62,47.91,47.91,49.62,45.79,49.62z"/>
<g>
	<path class="st4" d="M34.06,30.09c-0.7,0-1.41-0.18-2.04-0.55l-12.49-7.39c-1.11-0.66-1.78-1.8-1.78-3.02
		c0-1.23,0.67-2.37,1.78-3.02l12.49-7.39c1.78-1.06,4.15-0.56,5.28,1.11c1.13,1.67,0.6,3.88-1.19,4.93l-7.38,4.37l7.38,4.37
		c1.78,1.06,2.32,3.26,1.19,4.93C36.57,29.51,35.33,30.09,34.06,30.09z"/>
	<path class="st4" d="M12.33,25.39c1.14-1.66,3.51-2.14,5.28-1.08l17.59,10.56c1.78,1.07,2.29,3.28,1.15,4.94
		c-0.73,1.06-1.96,1.64-3.22,1.64c-0.71,0-1.42-0.18-2.06-0.57L13.49,30.33C11.71,29.26,11.19,27.05,12.33,25.39z"/>
</g>
</svg>
