<svg width="34" height="34" viewBox="0 0 34 34" fill="none" xmlns="http://www.w3.org/2000/svg">
<g clip-path="url(#clip0_58_165)">
<path fill-rule="evenodd" clip-rule="evenodd" d="M20.7771 11.5093C21.0727 11.3121 21.2496 10.9806 21.2496 10.6252C21.2496 10.2699 21.0727 9.93844 20.7771 9.74124L14.4021 5.49118C14.0754 5.27358 13.6562 5.25318 13.3112 5.43848C12.9653 5.62293 12.7502 5.98334 12.7502 6.37519V14.8753C12.7502 15.2672 12.9653 15.6276 13.3112 15.812C13.6562 15.9973 14.0754 15.9769 14.4021 15.7593L20.7771 11.5093ZM14.8746 12.8897L18.2717 10.6252L14.8746 8.36082V12.8897Z" fill="white"/>
<path fill-rule="evenodd" clip-rule="evenodd" d="M17 0.000488281C11.1362 0.000488281 6.37462 4.7621 6.37462 10.626C6.37462 16.4899 11.1362 21.2515 17 21.2515C22.8638 21.2515 27.6254 16.4899 27.6254 10.626C27.6254 4.7621 22.8638 0.000488281 17 0.000488281ZM17 2.1263C21.6908 2.1263 25.4996 5.93511 25.4996 10.626C25.4996 15.3169 21.6908 19.1257 17 19.1257C12.3092 19.1257 8.50041 15.3169 8.50041 10.626C8.50041 5.93511 12.3092 2.1263 17 2.1263Z" fill="white"/>
<path fill-rule="evenodd" clip-rule="evenodd" d="M31.8749 28.688C31.8749 28.1015 31.8749 27.6255 31.8749 27.6255H2.12498C1.53863 27.6255 1.06264 28.1015 1.06264 28.688V28.6901C1.06264 31.6227 3.44047 34.0006 6.37327 34.0006C12.0268 34.0006 21.9698 34.0006 27.6245 34.0006C29.0341 34.0006 30.3853 33.4406 31.3816 32.445C32.378 31.4484 32.9373 30.0969 32.9373 28.688H31.8749ZM30.6298 29.7505H3.36799C3.80504 30.9883 4.9853 31.8755 6.37327 31.8755C12.0268 31.8755 21.9698 31.8755 27.6245 31.8755C28.4705 31.8755 29.2807 31.5398 29.879 30.9416C30.2187 30.6027 30.4729 30.1946 30.6298 29.7505Z" fill="white"/>
<path fill-rule="evenodd" clip-rule="evenodd" d="M9.16711 13.9294C9.0003 13.5363 8.61567 13.2812 8.18854 13.2812H6.37486C5.52911 13.2812 4.71842 13.617 4.1213 14.2152C3.52311 14.8123 3.18736 15.623 3.18736 16.4688C3.18736 20.4617 3.18736 28.6877 3.18736 28.6877C3.18736 29.2742 3.66336 29.7502 4.24986 29.7502H29.7498C30.3363 29.7502 30.8123 29.2742 30.8123 28.6877V16.4688C30.8123 15.623 30.4766 14.8123 29.8784 14.2152C29.2813 13.617 28.4706 13.2812 27.6248 13.2812H25.8111C25.384 13.2812 24.9994 13.5363 24.8326 13.9294C23.5416 16.982 20.5188 19.1251 16.9998 19.1251C13.4808 19.1251 10.458 16.982 9.16711 13.9294ZM7.51067 15.4063H6.37486C6.09329 15.4063 5.82236 15.5178 5.62367 15.7176C5.42392 15.9163 5.31236 16.1872 5.31236 16.4688V27.6252H28.6873V16.4688C28.6873 16.1872 28.5758 15.9163 28.376 15.7176C28.1773 15.5178 27.9064 15.4063 27.6248 15.4063H26.489C24.738 18.8722 21.1446 21.2501 16.9998 21.2501C12.855 21.2501 9.26166 18.8722 7.51067 15.4063Z" fill="white"/>
<path fill-rule="evenodd" clip-rule="evenodd" d="M32.9373 28.6883C32.9373 28.4062 32.8257 28.1356 32.626 27.9368C32.4273 27.7372 32.1564 27.6255 31.8748 27.6255C31.3436 27.6255 30.8123 27.6255 30.8123 27.6255V28.746H32.9373V28.6883Z" fill="white"/>
</g>
<defs>
<clipPath id="clip0_58_165">
<rect width="34" height="34" fill="white"/>
</clipPath>
</defs>
</svg>
