<svg width="36" height="41" viewBox="0 0 36 41" fill="none" xmlns="http://www.w3.org/2000/svg">
<path d="M32.1504 0.976562H21.233C20.8016 0.976562 20.4518 1.32641 20.4518 1.75781C20.4518 2.18922 20.8016 2.53906 21.233 2.53906H32.1504C33.1091 2.53906 33.8892 3.31906 33.8892 4.27797V37.673C33.8892 38.633 33.1092 39.4141 32.1504 39.4141H3.30035C2.3416 39.4141 1.56152 38.633 1.56152 37.673V4.27797C1.56152 3.31906 2.34152 2.53906 3.30035 2.53906H14.2176C14.6491 2.53906 14.9989 2.18922 14.9989 1.75781C14.9989 1.32641 14.6491 0.976562 14.2176 0.976562H3.30035C1.48004 0.976562 -0.000976562 2.45758 -0.000976562 4.27797V37.673C-0.000976562 39.4945 1.47996 40.9766 3.30035 40.9766H32.1504C33.9707 40.9766 35.4517 39.4945 35.4517 37.673V4.27797C35.4517 2.45758 33.9707 0.976562 32.1504 0.976562Z" fill="#367FD3"/>
<path d="M22.5439 9.37977H27.3804C27.8118 9.37977 28.1616 9.02992 28.1616 8.59852C28.1616 8.16711 27.8118 7.81727 27.3804 7.81727H22.5439C22.1125 7.81727 21.7627 8.16711 21.7627 8.59852C21.7627 9.02992 22.1125 9.37977 22.5439 9.37977Z" fill="#367FD3"/>
<path d="M22.5439 13.368H31.3221C31.7535 13.368 32.1033 13.0182 32.1033 12.5868C32.1033 12.1554 31.7535 11.8055 31.3221 11.8055H22.5439C22.1125 11.8055 21.7627 12.1554 21.7627 12.5868C21.7627 13.0182 22.1125 13.368 22.5439 13.368Z" fill="#367FD3"/>
<path d="M22.5439 17.3542H31.3221C31.7535 17.3542 32.1033 17.0044 32.1033 16.573C32.1033 16.1416 31.7535 15.7917 31.3221 15.7917H22.5439C22.1125 15.7917 21.7627 16.1416 21.7627 16.573C21.7627 17.0044 22.1125 17.3542 22.5439 17.3542Z" fill="#367FD3"/>
<path d="M6.39168 22.8959C4.71301 22.8959 3.34723 24.2616 3.34723 25.9404C3.34723 27.6192 4.71293 28.9849 6.39168 28.9849C8.07043 28.9849 9.43613 27.6192 9.43613 25.9404C9.43613 24.2616 8.07043 22.8959 6.39168 22.8959ZM6.39168 27.4224C5.57457 27.4224 4.90973 26.7576 4.90973 25.9404C4.90973 25.1232 5.57449 24.4584 6.39168 24.4584C7.20887 24.4584 7.87363 25.1232 7.87363 25.9404C7.87363 26.7576 7.20887 27.4224 6.39168 27.4224Z" fill="#367FD3"/>
<path d="M6.39168 31.537C4.71301 31.537 3.34723 32.9027 3.34723 34.5816C3.34723 36.2602 4.71293 37.626 6.39168 37.626C8.07043 37.626 9.43613 36.2603 9.43613 34.5816C9.43613 32.9027 8.07043 31.537 6.39168 31.537ZM6.39168 36.0634C5.57457 36.0634 4.90973 35.3986 4.90973 34.5815C4.90973 33.7643 5.57449 33.0995 6.39168 33.0995C7.20887 33.0995 7.87363 33.7643 7.87363 34.5815C7.87363 35.3987 7.20887 36.0634 6.39168 36.0634Z" fill="#367FD3"/>
<path d="M29.6193 32.2058H14.2442C12.8756 32.2058 11.7622 33.3202 11.7622 34.69C11.7622 36.0586 12.8756 37.172 14.2442 37.172H29.6193C30.989 37.172 32.1034 36.0586 32.1034 34.69C32.1034 33.3202 30.989 32.2058 29.6193 32.2058ZM29.6193 35.6095H14.2442C13.7372 35.6095 13.3247 35.197 13.3247 34.69C13.3247 34.1818 13.7372 33.7683 14.2442 33.7683H29.6193C30.1275 33.7683 30.5409 34.1818 30.5409 34.69C30.5409 35.197 30.1275 35.6095 29.6193 35.6095Z" fill="#367FD3"/>
<path d="M11.7622 26.049C11.7622 27.4176 12.8756 28.531 14.2442 28.531H29.6193C30.989 28.531 32.1034 27.4176 32.1034 26.049C32.1034 24.6791 30.989 23.5647 29.6193 23.5647H14.2442C12.8757 23.5647 11.7622 24.6791 11.7622 26.049ZM30.5409 26.049C30.5409 26.5559 30.1275 26.9685 29.6193 26.9685H14.2442C13.7372 26.9685 13.3247 26.556 13.3247 26.049C13.3247 25.5407 13.7372 25.1272 14.2442 25.1272H29.6193C30.1275 25.1272 30.5409 25.5407 30.5409 26.049Z" fill="#367FD3"/>
<path d="M11.609 4.34484C9.40535 4.34484 7.33504 5.20156 5.77926 6.75742C2.56801 9.97117 2.56801 15.2002 5.77941 18.4143C7.33504 19.9698 9.40535 20.8266 11.6089 20.8266C13.8111 20.8266 15.8807 19.9698 17.4362 18.4143C20.65 15.2003 20.65 9.97102 17.4362 6.75719C15.8807 5.20156 13.8112 4.34484 11.609 4.34484ZM7.90207 18.1459C8.02426 16.9811 8.69512 15.9345 9.70441 15.3313C10.2625 15.6635 10.9136 15.8551 11.609 15.8551C12.3038 15.8551 12.9544 15.6636 13.512 15.3316C14.5218 15.935 15.1931 16.9809 15.3158 18.1445C14.2281 18.8728 12.9489 19.2641 11.609 19.2641C10.2688 19.2641 8.98965 18.8733 7.90207 18.1459ZM11.609 14.2925C10.4121 14.2925 9.4384 13.3197 9.4384 12.124C9.4384 10.9271 10.4121 9.95328 11.609 9.95328C12.8046 9.95328 13.7774 10.9271 13.7774 12.124C13.7774 13.3197 12.8046 14.2925 11.609 14.2925ZM16.6564 16.9575C16.3136 15.8673 15.6223 14.9073 14.6839 14.2339C15.0972 13.6334 15.34 12.9066 15.34 12.124C15.34 10.0655 13.6663 8.39078 11.6091 8.39078C9.55066 8.39078 7.87598 10.0655 7.87598 12.124C7.87598 12.9066 8.11879 13.6333 8.53238 14.2338C7.59426 14.9074 6.90324 15.868 6.56098 16.9589C4.28871 14.3373 4.39535 10.353 6.88449 7.86203C8.1448 6.60156 9.8227 5.90734 11.609 5.90734C13.3939 5.90734 15.071 6.60156 16.3314 7.86211C18.8221 10.3528 18.9292 14.3361 16.6564 16.9575Z" fill="#367FD3"/>
<path d="M17.7254 2.53906H17.7298C18.1612 2.53906 18.5089 2.18922 18.5089 1.75781C18.5089 1.32641 18.1568 0.976562 17.7254 0.976562C17.2939 0.976562 16.9441 1.32641 16.9441 1.75781C16.9441 2.18922 17.2939 2.53906 17.7254 2.53906Z" fill="#367FD3"/>
</svg>
