<svg width="37" height="41" viewBox="0 0 37 41" fill="none" xmlns="http://www.w3.org/2000/svg">
<path d="M20.908 24.8873C19.6156 24.8873 18.5641 25.9387 18.5641 27.2311C18.5641 28.5235 19.6155 29.5749 20.908 29.5749C22.2003 29.5749 23.2518 28.5235 23.2518 27.2311C23.2518 25.9387 22.2003 24.8873 20.908 24.8873ZM20.908 28.0124C20.4772 28.0124 20.1267 27.662 20.1267 27.2312C20.1267 26.8004 20.4772 26.4499 20.908 26.4499C21.3387 26.4499 21.6892 26.8004 21.6892 27.2312C21.6892 27.662 21.3387 28.0124 20.908 28.0124Z" fill="#367FD3"/>
<path d="M21.528 3.892C21.3119 3.51856 20.8341 3.39106 20.4605 3.60716L20.4494 3.61364C20.0759 3.82973 19.9484 4.3077 20.1645 4.68114C20.3094 4.93145 20.5717 5.07122 20.8414 5.07122C20.9742 5.07122 21.1088 5.03731 21.232 4.96598L21.2432 4.9595C21.6166 4.7434 21.7441 4.26544 21.528 3.892Z" fill="#367FD3"/>
<path d="M34.5322 13.4758H34.2793L27.7607 2.18543C27.0939 1.03058 25.6118 0.63324 24.4567 1.30011L23.3733 1.92558C22.9997 2.14129 22.8716 2.6191 23.0874 2.99277C23.3031 3.36644 23.7808 3.49441 24.1546 3.27871L25.2379 2.65324C25.6468 2.41707 26.1715 2.55777 26.4075 2.9666L27.5431 4.93363L12.7477 13.4758H6.49288L18.4892 6.54972C18.8629 6.33402 18.9909 5.8562 18.7751 5.48253C18.5594 5.10886 18.0816 4.98081 17.708 5.19659L3.36789 13.4758H2.34383C1.05148 13.4758 0 14.5272 0 15.8196V38.6327C0 39.9251 1.05141 40.9766 2.34383 40.9766H34.5322C35.8245 40.9766 36.876 39.9252 36.876 38.6327V15.8196C36.8761 14.5273 35.8246 13.4758 34.5322 13.4758ZM32.475 13.4758H25.2574L30.6706 10.3505L32.475 13.4758ZM28.3243 6.28691L29.8893 8.99737L22.1322 13.4759H15.8727L28.3243 6.28691ZM35.3135 28.32V29.7263C35.3135 30.157 34.963 30.5075 34.5322 30.5075H19.1367C18.3207 30.5075 17.6567 29.8436 17.6567 29.0276V25.4249C17.6567 24.6088 18.3206 23.9449 19.1367 23.9449H34.5322C34.8061 23.9449 35.0689 23.8972 35.3134 23.8105V28.32H35.3135ZM35.3135 16.9132H26.4851C26.0536 16.9132 25.7039 17.263 25.7039 17.6945C25.7039 18.126 26.0536 18.4757 26.4851 18.4757H35.3135V21.601C35.3135 22.0318 34.963 22.3823 34.5322 22.3823H19.1367C17.459 22.3823 16.0942 23.7471 16.0942 25.4248V29.0275C16.0942 30.7052 17.459 32.07 19.1367 32.07H34.5322C34.8061 32.07 35.0689 32.0224 35.3134 31.9356V38.6327C35.3134 39.0634 34.9629 39.4139 34.5322 39.4139H2.34383C1.91305 39.4139 1.56258 39.0634 1.56258 38.6327V37.5391H14.141C14.5725 37.5391 14.9223 37.1894 14.9223 36.7579C14.9223 36.3264 14.5725 35.9766 14.141 35.9766H1.56258V15.8196C1.56258 15.3889 1.91305 15.0384 2.34383 15.0384H34.5322C34.9629 15.0384 35.3134 15.3889 35.3134 15.8196V16.9132H35.3135Z" fill="#367FD3"/>
<path d="M7.55226 26.401C6.43226 26.401 5.52093 25.6065 5.52093 24.6297C5.52093 23.653 6.43218 22.8584 7.55226 22.8584C8.67225 22.8584 9.58358 23.6529 9.58358 24.6297C9.58358 25.0612 9.93335 25.411 10.3648 25.411C10.7963 25.411 11.1461 25.0612 11.1461 24.6297C11.1461 23.0403 9.94061 21.7081 8.33351 21.3762V21.0154C8.33351 20.5839 7.98374 20.2342 7.55226 20.2342C7.12077 20.2342 6.77101 20.5839 6.77101 21.0154V21.3762C5.1639 21.7081 3.95843 23.0404 3.95843 24.6297C3.95843 26.468 5.5707 27.9635 7.55226 27.9635C8.67225 27.9635 9.58358 28.7581 9.58358 29.7349C9.58358 30.7117 8.67233 31.5062 7.55226 31.5062C6.43226 31.5062 5.52093 30.7117 5.52093 29.7349C5.52093 29.3034 5.17116 28.9536 4.73968 28.9536C4.3082 28.9536 3.95843 29.3034 3.95843 29.7349C3.95843 31.3242 5.1639 32.6565 6.77101 32.9884V33.4469C6.77101 33.8784 7.12077 34.2281 7.55226 34.2281C7.98374 34.2281 8.33351 33.8784 8.33351 33.4469V32.9884C9.94061 32.6565 11.1461 31.3242 11.1461 29.7349C11.1461 27.8966 9.53389 26.401 7.55226 26.401Z" fill="#367FD3"/>
<path d="M18.0139 36.2053C17.8686 36.0592 17.667 35.9764 17.4615 35.9764C17.2561 35.9764 17.0545 36.0592 16.9092 36.2053C16.7639 36.3506 16.6803 36.5514 16.6803 36.7577C16.6803 36.9631 16.7639 37.1647 16.9092 37.31C17.0545 37.4553 17.2561 37.5389 17.4615 37.5389C17.667 37.5389 17.8686 37.4553 18.0139 37.31C18.1592 37.1647 18.2428 36.9631 18.2428 36.7577C18.2428 36.5514 18.1592 36.3506 18.0139 36.2053Z" fill="#367FD3"/>
</svg>
