<svg width="42" height="39" viewBox="0 0 42 39" fill="none" xmlns="http://www.w3.org/2000/svg">
<path d="M29.8348 20.7672C29.5023 20.7672 29.1999 20.5549 29.082 20.2453C28.9609 19.9273 29.0612 19.5552 29.3241 19.3396C29.5842 19.1263 29.9599 19.0986 30.2484 19.2714C30.5372 19.4442 30.6893 19.7892 30.6238 20.1191C30.5501 20.4906 30.214 20.7672 29.8348 20.7672Z" fill="#367FD3"/>
<path d="M27.4414 38.9766H3.1986C1.4349 38.9766 0 37.5417 0 35.778V4.17524C0 2.41155 1.4349 0.976562 3.1986 0.976562H27.4413C29.205 0.976562 30.6399 2.41147 30.6399 4.17516V16.337C30.6399 16.7817 30.2795 17.1421 29.8348 17.1421C29.3902 17.1421 29.0297 16.7817 29.0297 16.337V4.17524C29.0297 3.29939 28.3172 2.58681 27.4413 2.58681H3.1986C2.32275 2.58673 1.61017 3.29939 1.61017 4.17524V35.778C1.61017 36.6538 2.32275 37.3664 3.1986 37.3664H27.4413C28.3172 37.3664 29.0297 36.6537 29.0297 35.778V23.616C29.0297 23.1715 29.3902 22.8109 29.8348 22.8109C30.2795 22.8109 30.6399 23.1715 30.6399 23.616V35.778C30.64 37.5417 29.2051 38.9766 27.4414 38.9766Z" fill="#367FD3"/>
<path d="M25.7407 24.3995H15.8718C15.4272 24.3995 15.0668 24.0389 15.0668 23.5944C15.0668 23.1498 15.4272 22.7893 15.8718 22.7893H25.7407C26.1854 22.7893 26.5458 23.1498 26.5458 23.5944C26.5458 24.0389 26.1854 24.3995 25.7407 24.3995Z" fill="#367FD3"/>
<path d="M22.2874 21.1889H15.8718C15.4272 21.1889 15.0668 20.8284 15.0668 20.3839C15.0668 19.9392 15.4272 19.5788 15.8718 19.5788H22.2874C22.7321 19.5788 23.0925 19.9392 23.0925 20.3839C23.0925 20.8284 22.7321 21.1889 22.2874 21.1889Z" fill="#367FD3"/>
<path d="M25.7407 33.9387H15.8718C15.4272 33.9387 15.0668 33.5781 15.0668 33.1336C15.0668 32.689 15.4272 32.3285 15.8718 32.3285H25.7407C26.1854 32.3285 26.5458 32.689 26.5458 33.1336C26.5458 33.5782 26.1854 33.9387 25.7407 33.9387Z" fill="#367FD3"/>
<path d="M22.2874 30.7282H15.8718C15.4272 30.7282 15.0668 30.3677 15.0668 29.9231C15.0668 29.4786 15.4272 29.1181 15.8718 29.1181H22.2874C22.7321 29.1181 23.0925 29.4786 23.0925 29.9231C23.0925 30.3678 22.7321 30.7282 22.2874 30.7282Z" fill="#367FD3"/>
<path d="M25.7407 13.2549H15.8718C15.4272 13.2549 15.0668 12.8944 15.0668 12.4498C15.0668 12.0052 15.4272 11.6447 15.8718 11.6447H25.7407C26.1854 11.6447 26.5458 12.0052 26.5458 12.4498C26.5458 12.8945 26.1854 13.2549 25.7407 13.2549Z" fill="#367FD3"/>
<path d="M22.2874 10.0445H15.8718C15.4272 10.0445 15.0668 9.68404 15.0668 9.23939C15.0668 8.79482 15.4272 8.4343 15.8718 8.4343H22.2874C22.7321 8.4343 23.0925 8.79482 23.0925 9.23939C23.0925 9.68404 22.7321 10.0445 22.2874 10.0445Z" fill="#367FD3"/>
<path d="M8.38407 32.3335C8.24842 32.3335 8.11179 32.2993 7.98765 32.2289L7.23353 31.8018C6.8466 31.5827 6.71062 31.0915 6.92969 30.7046C7.14883 30.3176 7.64009 30.1816 8.02694 30.4008L8.24817 30.5261L8.90231 29.8719C9.21669 29.5576 9.72647 29.5576 10.0409 29.8719C10.3552 30.1862 10.3553 30.696 10.0409 31.0105L8.95367 32.0978C8.79861 32.2527 8.59251 32.3335 8.38407 32.3335Z" fill="#367FD3"/>
<path d="M8.38407 21.1889C8.24842 21.1889 8.11179 21.1547 7.98765 21.0844L7.23353 20.6573C6.8466 20.4382 6.71062 19.9469 6.92969 19.56C7.14883 19.1731 7.64009 19.037 8.02694 19.2563L8.24817 19.3815L8.90231 18.7274C9.21669 18.4131 9.72639 18.4132 10.0409 18.7274C10.3552 19.0418 10.3552 19.5516 10.0409 19.866L8.95367 20.9532C8.79861 21.1081 8.59251 21.1889 8.38407 21.1889Z" fill="#367FD3"/>
<path d="M8.38407 10.0445C8.24842 10.0445 8.11179 10.0103 7.98765 9.93989L7.23353 9.5128C6.8466 9.29373 6.71062 8.80247 6.92969 8.41555C7.14883 8.0287 7.64009 7.89248 8.02694 8.11179L8.24817 8.23706L8.90231 7.58285C9.21669 7.26854 9.72647 7.26854 10.0409 7.58285C10.3552 7.89723 10.3553 8.40701 10.0409 8.72148L8.95367 9.80875C8.79861 9.96364 8.59251 10.0445 8.38407 10.0445Z" fill="#367FD3"/>
<path d="M8.51699 35.5439C6.07823 35.5439 4.09418 33.5599 4.09418 31.1211C4.09418 28.6823 6.07823 26.6983 8.51699 26.6983C10.9558 26.6983 12.9398 28.6823 12.9398 31.1211C12.9399 33.5598 10.9558 35.5439 8.51699 35.5439ZM8.51699 28.3085C6.96608 28.3085 5.70435 29.5702 5.70435 31.1211C5.70435 32.672 6.96608 33.9338 8.51699 33.9338C10.0679 33.9338 11.3296 32.6719 11.3296 31.1211C11.3296 29.5703 10.0679 28.3085 8.51699 28.3085Z" fill="#367FD3"/>
<path d="M8.51699 24.3995C6.07823 24.3995 4.09418 22.4153 4.09418 19.9766C4.09418 17.538 6.07823 15.5537 8.51699 15.5537C10.9558 15.5537 12.9398 17.5379 12.9398 19.9766C12.9398 22.4154 10.9558 24.3995 8.51699 24.3995ZM8.51699 17.1639C6.96608 17.1639 5.70435 18.4257 5.70435 19.9766C5.70435 21.5276 6.96608 22.7893 8.51699 22.7893C10.0679 22.7893 11.3296 21.5275 11.3296 19.9766C11.3296 18.4258 10.0679 17.1639 8.51699 17.1639Z" fill="#367FD3"/>
<path d="M8.51699 13.2549C6.07823 13.2549 4.09418 11.2709 4.09418 8.8321C4.09418 6.39333 6.07823 4.4092 8.51699 4.4092C10.9558 4.4092 12.9398 6.39333 12.9398 8.8321C12.9398 11.2709 10.9558 13.2549 8.51699 13.2549ZM8.51699 6.01945C6.96608 6.01945 5.70435 7.28126 5.70435 8.83218C5.70435 10.3831 6.96608 11.6448 8.51699 11.6448C10.0679 11.6448 11.3296 10.3831 11.3296 8.83218C11.3296 7.28126 10.0679 6.01945 8.51699 6.01945Z" fill="#367FD3"/>
<path d="M41.1485 32.6713C41.1983 32.5618 41.2217 32.4454 41.2203 32.3303V2.90796C41.2203 1.84299 40.3539 0.976562 39.289 0.976562H34.6349C33.57 0.976562 32.7036 1.84299 32.7036 2.90788V32.3303C32.7023 32.4454 32.7257 32.5618 32.7754 32.6713C32.7757 32.672 36.2691 38.5817 36.2691 38.5817C36.4141 38.8264 36.6774 38.9766 36.9619 38.9766C37.2464 38.9766 37.5098 38.8264 37.6547 38.5817C37.6547 38.5817 41.1482 32.6721 41.1485 32.6713ZM36.1568 29.5043L34.3137 30.7934V10.8037H36.1568V29.5043ZM37.767 10.8037H39.6102V30.7934L37.767 29.5043V10.8037ZM39.6102 9.19358H34.3138V7.65877H39.6102V9.19358ZM34.5816 32.5709L36.9619 30.9061L39.3422 32.5709L38.9969 33.1543H34.927L34.5816 32.5709ZM34.3138 2.90796C34.3138 2.73092 34.4579 2.58681 34.6349 2.58681H39.289C39.4661 2.58681 39.6102 2.73092 39.6102 2.90796V6.0486H34.3138V2.90796ZM36.9619 36.5913L35.8803 34.7644H38.0435L36.9619 36.5913Z" fill="#367FD3"/>
</svg>
