<svg width="43" height="41" viewBox="0 0 43 41" fill="none" xmlns="http://www.w3.org/2000/svg">
<path d="M40.5971 7.56307L34.0162 6.12748V2.93643C34.0162 1.59291 32.9229 0.5 31.579 0.5H10.8503C9.50684 0.5 8.41385 1.59291 8.41385 2.93643V6.12748L1.83301 7.56307C0.578249 7.83663 -0.219888 9.0802 0.0537546 10.3354L5.91858 37.2195C6.18874 38.4588 7.44964 39.2695 8.68998 38.9989L15.7404 37.4609C16.8828 39.2842 18.909 40.5 21.2148 40.5C23.5205 40.5 25.5467 39.2843 26.6892 37.461L33.7401 38.9989C34.9804 39.2694 36.2413 38.459 36.5115 37.2198L39.1477 25.1353C39.2453 24.6881 38.9618 24.2465 38.5147 24.1489C38.0677 24.0517 37.6259 24.3348 37.5284 24.7821L34.8921 36.8667C34.8142 37.2239 34.4507 37.4578 34.0933 37.3796L27.3954 35.9186C27.4991 35.5775 27.5743 35.2257 27.6194 34.8719H31.5789C32.9228 34.8719 34.0161 33.7786 34.0161 32.4347V7.82395L40.2439 9.18255C40.6057 9.26144 40.8358 9.62019 40.7569 9.98209L39.0823 17.6586C38.9847 18.1058 39.2681 18.5474 39.7153 18.6449C40.1622 18.742 40.6041 18.459 40.7016 18.0119L42.3762 10.3352C42.65 9.0802 41.8517 7.83663 40.5971 7.56307ZM15.0337 35.9186L8.33661 37.3795C7.9791 37.4579 7.61579 37.2235 7.53789 36.8664L1.67307 9.98226C1.59409 9.62019 1.82422 9.26144 2.18613 9.18255L8.41376 7.82395V32.4347C8.41376 33.7612 9.52416 34.8725 10.851 34.8719H14.8098C14.8549 35.2257 14.93 35.5775 15.0337 35.9186ZM21.2147 38.8426C18.6018 38.8426 16.4151 36.654 16.4151 34.043C16.4151 31.3965 18.5682 29.2435 21.2147 29.2435C23.8253 29.2435 26.0141 31.4311 26.0141 34.0432C26.0141 36.6524 23.8275 38.8426 21.2147 38.8426ZM32.3588 32.4346C32.3588 32.8645 32.009 33.2144 31.579 33.2144H27.6186C27.2099 30.0366 24.4082 27.5857 21.215 27.5857C18.0224 27.5857 15.2189 30.0404 14.8106 33.2144H10.8511C10.4275 33.2144 10.0713 32.858 10.0713 32.4346V2.93643C10.0713 2.50682 10.4208 2.15743 10.8503 2.15743H31.579C32.009 2.15743 32.3588 2.5069 32.3588 2.93643V32.4346Z" fill="#367FD3"/>
<path d="M22.9175 32.3218L20.527 34.7122L19.7017 33.8868C19.378 33.5634 18.8534 33.5634 18.5297 33.8868C18.2061 34.2105 18.206 34.7352 18.5297 35.0589L19.9411 36.4703C20.2602 36.7892 20.794 36.7893 21.1131 36.4703L24.0896 33.4939C24.4132 33.1702 24.4133 32.6455 24.0896 32.3218C23.7659 31.9984 23.2411 31.9983 22.9175 32.3218Z" fill="#367FD3"/>
<path d="M28.0078 6.29729H23.3394C22.8817 6.29729 22.5107 6.66839 22.5107 7.126C22.5107 7.58362 22.8817 7.95472 23.3394 7.95472H28.0078C28.4655 7.95472 28.8365 7.58362 28.8365 7.126C28.8365 6.66839 28.4655 6.29729 28.0078 6.29729Z" fill="#367FD3"/>
<path d="M23.5197 23.157H13.9943C13.5366 23.157 13.1655 23.5281 13.1655 23.9858C13.1655 24.4434 13.5366 24.8145 13.9943 24.8145H23.5197C23.9774 24.8145 24.3484 24.4434 24.3484 23.9858C24.3484 23.5281 23.9774 23.157 23.5197 23.157Z" fill="#367FD3"/>
<path d="M28.0077 11.9171H13.9942C13.5365 11.9171 13.1655 12.2882 13.1655 12.7458C13.1655 13.2034 13.5365 13.5745 13.9942 13.5745H28.0077C28.4654 13.5745 28.8364 13.2034 28.8364 12.7458C28.8364 12.2882 28.4654 11.9171 28.0077 11.9171Z" fill="#367FD3"/>
<path d="M28.0077 17.5371H13.9942C13.5365 17.5371 13.1655 17.9082 13.1655 18.3658C13.1655 18.8234 13.5365 19.1945 13.9942 19.1945H28.0077C28.4654 19.1945 28.8364 18.8234 28.8364 18.3658C28.8364 17.9082 28.4654 17.5371 28.0077 17.5371Z" fill="#367FD3"/>
<path d="M39.8868 21.0494C39.6098 20.3839 38.6334 20.3795 38.3562 21.0494C38.2216 21.3745 38.3121 21.765 38.5806 21.9939C38.8497 22.2235 39.2433 22.2585 39.5477 22.077C39.8967 21.869 40.0402 21.4239 39.8868 21.0494Z" fill="#367FD3"/>
</svg>
