<svg width="14" height="14" viewBox="0 0 14 14" fill="none" xmlns="http://www.w3.org/2000/svg">
<path d="M6.48202 0.342264C6.67771 -0.114089 7.28071 -0.114088 7.47642 0.342265L9.07863 4.07851C9.15839 4.26451 9.32226 4.39257 9.51136 4.41668L13.31 4.90113C13.7741 4.96031 13.9604 5.57715 13.6173 5.91837L10.8089 8.71195C10.6691 8.85101 10.6065 9.05822 10.6436 9.25912L11.3891 13.2948C11.4802 13.7877 10.9923 14.169 10.5846 13.9235L7.24666 11.9137C7.08049 11.8137 6.87793 11.8137 6.71177 11.9137L3.37381 13.9235C2.9661 14.169 2.47827 13.7877 2.56933 13.2948L3.31484 9.25912C3.35195 9.05822 3.28935 8.85101 3.14955 8.71195L0.341064 5.91837C-0.00196902 5.57715 0.184369 4.96031 0.648351 4.90113L4.44706 4.41668C4.63617 4.39257 4.80004 4.26451 4.87979 4.07851L6.48202 0.342264Z" fill="#FD8C04"/>
</svg>
