<svg width="58" height="58" viewBox="0 0 58 58" fill="none" xmlns="http://www.w3.org/2000/svg">
<path d="M29.1631 22.3482L45.0044 26.2396C45.2375 26.297 45.4839 26.2595 45.6894 26.1353C45.8949 26.011 46.0426 25.8103 46.1 25.5771C46.1575 25.344 46.12 25.0976 45.9957 24.8921C45.8715 24.6866 45.6707 24.5389 45.4376 24.4815L29.5963 20.59C29.3633 20.5341 29.1175 20.5725 28.9126 20.6967C28.7076 20.8209 28.5599 21.0209 28.5016 21.2534C28.4726 21.3688 28.4668 21.4887 28.4844 21.6063C28.5021 21.7239 28.5428 21.8368 28.6043 21.9386C28.6658 22.0404 28.7469 22.129 28.8428 22.1993C28.9387 22.2695 29.0476 22.3202 29.1631 22.3482V22.3482Z" fill="url(#paint0_linear_50_126)"/>
<path d="M23.6803 25.6686C23.6519 25.7841 23.6465 25.904 23.6645 26.0215C23.6824 26.139 23.7234 26.2519 23.785 26.3535C23.8466 26.4552 23.9277 26.5437 24.0235 26.6141C24.1194 26.6844 24.2282 26.7351 24.3437 26.7634L47.2265 32.3857C47.4596 32.4432 47.706 32.4057 47.9115 32.2814C48.117 32.1572 48.2647 31.9564 48.3221 31.7233C48.3796 31.4901 48.3421 31.2437 48.2178 31.0382C48.0936 30.8328 47.8928 30.6851 47.6597 30.6276L24.7769 25.0052C24.5436 24.9498 24.2979 24.9883 24.0927 25.1124C23.8876 25.2365 23.7395 25.4363 23.6803 25.6686V25.6686Z" fill="url(#paint1_linear_50_126)"/>
<path d="M46.3619 35.9075L23.4791 30.2851C23.246 30.2279 22.9997 30.2657 22.7944 30.3901C22.5891 30.5145 22.4416 30.7153 22.3844 30.9485C22.3272 31.1816 22.3649 31.4279 22.4893 31.6332C22.6137 31.8386 22.8146 31.986 23.0478 32.0432L45.9306 37.6656C46.046 37.6939 46.1659 37.6992 46.2834 37.6812C46.4009 37.6632 46.5137 37.6223 46.6153 37.5607C46.717 37.4991 46.8055 37.418 46.8759 37.3222C46.9462 37.2264 46.997 37.1177 47.0253 37.0022C47.0536 36.8868 47.059 36.7669 47.0409 36.6494C47.0229 36.5319 46.982 36.4191 46.9204 36.3175C46.8588 36.2158 46.7777 36.1273 46.6819 36.0569C46.5861 35.9866 46.4774 35.9358 46.3619 35.9075V35.9075Z" fill="url(#paint2_linear_50_126)"/>
<path d="M45.0642 41.1873L30.1854 37.5314C30.0699 37.5031 29.95 37.4978 29.8325 37.5158C29.7151 37.5338 29.6023 37.5748 29.5006 37.6364C29.2953 37.7608 29.1478 37.9617 29.0906 38.1948C29.0623 38.3103 29.057 38.4301 29.075 38.5476C29.093 38.6651 29.134 38.7779 29.1956 38.8796C29.2572 38.9812 29.3382 39.0698 29.434 39.1401C29.5298 39.2105 29.6386 39.2612 29.754 39.2896L44.6328 42.9454C44.7482 42.9737 44.8681 42.979 44.9856 42.961C45.1031 42.943 45.2159 42.902 45.3176 42.8404C45.4192 42.7788 45.5078 42.6978 45.5781 42.602C45.6484 42.5062 45.6992 42.3974 45.7276 42.282C45.7559 42.1666 45.7612 42.0467 45.7432 41.9292C45.7252 41.8117 45.6842 41.6989 45.6226 41.5972C45.561 41.4956 45.48 41.4071 45.3842 41.3367C45.2884 41.2664 45.1796 41.2156 45.0642 41.1873Z" fill="url(#paint3_linear_50_126)"/>
<path d="M43.7664 46.467L39.4617 45.4103C39.2334 45.3661 38.9968 45.4114 38.801 45.5369C38.6051 45.6623 38.465 45.8582 38.4095 46.0841C38.3541 46.31 38.3877 46.5485 38.5032 46.7503C38.6188 46.9522 38.8075 47.1019 39.0304 47.1684L43.3351 48.2251C43.4505 48.2534 43.5704 48.2587 43.6879 48.2407C43.8054 48.2227 43.9182 48.1817 44.0198 48.1201C44.1215 48.0585 44.21 47.9775 44.2803 47.8817C44.3507 47.7859 44.4015 47.6772 44.4298 47.5617C44.4581 47.4463 44.4634 47.3264 44.4454 47.2089C44.4274 47.0914 44.3864 46.9786 44.3248 46.877C44.2632 46.7753 44.1822 46.6868 44.0864 46.6164C43.9906 46.5461 43.8819 46.4953 43.7664 46.467Z" fill="url(#paint4_linear_50_126)"/>
<path d="M32.219 17.4996L42.7804 20.0951C43.0136 20.1526 43.26 20.1151 43.4655 19.9908C43.6709 19.8666 43.8187 19.6658 43.8761 19.4327C43.9335 19.1995 43.896 18.9531 43.7718 18.7476C43.6475 18.5422 43.4468 18.3945 43.2136 18.337L33.5313 15.9572L33.9644 14.1955L43.645 16.5753C43.8781 16.6325 44.1245 16.5947 44.3298 16.4703C44.5351 16.3459 44.6825 16.145 44.7398 15.9119C44.797 15.6788 44.7592 15.4324 44.6348 15.2271C44.5104 15.0218 44.3095 14.8743 44.0764 14.8171L33.5149 12.2216C33.2818 12.1647 33.0356 12.2026 32.8304 12.327C32.6252 12.4514 32.4777 12.652 32.4202 12.885L31.5556 16.4049C31.5265 16.5204 31.5205 16.6405 31.5382 16.7583C31.5558 16.876 31.5967 16.9891 31.6584 17.091C31.7201 17.1928 31.8014 17.2814 31.8977 17.3516C31.9939 17.4217 32.1031 17.4721 32.219 17.4996V17.4996Z" fill="url(#paint5_linear_50_126)"/>
<path d="M54.3333 21.3404L49.0227 12.5697C48.9163 12.4021 48.7567 12.2751 48.5696 12.209C48.5333 12.1945 48.5025 12.1691 48.4644 12.1601L43.0469 10.8297L36.0851 3.8679C35.9428 3.73372 35.761 3.64916 35.5667 3.62683C35.525 3.6214 35.4869 3.60327 35.4434 3.60327H11.8809C11.6406 3.60327 11.4101 3.69875 11.2401 3.86871C11.0702 4.03866 10.9747 4.26917 10.9747 4.50952V24.9763L4.66538 23.3758C4.50231 23.3347 4.33101 23.3397 4.17063 23.3903C4.01025 23.4409 3.86712 23.5352 3.75727 23.6626C3.64741 23.7899 3.57516 23.9453 3.5486 24.1114C3.52204 24.2775 3.54222 24.4476 3.60688 24.6029L6.72619 32.0849L6.74069 32.103C6.79272 32.2252 6.87136 32.3342 6.97088 32.422L10.9765 35.8785V44.3827C10.9765 44.6231 11.072 44.8536 11.2419 45.0235C11.4119 45.1935 11.6424 45.289 11.8828 45.289H15.1289L14.9713 45.9251C14.9428 46.0406 14.9375 46.1605 14.9554 46.278C14.9734 46.3956 15.0143 46.5084 15.076 46.6101C15.1376 46.7117 15.2186 46.8003 15.3145 46.8706C15.4104 46.9409 15.5191 46.9917 15.6346 47.0199L25.4421 49.4305C25.4384 49.5193 25.4239 49.6082 25.4294 49.6988C25.4819 50.422 25.8136 51.0835 26.3646 51.5566C26.7891 51.9236 27.3175 52.1493 27.8762 52.2023C28.4349 52.2552 28.9962 52.1328 29.4821 51.852L31.6662 53.737C31.9363 53.9704 32.25 54.148 32.589 54.2596C32.9281 54.3713 33.2859 54.4148 33.6418 54.3877C34.3668 54.3352 35.0266 54.0017 35.4996 53.4525L36.6071 52.1692L45.5554 54.3678C45.6709 54.3965 45.791 54.4021 45.9088 54.3842C46.0265 54.3664 46.1395 54.3255 46.2414 54.2638C46.3433 54.2022 46.432 54.1211 46.5025 54.0251C46.5729 53.929 46.6237 53.8201 46.6519 53.7044L54.4366 22.0237C54.4457 21.9838 54.4384 21.944 54.4421 21.9041C54.4703 21.7093 54.432 21.5107 54.3333 21.3404V21.3404ZM48.604 15.3809L50.7627 18.9443L51.649 20.4088L47.6126 19.4155L48.604 15.3809V15.3809ZM36.3497 6.6954L39.6466 9.99233L36.3497 9.18215V6.6954V6.6954ZM12.7872 5.41396H34.5372V8.73808L25.5798 6.53771C25.3467 6.48131 25.1008 6.51941 24.8957 6.6437C24.6906 6.76798 24.543 6.96836 24.4851 7.20108L24.4796 7.22646H20.9452C20.7049 7.22646 20.4744 7.32194 20.3044 7.49189C20.1345 7.66185 20.039 7.89236 20.039 8.13271V11.7577C20.039 11.9981 20.1345 12.2286 20.3044 12.3985C20.4744 12.5685 20.7049 12.664 20.9452 12.664H23.1438L22.2539 16.289H19.1327C18.8924 16.289 18.6619 16.3844 18.4919 16.5544C18.322 16.7244 18.2265 16.9549 18.2265 17.1952C18.2265 17.4356 18.322 17.6661 18.4919 17.836C18.6619 18.006 18.8924 18.1015 19.1327 18.1015H21.808L20.9181 21.7265H15.5059C15.2656 21.7265 15.0351 21.8219 14.8651 21.9919C14.6952 22.1619 14.5997 22.3924 14.5997 22.6327C14.5997 22.8731 14.6952 23.1036 14.8651 23.2735C15.0351 23.4435 15.2656 23.539 15.5059 23.539H20.4704L19.5804 27.164H15.5059C15.3122 27.1685 15.1252 27.236 14.9731 27.3561L12.8905 25.5581C12.858 25.5301 12.8235 25.5047 12.7872 25.482V5.41396V5.41396ZM24.0338 9.03896L23.5879 10.8515H21.8497V9.03896H24.0338ZM19.1346 28.9765L18.7358 30.6023L16.8526 28.9765H19.1346V28.9765ZM12.3921 27.5246L18.6688 32.944L30.2271 42.92L29.0435 44.2921L11.2067 28.8967L12.3921 27.5246V27.5246ZM7.83363 30.0313L5.97581 25.5762L10.6539 26.7634L8.51331 29.2429L7.83363 30.0313V30.0313ZM15.573 43.4765H12.7872V37.4427L16.3089 40.4822L15.573 43.4765ZM16.9487 45.4775L17.8495 41.8108L24.1443 47.2447L16.9487 45.4775V45.4775ZM17.9129 39.4708L12.4736 34.7747L12.47 34.7728L8.84138 31.6408L10.0231 30.2688L27.8599 45.6642L26.6764 47.0362L17.9129 39.4708V39.4708ZM28.8296 50.0903C28.7526 50.1817 28.658 50.2567 28.5516 50.311C28.4451 50.3654 28.3289 50.3979 28.2096 50.4067C28.0904 50.4154 27.9707 50.4003 27.8574 50.3622C27.7441 50.324 27.6396 50.2636 27.55 50.1845C27.4598 50.1072 27.3858 50.0128 27.3323 49.9067C27.2787 49.8006 27.2468 49.685 27.2382 49.5665C27.2313 49.4177 27.2612 49.2695 27.3253 49.1351C27.3343 49.117 27.3561 49.1079 27.3633 49.0898C27.3923 49.0263 27.4267 48.9502 27.4485 48.9194C27.4521 48.9158 27.4521 48.9103 27.4557 48.9085L29.8211 46.168L29.8247 46.1662L29.8265 46.1626L32.1918 43.4221C32.2743 43.3264 32.3771 43.2502 32.4927 43.1991C32.5326 43.181 32.5743 43.1774 32.6159 43.1647C32.6906 43.1377 32.7687 43.1212 32.8479 43.1158C32.9169 43.1163 32.9855 43.1242 33.0528 43.1393C33.0926 43.1466 33.1325 43.1466 33.1706 43.1593C33.3102 43.2076 33.4358 43.2893 33.5366 43.3973C33.6375 43.5053 33.7103 43.6363 33.7489 43.7789C33.7875 43.9215 33.7907 44.0714 33.7581 44.2155C33.7255 44.3596 33.6582 44.4935 33.5621 44.6057L28.8296 50.0903V50.0903ZM36.4983 49.5266L35.5993 50.567L34.1294 52.2707C34.0522 52.3613 33.9578 52.4357 33.8517 52.4896C33.7456 52.5435 33.6298 52.5757 33.5111 52.5845C33.3924 52.5933 33.2731 52.5784 33.1602 52.5407C33.0473 52.503 32.943 52.4433 32.8534 52.365L30.7962 50.5887L34.3487 46.4743L36.4059 48.2506C36.4964 48.3279 36.5706 48.4224 36.6243 48.5286C36.678 48.6348 36.7101 48.7506 36.7187 48.8693C36.7273 48.988 36.7123 49.1072 36.6744 49.22C36.6366 49.3329 36.5767 49.4371 36.4983 49.5266ZM45.1095 52.3958L37.9356 50.6322C37.9501 50.6141 37.9538 50.5923 37.9664 50.5742C38.1586 50.3223 38.309 50.0486 38.4014 49.7532C38.4069 49.7368 38.4069 49.7205 38.4123 49.7024C38.5638 49.2019 38.5664 48.6681 38.42 48.1661C38.2736 47.6641 37.9844 47.2155 37.5876 46.8749L35.4126 44.9972C35.6162 44.4729 35.6527 43.8985 35.5171 43.3527C35.3815 42.8069 35.0803 42.3165 34.655 41.9485C34.2289 41.5821 33.6999 41.3564 33.1406 41.3022C32.5812 41.248 32.0188 41.368 31.5302 41.6458L20.2728 31.929L26.0257 8.51152L47.1486 13.7025L45.6351 19.8614C45.6067 19.9768 45.6013 20.0968 45.6193 20.2143C45.6373 20.3318 45.6782 20.4446 45.7398 20.5463C45.8014 20.648 45.8825 20.7365 45.9784 20.8069C46.0742 20.8772 46.183 20.9279 46.2985 20.9561L52.4592 22.4714L45.1095 52.3958V52.3958Z" fill="url(#paint6_linear_50_126)"/>
<defs>
<linearGradient id="paint0_linear_50_126" x1="1.81251" y1="23.4157" x2="51.3572" y2="23.4157" gradientUnits="userSpaceOnUse">
<stop stop-color="#7367F0"/>
<stop offset="1" stop-color="#2AA5DE"/>
</linearGradient>
<linearGradient id="paint1_linear_50_126" x1="1.81249" y1="28.6955" x2="51.3572" y2="28.6955" gradientUnits="userSpaceOnUse">
<stop stop-color="#7367F0"/>
<stop offset="1" stop-color="#367ED2"/>
</linearGradient>
<linearGradient id="paint2_linear_50_126" x1="1.81251" y1="33.9754" x2="51.3572" y2="33.9754" gradientUnits="userSpaceOnUse">
<stop stop-color="#7367F0"/>
<stop offset="1" stop-color="#2AA5DE"/>
</linearGradient>
<linearGradient id="paint3_linear_50_126" x1="1.8125" y1="40.2393" x2="51.3572" y2="40.2393" gradientUnits="userSpaceOnUse">
<stop stop-color="#7367F0"/>
<stop offset="1" stop-color="#2AA5DE"/>
</linearGradient>
<linearGradient id="paint4_linear_50_126" x1="1.8125" y1="46.8186" x2="51.3572" y2="46.8186" gradientUnits="userSpaceOnUse">
<stop stop-color="#2AA5DE"/>
<stop offset="1" stop-color="#2AA5DE"/>
</linearGradient>
<linearGradient id="paint5_linear_50_126" x1="1.81251" y1="16.1584" x2="51.3572" y2="16.1584" gradientUnits="userSpaceOnUse">
<stop stop-color="#7367F0"/>
<stop offset="1" stop-color="#2AA5DE"/>
</linearGradient>
<linearGradient id="paint6_linear_50_126" x1="1.8125" y1="29" x2="51.3572" y2="29" gradientUnits="userSpaceOnUse">
<stop stop-color="#7367F0"/>
<stop offset="1" stop-color="#2AA5DE"/>
</linearGradient>
</defs>
</svg>
