<?xml version="1.0" encoding="utf-8"?>
<!-- Generator: Adobe Illustrator 25.3.1, SVG Export Plug-In . SVG Version: 6.00 Build 0)  -->
<svg version="1.1" id="Layer_1" xmlns="http://www.w3.org/2000/svg" xmlns:xlink="http://www.w3.org/1999/xlink" x="0px" y="0px"
	 viewBox="0 0 311.2 52" style="enable-background:new 0 0 311.2 52;" xml:space="preserve">
<style type="text/css">
	.st0{fill:#AF4499;}
	.st1{fill:#FFFFFF;}
</style>
<circle class="st0" cx="285.5" cy="25.1" r="20"/>
<polygon class="st0" points="264.9,42.7 269.4,27.4 282.4,41.4 "/>
<polygon class="st1" points="292.9,15 282.9,27.6 277.6,23.4 275.2,27.2 283.7,35.3 295.9,16.9 "/>
<g>
	<path d="M19.3,30.4c-0.5,0-1,0.1-1.5,0.1h-6.1v7.2H9.1V14.8h8.7c5.7,0,9,2.8,9,7.7c0,3.8-1.8,6.3-5.1,7.4l5.4,7.8h-3L19.3,30.4z
		 M17.8,28c4.1,0,6.5-1.8,6.5-5.4c0-3.5-2.4-5.2-6.5-5.2h-6.1V28H17.8z"/>
	<path d="M47.2,30.1h-14c0.5,3.4,2.9,5.5,6.2,5.5c2.1,0,4-0.8,5.3-2.2l1.4,1.5c-1.6,1.8-4.1,2.9-6.9,2.9c-5.1,0-8.6-3.6-8.6-8.7
		s3.5-8.7,8.5-8.7C44.7,20.4,47.4,24.3,47.2,30.1z M44.9,28c-0.2-3.3-2.4-5.4-5.7-5.4c-3.3,0-5.6,2.1-6,5.4H44.9z"/>
	<path d="M61.6,22l-1,2c-1.3-0.8-3.1-1.4-4.7-1.4c-1.9,0-3.4,0.7-3.4,2.3c0,3.8,9.6,1.9,9.6,8c0,3.4-3,4.9-6.3,4.9
		c-2.5,0-5-0.8-6.6-2.4l1-1.9c1.5,1.4,3.7,2.2,5.7,2.2c2,0,3.7-0.8,3.7-2.5c0.1-4.1-9.5-2-9.5-8.1c0-3.3,2.8-4.7,6-4.7
		C58.2,20.4,60.2,21,61.6,22z"/>
	<path d="M81.2,30.1h-14c0.5,3.4,2.9,5.5,6.2,5.5c2.1,0,4-0.8,5.3-2.2l1.4,1.5c-1.6,1.8-4.1,2.9-6.9,2.9c-5.1,0-8.6-3.6-8.6-8.7
		s3.5-8.7,8.5-8.7C78.7,20.4,81.4,24.3,81.2,30.1z M78.9,28c-0.2-3.3-2.4-5.4-5.7-5.4c-3.3,0-5.6,2.1-6,5.4H78.9z"/>
	<path d="M85.7,37.7V13.5h2.5v24.2H85.7z"/>
	<path d="M94.8,37.7V13.5h2.5v24.2H94.8z"/>
	<path d="M118.5,30.1h-14c0.5,3.4,2.9,5.5,6.2,5.5c2.1,0,4-0.8,5.3-2.2l1.4,1.5c-1.6,1.8-4.1,2.9-6.9,2.9c-5.1,0-8.6-3.6-8.6-8.7
		s3.5-8.7,8.5-8.7C116.1,20.4,118.8,24.3,118.5,30.1z M116.3,28c-0.2-3.3-2.4-5.4-5.7-5.4c-3.3,0-5.6,2.1-6,5.4H116.3z"/>
	<path d="M125.5,24.3c1.1-2.5,3.3-3.9,6.2-3.9V23c-3.6-0.1-5.9,2.2-6.2,5.6v9.1h-2.5V20.5h2.5V24.3z"/>
	<path d="M144.9,31.2h-0.5h-4.8v6.5h-5.2V14.8h9.9c6,0,9.4,2.9,9.4,7.9c0,3.5-1.5,6.1-4.3,7.4l4.9,7.5h-5.8L144.9,31.2z M144.4,26.9
		c2.8,0,4.5-1.3,4.5-3.9c0-2.5-1.6-3.8-4.5-3.8h-4.8v7.7H144.4z"/>
	<path d="M168.2,35.7c-1.2,1.5-3.1,2.3-5.5,2.3c-3.8,0-6-2.3-6-5.5c0-3.3,2.4-5.3,6.7-5.3h4.8v-0.3c0-1.9-1.2-2.9-3.7-2.9
		c-1.6,0-3.4,0.5-5.2,1.5l-1.6-3.5c2.6-1.3,4.9-2,7.9-2c4.7,0,7.4,2.4,7.4,6.3l0,11.5h-4.9V35.7z M168.2,31.7v-1.6h-4
		c-1.9,0-2.9,0.6-2.9,2c0,1.3,1,2.2,2.7,2.2C166.2,34.3,167.9,33.2,168.2,31.7z"/>
	<path d="M188.4,36.7c-1.3,0.8-2.9,1.2-4.6,1.2c-3.1,0-5.5-1.8-5.5-5.4v-8.1h-2.5v-3.5h2.5v-4.8h5v4.8h4.8v3.5h-4.8v7.3
		c0,1.5,0.6,2.1,1.7,2c0.7,0,1.4-0.2,2.4-0.7L188.4,36.7z"/>
	<path d="M196.7,15.1c0,1.6-1.1,2.8-2.7,2.8c-1.6,0-2.7-1.2-2.7-2.8s1.1-2.8,2.7-2.8C195.5,12.3,196.7,13.5,196.7,15.1z M191.4,37.7
		V20.1h5v17.6H191.4z"/>
	<path d="M218.8,26.7v11h-5v-9.6c0-2.2-1.3-3.6-3.5-3.6c-2.5,0-4,1.9-4,4.5v8.7h-5V20.1h5v3.1c1.2-2.2,3.3-3.2,6.1-3.3
		C216.3,19.9,218.8,22.6,218.8,26.7z"/>
	<path d="M239.6,36.1c0,5-3.8,8.2-9.4,8.2c-3,0-5.6-0.9-7.6-2.3l1.9-3.5c1.6,1.1,3.5,1.8,5.5,1.8c2.9,0,4.7-1.5,4.7-3.9v-2
		c-1.2,1.6-3,2.5-5.3,2.5c-4.5,0-7.7-3.4-7.7-8.5c0-5,3.1-8.3,7.5-8.3c2.4,0,4.2,0.9,5.4,2.5v-2.4h5V36.1z M234.6,28.4
		c0-2.7-1.7-4.6-4.1-4.6c-2.4,0-4.1,1.9-4.1,4.6c0,2.7,1.7,4.5,4.1,4.5C233,33,234.6,31.1,234.6,28.4z"/>
	<path d="M257.1,21.9l-1.7,3.4c-1.9-1.1-3.9-1.7-5.4-1.7c-1.2,0-2,0.4-2,1.3c0,2.6,9.3,1.3,9.2,7.5c0,3.6-3.2,5.5-7.2,5.5
		c-2.8,0-5.6-0.8-7.6-2.5l1.6-3.4c1.8,1.4,4.2,2.2,6.1,2.2c1.3,0,2.2-0.4,2.2-1.4c0-2.8-9.1-1.3-9.1-7.5c0-3.6,3.1-5.5,6.9-5.5
		C252.6,19.9,255.1,20.6,257.1,21.9z"/>
</g>
</svg>
