<svg width="101" height="16" viewBox="0 0 101 16" fill="none" xmlns="http://www.w3.org/2000/svg">
<path d="M8.53141 0.391159C8.77198 -0.130387 9.51322 -0.130386 9.75379 0.39116L11.7234 4.66116C11.8214 4.87372 12.0228 5.02008 12.2553 5.04764L16.9249 5.6013C17.4953 5.66892 17.7243 6.37389 17.3027 6.76385L13.8503 9.95652C13.6784 10.1154 13.6015 10.3523 13.6471 10.5818L14.5635 15.194C14.6755 15.7574 14.0758 16.1931 13.5746 15.9125L9.47136 13.6157C9.2671 13.5014 9.0181 13.5014 8.81384 13.6157L4.71059 15.9125C4.20941 16.1931 3.60973 15.7574 3.72167 15.194L4.6381 10.5818C4.68372 10.3523 4.60678 10.1154 4.43492 9.95652L0.982533 6.76385C0.560852 6.37389 0.789911 5.66892 1.36027 5.6013L6.02991 5.04764C6.26236 5.02008 6.4638 4.87372 6.56185 4.66116L8.53141 0.391159Z" fill="#FD8C04"/>
<path d="M29.2853 0.391159C29.5259 -0.130387 30.2671 -0.130386 30.5077 0.39116L32.4773 4.66116C32.5753 4.87372 32.7767 5.02008 33.0092 5.04764L37.6788 5.6013C38.2492 5.66892 38.4783 6.37389 38.0566 6.76385L34.6042 9.95652C34.4323 10.1154 34.3554 10.3523 34.401 10.5818L35.3174 15.194C35.4294 15.7574 34.8297 16.1931 34.3285 15.9125L30.2253 13.6157C30.021 13.5014 29.772 13.5014 29.5677 13.6157L25.4645 15.9125C24.9633 16.1931 24.3636 15.7574 24.4756 15.194L25.392 10.5818C25.4376 10.3523 25.3607 10.1154 25.1888 9.95652L21.7364 6.76385C21.3148 6.37389 21.5438 5.66892 22.1142 5.6013L26.7838 5.04764C27.0163 5.02008 27.2177 4.87372 27.3158 4.66116L29.2853 0.391159Z" fill="#FD8C04"/>
<path d="M50.0392 0.391159C50.2798 -0.130387 51.021 -0.130386 51.2616 0.39116L53.2312 4.66116C53.3292 4.87372 53.5306 5.02008 53.7631 5.04764L58.4327 5.6013C59.0031 5.66892 59.2322 6.37389 58.8105 6.76385L55.3581 9.95652C55.1862 10.1154 55.1093 10.3523 55.1549 10.5818L56.0713 15.194C56.1833 15.7574 55.5836 16.1931 55.0824 15.9125L50.9792 13.6157C50.7749 13.5014 50.5259 13.5014 50.3217 13.6157L46.2184 15.9125C45.7172 16.1931 45.1175 15.7574 45.2295 15.194L46.1459 10.5818C46.1915 10.3523 46.1146 10.1154 45.9427 9.95652L42.4903 6.76385C42.0687 6.37389 42.2977 5.66892 42.8681 5.6013L47.5377 5.04764C47.7702 5.02008 47.9716 4.87372 48.0697 4.66116L50.0392 0.391159Z" fill="#FD8C04"/>
<path d="M70.7931 0.391159C71.0337 -0.130387 71.7749 -0.130386 72.0155 0.39116L73.9851 4.66116C74.0831 4.87372 74.2846 5.02008 74.517 5.04764L79.1866 5.6013C79.757 5.66892 79.9861 6.37389 79.5644 6.76385L76.112 9.95652C75.9401 10.1154 75.8632 10.3523 75.9088 10.5818L76.8253 15.194C76.9372 15.7574 76.3375 16.1931 75.8363 15.9125L71.7331 13.6157C71.5288 13.5014 71.2798 13.5014 71.0756 13.6157L66.9723 15.9125C66.4711 16.1931 65.8714 15.7574 65.9834 15.194L66.8998 10.5818C66.9454 10.3523 66.8685 10.1154 66.6966 9.95652L63.2443 6.76385C62.8226 6.37389 63.0516 5.66892 63.622 5.6013L68.2916 5.04764C68.5241 5.02008 68.7255 4.87372 68.8236 4.66116L70.7931 0.391159Z" fill="#FD8C04"/>
<path d="M91.547 0.391159C91.7876 -0.130387 92.5288 -0.130386 92.7694 0.39116L94.739 4.66116C94.837 4.87372 95.0385 5.02008 95.2709 5.04764L99.9406 5.6013C100.511 5.66892 100.74 6.37389 100.318 6.76385L96.8659 9.95652C96.694 10.1154 96.6171 10.3523 96.6627 10.5818L97.5792 15.194C97.6911 15.7574 97.0914 16.1931 96.5902 15.9125L92.487 13.6157C92.2827 13.5014 92.0337 13.5014 91.8295 13.6157L87.7262 15.9125C87.225 16.1931 86.6254 15.7574 86.7373 15.194L87.6537 10.5818C87.6993 10.3523 87.6224 10.1154 87.4505 9.95652L83.9982 6.76385C83.5765 6.37389 83.8055 5.66892 84.3759 5.6013L89.0455 5.04764C89.278 5.02008 89.4794 4.87372 89.5775 4.66116L91.547 0.391159Z" fill="#92ABC9"/>
</svg>
