<svg width="132" height="27" viewBox="0 0 132 27" fill="none" xmlns="http://www.w3.org/2000/svg">
<path d="M11.5558 19.8882C16.2782 19.8882 20.1066 15.9883 20.1066 11.1777C20.1066 6.36713 16.2782 2.46737 11.5558 2.46737C6.83332 2.46737 3.00503 6.36713 3.00503 11.1777C3.00503 15.9883 6.83332 19.8882 11.5558 19.8882Z" fill="white"/>
<path d="M19.9578 17.9374C17.9505 20.6026 14.785 22.322 11.2236 22.322H24.2562L19.9578 17.9374Z" fill="#F06A22"/>
<path fill-rule="evenodd" clip-rule="evenodd" d="M19.9575 17.9374C21.3696 16.0626 22.2083 13.7196 22.2083 11.1778C22.2083 5.0231 17.29 0.0337105 11.2233 0.0337105C5.15654 0.0337105 0.238434 5.0231 0.238434 11.1778C0.238434 17.3326 5.15654 22.322 11.2233 22.322C14.7848 22.322 17.9502 20.6025 19.9575 17.9374ZM13.7072 8.33065C13.4946 8.28245 13.3128 8.14296 13.2085 7.94807L11.4442 4.6486C11.3489 4.47041 11.0978 4.47041 11.0025 4.6486L9.23813 7.94807C9.13391 8.14296 8.9521 8.28245 8.73945 8.33065L5.20736 9.13129C5.01695 9.17445 4.94518 9.4124 5.07893 9.55704L7.51877 12.1951C7.6721 12.3609 7.74533 12.5874 7.71872 12.8136L7.27782 16.5613C7.25423 16.7618 7.45714 16.91 7.63605 16.8229L10.9002 15.2326C11.1047 15.1329 11.3423 15.1323 11.5474 15.2308L14.872 16.8266C15.0509 16.9125 15.2524 16.7644 15.2289 16.5644L14.7871 12.8088C14.7608 12.5854 14.832 12.3614 14.9819 12.1961L17.3746 9.55628C17.506 9.41113 17.4335 9.17533 17.2444 9.13242L13.7072 8.33065Z" fill="#F06A22"/>
<path d="M35.5255 11.2886H38.6164C38.5717 8.57007 36.3374 6.69317 32.941 6.69317C29.5968 6.69317 27.1464 8.54029 27.1614 11.311C27.154 13.5603 28.7404 14.8487 31.3174 15.4669L32.9783 15.8841C34.6392 16.2862 35.5628 16.763 35.5702 17.7908C35.5628 18.908 34.5051 19.6677 32.8666 19.6677C31.1908 19.6677 29.9841 18.893 29.8799 17.3662H26.7591C26.8411 20.6656 29.2021 22.3712 32.9039 22.3712C36.6279 22.3712 38.8175 20.5912 38.8249 17.7982C38.8175 15.2584 36.9034 13.9103 34.2519 13.3145L32.8814 12.9868C31.5557 12.6814 30.446 12.1898 30.4683 11.095C30.4683 10.1118 31.3397 9.38936 32.9187 9.38936C34.4604 9.38936 35.4063 10.0895 35.5255 11.2886ZM40.9347 22.1553H44.1075V10.7151H40.9347V22.1553ZM42.5285 9.24041C43.4744 9.24041 44.249 8.51794 44.249 7.63163C44.249 6.75276 43.4744 6.03029 42.5285 6.03029C41.5901 6.03029 40.8155 6.75276 40.8155 7.63163C40.8155 8.51794 41.5901 9.24041 42.5285 9.24041ZM52.7343 10.7151H50.5817V7.97423H47.4088V10.7151H45.8447V13.0985H47.4088V19.0569C47.394 21.2987 48.9208 22.4085 51.2223 22.3116C52.0416 22.2819 52.6225 22.118 52.9428 22.0138L52.4438 19.6527C52.2873 19.6826 51.9522 19.757 51.6542 19.757C51.0211 19.757 50.5817 19.5187 50.5817 18.6398V13.0985H52.7343V10.7151ZM59.8918 22.3788C62.7221 22.3788 64.6288 21.0009 65.0756 18.8782L62.141 18.6845C61.8208 19.556 61.0015 20.0103 59.944 20.0103C58.3576 20.0103 57.3521 18.96 57.3521 17.2544V17.247H65.1427V16.3757C65.1427 12.4878 62.7891 10.5661 59.7652 10.5661C56.3987 10.5661 54.2164 12.957 54.2164 16.4873C54.2164 20.1146 56.3689 22.3788 59.8918 22.3788ZM57.3521 15.2807C57.4191 13.9774 58.4096 12.9346 59.8174 12.9346C61.1951 12.9346 62.1486 13.9178 62.156 15.2807H57.3521ZM67.2133 10.7151V22.6321C67.2133 23.4959 66.8483 23.9279 65.8279 23.9279C65.6939 23.9279 65.5747 23.9279 65.4108 23.9131V26.3932C65.6566 26.4081 65.8279 26.4081 65.9993 26.4081C68.7475 26.4827 70.3861 25.3356 70.3861 22.6841V10.7151H67.2133ZM68.7922 9.24041C69.7381 9.24041 70.5127 8.51794 70.5127 7.63163C70.5127 6.75276 69.7381 6.03029 68.7922 6.03029C67.8538 6.03029 67.0792 6.75276 67.0792 7.63163C67.0792 8.51794 67.8538 9.24041 68.7922 9.24041ZM76.19 22.3712C77.8807 22.3712 78.9756 21.634 79.5342 20.5689H79.6235V22.1553H82.6326V14.4392C82.6326 11.7132 80.3236 10.5661 77.7764 10.5661C75.0356 10.5661 73.2331 11.877 72.7937 13.9625L75.7283 14.2008C75.9442 13.4411 76.622 12.8825 77.7616 12.8825C78.8415 12.8825 79.4597 13.4262 79.4597 14.3647V14.4093C79.4597 15.1467 78.6776 15.2436 76.689 15.4372C74.4248 15.6457 72.3915 16.4054 72.3915 18.96C72.3915 21.2243 74.0077 22.3712 76.19 22.3712ZM77.0986 20.1816C76.123 20.1816 75.4229 19.7273 75.4229 18.8559C75.4229 17.9621 76.1601 17.5227 77.2774 17.3662C77.9701 17.2694 79.1022 17.1055 79.482 16.8523V18.0663C79.482 19.2654 78.4914 20.1816 77.0986 20.1816ZM85.1537 22.1553H88.2818V20.3231H88.4233C88.8628 21.2764 89.8237 22.3415 91.6707 22.3415C94.2775 22.3415 96.3108 20.2784 96.3108 16.4502C96.3108 12.5175 94.1882 10.5661 91.6782 10.5661C89.7641 10.5661 88.8479 11.7057 88.4233 12.6367H88.3266V6.90171H85.1537V22.1553ZM88.2595 16.4351C88.2595 14.3944 89.1236 13.091 90.6653 13.091C92.2368 13.091 93.071 14.454 93.071 16.4351C93.071 18.4313 92.2219 19.8166 90.6653 19.8166C89.1384 19.8166 88.2595 18.476 88.2595 16.4351ZM98.4876 22.1553H101.616V20.3231H101.757C102.197 21.2764 103.158 22.3415 105.005 22.3415C107.611 22.3415 109.645 20.2784 109.645 16.4502C109.645 12.5175 107.522 10.5661 105.012 10.5661C103.098 10.5661 102.182 11.7057 101.757 12.6367H101.66V6.90171H98.4876V22.1553ZM101.593 16.4351C101.593 14.3944 102.457 13.091 103.999 13.091C105.571 13.091 106.405 14.454 106.405 16.4351C106.405 18.4313 105.556 19.8166 103.999 19.8166C102.472 19.8166 101.593 18.476 101.593 16.4351ZM116.975 22.3788C119.806 22.3788 121.712 21.0009 122.159 18.8782L119.225 18.6845C118.905 19.556 118.085 20.0103 117.028 20.0103C115.441 20.0103 114.436 18.96 114.436 17.2544V17.247H122.226V16.3757C122.226 12.4878 119.873 10.5661 116.849 10.5661C113.482 10.5661 111.3 12.957 111.3 16.4873C111.3 20.1146 113.453 22.3788 116.975 22.3788ZM114.436 15.2807C114.503 13.9774 115.493 12.9346 116.901 12.9346C118.279 12.9346 119.232 13.9178 119.24 15.2807H114.436ZM124.297 22.1553H127.47V15.683C127.47 14.2753 128.498 13.307 129.898 13.307C130.337 13.307 130.941 13.3815 131.238 13.4783V10.663C130.955 10.5959 130.561 10.5513 130.24 10.5513C128.959 10.5513 127.909 11.2961 127.492 12.7112H127.373V10.7151H124.297V22.1553Z" fill="#323231"/>
</svg>
