<svg width="36" height="32" viewBox="0 0 36 32" fill="none" xmlns="http://www.w3.org/2000/svg">
<path fill-rule="evenodd" clip-rule="evenodd" d="M32.1317 16C32.1317 19.6493 30.905 23.0131 28.8399 25.7048L35.1264 32H16.0658C7.1929 32 0 24.8366 0 16C0 7.16344 7.1929 0 16.0658 0C24.9387 0 32.1317 7.16344 32.1317 16ZM18.9692 11.3629C19.1217 11.6427 19.3876 11.843 19.6986 11.9122L24.8717 13.0633C25.1485 13.1249 25.2544 13.4635 25.0621 13.6719L21.5629 17.4619C21.3436 17.6993 21.2395 18.021 21.278 18.3417L21.924 23.7337C21.9584 24.0208 21.6636 24.2334 21.4021 24.1102L16.5397 21.8188C16.2398 21.6776 15.8923 21.6785 15.5932 21.8216L10.8193 24.1048C10.5576 24.2299 10.2609 24.0171 10.2954 23.7293L10.9402 18.3485C10.9791 18.0237 10.872 17.6985 10.6477 17.4605L7.07939 13.673C6.88377 13.4653 6.98874 13.1237 7.26722 13.0617L12.433 11.9122C12.744 11.843 13.0099 11.6427 13.1624 11.3629L15.7428 6.62576C15.8822 6.36993 16.2495 6.36993 16.3888 6.62576L18.9692 11.3629Z" fill="#F06A22"/>
</svg>
