<svg width="31" height="32" viewBox="0 0 31 32" fill="none" xmlns="http://www.w3.org/2000/svg">
<path d="M0.580566 16.0581C0.580566 24.7036 7.19583 31.7353 15.4104 31.7353C23.5886 31.7353 30.2402 24.7421 30.2402 16.0581C30.2402 7.4126 23.6249 0.380859 15.4104 0.380859C7.23217 0.380859 0.580566 7.4126 0.580566 16.0581ZM10.9033 18.8631C11.0487 18.3251 10.9033 17.7872 10.4671 17.4414C9.3767 16.5576 7.19583 14.8669 5.74192 13.7142C5.52383 13.5605 5.45115 13.2531 5.52383 12.9841C5.59653 12.7152 5.85097 12.5615 6.1054 12.5615H11.7393C12.2481 12.5615 12.7206 12.2156 12.9024 11.6777C13.3386 10.256 14.211 7.451 14.8288 5.56818C14.9015 5.29921 15.156 5.14551 15.4104 5.14551C15.6648 5.14551 15.9192 5.33763 15.992 5.56818C16.5736 7.451 17.4822 10.256 17.9184 11.6777C18.1001 12.2156 18.5363 12.5615 19.0815 12.5615C20.4264 12.5615 22.9707 12.5615 24.7154 12.5615C24.9698 12.5615 25.2242 12.7536 25.297 12.9841C25.3696 13.2531 25.297 13.5221 25.0788 13.7142C23.6249 14.8669 21.4805 16.5961 20.39 17.4798C19.9902 17.8256 19.8084 18.3636 19.9538 18.9015C20.39 20.3232 21.226 23.1282 21.8076 25.0495C21.8803 25.3184 21.8076 25.6258 21.5895 25.7795C21.3714 25.9332 21.0806 25.9332 20.8626 25.7795C19.4086 24.5884 17.2641 22.8593 16.1737 21.9755C15.7375 21.6297 15.1196 21.6297 14.6835 21.9755C13.593 22.8593 11.4848 24.5884 10.0309 25.7795C9.81288 25.9332 9.52209 25.9716 9.30396 25.7795C9.08592 25.6258 8.97685 25.3184 9.08592 25.0495C9.63116 23.1282 10.5034 20.2848 10.9033 18.8631Z" fill="black"/>
</svg>
