<svg width="47" height="47" viewBox="0 0 47 47" fill="none" xmlns="http://www.w3.org/2000/svg">
<path d="M14.2331 30.9573L6.70898 35.0664V31.75C6.70898 31.2508 6.30432 30.8462 5.80511 30.8462H2.75618C2.32214 30.8462 1.96909 30.493 1.96909 30.0591V24.6784C1.96909 24.1792 1.56442 23.7746 1.06522 23.7746C0.566009 23.7746 0.161346 24.1792 0.161346 24.6784V30.059C0.161346 31.4898 1.32535 32.6538 2.75618 32.6538H4.90124V36.5899C4.90124 36.9089 5.06945 37.2044 5.34386 37.3672C5.48586 37.4515 5.6454 37.4938 5.80511 37.4938C5.95407 37.4938 6.10321 37.457 6.23833 37.3831L13.7635 33.2734V37.1535C13.7635 38.5844 14.9275 39.7485 16.3583 39.7485H31.6439L40.2717 45.8398C40.4272 45.9495 40.6097 46.0053 40.7932 46.0053C40.9353 46.0053 41.078 45.9718 41.2089 45.904C41.5087 45.7486 41.697 45.4391 41.697 45.1014V39.7485H43.8446C45.2754 39.7485 46.4394 38.5844 46.4394 37.1535V18.2704C46.4394 16.8396 45.2754 15.6756 43.8446 15.6756H41.6267C41.7831 14.8655 41.8661 14.0295 41.8661 13.1743C41.8661 5.91291 35.9587 0.00531006 28.6974 0.00531006C23.05 0.00531006 18.2223 3.57903 16.3549 8.58348H2.75618C1.32535 8.58348 0.161346 9.74758 0.161346 11.1784V16.559C0.161346 17.0582 0.566009 17.4628 1.06522 17.4628C1.56442 17.4628 1.96909 17.0582 1.96909 16.559V11.1784C1.96909 10.7444 2.32223 10.3912 2.75618 10.3912H15.8257C15.6318 11.2888 15.5288 12.2197 15.5288 13.1743C15.5288 20.4357 21.4362 26.3433 28.6974 26.3433C29.4921 26.3433 30.2706 26.2725 31.027 26.1369V30.059C31.027 30.4857 30.6665 30.8461 30.2399 30.8461H14.6674C14.6083 30.845 14.5273 30.8498 14.4347 30.8744C14.3498 30.8971 14.2819 30.9295 14.2331 30.9573ZM17.3366 13.1743C17.3366 6.9097 22.4331 1.81305 28.6975 1.81305C34.962 1.81305 40.0584 6.9097 40.0584 13.1743C40.0584 19.439 34.962 24.5355 28.6975 24.5355C22.4331 24.5355 17.3366 19.4389 17.3366 13.1743ZM44.6317 37.1536C44.6317 37.5803 44.2713 37.9408 43.8446 37.9408H40.7932C40.294 37.9408 39.8893 38.3455 39.8893 38.8447V43.3569L32.4522 38.1062C32.2996 37.9986 32.1176 37.9407 31.9308 37.9407H16.3584C15.9317 37.9407 15.5713 37.5803 15.5713 37.1535V32.6538H30.24C31.6708 32.6538 32.8348 31.4898 32.8348 30.059V25.6767C36.7163 24.389 39.8018 21.3411 41.1414 17.4833H43.8446C44.2787 17.4833 44.6317 17.8364 44.6317 18.2703V37.1536Z" fill="#367FD3"/>
<path d="M28.6974 3.82045C23.5412 3.82045 19.3463 8.01658 19.3463 13.1743C19.3463 18.3321 23.5412 22.5282 28.6974 22.5282C33.8551 22.5282 38.0511 18.3321 38.0511 13.1743C38.0511 8.01658 33.8551 3.82045 28.6974 3.82045ZM28.6974 20.7205C24.538 20.7205 21.1541 17.3353 21.1541 13.1743C21.1541 9.01336 24.538 5.62819 28.6974 5.62819C32.8583 5.62819 36.2434 9.01336 36.2434 13.1743C36.2434 17.3353 32.8583 20.7205 28.6974 20.7205Z" fill="#367FD3"/>
<path d="M31.0648 12.2705H29.6013V9.12608C29.6013 8.62687 29.1966 8.22221 28.6974 8.22221C28.1982 8.22221 27.7935 8.62687 27.7935 9.12608V13.1743C27.7935 13.6735 28.1982 14.0782 28.6974 14.0782H31.0648C31.564 14.0782 31.9687 13.6735 31.9687 13.1743C31.9687 12.6751 31.564 12.2705 31.0648 12.2705Z" fill="#367FD3"/>
<path d="M1.06522 21.5213C1.56442 21.5213 1.96909 21.1166 1.96909 20.6174V20.6149C1.96909 20.1157 1.56442 19.7123 1.06522 19.7123C0.566009 19.7123 0.161346 20.1182 0.161346 20.6174C0.161346 21.1166 0.566009 21.5213 1.06522 21.5213Z" fill="#367FD3"/>
</svg>
