<svg width="25" height="30" viewBox="0 0 25 30" fill="none" xmlns="http://www.w3.org/2000/svg">
<path d="M13.1609 8.32729C13.4006 8.67517 13.5205 9.18384 13.5205 9.8533V10.1646C13.5175 10.8282 13.3977 11.334 13.1609 11.6819C12.9241 12.0268 12.585 12.1993 12.1435 12.1993C11.6933 12.1993 11.3484 12.0195 11.1087 11.66C10.8689 11.3004 10.7491 10.7946 10.7491 10.1427V9.83137C10.752 9.16776 10.8733 8.66494 11.1131 8.3229C11.3528 7.97794 11.6933 7.80546 12.1348 7.80546C12.5791 7.80546 12.9212 7.9794 13.1609 8.32729Z" fill="#FD8C04"/>
<path d="M18.8615 9.87522H17.6863V7.87124H18.8922C19.2167 7.87708 19.471 7.97648 19.6552 8.16942C19.8394 8.36237 19.9315 8.61524 19.9315 8.92804C19.9315 9.23208 19.8394 9.46595 19.6552 9.62966C19.474 9.79337 19.2094 9.87522 18.8615 9.87522Z" fill="#FD8C04"/>
<path fill-rule="evenodd" clip-rule="evenodd" d="M4.49033 0C2.01039 0 0 2.01039 0 4.49033V29.4381C0 29.8463 0.421928 30.118 0.793547 29.949L12.3484 24.6968L23.9033 29.949C24.2749 30.118 24.6968 29.8463 24.6968 29.4381V4.49033C24.6968 2.01039 22.6864 0 20.2065 0H4.49033ZM6.46047 7.87124H8.41622V6.80566H3.2155V7.87124H5.14494V13.1904H6.46047V7.87124ZM14.5203 11.7959C14.7425 11.3223 14.8535 10.7712 14.8535 10.1427V9.85768C14.8535 9.23208 14.7395 8.68102 14.5115 8.2045C14.2864 7.72507 13.9663 7.35818 13.5512 7.10385C13.139 6.84659 12.6668 6.71796 12.1348 6.71796C11.6027 6.71796 11.1291 6.84659 10.714 7.10385C10.3018 7.35818 9.9817 7.72507 9.75367 8.2045C9.52858 8.68102 9.41602 9.23354 9.41602 9.86207V10.1778C9.41895 10.7917 9.53442 11.3355 9.76244 11.809C9.99047 12.2797 10.312 12.6422 10.7272 12.8966C11.1423 13.1509 11.6144 13.2781 12.1435 13.2781C12.6785 13.2781 13.1521 13.1494 13.5643 12.8922C13.9794 12.6349 14.2981 12.2695 14.5203 11.7959ZM17.6863 13.1904V10.9408H18.8396C19.5967 10.9408 20.1887 10.761 20.6155 10.4014C21.0453 10.0389 21.2602 9.54488 21.2602 8.91927C21.2602 8.50708 21.1622 8.14019 20.9664 7.81862C20.7705 7.49412 20.4898 7.24417 20.1244 7.06877C19.7619 6.89336 19.3409 6.80566 18.8615 6.80566H16.3708V13.1904H17.6863Z" fill="#FD8C04"/>
</svg>
