<svg width="490" height="361" viewBox="0 0 490 361" fill="none" xmlns="http://www.w3.org/2000/svg">
<g clip-path="url(#clip0_209_905)">
<path d="M420.858 183.057L421.846 182.314C416.45 175.162 409.733 166.262 408.699 156.222C407.679 146.324 412.432 135.69 421.105 128.469C428.485 122.324 438.645 118.44 450.487 117.237C452.823 117 455.224 116.861 457.546 116.727C463.16 116.402 468.965 116.066 474.425 114.32C481.945 111.916 489.676 105.647 489.996 97.0613C490.069 94.3077 489.367 91.5887 487.97 89.2132C486.573 86.8376 484.537 84.9007 482.092 83.6223L481.515 84.7146C483.754 85.8853 485.62 87.6593 486.901 89.8351C488.181 92.011 488.825 94.5016 488.759 97.0243C488.462 105.003 481.156 110.871 474.047 113.144C468.737 114.842 463.012 115.173 457.475 115.494C455.139 115.629 452.724 115.769 450.361 116.009C438.273 117.236 427.883 121.217 420.312 127.521C411.328 135.001 406.407 146.047 407.468 156.348C408.538 166.731 415.369 175.783 420.858 183.057Z" fill="#7367F0" fill-opacity="0.3"/>
<path d="M472.248 86.2816C466.812 83.7966 463.385 79.6455 464.594 77.0099C465.804 74.3742 471.191 74.252 476.627 76.7369C482.063 79.2219 485.489 83.373 484.28 86.0087C483.071 88.6443 477.684 88.7665 472.248 86.2816Z" fill="#7367F0" fill-opacity="0.3"/>
<path d="M449.95 114.123C444.514 111.638 441.087 107.487 442.297 104.852C443.506 102.216 448.893 102.094 454.329 104.579C459.765 107.064 463.191 111.215 461.982 113.85C460.773 116.486 455.386 116.608 449.95 114.123Z" fill="#7367F0" fill-opacity="0.3"/>
<path d="M465.63 127.404C460.194 124.919 456.768 120.768 457.977 118.132C459.186 115.496 464.573 115.374 470.009 117.859C475.445 120.344 478.872 124.495 477.662 127.131C476.453 129.767 471.066 129.889 465.63 127.404Z" fill="#7367F0" fill-opacity="0.3"/>
<path d="M425.402 140.937C419.966 138.452 416.54 134.301 417.749 131.665C418.958 129.029 424.345 128.907 429.781 131.392C435.217 133.877 438.644 138.028 437.434 140.664C436.225 143.299 430.838 143.422 425.402 140.937Z" fill="#7367F0" fill-opacity="0.3"/>
<path d="M405.717 131.938C400.281 129.453 396.854 125.302 398.063 122.666C399.272 120.03 404.659 119.908 410.095 122.393C415.531 124.878 418.958 129.029 417.749 131.665C416.54 134.301 411.153 134.423 405.717 131.938Z" fill="#7367F0" fill-opacity="0.3"/>
<path d="M33.5106 361L32.9714 359.889C41.0437 355.986 51.0902 351.129 56.6032 342.668C62.0377 334.327 62.6725 322.699 58.2599 312.322C54.5047 303.491 47.2418 295.405 37.2567 288.938C35.2871 287.662 33.2142 286.444 31.2094 285.266C26.3637 282.418 21.353 279.473 17.2937 275.432C11.7029 269.866 7.69192 260.764 11.3345 252.98C12.529 250.497 14.3971 248.398 16.7266 246.921C19.0562 245.444 21.7538 244.649 24.5132 244.626L24.5277 245.861C21.9997 245.882 19.5283 246.61 17.3937 247.962C15.2592 249.314 13.5471 251.236 12.4517 253.511C9.06673 260.745 12.8825 269.296 18.1674 274.558C22.1157 278.489 27.0578 281.393 31.837 284.201C33.8531 285.386 35.938 286.611 37.9302 287.902C48.1231 294.503 55.5469 302.781 59.3988 311.84C63.97 322.59 63.2963 334.66 57.6403 343.341C51.9395 352.09 41.7212 357.031 33.5106 361Z" fill="#7367F0" fill-opacity="0.3"/>
<path d="M32.0553 251.479C26.0824 251.212 21.3456 248.648 21.4755 245.752C21.6053 242.856 26.5526 240.725 32.5255 240.992C38.4984 241.258 43.2352 243.822 43.1054 246.718C42.9755 249.614 38.0283 251.746 32.0553 251.479Z" fill="#7367F0" fill-opacity="0.3"/>
<path d="M39.1585 286.412C33.1856 286.145 28.4488 283.581 28.5786 280.685C28.7085 277.789 33.6557 275.658 39.6287 275.925C45.6016 276.191 50.3384 278.755 50.2085 281.651C50.0787 284.547 45.1314 286.679 39.1585 286.412Z" fill="#7367F0" fill-opacity="0.3"/>
<path d="M19.1336 291.081C13.1607 290.814 8.42394 288.25 8.55377 285.354C8.6836 282.458 13.6309 280.327 19.6038 280.593C25.5767 280.86 30.3135 283.424 30.1836 286.32C30.0538 289.216 25.1065 291.348 19.1336 291.081Z" fill="#7367F0" fill-opacity="0.3"/>
<path d="M48.7337 321.456C42.7608 321.189 38.024 318.625 38.1539 315.729C38.2837 312.833 43.231 310.701 49.2039 310.968C55.1768 311.235 59.9136 313.799 59.7837 316.695C59.6539 319.591 54.7066 321.722 48.7337 321.456Z" fill="#7367F0" fill-opacity="0.3"/>
<path d="M70.3636 322.422C64.3907 322.155 59.6539 319.591 59.7837 316.695C59.9136 313.799 64.8608 311.668 70.8337 311.934C76.8067 312.201 81.5434 314.765 81.4136 317.661C81.2838 320.557 76.3365 322.689 70.3636 322.422Z" fill="#7367F0" fill-opacity="0.3"/>
<path d="M205.482 163.72C205.243 163.965 205.024 164.228 204.827 164.508L174.157 163.759L170.579 157.232L160.006 161.335L165.216 173.503C165.636 174.486 166.365 175.307 167.293 175.841C168.22 176.375 169.297 176.595 170.36 176.467L205.011 172.288C205.829 173.321 206.942 174.081 208.202 174.467C209.463 174.853 210.812 174.847 212.069 174.449C213.326 174.052 214.432 173.281 215.239 172.241C216.047 171.201 216.519 169.939 216.591 168.625C216.663 167.311 216.333 166.005 215.644 164.883C214.955 163.761 213.94 162.874 212.734 162.342C211.528 161.809 210.188 161.656 208.893 161.902C207.597 162.148 206.407 162.782 205.482 163.72Z" fill="#FFB7B7"/>
<path d="M105.503 349.652L115.587 349.652L120.384 310.823L105.501 310.824L105.503 349.652Z" fill="#FFB7B7"/>
<path d="M102.931 359.41L135.447 359.409V358.998C135.447 355.648 134.114 352.434 131.74 350.065C129.367 347.696 126.147 346.365 122.791 346.365H122.79L102.93 346.365L102.931 359.41Z" fill="#2F2E41"/>
<path d="M197.073 349.428L206.347 345.473L195.478 307.885L181.792 313.722L197.073 349.428Z" fill="#FFB7B7"/>
<path d="M198.548 359.41L228.45 346.658L228.289 346.281C226.97 343.2 224.479 340.767 221.364 339.519C218.249 338.271 214.765 338.309 211.678 339.626L211.677 339.626L193.414 347.414L198.548 359.41Z" fill="#2F2E41"/>
<path d="M154.52 172.132L155.249 183.927L133.933 186.204L111.629 188.587L118.194 170.675L154.52 172.132Z" fill="#FFB7B7"/>
<path d="M155.623 176.504L164.201 126.453L149.848 121.757L145.633 115.986L125.118 117.198L122.106 123.932L111.167 129.092L112.848 160.257L115.799 174.753L116.162 174.565C130.951 166.92 155.027 176.269 155.269 176.364L155.623 176.504Z" fill="#2F2E41"/>
<path d="M161.132 168.636L175.732 162.805L175.67 162.546C175.607 162.285 169.393 136.365 168.568 132.199C167.709 127.86 164.569 126.66 164.435 126.611L164.338 126.575L158.56 128.331L156.023 148.233L161.132 168.636Z" fill="#2F2E41"/>
<path d="M189.562 342.604L208.996 338.625L177.935 253.067L167.304 223.885C167.304 223.885 160.562 200.486 157.515 191.432L155.677 179.282L112.158 184.091C112.158 184.091 100.003 201.909 103.696 230.953L102.026 340.117L121.46 341.112L137.738 231.014L166.308 291.369C166.308 291.369 175.313 317.124 181.755 322.707L189.562 342.604Z" fill="#2F2E41"/>
<path d="M129.61 188.142C129.268 188.134 128.926 188.153 128.586 188.199L108.284 165.239L110.646 158.182L100.443 153.233L95.046 165.319C94.61 166.296 94.5031 167.387 94.7413 168.429C94.9794 169.471 95.5499 170.409 96.3669 171.1L122.996 193.623C122.793 194.924 122.992 196.256 123.565 197.441C124.139 198.626 125.06 199.609 126.207 200.259C127.354 200.909 128.672 201.195 129.985 201.079C131.299 200.962 132.546 200.45 133.56 199.609C134.575 198.768 135.309 197.639 135.665 196.372C136.021 195.104 135.982 193.759 135.553 192.514C135.124 191.269 134.326 190.184 133.265 189.403C132.203 188.622 130.928 188.182 129.61 188.142H129.61Z" fill="#FFB7B7"/>
<path d="M109.905 167.473L118.374 147.587L115.071 133.736L111.512 129.247C111.251 129.136 110.97 129.08 110.686 129.082C110.403 129.085 110.123 129.146 109.865 129.262C108.552 129.79 107.434 131.406 106.542 134.066L98.6051 156.634L109.905 167.473Z" fill="#2F2E41"/>
<path d="M153.844 108.617V93.6247C153.844 88.2966 151.724 83.1868 147.95 79.4192C144.176 75.6517 139.057 73.5351 133.719 73.5351C128.382 73.5351 123.263 75.6517 119.488 79.4192C115.714 83.1868 113.594 88.2966 113.594 93.6247V108.617C113.595 109.332 113.88 110.018 114.387 110.524C114.893 111.03 115.581 111.315 116.297 111.316H151.141C151.858 111.315 152.545 111.03 153.052 110.524C153.558 110.018 153.844 109.332 153.844 108.617Z" fill="#2F2E41"/>
<path d="M137.855 110.967C129.706 110.967 123.099 104.372 123.099 96.2376C123.099 88.1029 129.706 81.5085 137.855 81.5085C146.004 81.5085 152.61 88.1029 152.61 96.2376C152.61 104.372 146.004 110.967 137.855 110.967Z" fill="#FFB7B7"/>
<path d="M158.605 94.8241C158.601 90.6108 156.922 86.5714 153.937 83.5922C150.953 80.6129 146.906 78.9371 142.686 78.9323H139.682C135.461 78.9371 131.414 80.6129 128.43 83.5922C125.445 86.5714 123.767 90.6108 123.762 94.8241V95.1239H130.11L132.275 89.072L132.708 95.1239H135.989L137.081 92.0704L137.299 95.1239H158.605V94.8241Z" fill="#2F2E41"/>
<path d="M139.307 113.001C139.605 112.599 139.783 112.12 139.82 111.621C139.858 111.121 139.753 110.621 139.518 110.179C136.335 104.135 131.878 92.9675 137.794 86.0804L138.219 85.5856H121.045V111.324L136.647 114.072C136.805 114.1 136.965 114.114 137.125 114.114C137.551 114.114 137.971 114.013 138.35 113.82C138.729 113.626 139.057 113.346 139.307 113.001Z" fill="#2F2E41"/>
<path d="M224.684 299.135H408.638C412.998 299.131 417.178 297.399 420.261 294.322C423.344 291.244 425.078 287.072 425.083 282.719V16.4163C425.078 12.0639 423.344 7.89122 420.261 4.81364C417.178 1.73606 412.998 0.00491473 408.638 0H224.684C220.324 0.00491473 216.143 1.73606 213.06 4.81364C209.977 7.89122 208.243 12.0639 208.238 16.4163V282.719C208.243 287.072 209.977 291.244 213.06 294.322C216.143 297.399 220.324 299.131 224.684 299.135Z" fill="#3F3D56"/>
<path d="M224.36 288.662H408.961C410.305 288.66 411.594 288.126 412.544 287.178C413.495 286.229 414.029 284.943 414.031 283.601V15.5344C414.029 14.1928 413.495 12.9065 412.544 11.9578C411.594 11.0091 410.305 10.4755 408.961 10.4739H224.36C223.016 10.4755 221.727 11.0091 220.777 11.9578C219.826 12.9065 219.292 14.1928 219.29 15.5344V283.601C219.292 284.943 219.826 286.229 220.777 287.178C221.727 288.126 223.016 288.66 224.36 288.662Z" fill="white"/>
<path d="M317.36 6.424C316.587 6.424 315.961 5.79875 315.961 5.02748C315.961 4.2562 316.587 3.63095 317.36 3.63095C318.133 3.63095 318.759 4.2562 318.759 5.02748C318.759 5.79875 318.133 6.424 317.36 6.424Z" fill="white"/>
<path d="M275.671 180.316C283.771 180.316 291.56 177.206 297.426 171.631C303.291 166.056 306.784 158.442 307.181 150.366C307.206 150.878 307.22 151.393 307.22 151.91C307.22 160.263 303.897 168.273 297.98 174.18C292.063 180.086 284.038 183.404 275.671 183.404C267.304 183.404 259.279 180.086 253.362 174.18C247.446 168.273 244.122 160.263 244.122 151.91C244.122 151.393 244.136 150.878 244.161 150.366C244.558 158.442 248.051 166.056 253.917 171.631C259.782 177.206 267.572 180.316 275.671 180.316Z" fill="#CBCBCB"/>
<path d="M357.947 106.214C366.046 106.213 373.836 103.104 379.701 97.5283C385.567 91.953 389.06 84.3393 389.457 76.2639C389.482 76.7755 389.496 77.2899 389.496 77.8077C389.496 86.1603 386.172 94.1708 380.256 100.077C374.339 105.983 366.314 109.301 357.947 109.301C349.58 109.301 341.555 105.983 335.638 100.077C329.722 94.1708 326.398 86.1603 326.398 77.8077C326.398 77.2899 326.412 76.7755 326.437 76.2639C326.834 84.3393 330.327 91.953 336.192 97.5283C342.058 103.104 349.847 106.213 357.947 106.214Z" fill="#CBCBCB"/>
<path d="M356.091 254.419C364.191 254.418 371.98 251.309 377.846 245.733C383.711 240.158 387.204 232.544 387.602 224.469C387.626 224.981 387.641 225.495 387.641 226.013C387.641 234.365 384.317 242.376 378.4 248.282C372.483 254.188 364.459 257.506 356.091 257.506C347.724 257.506 339.699 254.188 333.782 248.282C327.866 242.376 324.542 234.365 324.542 226.013C324.542 225.495 324.556 224.981 324.581 224.469C324.978 232.544 328.471 240.158 334.337 245.733C340.202 251.309 347.992 254.418 356.091 254.419Z" fill="#CBCBCB"/>
<path d="M275.661 180.782C281.968 180.782 288.133 178.915 293.377 175.418C298.621 171.92 302.709 166.948 305.122 161.132C307.536 155.315 308.167 148.915 306.937 142.74C305.706 136.565 302.669 130.893 298.21 126.441C293.75 121.99 288.068 118.958 281.882 117.73C275.696 116.501 269.285 117.132 263.458 119.541C257.631 121.95 252.65 126.03 249.147 131.265C245.643 136.5 243.772 142.654 243.772 148.95C243.772 157.393 247.132 165.489 253.112 171.459C259.093 177.429 267.204 180.782 275.661 180.782ZM275.661 118.634C281.668 118.634 287.539 120.412 292.534 123.743C297.528 127.074 301.421 131.809 303.719 137.349C306.018 142.888 306.619 148.984 305.447 154.865C304.276 160.745 301.383 166.147 297.136 170.387C292.889 174.627 287.477 177.514 281.586 178.684C275.695 179.854 269.588 179.253 264.039 176.959C258.489 174.664 253.746 170.779 250.409 165.793C247.072 160.808 245.291 154.946 245.291 148.95C245.291 144.969 246.076 141.027 247.603 137.349C249.129 133.67 251.366 130.328 254.186 127.513C257.006 124.698 260.354 122.465 264.039 120.942C267.723 119.418 271.673 118.634 275.661 118.634Z" fill="#3F3D56"/>
<path d="M287.809 140.233L291.605 139.475C291.605 139.475 288.416 143.037 287.809 143.264C287.752 144.021 287.752 144.781 287.809 145.538C280.52 176.764 253.643 162.97 253.643 162.97C263.437 163.197 264.272 159.18 264.272 159.18C258.578 158.347 257.439 154.633 257.439 154.633C257.95 154.902 258.542 154.973 259.103 154.833C259.663 154.694 260.152 154.352 260.476 153.875C254.326 152.283 255.161 146.296 255.161 146.296C256.257 147.086 257.538 147.582 258.881 147.736C258.198 146.902 252.428 140.005 255.92 136.443C255.92 136.443 260.172 144.022 271.333 144.704L272.092 144.553C271.963 144.007 271.912 143.445 271.941 142.885C271.941 140.775 272.78 138.75 274.276 137.258C275.771 135.766 277.798 134.927 279.913 134.927C285.227 134.927 286.366 137.959 286.366 137.959L290.163 135.685C290.087 135.685 289.707 139.475 287.809 140.233Z" fill="#7367F0"/>
<path d="M357.66 106.886C363.967 106.886 370.132 105.019 375.377 101.522C380.621 98.0238 384.708 93.0523 387.121 87.2357C389.535 81.4191 390.167 75.0187 388.936 68.8439C387.706 62.669 384.669 56.9971 380.209 52.5453C375.749 48.0934 370.067 45.0617 363.881 43.8335C357.696 42.6052 351.284 43.2356 345.457 45.6449C339.63 48.0542 334.65 52.1342 331.146 57.369C327.642 62.6038 325.772 68.7582 325.772 75.054C325.772 79.2343 326.596 83.3736 328.199 87.2357C329.802 91.0978 332.15 94.6069 335.112 97.5628C338.073 100.519 341.588 102.863 345.457 104.463C349.326 106.063 353.473 106.886 357.66 106.886ZM357.66 44.7377C363.667 44.7377 369.539 46.5157 374.533 49.8469C379.527 53.1781 383.42 57.9129 385.719 63.4525C388.017 68.9921 388.619 75.0877 387.447 80.9685C386.275 86.8493 383.382 92.2512 379.135 96.491C374.888 100.731 369.476 103.618 363.585 104.788C357.694 105.958 351.587 105.357 346.038 103.063C340.489 100.768 335.745 96.8825 332.408 91.897C329.071 86.9114 327.29 81.0501 327.29 75.0541C327.29 67.0137 330.49 59.3025 336.185 53.6171C341.881 47.9317 349.606 44.7376 357.66 44.7376V44.7377Z" fill="#3F3D56"/>
<path d="M348.975 59.3067C346.851 59.313 344.815 60.1582 343.313 61.6576C341.811 63.1569 340.965 65.1887 340.958 67.3091V83.3122C340.965 85.4326 341.811 87.4644 343.313 88.9637C344.815 90.4631 346.851 91.3082 348.975 91.3146H365.006C367.13 91.3082 369.166 90.4631 370.668 88.9637C372.17 87.4644 373.016 85.4326 373.023 83.3122V67.3091C373.017 65.1887 372.17 63.1569 370.668 61.6576C369.166 60.1582 367.13 59.313 365.006 59.3067H348.975ZM348.975 56.1063H365.006C367.98 56.1149 370.83 57.298 372.932 59.397C375.035 61.4961 376.22 64.3406 376.229 67.3091V83.3122C376.22 86.2807 375.035 89.1252 372.932 91.2242C370.83 93.3233 367.98 94.5064 365.006 94.515H348.975C346.001 94.5064 343.152 93.3233 341.049 91.2242C338.946 89.1252 337.761 86.2807 337.752 83.3122V67.3091C337.761 64.3406 338.946 61.4961 341.049 59.3971C343.152 57.298 346.001 56.1149 348.975 56.1063Z" fill="#7367F0"/>
<path d="M367.183 67.6747C367.819 67.6733 368.428 67.42 368.877 66.9704C369.326 66.5207 369.578 65.9116 369.577 65.2767C369.576 64.6419 369.323 64.0332 368.873 63.5846C368.423 63.1359 367.813 62.8839 367.177 62.8839C366.542 62.8839 365.932 63.1359 365.482 63.5846C365.032 64.0332 364.779 64.6419 364.778 65.2767C364.777 65.9116 365.029 66.5207 365.478 66.9704C365.927 67.42 366.536 67.6733 367.172 67.6747C367.176 67.6747 367.179 67.6747 367.183 67.6747Z" fill="#7367F0"/>
<path d="M356.991 68.9089C355.722 68.9089 354.482 69.2843 353.428 69.9878C352.373 70.6912 351.551 71.691 351.066 72.8608C350.58 74.0306 350.453 75.3177 350.701 76.5595C350.948 77.8014 351.559 78.942 352.456 79.8373C353.353 80.7326 354.496 81.3423 355.74 81.5893C356.984 81.8364 358.273 81.7096 359.445 81.225C360.617 80.7405 361.618 79.92 362.323 78.8672C363.028 77.8145 363.404 76.5767 363.404 75.3106C363.404 74.4699 363.238 73.6374 362.916 72.8608C362.593 72.0841 362.121 71.3784 361.525 70.7839C360.93 70.1894 360.223 69.7179 359.445 69.3962C358.667 69.0745 357.833 68.9089 356.991 68.9089ZM356.991 65.7084C358.893 65.7084 360.753 66.2716 362.335 67.3267C363.917 68.3818 365.15 69.8814 365.878 71.636C366.606 73.3905 366.796 75.3212 366.425 77.1839C366.054 79.0465 365.138 80.7575 363.792 82.1004C362.447 83.4432 360.733 84.3578 358.867 84.7283C357.001 85.0988 355.067 84.9086 353.31 84.1819C351.552 83.4551 350.05 82.2244 348.993 80.6453C347.936 79.0662 347.371 77.2098 347.371 75.3106C347.371 72.764 348.385 70.3217 350.189 68.5209C351.993 66.7201 354.439 65.7085 356.991 65.7085V65.7084Z" fill="#7367F0"/>
<path d="M356.142 254.679C362.449 254.679 368.614 252.812 373.858 249.314C379.102 245.816 383.189 240.845 385.603 235.028C388.016 229.211 388.648 222.811 387.418 216.636C386.187 210.461 383.15 204.789 378.69 200.338C374.231 195.886 368.549 192.854 362.363 191.626C356.177 190.398 349.765 191.028 343.938 193.437C338.112 195.847 333.131 199.927 329.627 205.161C326.123 210.396 324.253 216.551 324.253 222.846C324.253 231.289 327.613 239.385 333.593 245.355C339.573 251.325 347.684 254.679 356.142 254.679ZM356.142 192.53C362.148 192.53 368.02 194.308 373.014 197.639C378.009 200.97 381.901 205.705 384.2 211.245C386.499 216.784 387.1 222.88 385.928 228.761C384.756 234.642 381.864 240.043 377.617 244.283C373.369 248.523 367.958 251.41 362.067 252.58C356.175 253.75 350.069 253.15 344.52 250.855C338.97 248.56 334.227 244.675 330.89 239.689C327.553 234.704 325.772 228.842 325.772 222.846C325.772 218.865 326.557 214.923 328.083 211.245C329.61 207.567 331.847 204.225 334.667 201.409C337.487 198.594 340.835 196.361 344.52 194.838C348.204 193.314 352.153 192.53 356.142 192.53Z" fill="#3F3D56"/>
<path fill-rule="evenodd" clip-rule="evenodd" d="M376.988 222.971C376.987 218.995 375.845 215.102 373.697 211.753C371.548 208.404 368.484 205.74 364.866 204.076C361.248 202.412 357.228 201.817 353.282 202.363C349.336 202.908 345.629 204.571 342.6 207.154C339.572 209.737 337.348 213.133 336.192 216.938C335.036 220.744 334.997 224.8 336.079 228.627C337.161 232.454 339.319 235.892 342.297 238.533C345.276 241.174 348.95 242.908 352.884 243.529V228.988H347.59V222.971H352.884V218.386C352.884 213.171 355.997 210.289 360.759 210.289C362.322 210.311 363.882 210.447 365.426 210.696V215.817H362.796C360.208 215.817 359.398 217.421 359.398 219.069V222.972H365.179L364.256 228.989H359.398V243.531C364.302 242.755 368.768 240.259 371.992 236.49C375.217 232.721 376.988 227.928 376.988 222.971L376.988 222.971Z" fill="#7367F0"/>
<path d="M0.618607 360.632H236.311C236.475 360.632 236.632 360.567 236.748 360.451C236.865 360.336 236.93 360.179 236.93 360.015C236.93 359.851 236.865 359.694 236.748 359.578C236.632 359.462 236.475 359.397 236.311 359.397H0.618607C0.454544 359.397 0.297211 359.462 0.181198 359.578C0.0651703 359.694 0 359.851 0 360.015C0 360.179 0.0651703 360.336 0.181198 360.451C0.297211 360.567 0.454544 360.632 0.618607 360.632Z" fill="#CBCBCB"/>
</g>
<defs>
<clipPath id="clip0_209_905">
<rect width="490" height="361" fill="white" transform="matrix(-1 0 0 1 490 0)"/>
</clipPath>
</defs>
</svg>
