<svg width="41" height="41" viewBox="0 0 41 41" fill="none" xmlns="http://www.w3.org/2000/svg">
<path d="M38.2486 19.4578H2.3477C1.21848 19.4578 0.299805 20.3765 0.299805 21.5057V38.6196C0.299805 39.75 1.21848 40.6697 2.3477 40.6697H16.7904C17.2219 40.6697 17.5717 40.32 17.5717 39.8885C17.5717 39.457 17.2219 39.1072 16.7904 39.1072H2.3477C2.08004 39.1072 1.8623 38.8885 1.8623 38.6196V21.5057C1.8623 21.2381 2.08004 21.0203 2.3477 21.0203H38.2486C38.5175 21.0203 38.7362 21.2381 38.7362 21.5057V38.6196C38.7362 38.8839 38.5129 39.1072 38.2486 39.1072H23.8059C23.3745 39.1072 23.0247 39.457 23.0247 39.8885C23.0247 40.32 23.3745 40.6697 23.8059 40.6697H38.2486C39.3791 40.6697 40.2987 39.75 40.2987 38.6196V21.5057C40.2987 20.3765 39.3791 19.4578 38.2486 19.4578Z" fill="#367FD3"/>
<path d="M36.1913 37.3435C36.6227 37.3435 36.9726 36.9937 36.9726 36.5622V23.563C36.9726 23.1315 36.6227 22.7817 36.1913 22.7817H4.40491C3.97342 22.7817 3.62366 23.1315 3.62366 23.563V36.5623C3.62366 36.9938 3.97342 37.3435 4.40491 37.3435H36.1913V37.3435ZM5.18616 28.7068H8.20538V31.5069H5.18616V28.7068ZM9.76788 28.7068H12.7871V31.5069H9.76788V28.7068ZM26.5279 27.1443H23.5108V24.3442H26.5279V27.1443ZM28.0904 24.3442H31.1096V27.1444H28.0904V24.3442ZM18.9291 31.507V28.7069H21.9483V31.507H18.9291ZM14.3496 31.507V28.7069H17.3666V31.507H14.3496ZM23.5108 28.7068H26.5278V31.5069H23.5108V28.7068ZM21.9483 27.1443H18.929V24.3442H21.9483V27.1443ZM17.3666 27.1443H14.3496V24.3442H17.3666V27.1443ZM12.7871 27.1443H9.76788V24.3442H12.7871V27.1443ZM12.7871 33.0695V35.781H9.76788V33.0695H12.7871ZM14.3496 33.0695H26.5279V35.781H14.3496V33.0695ZM28.0904 33.0695H31.1096V35.781H28.0904V33.0695ZM32.6721 35.781V33.0694H35.4101V35.781H32.6721ZM35.4101 31.507H28.0904V28.7069H31.8908C32.3222 28.7069 32.6721 28.3571 32.6721 27.9256V24.3442H35.4101V31.507ZM8.20538 24.3442V27.1444H5.18616V24.3442H8.20538ZM5.18616 33.0695H8.20538V35.781H5.18616V33.0695Z" fill="#367FD3"/>
<path d="M38.0515 0.669678H2.54699C1.30785 0.669678 0.299805 1.6778 0.299805 2.91694V12.2866C0.299805 13.5258 1.30785 14.5339 2.54699 14.5339H16.4256L19.7632 17.6703C19.9135 17.8116 20.1058 17.8823 20.2982 17.8823C20.4904 17.8823 20.6828 17.8116 20.8332 17.6703L24.1707 14.5339H38.0515C39.2907 14.5339 40.2988 13.5258 40.2988 12.2866V2.91694C40.2987 1.6778 39.2907 0.669678 38.0515 0.669678ZM38.7362 12.2866C38.7362 12.6642 38.429 12.9714 38.0514 12.9714H23.8612C23.6624 12.9714 23.4711 13.0472 23.3262 13.1833L20.2982 16.029L17.2701 13.1833C17.1253 13.0472 16.9339 12.9714 16.7351 12.9714H2.54699C2.16941 12.9714 1.8623 12.6642 1.8623 12.2866V2.91694C1.8623 2.53937 2.16949 2.23218 2.54699 2.23218H38.0515C38.4291 2.23218 38.7363 2.53937 38.7363 2.91694V12.2866H38.7362Z" fill="#367FD3"/>
<path d="M25.6084 8.87012H5.26416C4.83268 8.87012 4.48291 9.21988 4.48291 9.65137C4.48291 10.0829 4.83268 10.4326 5.26416 10.4326H25.6084C26.0398 10.4326 26.3896 10.0829 26.3896 9.65137C26.3896 9.21988 26.0398 8.87012 25.6084 8.87012Z" fill="#367FD3"/>
<path d="M35.5514 8.87012H29.7451C29.3137 8.87012 28.9639 9.21988 28.9639 9.65137C28.9639 10.0829 29.3137 10.4326 29.7451 10.4326H35.5514C35.9829 10.4326 36.3327 10.0829 36.3327 9.65137C36.3327 9.21988 35.9829 8.87012 35.5514 8.87012Z" fill="#367FD3"/>
<path d="M5.26416 6.3335H11.0705C11.502 6.3335 11.8517 5.98373 11.8517 5.55225C11.8517 5.12076 11.502 4.771 11.0705 4.771H5.26416C4.83268 4.771 4.48291 5.12076 4.48291 5.55225C4.48291 5.98373 4.83268 6.3335 5.26416 6.3335Z" fill="#367FD3"/>
<path d="M35.5515 4.771H15.2072C14.7757 4.771 14.4259 5.12076 14.4259 5.55225C14.4259 5.98373 14.7757 6.3335 15.2072 6.3335H35.5514C35.9829 6.3335 36.3327 5.98373 36.3327 5.55225C36.3327 5.12076 35.9829 4.771 35.5515 4.771Z" fill="#367FD3"/>
<path d="M20.2981 39.1072C19.8666 39.1072 19.5168 39.4569 19.5168 39.8884C19.5168 40.3199 19.8666 40.6697 20.2981 40.6697H20.3025C20.734 40.6697 21.0815 40.3199 21.0815 39.8884C21.0815 39.4569 20.7296 39.1072 20.2981 39.1072Z" fill="#367FD3"/>
</svg>
