<svg width="42" height="41" viewBox="0 0 42 41" fill="none" xmlns="http://www.w3.org/2000/svg">
<path d="M27.9581 10.5283C27.879 10.2477 27.6542 10.0317 27.3708 9.96374L14.7788 6.94278C14.5065 6.87738 14.2196 6.95817 14.0214 7.15638C13.8233 7.35452 13.7423 7.64134 13.8078 7.91382L16.8289 20.5058C16.8969 20.7893 17.1127 21.014 17.3934 21.093C17.4655 21.1134 17.5391 21.1233 17.612 21.1233C17.8227 21.1233 18.0285 21.0406 18.1816 20.8874L20.824 18.245L22.9646 20.3855C23.2792 20.7 23.789 20.7001 24.1037 20.3855L27.2508 17.2385C27.4018 17.0874 27.4867 16.8826 27.4867 16.669C27.4867 16.4554 27.4018 16.2506 27.2508 16.0995L25.1102 13.9589L27.7526 11.3165C27.9586 11.1104 28.0373 10.8089 27.9581 10.5283ZM23.4014 13.3893C23.0869 13.7039 23.0869 14.2139 23.4014 14.5285L25.5421 16.6691L23.534 18.6771L21.3935 16.5365C21.0789 16.2221 20.569 16.2221 20.2544 16.5365L18.0596 18.7313L15.6807 8.81583L25.5962 11.1947L23.4014 13.3893Z" fill="#367FD3"/>
<path d="M40.433 0.5H24.2437C23.7989 0.5 23.4383 0.860595 23.4383 1.30544C23.4383 1.75028 23.7989 2.11088 24.2437 2.11088H39.6276V25.3975H1.61088V2.11088H16.9947C17.4396 2.11088 17.8002 1.7502 17.8002 1.30544C17.8002 0.860675 17.4396 0.5 16.9947 0.5H0.805438C0.360595 0.5 0 0.860595 0 1.30544V31.1564C0 31.6012 0.360595 31.9619 0.805438 31.9619H14.616V34.9571H10.2887C9.84391 34.9571 9.48323 35.3178 9.48323 35.7626V39.6946C9.48323 40.1393 9.84391 40.5 10.2887 40.5H30.9498C31.3945 40.5 31.7552 40.1393 31.7552 39.6946V35.7626C31.7552 35.3178 31.3945 34.9571 30.9498 34.9571H26.6225V31.9619H40.433C40.8778 31.9619 41.2384 31.6012 41.2384 31.1564V1.30544C41.2384 0.860595 40.8778 0.5 40.433 0.5ZM30.1443 38.8891H11.0941V36.568H30.1443V38.8891ZM25.0116 34.9571H16.2268V31.9619H25.0116V34.9571ZM1.61088 30.351V27.0084H39.6276V30.351H1.61088Z" fill="#367FD3"/>
<path d="M20.6192 2.11104C21.0641 2.11104 21.4247 1.75043 21.4247 1.3056C21.4247 0.860768 21.0641 0.500161 20.6192 0.500161C20.1744 0.500161 19.8138 0.860768 19.8138 1.3056C19.8138 1.75043 20.1744 2.11104 20.6192 2.11104Z" fill="#367FD3"/>
</svg>
