<svg width="15" height="15" viewBox="0 0 15 15" fill="none" xmlns="http://www.w3.org/2000/svg">
<path d="M5.62168 14.9259H5.49335L2.12168 14.5526C1.85972 14.5227 1.61562 14.4049 1.42918 14.2184C1.24274 14.032 1.12495 13.7879 1.09501 13.5259L0.710013 10.1543C0.695139 9.97688 0.721049 9.79846 0.785759 9.63264C0.850469 9.46682 0.952262 9.31801 1.08335 9.19759L9.25001 1.08926C9.4686 0.871965 9.7643 0.75 10.0725 0.75C10.3807 0.75 10.6764 0.871965 10.895 1.08926L14.64 4.83426C14.8573 5.05285 14.9793 5.34854 14.9793 5.65676C14.9793 5.96497 14.8573 6.26067 14.64 6.47926L6.53168 14.6459C6.40821 14.754 6.26335 14.8347 6.10654 14.883C5.94974 14.9312 5.78452 14.9459 5.62168 14.9259ZM3.28835 12.3243L5.16668 12.5343L12.05 5.65092L9.98501 3.56259L3.10168 10.4459L3.28835 12.3243Z" fill="white"/>
</svg>
