<svg width="287" height="62" viewBox="0 0 287 62" fill="none" xmlns="http://www.w3.org/2000/svg">
<rect x="286.5" y="61.5" width="286" height="61" rx="6.5" transform="rotate(-180 286.5 61.5)" stroke="#58585E"/>
<path d="M265.8 13H215.2C213.985 13 213 13.985 213 15.2V43.8C213 45.015 213.985 46 215.2 46H265.8C267.015 46 268 45.015 268 43.8V15.2C268 13.985 267.015 13 265.8 13Z" fill="white"/>
<path d="M226.263 46H265.8C267.015 46 268 45.0172 268 43.8028V31.5339C268 31.5339 253.26 41.5274 226.263 46Z" fill="#E6772F"/>
<path fill-rule="evenodd" clip-rule="evenodd" d="M223.059 29.4022C222.646 29.7553 222.12 29.9098 221.28 29.9098H220.931V25.6968H221.28C222.12 25.6968 222.626 25.8404 223.059 26.2111C223.506 26.5944 223.774 27.1846 223.774 27.7962C223.774 28.41 223.506 29.0221 223.059 29.4022ZM221.54 24.6172H219.631V30.9895H221.529C222.538 30.9895 223.267 30.7596 223.905 30.2525C224.664 29.6513 225.114 28.7444 225.114 27.805C225.114 25.924 223.645 24.6172 221.54 24.6172ZM225.713 24.6172H227.007V30.9895H225.713V24.6172ZM230.184 27.0597C229.403 26.7853 229.175 26.6032 229.175 26.2584C229.175 25.858 229.583 25.5544 230.144 25.5544C230.533 25.5544 230.854 25.7034 231.195 26.0675L231.87 25.2194C231.325 24.7563 230.631 24.505 229.916 24.5116C228.737 24.5116 227.839 25.2959 227.839 26.3332C227.839 27.2137 228.256 27.6609 229.475 28.0849C229.985 28.2543 230.243 28.3704 230.374 28.4485C230.634 28.6091 230.763 28.839 230.763 29.1052C230.763 29.6238 230.334 30.0044 229.754 30.0044C229.136 30.0044 228.636 29.7085 228.337 29.153L227.5 29.9285C228.099 30.7678 228.816 31.1429 229.805 31.1429C231.152 31.1429 232.102 30.2794 232.102 29.0496C232.102 28.036 231.662 27.5762 230.184 27.0597ZM232.51 27.805C232.51 29.6788 234.047 31.1308 236.026 31.1308C236.584 31.1308 237.062 31.0252 237.651 30.7596V29.2949C237.131 29.7954 236.674 29.9934 236.083 29.9934C234.776 29.9934 233.849 29.0876 233.849 27.7962C233.849 26.5752 234.805 25.6088 236.026 25.6088C236.642 25.6088 237.113 25.8178 237.651 26.3255V24.8625C237.082 24.5875 236.615 24.4736 236.053 24.4736C234.085 24.4736 232.511 25.9537 232.511 27.805H232.51ZM248.172 28.8951L246.396 24.6172H244.98L247.803 31.1501H248.499L251.377 24.6172H249.972L248.172 28.8951H248.172ZM251.966 30.9895H255.649V29.9098H253.265V28.1894H255.558V27.1103H253.265V25.6968H255.649V24.6172H251.966V30.9895ZM258.185 27.5476H257.808V25.6204H258.206C259.017 25.6204 259.452 25.946 259.452 26.5664C259.452 27.2044 259.017 27.5476 258.185 27.5476ZM260.789 26.4971C260.789 25.3041 259.934 24.6172 258.435 24.6172H256.506V30.9895H257.808V28.4276H257.977L259.771 30.9895H261.368L259.273 28.3038C260.252 28.1124 260.789 27.4722 260.789 26.4976V26.4971Z" fill="#1A1919"/>
<path fill-rule="evenodd" clip-rule="evenodd" d="M245.164 27.8198C245.164 29.6541 243.61 31.1413 241.692 31.1413C239.775 31.1413 238.221 29.6541 238.221 27.8198C238.221 25.985 239.775 24.4978 241.692 24.4978C243.61 24.4978 245.164 25.985 245.164 27.8198Z" fill="#E6772F"/>
<path d="M174.428 28.692C174.402 30.475 176.244 31.4701 177.632 32.0616C179.057 32.6686 179.536 33.0579 179.531 33.6006C179.52 34.4314 178.394 34.798 177.339 34.8123C175.5 34.8373 174.431 34.3778 173.581 34.0303L172.918 36.7429C173.771 37.0869 175.351 37.3868 176.988 37.3999C180.833 37.3999 183.348 35.7395 183.361 33.165C183.376 29.8977 178.196 29.7168 178.232 28.2564C178.244 27.8136 178.727 27.3411 179.785 27.2208C180.309 27.1601 181.755 27.1137 183.394 27.7743L184.037 25.1498C183.156 24.8689 182.023 24.5999 180.612 24.5999C176.994 24.5999 174.449 26.2829 174.428 28.692ZM190.22 24.826C189.518 24.826 188.926 25.1843 188.662 25.7342L183.171 37.2071H187.012L187.777 35.3586H192.471L192.915 37.2071H196.3L193.346 24.826H190.22ZM190.757 28.1707L191.866 32.8198H188.83L190.757 28.1707ZM169.771 24.826L166.743 37.2071H170.403L173.43 24.826H169.771ZM164.355 24.826L160.545 33.2531L159.004 26.0877C158.823 25.2879 158.109 24.826 157.316 24.826H151.087L151 25.1855C152.279 25.4283 153.731 25.8199 154.612 26.2389C155.15 26.4948 155.304 26.7186 155.481 27.3268L158.4 37.2071H162.269L168.2 24.826H164.355Z" fill="#1B2073"/>
<path d="M151 15H197.612V19.2667H151V15Z" fill="#1B2073"/>
<path d="M151 42.7334H197.612V47.0001H151V42.7334Z" fill="#F7B802"/>
<path d="M111.555 21.3008H99.4001V42.6564H111.555V21.3008Z" fill="#FF5F00"/>
<path d="M100.172 31.9786C100.172 27.6396 102.256 23.791 105.458 21.3008C103.105 19.4897 100.133 18.3955 96.8918 18.3955C89.2127 18.3955 83 24.4702 83 31.9786C83 39.487 89.2127 45.5617 96.8918 45.5617C100.133 45.5617 103.105 44.4675 105.458 42.6564C102.256 40.2039 100.172 36.3177 100.172 31.9786Z" fill="#EB001B"/>
<path d="M127.956 31.9786C127.956 39.487 121.743 45.5617 114.064 45.5617C110.822 45.5617 107.851 44.4675 105.497 42.6564C108.739 40.1662 110.784 36.3177 110.784 31.9786C110.784 27.6396 108.7 23.791 105.497 21.3008C107.851 19.4897 110.822 18.3955 114.064 18.3955C121.743 18.3955 127.956 24.5079 127.956 31.9786Z" fill="#F79E1B"/>
<path d="M22.0005 15H59.6893V46H22.0005V15Z" fill="white"/>
<path d="M59.6899 31.8825H57.7265C57.1395 31.8825 56.7003 31.9942 56.3976 32.1735V31.8825H53.5015C53.0423 31.8825 52.4888 31.9734 52.2325 32.1735V31.8825H47.0593V32.1735C46.6451 31.9341 45.9522 31.8825 45.6255 31.8825H42.2093V32.1735C41.8826 31.9156 41.1652 31.8825 40.7255 31.8825H36.8962L36.0199 32.6591L35.2056 31.8825H29.4948V36.949H35.0992L35.9974 36.1601L36.8482 36.9465L40.2984 36.949V35.7544H40.6416C41.0977 35.7544 41.6378 35.7458 42.1089 35.58V36.949H44.9665V35.6226H45.1064C45.2803 35.6218 45.2938 35.6341 45.2938 35.7691V36.949H53.9446C54.4892 36.949 55.0757 36.8335 55.3919 36.6284V36.949H58.1346C58.7027 36.949 59.2652 36.8814 59.6899 36.7169V46H22.0005V30.6998H23.809L24.2177 29.8872H25.1294L25.5391 30.6998H29.1001V30.0816L29.4199 30.701H31.2633L31.5841 30.0718V30.6998H40.4303L40.4288 29.3734H40.6011C40.729 29.3734 40.759 29.3857 40.759 29.547V30.6998H45.3352L45.3342 30.385C45.6989 30.5475 46.2714 30.7002 47.0338 30.7002H48.9582L49.3739 29.8872H50.2856L50.6953 30.6998H54.3947V29.9301L54.9633 30.6998H57.9348V25.6329H54.9962V26.2306L54.5746 25.6329H51.5551V26.2306L51.1844 25.6329H47.1058C46.4188 25.6329 45.8138 25.7078 45.3342 25.9243V25.6329H42.523V25.9243C42.2033 25.7033 41.7876 25.6329 41.323 25.6329H31.04L30.3436 26.9396L29.6402 25.6329H26.4044V26.2306L26.0387 25.6329H23.2764L22 28.0359V15H59.6889V31.8825H59.6899ZM56.9956 29.9846H55.4868L53.481 27.2593L53.4825 29.9846H51.3268L50.9186 29.1707H48.7139L48.3073 29.9846H47.0743C46.5537 29.9846 45.9027 29.8863 45.5336 29.5801C45.1614 29.269 44.9725 28.8547 44.9725 28.1935C44.9725 27.654 45.0894 27.1607 45.541 26.7738C45.8818 26.4848 46.4233 26.3481 47.1537 26.3481H48.1659V27.1275L47.1742 27.1263C46.7825 27.1263 46.5622 27.1746 46.3549 27.3441C46.169 27.4956 46.0446 27.7854 46.0446 28.1678C46.0446 28.5546 46.1376 28.8326 46.3459 29.0193C46.5023 29.1609 46.796 29.2051 47.0813 29.2051H47.5569L49.0491 26.3485H50.6273L52.4229 29.7864V26.3485H54.0415L55.905 28.8793L55.903 26.3485H56.9951V29.9846H56.9956ZM43.3703 29.9846H44.4549V26.3472H43.3708V29.9846H43.3703ZM42.2153 26.5241C41.8736 26.3644 41.4759 26.3481 40.9388 26.3481H38.4984V29.9846H39.5575V28.6606H40.6941C41.0797 28.6606 41.3125 28.6889 41.4634 28.8203C41.6603 28.991 41.6383 29.3083 41.6383 29.5244V29.9846H42.7044V29.2628C42.7044 28.9468 42.6774 28.7798 42.529 28.6037C42.4391 28.4981 42.2393 28.3679 42.007 28.2955C42.2857 28.2054 42.7613 27.907 42.7613 27.3306C42.7613 26.9236 42.556 26.685 42.2153 26.5241ZM37.7645 29.2248L35.285 29.2272V28.5067L37.7045 28.5079V27.7608H35.285V27.1058H37.7645V26.3485H34.2259V29.9846H37.7645V29.2248ZM33.4355 26.3485H31.6715L30.3956 28.8138L29.0142 26.3481H27.2801L27.2816 29.7873L25.4846 26.3481H23.9064L22.009 29.9842H23.164L23.5702 29.1703H25.7754L26.1835 29.9842H28.3393V27.1332L29.8795 29.9842H30.8112L32.3475 27.1369V29.9842H33.4351V26.3481L33.4355 26.3485ZM50.5379 28.4134L49.8145 26.9691L49.0926 28.4134H50.5374H50.5379ZM41.368 27.8394C41.2251 27.9094 41.0533 27.9143 40.8484 27.9143H39.557V27.1054H40.8639C41.0513 27.1054 41.2416 27.1103 41.368 27.1685C41.4999 27.2286 41.5853 27.3404 41.5853 27.4939C41.5853 27.6503 41.5029 27.7756 41.368 27.8394ZM23.9504 28.4134L24.6718 26.9691L25.3952 28.4134H23.9504ZM59.9207 35.0879C59.9207 35.8617 59.3282 36.2326 58.2555 36.2326H56.2097V35.4531H58.248C58.4449 35.4531 58.5858 35.431 58.6742 35.3647C58.714 35.3344 58.7456 35.2976 58.7671 35.2567C58.7886 35.2158 58.7995 35.1717 58.7991 35.1272C58.8008 35.0817 58.79 35.0365 58.7676 34.9949C58.7453 34.9532 58.7118 34.9162 58.6697 34.8865C58.5903 34.8313 58.4824 34.8087 58.3005 34.8055C57.3108 34.7834 56.0658 34.8313 56.0658 33.678C56.0658 33.1569 56.469 32.5964 57.5836 32.5964H59.6959V33.3771H57.7624C57.5716 33.3771 57.4442 33.382 57.3408 33.4385C57.2284 33.4987 57.1829 33.5847 57.1829 33.7018C57.1829 33.8369 57.2793 33.9314 57.4157 33.9707C57.5236 34.0014 57.6455 34.0088 57.8224 34.0117L58.3909 34.024C58.9789 34.0346 59.3626 34.1144 59.6014 34.3163C59.8113 34.4968 59.9212 34.7093 59.9212 35.0879H59.9207ZM55.4608 34.3163C55.2225 34.1157 54.8354 34.0346 54.2474 34.0235L53.6803 34.0113C53.5035 34.0088 53.3836 34.0014 53.2742 33.9707C53.2054 33.9523 53.1457 33.9162 53.104 33.8677C53.0623 33.8192 53.0409 33.761 53.0428 33.7018C53.0428 33.5847 53.0878 33.4987 53.1987 33.4385C53.3026 33.382 53.4315 33.3771 53.6234 33.3771H55.5663V32.5964H53.443C52.3289 32.5964 51.9253 33.1557 51.9253 33.678C51.9253 34.8325 53.1702 34.7834 54.1589 34.8055C54.3403 34.8091 54.4502 34.8313 54.5281 34.8865C54.6031 34.9381 54.6585 35.0192 54.6585 35.1276C54.6585 35.2296 54.6031 35.3106 54.5326 35.3651C54.4442 35.431 54.3043 35.4531 54.1065 35.4531H52.0497V36.2326H54.114C55.1866 36.2326 55.7791 35.8613 55.7791 35.0879C55.7791 34.7097 55.6712 34.4968 55.4608 34.3163ZM51.4197 35.4764L48.9402 35.4752V34.758H51.3612V34.0088L48.9402 34.01V33.355H51.4197V32.5964H47.8811V36.2326H51.4197V35.4764ZM46.7485 32.7737C46.4053 32.6124 46.0092 32.5964 45.4736 32.5964H43.0316V36.2326H44.0887V34.9111L45.2288 34.9099C45.6145 34.9099 45.8458 34.9385 45.9982 35.0683C46.195 35.2402 46.171 35.5563 46.171 35.7728V36.2326H47.2391V35.5121C47.2376 35.1964 47.2122 35.029 47.0623 34.8534C46.9739 34.7465 46.774 34.6159 46.5427 34.5435C46.819 34.4538 47.2946 34.1562 47.2946 33.5785C47.2946 33.1733 47.0893 32.9346 46.7485 32.7737ZM40.752 32.5964H37.3648L36.0129 33.7902L34.714 32.5964H30.4475V36.2326H34.648L36.0024 35.0339L37.3064 36.2326H39.3686V35.0155H40.6856C41.6113 35.0155 42.529 34.8055 42.529 33.7988C42.529 32.7934 41.5873 32.5964 40.752 32.5964ZM45.9027 34.0899C45.7589 34.1574 45.5865 34.1627 45.3827 34.1627L44.0892 34.164V33.355H45.3977C45.585 33.355 45.7754 33.3599 45.9032 33.4164C46.0351 33.4778 46.1191 33.5896 46.1191 33.7435C46.1191 33.8991 46.0366 34.0248 45.9032 34.0899H45.9027ZM40.74 34.2696H39.3681V33.355H40.7515C41.1312 33.355 41.392 33.484 41.392 33.7988C41.392 34.1107 41.1427 34.2696 40.7395 34.2696H40.74ZM36.6864 34.4231L38.31 32.9911V35.9006L36.6864 34.4231ZM34.111 35.4752H31.5081V34.758H33.8287V34.0088L31.5081 34.01V33.355H34.1575L35.32 34.412L34.111 35.4752Z" fill="url(#paint0_radial_695_2992)"/>
<defs>
<radialGradient id="paint0_radial_695_2992" cx="0" cy="0" r="1" gradientUnits="userSpaceOnUse" gradientTransform="translate(28.1422 19.6162) scale(31.7522 26.0186)">
<stop stop-color="#7FD3F3"/>
<stop offset="1" stop-color="#017CC2"/>
</radialGradient>
</defs>
</svg>
