<svg width="42" height="32" viewBox="0 0 42 32" fill="none" xmlns="http://www.w3.org/2000/svg">
<path d="M41.1351 16.35C40.775 15.7624 40.1995 15.3665 39.5418 15.2365L41.0274 10.2292C41.1001 9.98399 41.0529 9.71881 40.8999 9.51385C40.747 9.30888 40.5062 9.18813 40.2504 9.18813H34.775V7.22764C34.775 5.88787 33.685 4.79789 32.3453 4.79789H16.659L14.7533 1.67626C14.113 0.626644 13.0409 0 11.8853 0H0.810455C0.362841 0 0 0.362841 0 0.810455V31.1895C0.0306352 31.6345 0.326127 31.9928 0.810455 32H15.4797C15.9273 32 16.2901 31.6372 16.2901 31.1895C16.2901 30.7419 15.9273 30.3791 15.4797 30.3791H2.1332L9.04889 16.8105H39.063C39.4721 16.8105 39.6818 17.0807 39.7531 17.197C39.8242 17.3132 39.9698 17.6227 39.784 17.9872L33.4681 30.3791H22.7738C22.3262 30.3791 21.9633 30.7419 21.9633 31.1895C21.9633 31.6372 22.3262 32 22.7738 32H33.9646C34.2694 32 34.5483 31.8291 34.6867 31.5576L41.2282 18.7232C41.6152 17.9639 41.5804 17.0767 41.1351 16.35ZM11.8853 1.62091C12.4711 1.62091 13.026 1.95717 13.3697 2.5206L15.5125 6.03059C15.6597 6.27171 15.9218 6.4188 16.2042 6.4188H32.3453C32.7912 6.4188 33.1541 6.78164 33.1541 7.22764V9.18813H7.09634C6.73747 9.18813 6.4214 9.42413 6.31936 9.76809L1.62091 25.6075V1.62091H11.8853ZM8.55232 15.1895C8.24759 15.1895 7.96863 15.3605 7.83021 15.632L4.09928 22.9522L7.70135 10.809H39.1647L37.865 15.1895H8.55232Z" fill="#367FD3"/>
<path d="M19.1267 32C19.5743 32 19.9372 31.6371 19.9372 31.1895C19.9372 30.7419 19.5743 30.3791 19.1267 30.3791C18.6791 30.3791 18.3163 30.7419 18.3163 31.1895C18.3163 31.6371 18.6791 32 19.1267 32Z" fill="#367FD3"/>
</svg>
