<svg width="441" height="444" viewBox="0 0 441 444" fill="none" xmlns="http://www.w3.org/2000/svg">
<g filter="url(#filter0_d_207_34)">
<path d="M113.226 418.39C112.748 418.412 112.275 418.287 111.871 418.031C111.467 417.775 111.151 417.402 110.967 416.961C110.782 416.52 110.738 416.033 110.84 415.565C110.941 415.098 111.184 414.674 111.536 414.349C111.594 414.116 111.637 413.948 111.695 413.714C111.238 412.553 110.444 411.555 109.416 410.848C108.388 410.141 107.171 409.757 105.923 409.745C104.675 409.733 103.452 410.094 102.41 410.782C101.368 411.47 100.556 412.452 100.077 413.605C97.3123 420.072 93.7344 426.768 95.5138 433.892C83.7603 408.994 87.7574 378.024 105.127 356.732C109.929 354.089 113.82 349.392 114.833 343.938C112.457 344.743 109.494 342.811 111.281 340.31C112.055 339.354 112.837 338.405 113.612 337.449C104.585 327.841 93.8307 342.941 103.766 355.909C100.516 359.982 97.7007 364.383 95.3662 369.041C95.9053 364.095 95.2619 359.092 93.4888 354.443C91.6919 350.11 88.3238 346.461 85.3577 342.715C81.7515 338.151 74.3293 340.257 73.844 346.049C77.1721 347.142 77.6045 351.947 73.7975 352.605C74.7947 363.379 81.8372 373.281 91.537 378.006C87.955 388.051 86.5563 398.745 87.4341 409.373C85.7219 396.952 72.3819 393.937 63.0578 389C62.4644 388.62 61.773 388.421 61.068 388.426C60.3631 388.432 59.675 388.642 59.0877 389.032C58.5004 389.422 58.0394 389.974 57.7608 390.622C57.4821 391.269 57.398 391.983 57.5187 392.677C58.8056 393.2 60.0373 393.85 61.1958 394.616C61.7386 394.981 62.1553 395.505 62.3886 396.116C62.622 396.726 62.6607 397.394 62.4994 398.028C62.3381 398.661 61.9846 399.23 61.4875 399.654C60.9905 400.079 60.3741 400.34 59.7228 400.401C64.4227 412.028 76.5739 419.835 89.054 419.791C90.2533 425 91.991 430.07 94.2391 434.92H112.762C112.828 434.714 112.888 434.502 112.948 434.296C111.233 434.404 109.512 434.302 107.822 433.991C112.359 428.623 115.867 425.884 113.227 418.391L113.226 418.39Z" fill="#F2F2F2"/>
<path d="M278.361 418.39C278.839 418.412 279.312 418.287 279.716 418.031C280.12 417.775 280.436 417.402 280.62 416.961C280.805 416.52 280.849 416.033 280.748 415.565C280.646 415.098 280.403 414.674 280.052 414.349C279.993 414.116 279.951 413.948 279.892 413.714C280.349 412.553 281.143 411.555 282.171 410.848C283.2 410.141 284.416 409.757 285.664 409.745C286.912 409.733 288.136 410.094 289.177 410.782C290.219 411.47 291.031 412.452 291.51 413.605C294.275 420.072 297.853 426.768 296.073 433.892C307.827 408.994 303.83 378.024 286.46 356.732C281.659 354.089 277.767 349.392 276.754 343.938C279.13 344.743 282.093 342.811 280.306 340.31C279.532 339.354 278.75 338.405 277.975 337.449C287.002 327.841 297.757 342.941 287.821 355.909C291.071 359.982 293.887 364.383 296.221 369.041C295.682 364.095 296.325 359.092 298.098 354.443C299.895 350.11 303.263 346.461 306.229 342.715C309.836 338.151 317.258 340.257 317.743 346.049C314.415 347.142 313.983 351.947 317.79 352.605C316.793 363.379 309.75 373.281 300.05 378.006C303.632 388.051 305.031 398.745 304.153 409.373C305.865 396.952 319.205 393.937 328.529 389C329.123 388.62 329.814 388.421 330.519 388.426C331.224 388.432 331.912 388.642 332.5 389.032C333.087 389.422 333.548 389.974 333.826 390.622C334.105 391.269 334.189 391.983 334.069 392.677C332.782 393.2 331.55 393.85 330.391 394.616C329.849 394.981 329.432 395.505 329.199 396.116C328.965 396.726 328.927 397.394 329.088 398.028C329.249 398.661 329.603 399.23 330.1 399.654C330.597 400.079 331.213 400.34 331.864 400.401C327.164 412.028 315.013 419.835 302.533 419.791C301.334 425 299.596 430.07 297.348 434.92H278.825C278.759 434.714 278.699 434.502 278.639 434.296C280.354 434.404 282.075 434.302 283.765 433.991C279.229 428.623 275.721 425.884 278.361 418.391L278.361 418.39Z" fill="#F2F2F2"/>
<path d="M285.229 421.139L277.252 422.953L266.456 393.063L278.229 390.386L285.229 421.139Z" fill="#FFB6B6"/>
<path d="M287.404 429.392L262.874 434.971L262.803 434.661C262.227 432.13 262.68 429.474 264.063 427.277C265.447 425.08 267.646 423.522 270.178 422.946L270.179 422.946L273.886 418.529L283.02 420.026L285.161 419.539L287.404 429.392Z" fill="#2F2E41"/>
<path d="M413.91 275.447L418.295 282.349L393.745 302.541L387.272 292.354L413.91 275.447Z" fill="#FFB6B6"/>
<path d="M420.96 270.63L434.446 291.856L434.178 292.027C431.985 293.418 429.33 293.882 426.795 293.317C424.261 292.752 422.055 291.203 420.662 289.012L420.662 289.012L415.256 287.003L413.602 277.9L412.425 276.047L420.96 270.63Z" fill="#2F2E41"/>
<path d="M159.634 201.65L157.663 190.236L187.617 176.717L194.085 165.271C193.876 164.266 193.949 163.223 194.296 162.258C194.643 161.292 195.25 160.441 196.05 159.799C196.85 159.156 197.813 158.747 198.831 158.617C199.849 158.487 200.884 158.641 201.82 159.061C202.756 159.482 203.558 160.153 204.136 161C204.715 161.848 205.048 162.838 205.099 163.863C205.15 164.888 204.916 165.907 204.424 166.807C203.931 167.707 203.2 168.454 202.309 168.965L191.668 185.408L159.634 201.65Z" fill="#A0616A"/>
<path d="M150.528 192.32L164.017 185.433L167.588 198.833L158.218 205.775L150.528 192.32Z" fill="#7367F0"/>
<path d="M120.26 420.101L128.416 420.101L132.296 388.658L120.258 388.659L120.26 420.101Z" fill="#A0616A"/>
<path d="M131.13 420.835V415.308L128.986 415.439L120.258 415.956L118.238 416.08L116.693 434.589L116.611 435.581H122.402L122.588 434.596L123.429 430.117L125.601 434.596L126.076 435.581H141.43C142.343 435.575 143.218 435.209 143.863 434.563C144.509 433.917 144.873 433.042 144.877 432.129C145.525 429.104 132.757 422.564 131.13 420.835Z" fill="#2F2E41"/>
<path d="M23.4469 295.318L21.5457 303.245L51.2327 314.348L54.0384 302.648L23.4469 295.318Z" fill="#A0616A"/>
<path d="M20.844 305.712L26.2208 307L26.5933 304.886L28.1256 296.282L28.4759 294.29L10.8284 288.474L9.88231 288.162L8.53204 293.79L9.44734 294.201L13.609 296.063L8.74488 297.129L7.67526 297.362L4.09546 312.285C3.88806 313.174 4.04004 314.109 4.51843 314.887C4.99682 315.665 5.76298 316.223 6.65052 316.44C9.44257 317.775 18.7819 306.89 20.844 305.712Z" fill="#2F2E41"/>
<path d="M132.871 216.606L122.373 211.701L101.438 237.023L88.6861 240.246C87.7715 239.781 86.7459 239.576 85.7226 239.656C84.6993 239.737 83.718 240.098 82.8872 240.7C82.0563 241.303 81.4083 242.123 81.0146 243.071C80.621 244.018 80.497 245.056 80.6564 246.07C80.8159 247.083 81.2525 248.033 81.918 248.814C82.5836 249.595 83.4522 250.177 84.4279 250.496C85.4036 250.814 86.4484 250.857 87.447 250.619C88.4455 250.382 89.359 249.873 90.0864 249.149L108.759 243.218L132.871 216.606Z" fill="#A0616A"/>
<path d="M281.703 122.866C279.477 122.866 277.302 122.207 275.452 120.971C273.602 119.735 272.16 117.979 271.308 115.924C270.457 113.869 270.234 111.608 270.668 109.427C271.102 107.245 272.174 105.242 273.747 103.669C275.321 102.096 277.325 101.025 279.508 100.591C281.69 100.158 283.952 100.38 286.008 101.231C288.064 102.082 289.821 103.524 291.058 105.373C292.294 107.222 292.954 109.397 292.954 111.621C292.95 114.602 291.764 117.46 289.655 119.569C287.545 121.677 284.686 122.863 281.703 122.866ZM281.703 101.666C279.733 101.666 277.807 102.25 276.169 103.344C274.531 104.437 273.255 105.992 272.501 107.811C271.747 109.63 271.55 111.632 271.934 113.563C272.319 115.494 273.267 117.268 274.66 118.66C276.053 120.052 277.828 121 279.76 121.384C281.692 121.768 283.694 121.571 285.514 120.818C287.334 120.064 288.89 118.788 289.984 117.151C291.078 115.514 291.663 113.59 291.663 111.621C291.66 108.981 290.609 106.451 288.742 104.585C286.875 102.719 284.343 101.669 281.703 101.666Z" fill="#E6E6E6"/>
<path d="M280.909 115.857C280.886 115.857 280.863 115.856 280.841 115.855C280.641 115.846 280.446 115.793 280.268 115.701C280.091 115.609 279.935 115.479 279.813 115.321L278.04 113.044C277.928 112.9 277.846 112.736 277.798 112.56C277.749 112.385 277.736 112.201 277.758 112.02C277.781 111.84 277.839 111.665 277.929 111.507C278.019 111.348 278.14 111.209 278.284 111.098L278.347 111.048C278.491 110.936 278.656 110.854 278.831 110.805C279.007 110.757 279.191 110.744 279.372 110.766C279.552 110.789 279.727 110.847 279.886 110.937C280.044 111.027 280.183 111.147 280.295 111.291C280.385 111.406 280.498 111.5 280.627 111.567C280.756 111.635 280.899 111.673 281.044 111.68C281.19 111.687 281.335 111.663 281.47 111.608C281.605 111.554 281.727 111.472 281.828 111.366L285.426 107.569C285.68 107.302 286.028 107.147 286.396 107.137C286.764 107.127 287.121 107.263 287.388 107.515L287.447 107.572C287.579 107.697 287.686 107.847 287.76 108.013C287.834 108.18 287.875 108.359 287.88 108.541C287.885 108.723 287.854 108.904 287.789 109.074C287.723 109.245 287.625 109.4 287.5 109.532L281.916 115.424C281.786 115.561 281.63 115.67 281.457 115.744C281.284 115.819 281.097 115.857 280.909 115.857Z" fill="#7367F0"/>
<path d="M225.537 259.015C223.312 259.015 221.136 258.355 219.286 257.12C217.436 255.884 215.994 254.128 215.142 252.073C214.291 250.018 214.068 247.757 214.502 245.576C214.936 243.394 216.008 241.391 217.581 239.818C219.155 238.245 221.159 237.174 223.342 236.74C225.524 236.306 227.787 236.529 229.842 237.38C231.898 238.231 233.656 239.673 234.892 241.522C236.128 243.371 236.788 245.545 236.788 247.77C236.785 250.751 235.598 253.609 233.489 255.718C231.38 257.826 228.52 259.012 225.537 259.015ZM225.537 237.815C223.567 237.815 221.641 238.399 220.004 239.492C218.366 240.586 217.089 242.141 216.335 243.96C215.581 245.779 215.384 247.781 215.768 249.712C216.153 251.643 217.101 253.416 218.494 254.809C219.887 256.201 221.662 257.149 223.594 257.533C225.526 257.917 227.528 257.72 229.348 256.967C231.168 256.213 232.724 254.937 233.818 253.3C234.913 251.663 235.497 249.738 235.497 247.77C235.494 245.13 234.443 242.6 232.576 240.734C230.709 238.867 228.178 237.818 225.537 237.815Z" fill="#E6E6E6"/>
<path d="M224.743 252.006C224.72 252.006 224.698 252.005 224.675 252.004C224.475 251.995 224.28 251.942 224.103 251.85C223.925 251.758 223.77 251.628 223.647 251.47L221.875 249.193C221.763 249.049 221.68 248.885 221.632 248.709C221.584 248.533 221.57 248.35 221.593 248.169C221.616 247.989 221.674 247.814 221.764 247.656C221.854 247.497 221.974 247.358 222.118 247.246L222.182 247.197C222.326 247.085 222.49 247.002 222.666 246.954C222.842 246.906 223.025 246.892 223.206 246.915C223.387 246.938 223.562 246.996 223.72 247.086C223.878 247.176 224.018 247.296 224.129 247.44C224.219 247.555 224.332 247.649 224.462 247.716C224.591 247.783 224.733 247.822 224.879 247.829C225.024 247.836 225.17 247.812 225.305 247.757C225.44 247.703 225.562 247.62 225.662 247.515L229.261 243.718C229.514 243.451 229.863 243.296 230.231 243.286C230.598 243.276 230.955 243.412 231.223 243.664L231.282 243.721C231.414 243.846 231.52 243.996 231.594 244.162C231.669 244.328 231.71 244.508 231.714 244.69C231.719 244.872 231.688 245.053 231.623 245.223C231.558 245.393 231.46 245.549 231.334 245.681L225.75 251.573C225.62 251.71 225.464 251.819 225.291 251.893C225.118 251.968 224.932 252.006 224.743 252.006Z" fill="#7367F0"/>
<path d="M102.231 107.38C100.006 107.38 97.8303 106.72 95.98 105.485C94.1298 104.249 92.6877 102.493 91.8362 100.438C90.9846 98.3831 90.7618 96.1221 91.1959 93.9407C91.63 91.7593 92.7016 89.7556 94.2751 88.1829C95.8486 86.6102 97.8533 85.5392 100.036 85.1053C102.218 84.6714 104.48 84.8941 106.536 85.7452C108.592 86.5963 110.349 88.0377 111.586 89.887C112.822 91.7362 113.482 93.9104 113.482 96.1345C113.478 99.116 112.292 101.974 110.183 104.083C108.074 106.191 105.214 107.377 102.231 107.38ZM102.231 86.1797C100.261 86.1797 98.3353 86.7636 96.6974 87.8574C95.0595 88.9513 93.7829 90.506 93.0291 92.325C92.2752 94.144 92.078 96.1456 92.4623 98.0766C92.8466 100.008 93.7952 101.781 95.1881 103.174C96.581 104.566 98.3557 105.514 100.288 105.898C102.22 106.282 104.222 106.085 106.042 105.332C107.862 104.578 109.418 103.302 110.512 101.665C111.607 100.028 112.191 98.1034 112.191 96.1345C112.188 93.4953 111.137 90.965 109.27 89.0987C107.403 87.2325 104.871 86.1827 102.231 86.1797Z" fill="#E6E6E6"/>
<path d="M101.437 100.371C101.414 100.371 101.392 100.37 101.369 100.369C101.169 100.36 100.974 100.307 100.797 100.215C100.619 100.123 100.464 99.9931 100.341 99.8353L98.5686 97.5578C98.4567 97.4141 98.3742 97.2497 98.3258 97.0741C98.2775 96.8985 98.2642 96.7151 98.2868 96.5343C98.3094 96.3536 98.3674 96.179 98.4575 96.0207C98.5476 95.8623 98.668 95.7233 98.8118 95.6115L98.8756 95.5619C99.0194 95.4499 99.1839 95.3674 99.3597 95.3191C99.5354 95.2707 99.719 95.2575 99.8999 95.2801C100.081 95.3027 100.255 95.3607 100.414 95.4508C100.572 95.5409 100.711 95.6613 100.823 95.8051C100.913 95.92 101.026 96.0142 101.155 96.0813C101.285 96.1484 101.427 96.1868 101.573 96.1939C101.718 96.201 101.863 96.1766 101.999 96.1224C102.134 96.0681 102.256 95.9854 102.356 95.8797L105.955 92.0826C106.208 91.8159 106.557 91.6605 106.924 91.6505C107.292 91.6405 107.649 91.7767 107.916 92.0293L107.975 92.0855C108.108 92.2107 108.214 92.3608 108.288 92.5271C108.363 92.6935 108.403 92.8728 108.408 93.0549C108.413 93.237 108.382 93.4182 108.317 93.5883C108.252 93.7584 108.154 93.914 108.028 94.0462L102.444 99.9378C102.314 100.075 102.158 100.184 101.985 100.258C101.812 100.333 101.625 100.371 101.437 100.371Z" fill="#7367F0"/>
<path d="M192.307 300.826C166.217 300.826 136.233 271.889 109.705 285.638C29.385 327.266 40.4415 257.608 17.3662 231.702L18.1238 230.183C43.5847 253.001 75.3735 271.567 110.054 283.871C141.394 294.992 172.969 300.145 201.354 298.785L201.403 300.61C198.406 300.755 195.373 300.827 192.307 300.826Z" fill="#F2F2F2"/>
<path d="M156.518 105.179C159.53 105.179 161.971 101.906 161.971 97.8695C161.971 93.8328 159.53 90.5604 156.518 90.5604C153.506 90.5604 151.064 93.8328 151.064 97.8695C151.064 101.906 153.506 105.179 156.518 105.179Z" fill="#E6E6E6"/>
<path d="M219.505 219.202C217.012 220.862 214.46 216.91 217.002 215.324C219.495 213.663 222.046 217.615 219.505 219.202Z" fill="#E6E6E6"/>
<path d="M205.155 86.1609C209.077 86.1609 212.256 82.9831 212.256 79.0631C212.256 75.1431 209.077 71.9653 205.155 71.9653C201.233 71.9653 198.053 75.1431 198.053 79.0631C198.053 82.9831 201.233 86.1609 205.155 86.1609Z" fill="#FF6584"/>
<path opacity="0.3" d="M229.993 117.958L270.402 7.62939e-06L226.03 116.546C225.81 116.823 225.66 117.148 225.591 117.494C225.523 117.841 225.538 118.198 225.635 118.538C225.732 118.877 225.909 119.188 226.151 119.446C226.392 119.703 226.692 119.899 227.025 120.018C227.357 120.136 227.714 120.174 228.064 120.128C228.414 120.081 228.748 119.952 229.038 119.75C229.328 119.549 229.566 119.281 229.732 118.97C229.898 118.658 229.987 118.311 229.993 117.958H229.993Z" fill="#F0F0F0"/>
<path d="M189.205 261.666C193.021 261.666 196.114 258.574 196.114 254.761C196.114 250.947 193.021 247.855 189.205 247.855C185.389 247.855 182.295 250.947 182.295 254.761C182.295 258.574 185.389 261.666 189.205 261.666Z" fill="#F2F2F2"/>
<path d="M122.287 257.395C122.287 257.395 105.063 268.605 109.617 276.054C109.774 276.311 89.0426 303.678 89.0426 303.678L49.9062 301.195L48.5273 314.287L83.3693 324.373C83.3693 324.373 91.8931 330.632 98.4779 323.736C105.063 316.84 126.996 295.722 126.996 295.722L128.054 338.359L117.043 397.44L133.483 396.398L149.484 337.125L155.39 269.983L122.287 257.395Z" fill="#2F2E41"/>
<path d="M134.556 190.115L127.313 195.601L119.057 213.213L126.996 223.989C126.996 223.989 133.674 235.556 122.985 246.758C112.296 257.96 104.088 269.925 112.643 269.498C121.199 269.07 155.849 286.685 156.077 272.254C156.305 257.823 156.766 246.758 156.766 246.758L165.851 223.728C165.851 223.728 171.263 209.99 167.463 205.877C163.663 201.765 158.575 196.51 158.575 196.51L149.323 187.262H140.969L134.556 190.115Z" fill="#7367F0"/>
<path d="M148.077 156.277C164.327 165.519 150.987 189.904 134.434 181.22C118.185 171.979 131.525 147.594 148.077 156.277Z" fill="#A0616A"/>
<path d="M156.766 161.401C155.628 162.881 153.249 162.187 148.591 163.243C148.601 161.665 148.418 160.092 148.047 158.557C147.701 160.457 146.941 162.257 145.822 163.831C141.777 164.279 146.736 176.562 144.665 185.592C141.996 166.541 136.384 171.532 139.219 175.311C141.034 177.73 139.824 184.987 134.378 181.359C125.393 185.627 112.596 164.425 126.779 154.482C126.526 149.107 132.509 148.258 136.194 149.91C145.135 143.253 155.351 151.783 156.766 161.401Z" fill="#2F2E41"/>
<path d="M115.074 147.5C111.456 169.732 92.0651 143.411 82.9476 165.289C80.0809 173.213 84.9994 178.88 88.1105 185.457C88.8205 190.862 81.7859 193.604 81.0491 198.579C80.844 209.985 99.2544 209.287 104.401 202.091C109.69 194.558 103.374 184.451 106.553 176.365C111.021 165.139 129.19 165.056 130.772 151.996C127.707 147.633 119.464 142.636 115.074 147.5Z" fill="#2F2E41"/>
<path d="M129.729 149.672C129.611 149.722 129.493 149.772 129.387 149.828H129.38C129.281 149.878 129.181 149.927 129.081 149.983C129.069 149.99 129.063 149.996 129.05 150.002C128.919 149.878 128.789 149.753 128.652 149.629C128.616 149.831 128.625 150.039 128.676 150.239L128.695 150.313C128.82 150.444 128.951 150.569 129.088 150.699C129.212 150.606 129.331 150.506 129.455 150.413C129.53 150.351 129.605 150.288 129.686 150.226C129.698 150.064 129.717 149.878 129.735 149.672L129.729 149.672ZM133.479 142.749C130.701 142.114 129.804 145.744 129.536 147.493C128.527 141.143 124.329 143.141 125.78 147.474C126.243 148.757 126.971 149.928 127.917 150.911C128.047 151.06 128.191 151.21 128.34 151.359C128.172 152.231 129.019 152.007 130.165 151.204C131.012 150.602 131.794 149.916 132.501 149.155C134.787 146.758 136.569 143.552 133.479 142.749ZM133.566 146.323C132.709 147.427 131.748 148.447 130.695 149.367C130.365 149.666 130.028 149.952 129.686 150.226C129.679 150.282 129.679 150.332 129.673 150.376C129.649 150.436 129.62 150.494 129.586 150.55C129.237 151.179 128.845 150.836 128.695 150.313C128.683 150.295 128.664 150.276 128.652 150.257C128.154 149.743 127.721 149.171 127.362 148.551C124.79 144.094 128.932 141.062 128.726 149.386C128.688 149.462 128.663 149.544 128.652 149.629C128.616 149.831 128.625 150.039 128.676 150.239L128.695 150.313C128.82 150.444 128.951 150.569 129.088 150.699C129.212 150.606 129.331 150.506 129.455 150.413C129.53 150.351 129.605 150.288 129.686 150.226C129.698 150.064 129.717 149.878 129.735 149.672V149.666C129.897 147.997 130.34 144.996 131.156 144.181C132.95 142.805 135.273 144.293 133.566 146.323ZM129.729 149.672C129.611 149.722 129.493 149.772 129.387 149.828H129.38C129.281 149.878 129.181 149.927 129.081 149.983C129.069 149.99 129.063 149.996 129.05 150.002C128.919 149.878 128.789 149.753 128.652 149.629C128.616 149.831 128.625 150.039 128.676 150.239L128.695 150.313C128.82 150.444 128.951 150.569 129.088 150.699C129.212 150.606 129.331 150.506 129.455 150.413C129.53 150.351 129.605 150.288 129.686 150.226C129.698 150.064 129.717 149.878 129.735 149.672L129.729 149.672Z" fill="#2F2E41"/>
<path d="M372.753 149.624C372.841 150.503 372.735 151.392 372.443 152.226C372.151 153.061 371.679 153.821 371.061 154.454C370.443 155.086 369.693 155.576 368.866 155.888C368.038 156.199 367.152 156.326 366.269 156.258L343.551 199.443L337.452 190.085L360.673 149.328C360.885 147.854 361.63 146.509 362.767 145.548C363.905 144.587 365.355 144.076 366.844 144.113C368.333 144.149 369.757 144.73 370.846 145.746C371.935 146.762 372.613 148.141 372.753 149.624Z" fill="#FFB6B6"/>
<path d="M301.232 206.487C301.232 206.487 300.331 214.168 308.983 216.07C317.636 217.972 341.606 204.282 345.536 202.191C346.767 201.536 348.436 198.327 350.15 194.227C350.919 192.386 351.697 190.366 352.448 188.317C352.882 187.131 354.963 186.808 355.372 185.632C355.779 184.462 354.516 182.44 354.884 181.338C356.635 176.107 357.875 171.956 357.875 171.956L352.14 161.19C344.12 165.428 340.007 174.762 336.981 185.517L301.232 206.487Z" fill="#7367F0"/>
<path d="M200.186 159.541C200.32 160.414 200.645 161.248 201.137 161.983C201.629 162.718 202.276 163.336 203.033 163.794C203.79 164.252 204.638 164.538 205.518 164.633C206.397 164.728 207.287 164.629 208.124 164.343L240.932 200.471L244.494 189.884L211.807 156.233C211.233 154.859 210.175 153.743 208.833 153.097C207.491 152.451 205.959 152.32 204.526 152.727C203.094 153.135 201.861 154.054 201.061 155.31C200.261 156.565 199.949 158.071 200.186 159.541Z" fill="#FFB6B6"/>
<path d="M283.668 196.705C283.668 196.705 286.464 203.916 278.563 207.922C270.662 211.927 244.027 204.669 239.698 203.627C238.343 203.301 235.923 200.612 233.238 197.071C232.032 195.481 230.773 193.72 229.533 191.924C228.815 190.885 226.72 191.092 226.029 190.056C225.342 189.025 226.059 186.752 225.426 185.777C222.422 181.149 220.182 177.441 220.182 177.441L223.038 165.583C231.864 167.68 238.184 175.689 243.806 185.344L283.668 196.705Z" fill="#7367F0"/>
<path d="M292.187 182.819C301.092 182.819 308.311 175.604 308.311 166.703C308.311 157.803 301.092 150.587 292.187 150.587C283.282 150.587 276.063 157.803 276.063 166.703C276.063 175.604 283.282 182.819 292.187 182.819Z" fill="#FFB6B6"/>
<path d="M310.593 157.476C308.897 154.853 305.714 153.105 302.628 153.596C302.341 151.628 301.519 149.777 300.252 148.243C298.985 146.709 297.321 145.553 295.442 144.899C293.562 144.245 291.54 144.119 289.594 144.535C287.648 144.95 285.853 145.891 284.405 147.256C283.929 146.921 283.374 146.714 282.795 146.656C282.215 146.598 281.631 146.691 281.098 146.925C280.036 147.408 279.112 148.149 278.411 149.081C276.64 151.288 275.501 153.933 275.116 156.735C274.73 159.538 275.112 162.392 276.221 164.995C275.843 163.625 277.217 162.336 278.605 162.028C279.993 161.721 281.449 162.011 282.857 161.811C284.661 161.555 286.283 160.509 288.09 160.273C289.622 160.174 291.159 160.371 292.617 160.855C294.074 161.338 295.608 161.544 297.142 161.462C298.662 161.281 300.621 167.042 300.595 171.099C300.59 171.868 300.749 172.855 301.5 173.019C302.426 173.22 302.963 171.942 303.844 171.594C304.25 171.478 304.686 171.524 305.059 171.722C305.432 171.92 305.713 172.256 305.844 172.657C305.955 173.065 305.967 173.494 305.878 173.908C305.79 174.322 305.604 174.709 305.336 175.036C304.794 175.685 304.151 176.243 303.432 176.687L303.795 176.989C304.139 177.353 304.6 177.586 305.097 177.647C305.594 177.709 306.098 177.596 306.521 177.327C307.353 176.764 308.027 175.997 308.478 175.1C310.179 172.471 311.395 169.559 312.068 166.501C312.637 163.431 312.289 160.098 310.593 157.476Z" fill="#2F2E41"/>
<path d="M429.879 221.038C409.081 236.782 367.699 231.808 354.857 258.777C315.975 340.431 282.711 278.23 248.667 271.504L248.353 269.836C282.434 272.661 318.989 268.278 354.068 257.158C385.769 247.111 414.052 232.164 435.858 213.951L437 215.376C434.698 217.3 432.324 219.188 429.879 221.038Z" fill="#F2F2F2"/>
<path d="M341.947 434.9C341.451 436.366 58.6387 436.366 58.1042 434.903C58.599 433.433 341.411 433.433 341.947 434.9Z" fill="#CCCCCC"/>
<path d="M279.919 272.245L273.918 287.888L245.765 343.393L270.503 407.962L283.27 404.593L272.747 343.393L302.937 306.729L338.79 331.034C338.79 331.034 354.691 343.441 360.74 331.679C366.789 319.917 405.93 294.9 405.93 294.9L396.247 284.576L351.173 305.658L320.063 261.892L279.919 272.245Z" fill="#2F2E41"/>
<path d="M310.201 198.457L300.322 187.848L283.376 185.518L262.611 200.047L262.821 216.129L273.085 254.024C273.085 254.024 269.175 281.25 280.096 280.977C291.017 280.704 296.969 275.262 301.417 276.37C305.865 277.478 324.773 282.192 325.971 277.254C327.169 272.316 333.539 275.852 333.259 271.18C332.98 266.508 316.016 232.835 316.016 232.835L320.234 199.157L310.201 198.457Z" fill="#7367F0"/>
</g>
<defs>
<filter id="filter0_d_207_34" x="0" y="0" width="441" height="444" filterUnits="userSpaceOnUse" color-interpolation-filters="sRGB">
<feFlood flood-opacity="0" result="BackgroundImageFix"/>
<feColorMatrix in="SourceAlpha" type="matrix" values="0 0 0 0 0 0 0 0 0 0 0 0 0 0 0 0 0 0 127 0" result="hardAlpha"/>
<feOffset dy="4"/>
<feGaussianBlur stdDeviation="2"/>
<feComposite in2="hardAlpha" operator="out"/>
<feColorMatrix type="matrix" values="0 0 0 0 0 0 0 0 0 0 0 0 0 0 0 0 0 0 0.25 0"/>
<feBlend mode="normal" in2="BackgroundImageFix" result="effect1_dropShadow_207_34"/>
<feBlend mode="normal" in="SourceGraphic" in2="effect1_dropShadow_207_34" result="shape"/>
</filter>
</defs>
</svg>
