<svg width="101" height="16" viewBox="0 0 101 16" fill="none" xmlns="http://www.w3.org/2000/svg">
<g clip-path="url(#clip0_207_85)">
<path d="M8.26579 0.391159C8.50635 -0.130387 9.2476 -0.130386 9.48816 0.39116L11.4577 4.66116C11.5558 4.87372 11.7572 5.02008 11.9897 5.04764L16.6593 5.6013C17.2297 5.66892 17.4587 6.37389 17.037 6.76385L13.5847 9.95652C13.4128 10.1154 13.3359 10.3523 13.3815 10.5818L14.2979 15.194C14.4098 15.7574 13.8102 16.1931 13.309 15.9125L9.20573 13.6157C9.00147 13.5014 8.75248 13.5014 8.54822 13.6157L4.44497 15.9125C3.94379 16.1931 3.34411 15.7574 3.45604 15.194L4.37248 10.5818C4.4181 10.3523 4.34115 10.1154 4.16929 9.95652L0.716908 6.76385C0.295227 6.37389 0.524287 5.66892 1.09465 5.6013L5.76428 5.04764C5.99674 5.02008 6.19818 4.87372 6.29622 4.66116L8.26579 0.391159Z" fill="#FD8C04"/>
<path d="M29.0197 0.391159C29.2603 -0.130387 30.0015 -0.130386 30.2421 0.39116L32.2116 4.66116C32.3097 4.87372 32.5111 5.02008 32.7436 5.04764L37.4132 5.6013C37.9836 5.66892 38.2126 6.37389 37.7909 6.76385L34.3386 9.95652C34.1667 10.1154 34.0898 10.3523 34.1354 10.5818L35.0518 15.194C35.1637 15.7574 34.5641 16.1931 34.0629 15.9125L29.9596 13.6157C29.7554 13.5014 29.5064 13.5014 29.3021 13.6157L25.1989 15.9125C24.6977 16.1931 24.098 15.7574 24.2099 15.194L25.1264 10.5818C25.172 10.3523 25.0951 10.1154 24.9232 9.95652L21.4708 6.76385C21.0491 6.37389 21.2782 5.66892 21.8486 5.6013L26.5182 5.04764C26.7506 5.02008 26.9521 4.87372 27.0501 4.66116L29.0197 0.391159Z" fill="#FD8C04"/>
<path d="M49.7736 0.391159C50.0142 -0.130387 50.7554 -0.130386 50.996 0.39116L52.9655 4.66116C53.0636 4.87372 53.265 5.02008 53.4975 5.04764L58.1671 5.6013C58.7375 5.66892 58.9665 6.37389 58.5449 6.76385L55.0925 9.95652C54.9206 10.1154 54.8437 10.3523 54.8893 10.5818L55.8057 15.194C55.9177 15.7574 55.318 16.1931 54.8168 15.9125L50.7135 13.6157C50.5093 13.5014 50.2603 13.5014 50.056 13.6157L45.9528 15.9125C45.4516 16.1931 44.8519 15.7574 44.9639 15.194L45.8803 10.5818C45.9259 10.3523 45.849 10.1154 45.6771 9.95652L42.2247 6.76385C41.803 6.37389 42.0321 5.66892 42.6025 5.6013L47.2721 5.04764C47.5046 5.02008 47.706 4.87372 47.804 4.66116L49.7736 0.391159Z" fill="#FD8C04"/>
<path d="M70.5275 0.391159C70.7681 -0.130387 71.5093 -0.130386 71.7499 0.39116L73.7194 4.66116C73.8175 4.87372 74.0189 5.02008 74.2514 5.04764L78.921 5.6013C79.4914 5.66892 79.7204 6.37389 79.2988 6.76385L75.8464 9.95652C75.6745 10.1154 75.5976 10.3523 75.6432 10.5818L76.5596 15.194C76.6716 15.7574 76.0719 16.1931 75.5707 15.9125L71.4675 13.6157C71.2632 13.5014 71.0142 13.5014 70.8099 13.6157L66.7067 15.9125C66.2055 16.1931 65.6058 15.7574 65.7178 15.194L66.6342 10.5818C66.6798 10.3523 66.6029 10.1154 66.431 9.95652L62.9786 6.76385C62.5569 6.37389 62.786 5.66892 63.3564 5.6013L68.026 5.04764C68.2585 5.02008 68.4599 4.87372 68.5579 4.66116L70.5275 0.391159Z" fill="#FD8C04"/>
<path d="M91.2814 0.391159C91.522 -0.130387 92.2632 -0.130386 92.5038 0.39116L94.4734 4.66116C94.5714 4.87372 94.7728 5.02008 95.0053 5.04764L99.6749 5.6013C100.245 5.66892 100.474 6.37389 100.053 6.76385L96.6003 9.95652C96.4284 10.1154 96.3515 10.3523 96.3971 10.5818L97.3135 15.194C97.4255 15.7574 96.8258 16.1931 96.3246 15.9125L92.2214 13.6157C92.0171 13.5014 91.7681 13.5014 91.5638 13.6157L87.4606 15.9125C86.9594 16.1931 86.3597 15.7574 86.4717 15.194L87.3881 10.5818C87.4337 10.3523 87.3568 10.1154 87.1849 9.95652L83.7325 6.76385C83.3109 6.37389 83.5399 5.66892 84.1103 5.6013L88.7799 5.04764C89.0124 5.02008 89.2138 4.87372 89.3118 4.66116L91.2814 0.391159Z" fill="#FD8C04"/>
</g>
<defs>
<clipPath id="clip0_207_85">
<rect width="100" height="16" fill="white" transform="translate(0.5)"/>
</clipPath>
</defs>
</svg>
