<svg width="48" height="48" viewBox="0 0 48 48" fill="none" xmlns="http://www.w3.org/2000/svg">
<path fill-rule="evenodd" clip-rule="evenodd" d="M6.5 6C6.5 4.067 8.067 2.5 10 2.5H31C31.4252 2.5 31.8305 2.68048 32.1149 2.99655L41.1149 12.9966C41.3628 13.272 41.5 13.6294 41.5 14V42C41.5 43.933 39.933 45.5 38 45.5H10C8.06702 45.5 6.5 43.933 6.5 42V6ZM10 5.5C9.72386 5.5 9.5 5.72386 9.5 6V42C9.5 42.2762 9.72384 42.5 10 42.5H38C38.2762 42.5 38.5 42.2762 38.5 42V14.5756L30.332 5.5H10Z" fill="url(#paint0_linear_878_3124)"/>
<path fill-rule="evenodd" clip-rule="evenodd" d="M32.9499 21.8391C33.5911 22.3637 33.6856 23.3087 33.161 23.9499L24.161 34.9499C23.9076 35.2596 23.5409 35.4552 23.1426 35.4933C22.7442 35.5313 22.3472 35.4086 22.0398 35.1524L16.0398 30.1524C15.4033 29.622 15.3174 28.6762 15.8477 28.0398C16.3781 27.4034 17.3239 27.3174 17.9603 27.8477L22.7976 31.8787L30.8391 22.0502C31.3637 21.409 32.3087 21.3145 32.9499 21.8391Z" fill="url(#paint1_linear_878_3124)"/>
<path fill-rule="evenodd" clip-rule="evenodd" d="M30 2.5C30.8284 2.5 31.5 3.17157 31.5 4V12.5H40C40.8284 12.5 41.5 13.1716 41.5 14C41.5 14.8284 40.8284 15.5 40 15.5H30C29.1716 15.5 28.5 14.8284 28.5 14V4C28.5 3.17157 29.1716 2.5 30 2.5Z" fill="url(#paint2_linear_878_3124)"/>
<defs>
<linearGradient id="paint0_linear_878_3124" x1="24" y1="2.5" x2="24" y2="45.5" gradientUnits="userSpaceOnUse">
<stop stop-color="#367FD3"/>
<stop offset="1" stop-color="#2AA5DE"/>
</linearGradient>
<linearGradient id="paint1_linear_878_3124" x1="24.5" y1="21.5" x2="24.5" y2="35.5" gradientUnits="userSpaceOnUse">
<stop stop-color="#367FD3"/>
<stop offset="1" stop-color="#2AA5DE"/>
</linearGradient>
<linearGradient id="paint2_linear_878_3124" x1="35" y1="2.5" x2="35" y2="15.5" gradientUnits="userSpaceOnUse">
<stop stop-color="#367FD3"/>
<stop offset="1" stop-color="#2AA5DE"/>
</linearGradient>
</defs>
</svg>
