<svg width="46" height="46" viewBox="0 0 46 46" fill="none" xmlns="http://www.w3.org/2000/svg">
<path fill-rule="evenodd" clip-rule="evenodd" d="M6.22852 5.75004C6.22852 3.89759 7.73023 2.39587 9.58268 2.39587H29.7077C30.1152 2.39587 30.5036 2.56884 30.7762 2.87174L39.4012 12.4551C39.6387 12.719 39.7702 13.0616 39.7702 13.4167V40.25C39.7702 42.1025 38.2685 43.6042 36.416 43.6042H9.58268C7.73024 43.6042 6.22852 42.1025 6.22852 40.25V5.75004ZM9.58268 5.27087C9.31805 5.27087 9.10352 5.4854 9.10352 5.75004V40.25C9.10352 40.5147 9.31803 40.7292 9.58268 40.7292H36.416C36.6807 40.7292 36.8952 40.5147 36.8952 40.25V13.9683L29.0675 5.27087H9.58268Z" fill="url(#paint0_linear_878_3128)"/>
<path fill-rule="evenodd" clip-rule="evenodd" d="M22.9998 16.7709C23.5626 16.7709 24.0737 17.0993 24.3074 17.6113L26.3885 22.1693L31.3663 22.7399C31.9255 22.804 32.3958 23.1885 32.5698 23.7238C32.7437 24.2591 32.5892 24.8467 32.1745 25.2272L28.4827 28.6149L29.4783 33.5256C29.5901 34.0772 29.3697 34.6433 28.9144 34.9742C28.4591 35.305 27.8525 35.3396 27.3625 35.0628L22.9998 32.5985L18.6371 35.0628C18.147 35.3396 17.5405 35.305 17.0852 34.9742C16.6298 34.6433 16.4094 34.0772 16.5213 33.5256L17.5168 28.6149L13.825 25.2272C13.4103 24.8467 13.2559 24.2591 13.4298 23.7238C13.6037 23.1885 14.074 22.804 14.6332 22.7399L19.6111 22.1693L21.6921 17.6113C21.9259 17.0993 22.4369 16.7709 22.9998 16.7709ZM22.9998 21.6695L21.8892 24.102C21.6799 24.5604 21.2459 24.8757 20.7452 24.9331L18.0887 25.2376L20.0589 27.0455C20.4302 27.3862 20.596 27.8965 20.4958 28.3903L19.9645 31.011L22.2928 29.6959C22.7315 29.448 23.268 29.448 23.7068 29.6959L26.035 31.011L25.5037 28.3903C25.4036 27.8965 25.5694 27.3862 25.9407 27.0455L27.9109 25.2376L25.2543 24.9331C24.7537 24.8757 24.3197 24.5604 24.1104 24.102L22.9998 21.6695Z" fill="url(#paint1_linear_878_3128)"/>
<path fill-rule="evenodd" clip-rule="evenodd" d="M28.75 2.39587C29.5439 2.39587 30.1875 3.03946 30.1875 3.83337V11.9792H38.3333C39.1272 11.9792 39.7708 12.6228 39.7708 13.4167C39.7708 14.2106 39.1272 14.8542 38.3333 14.8542H28.75C27.9561 14.8542 27.3125 14.2106 27.3125 13.4167V3.83337C27.3125 3.03946 27.9561 2.39587 28.75 2.39587Z" fill="url(#paint2_linear_878_3128)"/>
<defs>
<linearGradient id="paint0_linear_878_3128" x1="22.9993" y1="2.39587" x2="22.9993" y2="43.6042" gradientUnits="userSpaceOnUse">
<stop stop-color="#367FD3"/>
<stop offset="1" stop-color="#2AA5DE"/>
</linearGradient>
<linearGradient id="paint1_linear_878_3128" x1="22.9998" y1="16.7709" x2="22.9998" y2="35.2487" gradientUnits="userSpaceOnUse">
<stop stop-color="#367FD3"/>
<stop offset="1" stop-color="#2AA5DE"/>
</linearGradient>
<linearGradient id="paint2_linear_878_3128" x1="33.5417" y1="2.39587" x2="33.5417" y2="14.8542" gradientUnits="userSpaceOnUse">
<stop stop-color="#367FD3"/>
<stop offset="1" stop-color="#2AA5DE"/>
</linearGradient>
</defs>
</svg>
