<svg width="42" height="42" viewBox="0 0 42 42" fill="none" xmlns="http://www.w3.org/2000/svg">
<path fill-rule="evenodd" clip-rule="evenodd" d="M4.8125 23.625C4.8125 14.6849 12.0599 7.4375 21 7.4375C29.9401 7.4375 37.1875 14.6849 37.1875 23.625C37.1875 32.5651 29.9401 39.8125 21 39.8125C12.0599 39.8125 4.8125 32.5651 4.8125 23.625ZM21 10.0625C13.5097 10.0625 7.4375 16.1347 7.4375 23.625C7.4375 31.1153 13.5097 37.1875 21 37.1875C28.4903 37.1875 34.5625 31.1153 34.5625 23.625C34.5625 16.1347 28.4903 10.0625 21 10.0625Z" fill="url(#paint0_linear_878_3132)"/>
<path fill-rule="evenodd" clip-rule="evenodd" d="M13.5625 3.5C13.5625 2.77513 14.1501 2.1875 14.875 2.1875H27.125C27.8499 2.1875 28.4375 2.77513 28.4375 3.5C28.4375 4.22487 27.8499 4.8125 27.125 4.8125H14.875C14.1501 4.8125 13.5625 4.22487 13.5625 3.5Z" fill="url(#paint1_linear_878_3132)"/>
<path fill-rule="evenodd" clip-rule="evenodd" d="M34.1781 7.82192C34.6906 8.33449 34.6906 9.16551 34.1781 9.67808L31.5531 12.3031C31.0405 12.8156 30.2095 12.8156 29.6969 12.3031C29.1844 11.7905 29.1844 10.9595 29.6969 10.4469L32.3219 7.82192C32.8345 7.30936 33.6655 7.30936 34.1781 7.82192Z" fill="url(#paint2_linear_878_3132)"/>
<path fill-rule="evenodd" clip-rule="evenodd" d="M21 14.4375C21.7249 14.4375 22.3125 15.0251 22.3125 15.75V23.625C22.3125 24.3499 21.7249 24.9375 21 24.9375C20.2751 24.9375 19.6875 24.3499 19.6875 23.625V15.75C19.6875 15.0251 20.2751 14.4375 21 14.4375Z" fill="url(#paint3_linear_878_3132)"/>
<defs>
<linearGradient id="paint0_linear_878_3132" x1="21" y1="7.4375" x2="21" y2="39.8125" gradientUnits="userSpaceOnUse">
<stop stop-color="#367FD3"/>
<stop offset="1" stop-color="#2AA5DE"/>
</linearGradient>
<linearGradient id="paint1_linear_878_3132" x1="21" y1="2.1875" x2="21" y2="4.8125" gradientUnits="userSpaceOnUse">
<stop stop-color="#367FD3"/>
<stop offset="1" stop-color="#2AA5DE"/>
</linearGradient>
<linearGradient id="paint2_linear_878_3132" x1="31.9375" y1="7.4375" x2="31.9375" y2="12.6875" gradientUnits="userSpaceOnUse">
<stop stop-color="#367FD3"/>
<stop offset="1" stop-color="#2AA5DE"/>
</linearGradient>
<linearGradient id="paint3_linear_878_3132" x1="21" y1="14.4375" x2="21" y2="24.9375" gradientUnits="userSpaceOnUse">
<stop stop-color="#367FD3"/>
<stop offset="1" stop-color="#2AA5DE"/>
</linearGradient>
</defs>
</svg>
